<svg width="100" height="100" viewBox="0 0 100 100" fill="none" xmlns="http://www.w3.org/2000/svg">
<circle cx="50" cy="50" r="50" fill="white"/>
<path d="M42.5483 47.132C41.8771 47.8032 40.7889 47.8032 40.1177 47.132C39.4465 46.4608 39.4465 45.3725 40.1177 44.7013L49.2843 35.5347C49.9555 34.8634 51.0438 34.8634 51.715 35.5347L60.8817 44.7013C61.5529 45.3725 61.5529 46.4608 60.8817 47.132C60.2105 47.8032 59.1222 47.8032 58.451 47.132L52.2184 40.8994L52.2184 63.1042C52.2184 64.0534 51.4489 64.8229 50.4997 64.8229C49.5504 64.8229 48.7809 64.0534 48.7809 63.1042L48.7809 40.8994L42.5483 47.132Z" fill="#151515"/>
</svg>
