<svg width="100" height="100" viewBox="0 0 100 100" fill="none" xmlns="http://www.w3.org/2000/svg">
<rect width="100" height="100" rx="10" fill="#FDE332"/>
<path d="M41.9 58.28C44.9 58.28 46.9 55.66 46.9 50.54C46.9 45.44 44.9 42.94 41.9 42.94C38.88 42.94 36.88 45.44 36.88 50.54C36.88 55.66 38.88 58.28 41.9 58.28ZM41.9 55.98C40.62 55.98 39.66 54.7 39.66 50.54C39.66 46.4 40.62 45.2 41.9 45.2C43.18 45.2 44.12 46.4 44.12 50.54C44.12 54.7 43.18 55.98 41.9 55.98ZM53.3169 58.28C56.0369 58.28 58.4969 56.38 58.4969 53.1C58.4969 49.86 56.4169 48.4 53.9369 48.4C53.2569 48.4 52.7369 48.54 52.1569 48.8L52.4369 45.66H57.8169V43.2H49.8969L49.4769 50.38L50.8369 51.26C51.6969 50.7 52.1769 50.48 53.0569 50.48C54.5369 50.48 55.5369 51.44 55.5369 53.16C55.5369 54.92 54.4769 55.9 52.9169 55.9C51.5569 55.9 50.4969 55.22 49.6769 54.4L48.2969 56.26C49.4169 57.36 50.9769 58.28 53.3169 58.28Z" fill="#151515"/>
</svg>
