<svg width="100" height="100" viewBox="0 0 100 100" fill="none" xmlns="http://www.w3.org/2000/svg">
<rect width="100" height="100" rx="10" fill="#71B82B"/>
<path d="M41.9 58.28C44.9 58.28 46.9 55.66 46.9 50.54C46.9 45.44 44.9 42.94 41.9 42.94C38.88 42.94 36.88 45.44 36.88 50.54C36.88 55.66 38.88 58.28 41.9 58.28ZM41.9 55.98C40.62 55.98 39.66 54.7 39.66 50.54C39.66 46.4 40.62 45.2 41.9 45.2C43.18 45.2 44.12 46.4 44.12 50.54C44.12 54.7 43.18 55.98 41.9 55.98ZM54.5169 58H57.2569V43.2H53.7169L48.2169 52.16V54.18H59.0169V51.92H51.0769L53.3569 48.24C53.7769 47.44 54.1769 46.62 54.5569 45.82H54.6369C54.5969 46.7 54.5169 48.04 54.5169 48.9V58Z" fill="white"/>
</svg>
