<svg width="100" height="100" viewBox="0 0 100 100" fill="none" xmlns="http://www.w3.org/2000/svg">
<rect width="100" height="100" rx="10" fill="#71B82B"/>
<path d="M41.9 58.28C44.9 58.28 46.9 55.66 46.9 50.54C46.9 45.44 44.9 42.94 41.9 42.94C38.88 42.94 36.88 45.44 36.88 50.54C36.88 55.66 38.88 58.28 41.9 58.28ZM41.9 55.98C40.62 55.98 39.66 54.7 39.66 50.54C39.66 46.4 40.62 45.2 41.9 45.2C43.18 45.2 44.12 46.4 44.12 50.54C44.12 54.7 43.18 55.98 41.9 55.98ZM48.6369 58H58.5569V55.52H55.3569C54.6569 55.52 53.6769 55.62 52.9369 55.7C55.6369 53.06 57.8769 50.18 57.8769 47.48C57.8769 44.72 55.9969 42.94 53.2169 42.94C51.1969 42.94 49.8569 43.72 48.4969 45.18L50.1169 46.78C50.8769 45.94 51.7369 45.24 52.8369 45.24C54.2569 45.24 55.0369 46.16 55.0369 47.64C55.0369 49.92 52.6769 52.7 48.6369 56.32V58Z" fill="white"/>
</svg>
