<svg width="100" height="100" viewBox="0 0 100 100" fill="none" xmlns="http://www.w3.org/2000/svg">
<rect width="100" height="100" rx="10" fill="#FDE332"/>
<path d="M41.9 58.28C44.9 58.28 46.9 55.66 46.9 50.54C46.9 45.44 44.9 42.94 41.9 42.94C38.88 42.94 36.88 45.44 36.88 50.54C36.88 55.66 38.88 58.28 41.9 58.28ZM41.9 55.98C40.62 55.98 39.66 54.7 39.66 50.54C39.66 46.4 40.62 45.2 41.9 45.2C43.18 45.2 44.12 46.4 44.12 50.54C44.12 54.7 43.18 55.98 41.9 55.98ZM49.4169 58H58.3369V55.62H55.5569V43.2H53.3769C52.4169 43.78 51.4169 44.16 49.9169 44.44V46.26H52.6169V55.62H49.4169V58Z" fill="#151515"/>
</svg>
