<svg width="100" height="100" viewBox="0 0 100 100" fill="none" xmlns="http://www.w3.org/2000/svg">
<rect width="100" height="100" rx="10" fill="#FDE332"/>
<path d="M41.9 58.28C44.9 58.28 46.9 55.66 46.9 50.54C46.9 45.44 44.9 42.94 41.9 42.94C38.88 42.94 36.88 45.44 36.88 50.54C36.88 55.66 38.88 58.28 41.9 58.28ZM41.9 55.98C40.62 55.98 39.66 54.7 39.66 50.54C39.66 46.4 40.62 45.2 41.9 45.2C43.18 45.2 44.12 46.4 44.12 50.54C44.12 54.7 43.18 55.98 41.9 55.98ZM53.2569 58.28C56.0969 58.28 58.4769 56.72 58.4769 54C58.4769 52.04 57.1969 50.82 55.5169 50.34V50.24C57.0969 49.64 57.9769 48.46 57.9769 46.88C57.9769 44.34 56.0369 42.94 53.1769 42.94C51.4569 42.94 50.0369 43.64 48.7569 44.74L50.2569 46.56C51.1369 45.74 51.9969 45.24 53.0569 45.24C54.3169 45.24 55.0369 45.94 55.0369 47.1C55.0369 48.42 54.1569 49.34 51.4369 49.34V51.46C54.6569 51.46 55.5169 52.36 55.5169 53.82C55.5169 55.14 54.4969 55.9 52.9769 55.9C51.6369 55.9 50.5769 55.22 49.6969 54.36L48.2969 56.22C49.3369 57.42 50.9169 58.28 53.2569 58.28Z" fill="#151515"/>
</svg>
