<svg width="200" height="200" viewBox="0 0 200 200" fill="none" xmlns="http://www.w3.org/2000/svg">
<rect width="200" height="200" fill="white"/>
<path d="M27.5625 70.4572V62.645L167.662 61.0825L172.35 63.6866V81.3944L167.662 88.6858L162.975 91.2899L156.204 88.6858L151.517 83.4777L148.392 88.6858L141.101 90.2483L134.33 88.6858L130.684 82.436L127.559 88.6858L120.789 90.2483L114.539 88.6858L109.852 82.436L108.289 87.1234L100.998 90.2483L93.7063 88.6858L89.5397 82.436L86.4148 88.6858L80.6859 90.2483L73.9152 88.6858L68.7071 83.4777L66.103 87.1234L58.8115 90.2483L52.0409 88.6858L47.8744 83.4777L42.6662 88.6858L36.9372 90.2483L31.2082 88.6858L27.5625 82.436V70.4572Z" fill="#71B82B"/>
<path d="M27.3262 63.8878V80.2551C27.3262 85.9642 31.9543 90.5923 37.6634 90.5923C43.3725 90.5923 48.0007 85.9642 48.0007 80.2551V63.8878" stroke="#151515" stroke-width="3"/>
<path d="M48.002 63.8878V80.2551C48.002 85.9642 52.6301 90.5923 58.3392 90.5923C64.0483 90.5923 68.6764 85.9642 68.6764 80.2551V63.8878" stroke="#151515" stroke-width="3"/>
<path d="M68.6748 63.8878V80.2551C68.6748 85.9642 73.3029 90.5923 79.0121 90.5923C84.7212 90.5923 89.3493 85.9642 89.3493 80.2551V63.8878" stroke="#151515" stroke-width="3"/>
<path d="M89.3506 63.8878V80.2551C89.3506 85.9642 93.9787 90.5923 99.6878 90.5923C105.397 90.5923 110.025 85.9642 110.025 80.2551V63.8878" stroke="#151515" stroke-width="3"/>
<path d="M110.023 63.8878V80.2551C110.023 85.9642 114.652 90.5923 120.361 90.5923C126.07 90.5923 130.698 85.9642 130.698 80.2551V63.8878" stroke="#151515" stroke-width="3"/>
<path d="M130.698 63.8878V80.2551C130.698 85.9642 135.326 90.5923 141.035 90.5923C146.745 90.5923 151.373 85.9642 151.373 80.2551V63.8878" stroke="#151515" stroke-width="3"/>
<path d="M151.374 63.8878V80.2551C151.374 85.9642 156.002 90.5923 161.711 90.5923C167.42 90.5923 172.049 85.9642 172.049 80.2551V63.8878" stroke="#151515" stroke-width="3"/>
<path d="M28.2398 62.5032L39.3587 35.5H159.154L171.067 62.5032H28.2398Z" fill="#71B82B" stroke="#151515" stroke-width="3"/>
<path d="M166.309 90.0354V166.808H33.0596V90.0354" stroke="#151515" stroke-width="3"/>
<path d="M151.749 166.808V105.037H110.274V166.808" stroke="#151515" stroke-width="3"/>
<rect x="46.249" y="115.706" width="52.2066" height="32.4156" fill="#151515" stroke="#151515" stroke-width="3"/>
<path d="M62.457 120.456L72.179 107.956L83.2897 120.456" stroke="#151515" stroke-width="3"/>
<circle cx="72.3521" cy="107.435" r="2.60409" fill="#151515"/>
</svg>
