<svg width="598" height="526" viewBox="0 0 598 526" fill="none" xmlns="http://www.w3.org/2000/svg">
<rect x="79.0796" y="173.454" width="464.551" height="284.251" fill="white" stroke="#151515" stroke-width="2"/>
<rect x="78.0796" y="159.443" width="466.551" height="47.3986" fill="#151515"/>
<rect x="84.5854" y="167.807" width="44.6105" height="30.6697" rx="5" fill="white"/>
<rect x="135.702" y="167.807" width="44.6105" height="30.6697" rx="5" fill="white"/>
<rect x="186.818" y="167.807" width="44.6105" height="30.6697" rx="5" fill="white"/>
<rect x="237.934" y="167.807" width="44.6105" height="30.6697" rx="5" fill="white"/>
<rect x="289.05" y="167.807" width="44.6105" height="30.6697" rx="5" fill="white"/>
<rect x="340.167" y="167.807" width="44.6105" height="30.6697" rx="5" fill="white"/>
<rect x="391.283" y="167.807" width="44.6105" height="30.6697" rx="5" fill="white"/>
<rect x="442.398" y="167.807" width="44.6105" height="30.6697" rx="5" fill="white"/>
<rect x="493.515" y="167.807" width="44.6105" height="30.6697" rx="5" fill="white"/>
<rect x="78.0796" y="434.541" width="466.551" height="47.3986" fill="#151515"/>
<rect x="84.5854" y="442.905" width="44.6105" height="30.6697" rx="5" fill="white"/>
<rect x="135.702" y="442.905" width="44.6105" height="30.6697" rx="5" fill="white"/>
<rect x="186.818" y="442.905" width="44.6105" height="30.6697" rx="5" fill="white"/>
<rect x="237.934" y="442.905" width="44.6105" height="30.6697" rx="5" fill="white"/>
<rect x="289.05" y="442.905" width="44.6105" height="30.6697" rx="5" fill="white"/>
<rect x="340.167" y="442.905" width="44.6105" height="30.6697" rx="5" fill="white"/>
<rect x="391.283" y="442.905" width="44.6105" height="30.6697" rx="5" fill="white"/>
<rect x="442.398" y="442.905" width="44.6105" height="30.6697" rx="5" fill="white"/>
<rect x="493.515" y="442.905" width="44.6105" height="30.6697" rx="5" fill="white"/>
<circle cx="311.82" cy="315.115" r="66.451" fill="#71B82B"/>
<path d="M341.095 315.115L297.182 340.468L297.182 289.761L341.095 315.115Z" fill="white"/>
<path d="M390.324 21.4291C391.439 13.994 398.533 9.34711 401.941 7.95303C415.022 -5.37969 431.798 2.78272 440.046 13.0646C443.986 17.9772 442.275 22.2979 444.228 27.0054C451.663 31.4665 451.663 38.7776 450.734 41.8756C460.027 47.0801 459.253 57.9849 457.704 62.7867C467.741 70.5936 464.055 77.1922 460.957 79.5157C463.559 83.9767 467.617 110.805 469.321 123.661C472.574 127.844 472.574 138.532 472.109 142.249C471.738 145.223 466.688 145.967 464.21 145.967L466.068 157.584L457.704 158.978C452.592 167.188 441.719 184.629 439.116 188.718C436.514 192.808 434.005 197.857 433.075 199.871L449.804 263.069L445.622 264.463L447.945 270.969C448.72 272.363 450.641 276.081 452.128 279.798C453.986 284.445 453.057 284.445 452.128 287.233C451.384 289.464 438.187 293.429 431.681 295.133C427.034 297.302 417.74 300.338 417.74 295.133C417.74 289.928 427.964 280.573 433.075 276.545L430.287 269.575L423.781 270.969C416.191 253.93 400.547 218.18 398.688 211.488C396.829 204.797 396.984 198.787 397.294 196.618C396.365 199.871 393.948 207.771 391.718 213.347C389.487 218.923 387.381 248.819 386.606 263.069V269.575H380.565L379.171 277.475C384.004 288.999 381.185 294.358 379.171 294.668C369.103 293.739 341.362 293.274 341.996 288.627C342.566 284.445 359.654 276.081 364.301 276.081V267.716H361.513C361.358 249.593 361.141 211.953 361.513 206.377C361.884 200.8 371.891 178.03 376.847 167.343L372.201 115.297C369.412 114.987 363.278 113.81 361.048 111.579C358.26 108.791 360.583 102.75 362.442 96.2446C363.929 91.0401 368.948 90.3585 371.271 90.6683C376.847 77.2852 385.057 68.9827 388.465 66.5043C386.978 61.6715 387.845 54.2674 388.465 51.1694C384.376 43.7343 388 39.3972 390.324 38.158C389.859 35.6797 389.208 28.8642 390.324 21.4291Z" fill="white"/>
<path d="M390.788 22.8232C391.903 14.2728 398.378 9.0373 401.476 7.48833C402.732 6.74483 406.336 4.39038 407.982 3.30609C417.276 -0.411446 423.781 1.44732 433.54 7.02363C441.347 11.4847 443.918 22.2036 444.228 27.0054C451.663 30.3512 451.663 38.3129 450.733 41.8756C459.655 47.0801 459.098 57.9849 457.704 62.7867C467.369 69.4783 463.9 76.7275 460.957 79.5157C454.637 64.2738 439.736 61.0829 433.075 61.3927C431.526 61.3927 427.778 61.2068 425.175 60.4633C422.573 59.7198 423.162 53.9576 423.781 51.1694C424.153 49.6824 427.034 44.3539 428.428 41.8756L429.822 40.9462C434.934 37.6933 433.54 34.9052 433.075 31.6523C432.703 29.0501 429.822 29.6387 428.428 30.2583C426.105 27.9348 420.528 26.076 415.417 25.1466C411.327 24.4031 405.658 20.1899 403.335 18.1763C404.078 24.4961 400.547 28.2446 398.688 29.3289V31.6523C394.97 31.6523 394.506 33.0464 394.97 37.6933C395.342 41.4109 399.462 42.0305 401.476 41.8756C403.335 50.4259 408.137 52.8733 410.305 53.0282V59.5339C410.77 60.6182 410.026 62.7867 403.335 62.7867C396.643 62.7867 391.563 65.2651 389.859 66.5043C385.026 61.6715 387.225 54.2674 388.929 51.1694C385.212 44.4778 388.62 39.707 390.788 38.158C390.323 36.6091 389.673 31.3735 390.788 22.8232Z" fill="#151515"/>
<path d="M378.475 108.33C378.475 108.33 380.202 112.268 376.657 112.268C373.882 112.268 371.108 110.923 371.108 110.923" stroke="#151515" stroke-width="2" stroke-linecap="round" stroke-linejoin="round"/>
<path d="M410.149 102.223L407.257 112.193L416.231 110.797L419.022 101.026L410.149 102.223Z" fill="#151515" stroke="#151515" stroke-width="2" stroke-linecap="round" stroke-linejoin="round"/>
<path d="M389.112 105.214L385.5 115L395 113.5L398.882 103.718L389.112 105.214Z" fill="#151515" stroke="#151515" stroke-width="2" stroke-linecap="round" stroke-linejoin="round"/>
<path d="M363.912 268.736L364.085 275.475" stroke="#151515" stroke-width="2" stroke-linecap="round" stroke-linejoin="round"/>
<path d="M427.921 30.6986C427.921 30.6986 432.808 27.0152 433.984 33.5754C434.902 38.6995 429.207 41.2168 429.207 41.2168" stroke="#151515" stroke-width="2" stroke-linecap="round" stroke-linejoin="round"/>
<path d="M445.986 264.655L447.847 271.397" stroke="#151515" stroke-width="2" stroke-linecap="round" stroke-linejoin="round"/>
<path d="M443.15 73.6083L449.032 82.0831L455.314 79.9891L452.223 71.0159L443.15 73.6083Z" fill="#151515" stroke="#151515" stroke-width="2" stroke-linecap="round" stroke-linejoin="round"/>
<path d="M460.244 104.776L462.769 126.272" stroke="#151515" stroke-width="2" stroke-linecap="round" stroke-linejoin="round"/>
<path d="M398.833 29.121C398.833 29.121 400.455 49.6289 409.314 52.7053C415.406 54.8209 420.123 53.2824 423.071 50.8784C426.183 48.3401 428.932 41.3966 428.932 41.3966" stroke="#151515" stroke-width="2" stroke-linecap="round" stroke-linejoin="round"/>
<path d="M420.676 263.241L423.949 270.748L450.567 263.097L448.264 255.242" stroke="#151515" stroke-width="2" stroke-linecap="round" stroke-linejoin="round"/>
<path d="M409.872 53.1351C409.872 53.1351 410.796 58.7458 410.006 60.9836C409.217 63.2209 402.779 62.7901 402.779 62.7901" stroke="#151515" stroke-width="2" stroke-linecap="round" stroke-linejoin="round"/>
<path d="M422.611 80.4878L428.892 88.1646L437.367 85.373L431.485 77.5965L422.611 80.4878Z" fill="#151515" stroke="#151515" stroke-width="2" stroke-linecap="round" stroke-linejoin="round"/>
<path d="M416.107 27.4768C416.336 25.8313 422.217 25.2352 423.432 27.003C424.647 28.7709 421.642 28.5684 419.778 28.6305C417.914 28.6925 415.903 28.9405 416.107 27.4768Z" fill="#151515"/>
<path d="M376.885 167.61C376.885 167.61 363.546 195.738 361.805 204.446C360.645 210.245 361.501 260.683 361.501 260.683L386.549 262.622C386.549 262.622 389.791 218.385 391.768 212.851C393.744 207.318 397.237 198.265 397.237 198.265" stroke="#151515" stroke-width="2" stroke-linecap="round" stroke-linejoin="round"/>
<path d="M403.1 86.5067L409.589 93.9574L416.833 91.6462L410.846 83.9773L403.1 86.5067Z" fill="#151515" stroke="#151515" stroke-width="2" stroke-linecap="round" stroke-linejoin="round"/>
<path d="M408.968 27.4686C408.003 26.2888 401.126 26.4479 401.114 28.6361C401.107 30.0729 402.591 29.6014 403.575 29.5718C408.315 29.4291 409.912 28.6226 408.968 27.4686Z" fill="#151515"/>
<path d="M432.946 276.639C422.931 285.896 422.352 286.803 419.03 291.543C416.4 295.298 418.613 298.049 422.495 297.3C426.515 296.524 445.581 292.645 452.59 286.907C455.483 284.539 448.714 271.653 448.315 271.92C440.328 277.272 433.058 276.536 432.946 276.639Z" stroke="#151515" stroke-width="2" stroke-linecap="round" stroke-linejoin="round"/>
<path d="M430.386 269.97L432.794 276.032" stroke="#151515" stroke-width="2" stroke-linecap="round" stroke-linejoin="round"/>
<path d="M406.827 165.323C406.827 165.323 397.291 191.244 396.858 202.753C396.456 213.432 420.798 263.213 420.798 263.213L448.283 256.165C448.283 256.165 433.23 204.044 432.784 199.744C432.485 196.864 447.831 178.302 457.612 158.928" stroke="#151515" stroke-width="2" stroke-linecap="round" stroke-linejoin="round"/>
<path d="M455.763 138.067C455.391 138.388 453.564 139.174 454.353 141.615C455.012 143.656 458.547 142.363 458.547 142.363L464.275 140.835" stroke="#151515" stroke-width="2" stroke-linecap="round" stroke-linejoin="round"/>
<path d="M382.671 93.3563L389.521 100.446L398.293 97.923L391.684 90.3521L382.671 93.3563Z" fill="#151515" stroke="#151515" stroke-width="2" stroke-linecap="round" stroke-linejoin="round"/>
<path d="M413.144 37.2726C413.144 37.2726 412.274 37.8222 412.274 38.8912C412.274 39.9598 413.669 40.0153 413.669 40.0153" stroke="#151515" stroke-width="2" stroke-linecap="round" stroke-linejoin="round"/>
<path d="M402.979 62.6907C402.979 62.6907 405.31 70.9677 416.056 71.1035C419.714 71.1498 429.658 69.8793 433.602 61.9902" stroke="#151515" stroke-width="2" stroke-linecap="round" stroke-linejoin="round"/>
<path d="M361.444 261.386L361.147 267.699L386.55 269.563V262.32" stroke="#151515" stroke-width="2" stroke-linecap="round" stroke-linejoin="round"/>
<path d="M445.804 88.331L447.408 96.8878" stroke="#151515" stroke-width="2" stroke-linecap="round" stroke-linejoin="round"/>
<path d="M371.466 117.077L377.297 169.085L465.888 157.612L464.389 146.759" stroke="#151515" stroke-width="2" stroke-linecap="round" stroke-linejoin="round"/>
<path d="M453.713 133.653C452.352 135.851 453.17 136.944 454.651 137.896C455.848 138.666 463.799 136.272 463.799 136.272" stroke="#151515" stroke-width="2" stroke-linecap="round" stroke-linejoin="round"/>
<path d="M451.305 97.2192L448.293 106.366L459.894 104.693L458.778 95.992L451.305 97.2192Z" fill="#151515" stroke="#151515" stroke-width="2" stroke-linecap="round" stroke-linejoin="round"/>
<path d="M402.063 7.65475C402.063 7.65475 386.15 12.6698 390.601 38.0092C390.601 38.0092 383.818 44.5944 389.387 51.6025C389.387 51.6025 384.107 58.4811 389.619 66.6208" stroke="#151515" stroke-width="2" stroke-linecap="round" stroke-linejoin="round"/>
<path d="M410.303 45.1531C412.086 46.2543 416.7 47.0408 419.375 44.2092" stroke="#151515" stroke-width="2" stroke-linecap="round" stroke-linejoin="round"/>
<path d="M423.842 50.7917C423.842 50.7917 422.312 59.134 425.713 60.6302C429.113 62.1264 433.466 61.5823 433.466 61.5823" stroke="#151515" stroke-width="2" stroke-linecap="round" stroke-linejoin="round"/>
<path d="M402.58 62.6907C402.58 62.6907 394.517 62.6907 386.353 68.664C378.742 74.233 370.504 90.7659 370.504 90.7659" stroke="#151515" stroke-width="2" stroke-linecap="round" stroke-linejoin="round"/>
<path d="M379.432 103.814C379.432 103.814 380.58 106.12 379.145 107.465C377.71 108.81 371.874 106.6 371.874 106.6" stroke="#151515" stroke-width="2" stroke-linecap="round" stroke-linejoin="round"/>
<path d="M379.948 106.132L458.888 95.7377L460.245 105.101L371.466 117.077L371.517 115.621" stroke="#151515" stroke-width="2" stroke-linecap="round" stroke-linejoin="round"/>
<path d="M433.466 61.4462C433.466 61.4462 457.503 61.5847 462.182 83.5084C466.861 105.432 468.788 122.765 468.788 122.765" stroke="#151515" stroke-width="2" stroke-linecap="round" stroke-linejoin="round"/>
<path d="M465.175 126.134C465.175 126.134 454.027 127.214 452.928 129.674C451.348 133.211 454.76 133.286 454.76 133.286L462.612 131.559" stroke="#151515" stroke-width="2" stroke-linecap="round" stroke-linejoin="round"/>
<path d="M402.521 7.21569C402.521 7.21569 412.865 -4.35545 430.518 5.27918C444.543 12.9337 443.988 27.1973 443.988 27.1973C443.988 27.1973 453.003 30.4183 450.57 41.9016C450.57 41.9016 461.875 47.5034 457.624 62.6884C457.624 62.6884 468.788 69.623 461.641 79.3893" stroke="#151515" stroke-width="2" stroke-linecap="round" stroke-linejoin="round"/>
<path d="M419.46 31.2242C420.084 31.2242 420.589 31.7416 420.589 32.3798V33.1502C420.589 33.7884 420.084 34.3055 419.46 34.3055C418.837 34.3055 418.332 33.7884 418.332 33.1502V32.3798C418.332 31.7416 418.837 31.2242 419.46 31.2242Z" fill="#151515"/>
<path d="M368.945 96.1318C368.945 96.1318 381.441 97.2815 381.154 101.124C380.836 105.377 376.619 103.286 373.081 102.397" stroke="#151515" stroke-width="2" stroke-linecap="round" stroke-linejoin="round"/>
<path d="M403.532 18.2797C403.532 18.2797 403.486 24.4057 398.984 29.5298" stroke="#151515" stroke-width="2" stroke-linecap="round" stroke-linejoin="round"/>
<path d="M379.816 103.946L455.667 80.3877L452.362 70.4076L372.186 96.4494" stroke="#151515" stroke-width="2" stroke-linecap="round" stroke-linejoin="round"/>
<path d="M363.567 276.166C349.397 280.141 344.04 284.634 344.04 284.634C344.04 284.634 338.511 289.645 343.868 291.2C346.569 291.984 378.255 296.902 381.019 293.101C383.784 289.299 380.483 276.97 379.81 277.203C370.824 280.314 363.733 276.12 363.567 276.166Z" stroke="#151515" stroke-width="2" stroke-linecap="round" stroke-linejoin="round"/>
<path d="M407.74 32.0257C408.363 32.0257 408.869 32.5432 408.869 33.1813V33.9517C408.869 34.5899 408.363 35.1073 407.74 35.1073C407.117 35.1073 406.611 34.5899 406.611 33.9517V33.1813C406.611 32.5432 407.117 32.0257 407.74 32.0257Z" fill="#151515"/>
<path d="M456.496 143.656C456.496 143.656 455.96 145.538 458.269 145.978C459.572 146.227 462.156 146.291 464.246 145.856C471.636 144.318 472.005 143.75 472.27 138.938C472.483 135.069 472.394 130.274 469.907 124.707C468.781 122.187 462.876 121.781 462.876 121.781" stroke="#151515" stroke-width="2" stroke-linecap="round" stroke-linejoin="round"/>
<path d="M403.486 18.0229C403.486 18.0229 408.773 24.2735 417.725 25.7542C424.247 26.8331 428.564 29.9793 428.564 29.9793" stroke="#151515" stroke-width="2" stroke-linecap="round" stroke-linejoin="round"/>
<path d="M376.657 112.941C376.657 112.941 376.712 114.594 374.839 115.15C372.966 115.707 363.611 114.511 360.679 110.155C357.748 105.799 361.579 98.6662 363.643 94.8758C365.708 91.0855 368.331 91.3591 371.144 91.0061C373.959 90.6527 379.39 93.3275 379.39 93.3275" stroke="#151515" stroke-width="2" stroke-linecap="round" stroke-linejoin="round"/>
<path d="M429.79 99.83L427.497 109.501L436.47 108.006L438.962 98.7331L429.79 99.83Z" fill="#151515" stroke="#151515" stroke-width="2" stroke-linecap="round" stroke-linejoin="round"/>
<path d="M380.501 269.427L379.81 276.339" stroke="#151515" stroke-width="2" stroke-linecap="round" stroke-linejoin="round"/>
<path d="M398.984 31.7774C398.984 31.7774 394.275 31.215 394.943 36.722C395.61 42.2287 401.281 41.9361 401.281 41.9361" stroke="#151515" stroke-width="2" stroke-linecap="round" stroke-linejoin="round"/>
<path d="M524.973 234.723C526.46 227.288 531.014 222.812 533.337 221.883C538.139 217.545 550.531 213.812 560.754 221.883C572.308 231.004 569.118 244.498 566.795 249.299C566.795 253.017 563.232 255.495 561.219 256.27C560.103 260.731 555.642 266.167 553.783 267.716C553.938 268.336 554.341 269.095 554.713 272.069C555.085 275.043 559.824 274.858 562.148 274.393C564.471 274.703 570.791 275.973 577.483 278.575C584.174 281.177 588.326 287.714 589.565 290.657L595.141 307.68L597 323.015L595.606 333.238L590.029 337.885L581.665 338.985L583.059 369.948L582.594 372.737L583.524 392.889V423.388L582.594 461.493L579.342 500.062L577.483 500.698V507.204C577.483 506.584 577.762 506.553 578.877 511.386C579.992 516.219 578.412 518.356 577.483 518.821L554.248 521.145C551.305 521.454 546.162 521.345 547.278 517.256C548.393 513.167 558.74 508.753 564.007 507.204V500.062L559.36 499.769L546.348 401.083L536.59 440.117L540.307 498.668L538.913 500.062L540.307 507.497C543.281 513.445 542.011 518.34 541.237 520.044L527.296 523.468C527.296 523.468 508.708 527.031 510.567 521.145C512.798 514.081 522.184 511.215 526.367 509.527L524.508 502.85L521.72 502.092C517.228 486.448 506.849 452.943 504.991 444.764C502.667 434.541 505.92 423.388 506.849 418.276C507.398 415.26 513.2 389.156 515.679 376.919L516.608 342.703H513.82L512.426 345.956L508.244 348.108L497.556 347.35L492.909 345.956L490.585 343.167H478.503L477.109 341.138L471.998 303.497L472.462 300.709L474.786 298.557L509.173 298.386C510.567 289.092 517.073 283.516 522.649 279.798C527.11 276.824 535.97 274.548 539.843 274.393V268.352C534.638 266.493 533.182 259.816 532.408 256.563C527.575 254.333 526.521 250.074 527.296 248.37C525.747 246.666 523.485 242.158 524.973 234.723Z" fill="white"/>
<path d="M524.508 239.37C525.251 227.845 531.323 223.106 534.266 222.176C537.612 217.343 545.264 216.755 548.672 217.065C553.319 217.839 563.542 221.34 567.26 229.147C570.977 236.953 568.808 245.411 567.26 248.664C565.401 243.459 561.838 245.566 560.289 247.27C557.687 248.013 553.629 245.101 551.925 243.552C543.374 244.296 535.97 236.427 533.337 232.399C534.08 237.976 531.478 244.017 530.084 246.34L527.296 247.734L524.508 242.623V239.37Z" fill="#151515"/>
<path d="M479.897 342.996H494.767V335.561L495.232 333.238L497.091 332.308L498.95 332.773L499.879 331.379H501.738L503.597 332.773L504.991 331.379H507.314L508.708 332.773H509.638H511.961L513.82 335.561V342.532H534.266L536.59 340.673L539.843 331.379L531.014 329.52L527.296 301.639L525.902 299.78L522.649 298.85H475.25L472.927 299.78L471.998 302.568L477.109 341.602L479.897 342.996Z" fill="white"/>
<path d="M533.69 232.595C533.69 232.595 540.476 243.511 551.683 243.511C552.054 243.511 555.757 247.619 560.685 246.918" stroke="#151515" stroke-width="2" stroke-linecap="round" stroke-linejoin="round"/>
<path d="M545.039 252.919C545.039 252.919 543.81 253.634 543.81 254.816C543.81 255.998 545.615 255.953 545.615 255.953" stroke="#151515" stroke-width="2" stroke-linecap="round" stroke-linejoin="round"/>
<path d="M524.602 502.78L526.9 510.135" stroke="#151515" stroke-width="2" stroke-linecap="round" stroke-linejoin="round"/>
<path d="M546.386 332.952C546.386 332.952 539.992 331.719 531.203 329.722" stroke="#151515" stroke-width="2" stroke-linecap="round" stroke-linejoin="round"/>
<path d="M574.571 303.827L576.855 322.655" stroke="#151515" stroke-width="2" stroke-linecap="round" stroke-linejoin="round"/>
<path d="M560.476 247.43C561.477 245.426 565.41 244.538 566.708 248.083C568.674 253.452 562.071 255.921 562.071 255.921" stroke="#151515" stroke-width="2" stroke-linecap="round" stroke-linejoin="round"/>
<path d="M541.965 261.253C545.438 262.553 549.606 261.453 551.094 260.353" stroke="#151515" stroke-width="2" stroke-linecap="round" stroke-linejoin="round"/>
<path d="M544.234 247.434C544.234 247.434 545.458 246.925 547.104 247.462" stroke="#151515" stroke-width="2" stroke-linecap="round" stroke-linejoin="round"/>
<path d="M564.254 507.606C564.254 507.606 554.329 510.074 549.141 514.956C545.728 518.168 547.47 520.579 549.613 521.249C550.175 521.425 577.543 519.949 578.817 518.348C580.707 515.972 578.364 507.283 578.364 507.283C578.364 507.283 569.585 509.101 564.59 507.606" stroke="#151515" stroke-width="2" stroke-linecap="round" stroke-linejoin="round"/>
<path d="M548.001 323.926C548.001 323.926 545.246 322.881 541.065 319.84C536.728 316.687 537.55 315.375 530.043 319.08" stroke="#151515" stroke-width="2" stroke-linecap="round" stroke-linejoin="round"/>
<path d="M562.925 274.636C562.925 274.636 582.457 275.949 589.129 290.061C597.083 306.884 597.062 324.214 596.119 330.277C594.898 338.119 585.605 339.817 574.001 339.761C563.619 339.71 546.611 334.714 546.611 334.714L548.433 323.393C548.433 323.393 567.373 323.603 579.726 322.997" stroke="#151515" stroke-width="2" stroke-linecap="round" stroke-linejoin="round"/>
<path d="M531.093 244.724C531.093 244.724 531.202 262.135 537.4 266.837C543.058 271.129 547.445 270.458 550.57 269.636C554.758 268.534 559.954 261.796 561.514 256.107" stroke="#151515" stroke-width="2" stroke-linecap="round" stroke-linejoin="round"/>
<path d="M551.972 246.231C552.656 246.231 553.21 246.803 553.21 247.509V248.361C553.21 249.066 552.656 249.638 551.972 249.638C551.287 249.638 550.733 249.066 550.733 248.361V247.509C550.733 246.803 551.287 246.231 551.972 246.231Z" fill="#151515"/>
<path d="M552.033 243.516H552.618C555.039 243.516 557.002 245.542 557.002 248.04C557.002 250.538 555.039 252.564 552.618 252.564H552.033C549.611 252.564 547.648 250.538 547.648 248.04C547.648 245.542 549.611 243.516 552.033 243.516Z" stroke="#151515" stroke-width="2" stroke-linecap="round" stroke-linejoin="round"/>
<path d="M578.037 500.753V507.283" stroke="#151515" stroke-width="2" stroke-linecap="round" stroke-linejoin="round"/>
<path d="M491.795 344.108C491.795 344.108 493.266 347.145 497.751 347.145" stroke="#151515" stroke-width="2" stroke-linecap="round" stroke-linejoin="round"/>
<path d="M554.367 268.005C554.367 268.005 554.604 272.876 555.441 273.713C556.751 275.023 560.103 274.296 563.367 274.995" stroke="#151515" stroke-width="2" stroke-linecap="round" stroke-linejoin="round"/>
<path d="M538.662 243.707H539.246C541.668 243.707 543.631 245.732 543.631 248.231C543.631 250.729 541.668 252.755 539.246 252.755H538.662C536.24 252.755 534.277 250.729 534.277 248.231C534.277 245.732 536.24 243.707 538.662 243.707Z" stroke="#151515" stroke-width="2" stroke-linecap="round" stroke-linejoin="round"/>
<path d="M538.966 246.4C539.65 246.4 540.205 246.972 540.205 247.678V248.53C540.205 249.235 539.65 249.808 538.966 249.808C538.282 249.808 537.728 249.235 537.728 248.53V247.678C537.728 246.972 538.282 246.4 538.966 246.4Z" fill="#151515"/>
<path d="M563.889 500.394L564.421 507.497" stroke="#151515" stroke-width="2" stroke-linecap="round" stroke-linejoin="round"/>
<path d="M508.917 333.641C508.917 333.641 510.205 331.16 512.495 333.116C513.606 334.065 513.688 338.985 513.831 341.18C514.004 343.832 513.067 347.094 508.869 347.526C504.671 347.958 501.282 348.624 496.893 346.715" stroke="#151515" stroke-width="2" stroke-linecap="round" stroke-linejoin="round"/>
<path d="M540.411 268.799C540.531 271.923 540.78 274.32 540.78 274.32C540.78 274.32 535.876 275.66 533.036 276.206" stroke="#151515" stroke-width="2" stroke-linecap="round" stroke-linejoin="round"/>
<path d="M550.08 240.188C550.701 238.461 557.24 239.44 558.142 241.631C559.044 243.822 555.848 242.423 553.832 242.063C551.817 241.702 549.527 241.725 550.08 240.188Z" fill="#151515"/>
<path d="M545.972 381.865L546.271 401.592" stroke="#151515" stroke-width="2" stroke-linecap="round" stroke-linejoin="round"/>
<path d="M546.144 400.76L536.815 440.501L540.38 499.583C540.38 499.583 528.7 504.295 521.529 502.041" stroke="#151515" stroke-width="2" stroke-linecap="round" stroke-linejoin="round"/>
<path d="M503.764 332.687C503.764 332.687 505.034 329.906 507.438 331.446C509.299 332.639 508.917 340.035 508.917 340.035" stroke="#151515" stroke-width="2" stroke-linecap="round" stroke-linejoin="round"/>
<path d="M531.186 246.59C531.186 246.59 527.831 245.858 527.476 249.856C527.012 255.081 532.206 256.76 532.206 256.76" stroke="#151515" stroke-width="2" stroke-linecap="round" stroke-linejoin="round"/>
<path d="M541.638 382.463C541.638 382.463 541.876 391.04 542.232 393.531C542.525 395.582 545.972 398.901 545.972 398.901" stroke="#151515" stroke-width="2" stroke-linecap="round" stroke-linejoin="round"/>
<path d="M540.844 240.741C539.514 238.195 531.848 240.784 532.496 243.114C532.921 244.644 535.205 243.114 536.204 242.699C537.761 242.053 539.112 242.16 539.776 242.053C540.903 241.872 541.226 241.473 540.844 240.741Z" fill="#151515"/>
<path d="M582.437 372.45C587.441 413.808 579.445 500.57 579.445 500.57L559.542 500.23C559.542 500.23 556.427 477.778 553.587 452.596C550.748 427.414 546.442 399.348 546.442 399.348" stroke="#151515" stroke-width="2" stroke-linecap="round" stroke-linejoin="round"/>
<path d="M499.196 334.079C499.196 334.079 499.164 331.518 501.578 331.518C503.127 331.518 503.734 332.341 503.96 334.913C504.187 337.485 504.318 340.452 504.318 340.452" stroke="#151515" stroke-width="2" stroke-linecap="round" stroke-linejoin="round"/>
<path d="M534.301 222.012C534.301 222.012 528.589 222.985 525.529 233.901C522.468 244.817 527.847 247.99 527.847 247.99" stroke="#151515" stroke-width="2" stroke-linecap="round" stroke-linejoin="round"/>
<path d="M526.812 510.174C526.812 510.174 535.04 511.213 540.366 507.284" stroke="#151515" stroke-width="2" stroke-linecap="round" stroke-linejoin="round"/>
<path d="M515.481 377.573C515.481 377.573 503.969 424.864 504.593 437.966C505.273 452.256 521.488 502.056 521.488 502.056" stroke="#151515" stroke-width="2" stroke-linecap="round" stroke-linejoin="round"/>
<path d="M498.367 347.287C498.367 347.287 495.014 346.677 494.833 341.176C494.676 336.379 494.261 335.673 494.967 333.662C495.741 331.459 498.973 331.68 499.136 334.258C499.3 336.836 499.851 340.869 499.851 340.869" stroke="#151515" stroke-width="2" stroke-linecap="round" stroke-linejoin="round"/>
<path d="M534.339 221.865C534.339 221.865 536.194 217.853 545.655 217.107C555.115 216.36 575.547 225.514 567.275 249.802" stroke="#151515" stroke-width="2" stroke-linecap="round" stroke-linejoin="round"/>
<path d="M526.371 509.938C526.371 509.938 513.088 513.593 510.652 521.483C509.391 525.571 516.555 524.946 516.555 524.946C516.555 524.946 540.975 521.324 541.433 520.306C542.48 517.976 542.529 512.963 540.464 507.457" stroke="#151515" stroke-width="2" stroke-linecap="round" stroke-linejoin="round"/>
<path d="M516.369 343.174C516.369 343.174 514.969 375.806 515.65 376.552C518.814 380.017 533.51 381.591 546.801 381.591C560.093 381.591 582.185 376.274 582.808 371.497C583.431 366.721 581.929 340.668 581.929 340.668" stroke="#151515" stroke-width="2" stroke-linecap="round" stroke-linejoin="round"/>
<path d="M494.978 343.241C494.978 343.241 481.264 343.402 481.007 343.413C476.807 343.584 476.635 339.641 476.635 339.641L472.092 304.069C472.092 304.069 471.046 299.086 475.913 298.882C481.755 298.636 523.007 298.584 523.007 298.584C523.007 298.584 526.95 298.412 527.464 302.269L531.407 334.841" stroke="#151515" stroke-width="2" stroke-linecap="round" stroke-linejoin="round"/>
<path d="M533.69 232.781C533.69 232.781 532.763 243.511 529.609 246.59" stroke="#151515" stroke-width="2" stroke-linecap="round" stroke-linejoin="round"/>
<path d="M539.036 500.662L540.164 507.875" stroke="#151515" stroke-width="2" stroke-linecap="round" stroke-linejoin="round"/>
<path d="M514.527 342.909C514.527 342.909 531.505 342.5 531.738 342.492C534.763 342.388 535.389 341.553 536.849 339.571C536.937 339.452 539.77 331.852 539.77 331.852" stroke="#151515" stroke-width="2" stroke-linecap="round" stroke-linejoin="round"/>
<path d="M563.367 275.112C563.367 275.112 560.686 283.971 548.185 284.15C536.605 284.316 532.807 276.176 532.807 276.176C532.807 276.176 520.461 276.47 513.04 289.063C509.436 295.179 508.927 298.547 508.927 298.547" stroke="#151515" stroke-width="2" stroke-linecap="round" stroke-linejoin="round"/>
<path fill-rule="evenodd" clip-rule="evenodd" d="M116.708 222.641C113.61 220.163 104.533 215.763 93.0091 217.994C81.4847 220.225 77.6743 230.696 77.2096 235.652C76.1253 240.144 75.7225 250.151 82.7859 254.24C82.9408 256.099 83.5294 260.002 84.6446 260.746C84.0251 263.689 81.6706 269.482 77.2096 269.11L76.2802 267.251C75.041 266.012 70.7968 263.627 63.7335 263.999C58.3121 263.379 44.4952 264.649 32.5991 274.686C20.703 284.724 16.4897 293.739 15.8702 296.992C13.2369 302.878 7.41276 316.788 5.18223 325.338C2.39408 336.026 1 344.855 1 347.643L3.32346 350.431C2.39408 360.964 0.814123 386.027 1.92938 402.012C3.04465 417.998 6.42141 448.327 7.97039 461.493L12.1526 485.657L13.082 496.345H15.8702L17.2642 504.709C15.8702 507.033 13.9185 512.609 17.2642 516.327L19.5877 517.256H44.6811C46.8497 517.101 50.6292 516.141 48.3986 513.538C46.1681 510.936 36.9362 506.568 32.5991 504.709L31.205 503.78V495.415H34.9226L35.3872 486.122L34.9226 482.869L36.3166 435.47C36.4715 433.456 36.9672 427.849 37.7107 421.529C38.4542 415.209 41.738 396.281 43.287 387.607L54.9043 431.288V484.727L53.9749 486.122V493.092L54.9043 495.415L56.7631 496.345V503.78C55.369 505.484 53.2314 510.379 55.8337 516.327L67.451 517.256H84.6446L86.9681 516.327V513.538C85.1093 511.989 79.3472 508.055 71.1686 504.709L70.7039 496.809H74.4214L75.8155 491.233L75.3508 486.586C78.4487 472.955 84.6446 443.463 84.6446 434.541C84.6446 425.619 83.4055 416.882 82.7859 413.63L74.8861 371.343L75.8155 370.413L84.6446 333.238L98.5854 336.026C101.064 338.659 107.508 343.554 113.456 342.067L116.708 339.279V336.955L118.103 335.096C121.046 334.942 128.326 333.424 133.902 328.591L135.296 329.985V339.279H129.72L128.79 340.673V346.714L131.114 347.643H148.772L150.166 346.714V340.673L148.772 339.279H144.125V328.591H150.166L151.096 326.267V323.479H166.431L169.219 321.62L170.148 319.297V313.721H173.866L176.189 316.044H180.371L180.836 314.185L194.777 321.62V286.768L180.836 292.809L179.442 291.88H175.26L173.866 293.739H169.219L170.148 287.698L178.513 277.475H185.948L187.342 275.616V272.363L185.018 270.969H172.472L171.542 273.292V276.545L172.472 277.475L166.431 284.91H163.178V281.192L162.248 279.333H115.314L113.92 280.727V284.91H110.203L107.879 286.768L106.95 290.951L103.232 289.557L101.374 287.698V285.839L97.1913 280.727L93.9385 276.545L97.1913 269.11L100.909 268.645L106.95 265.393L112.991 255.169L118.103 240.764C120.891 240.299 126.374 238.255 126.002 233.794C126.932 233.484 128.697 232.214 128.326 229.611C126.467 229.782 122.006 229.278 119.032 225.894L116.708 222.641ZM86.9681 320.691L90.6856 310.468C93.0091 314.03 98.4925 321.62 101.838 323.479L86.9681 320.691Z" fill="white"/>
<path d="M76.7448 244.481C77.1165 250.801 80.927 253.62 82.7858 254.24L83.7152 250.058C81.9867 250.213 80.1279 245.876 80.927 243.552C82.8449 237.976 86.3731 238.75 87.8974 239.835L92.0796 234.723C97.2842 236.953 103.542 234.723 106.02 233.329C109.738 238.905 115.934 240.299 118.567 240.299C125.259 238.812 126.312 235.343 126.002 233.794C127.861 233.794 128.635 231.005 128.79 229.611C126.622 229.456 121.355 228.124 117.638 224.035C112.991 218.923 109.273 218.923 104.626 217.529C99.9794 216.135 90.2209 217.065 84.6446 221.712C79.0682 226.358 76.2801 236.582 76.7448 244.481Z" fill="#151515"/>
<path d="M139.635 348.196L140.419 510.465" stroke="#151515" stroke-width="2" stroke-linecap="round" stroke-linejoin="round"/>
<path d="M113.218 243.451C114.254 242.153 117.628 243.009 117.771 245.149C117.914 247.289 116.481 246.475 114.846 245.577C113.211 244.68 112.296 244.606 113.218 243.451Z" fill="#151515"/>
<path d="M34.46 288.171C34.46 288.171 43.6592 317.97 50.0131 324.709" stroke="#151515" stroke-width="2" stroke-linecap="round" stroke-linejoin="round"/>
<path d="M101.303 286.963L102.846 289.188" stroke="#151515" stroke-width="2" stroke-linecap="round" stroke-linejoin="round"/>
<path d="M180.675 292.514L194.985 286.295L195.17 321.503L181.009 315.339L180.675 292.514Z" stroke="#151515" stroke-width="2" stroke-linecap="round" stroke-linejoin="round"/>
<path d="M71.204 505.037C71.204 505.037 64.8531 508.786 56.5601 504.284" stroke="#151515" stroke-width="2" stroke-linecap="round" stroke-linejoin="round"/>
<path d="M108.23 252.896C108.23 252.896 108.799 253.696 108.333 254.652C107.867 255.608 106.547 255.164 106.547 255.164" stroke="#151515" stroke-width="2" stroke-linecap="round" stroke-linejoin="round"/>
<path d="M60.4948 332.346C60.4948 332.346 53.6379 355.049 50.0789 366.974C49.5884 368.617 39.1908 366.297 30.6114 363.036C23.1995 360.219 7.8803 356.525 1.30092 347.943C-1.04357 344.885 10.7408 301.287 21.7218 286.237C32.7028 271.186 48.2805 262.474 64.2156 264.151" stroke="#151515" stroke-width="2" stroke-linecap="round" stroke-linejoin="round"/>
<path d="M100.373 288.455C101.593 286.84 101.499 286.66 101.641 285.984C101.954 284.499 97.0311 279.967 97.0311 279.967L92.2646 285.671L95.0789 296.48C95.0789 296.48 96.5714 294.139 97.7165 292.623" stroke="#151515" stroke-width="2" stroke-linecap="round" stroke-linejoin="round"/>
<path d="M169.846 294.013H174.265V313.847H169.846V294.013Z" stroke="#151515" stroke-width="2" stroke-linecap="round" stroke-linejoin="round"/>
<path d="M17.138 504.881C17.138 504.881 23.781 508.398 31.8489 504.424C32.2679 504.218 47.0769 509.675 48.5645 513.614C49.6234 516.416 47.427 517.202 42.9637 517.377C34.503 517.709 18.4179 518.074 17.138 516.321C13.8205 511.776 17.138 504.881 17.138 504.881Z" stroke="#151515" stroke-width="2" stroke-linecap="round" stroke-linejoin="round"/>
<path d="M113.1 247.528C113.65 247.822 113.851 248.517 113.55 249.079L113.186 249.758C112.885 250.321 112.195 250.538 111.646 250.244C111.096 249.949 110.895 249.255 111.196 248.692L111.56 248.013C111.861 247.451 112.551 247.233 113.1 247.528Z" fill="#151515"/>
<path d="M76.7359 267.537C72.9833 264.446 64.2277 263.593 64.1532 264.115C62.3286 276.924 72.8675 289.491 72.8675 289.491L80.5 280.04L76.187 267.959" stroke="#151515" stroke-width="2" stroke-linecap="round" stroke-linejoin="round"/>
<path d="M77.4184 331.929C76.6519 335.462 68.7746 367.359 68.795 369.11C68.8153 370.861 75.6778 371.247 75.6778 371.247L84.2657 333.513" stroke="#151515" stroke-width="2" stroke-linecap="round" stroke-linejoin="round"/>
<path d="M150.687 323.621V326.816C150.687 327.722 149.952 328.457 149.046 328.457H129.502C128.596 328.457 127.862 327.722 127.862 326.816V323.719" stroke="#151515" stroke-width="2" stroke-linecap="round" stroke-linejoin="round"/>
<path d="M56.7586 495.955L56.6021 504.567" stroke="#151515" stroke-width="2" stroke-linecap="round" stroke-linejoin="round"/>
<path d="M130.61 339.603H148.588C149.495 339.603 150.229 340.337 150.229 341.243V345.948C150.229 346.854 149.495 347.588 148.588 347.588H130.61C129.704 347.588 128.97 346.854 128.97 345.948V341.243C128.97 340.337 129.704 339.603 130.61 339.603Z" stroke="#151515" stroke-width="2" stroke-linecap="round" stroke-linejoin="round"/>
<path d="M110.151 285.184H166.399C168.21 285.184 169.68 286.653 169.68 288.465V319.888C169.68 321.7 168.21 323.169 166.399 323.169H110.151C108.339 323.169 106.87 321.7 106.87 319.888V288.465C106.87 286.653 108.339 285.184 110.151 285.184Z" stroke="#151515" stroke-width="2" stroke-linecap="round" stroke-linejoin="round"/>
<path d="M16.1299 496.432L17.1377 504.761" stroke="#151515" stroke-width="2" stroke-linecap="round" stroke-linejoin="round"/>
<path d="M122.985 297.6H153.26V310.576H122.985V297.6Z" stroke="#151515" stroke-width="2" stroke-linecap="round" stroke-linejoin="round"/>
<path d="M79.6703 282.174C78.4346 280.875 82.9606 290.779 91.8186 287.404" stroke="#151515" stroke-width="2" stroke-linecap="round" stroke-linejoin="round"/>
<path d="M82.9891 254.265C76.3738 251.61 76.0092 240.683 77.7932 233.599C79.5768 226.516 84.0375 220.661 91.5394 218.524C91.9259 218.414 97.6541 215.138 109.193 218.776C119.188 221.928 117.431 225.147 120.973 227.269C125.848 230.189 128.448 229.701 128.448 229.701C128.448 229.701 128.997 232.561 125.978 233.923C125.978 233.923 125.713 240.487 117.598 240.116" stroke="#151515" stroke-width="2" stroke-linecap="round" stroke-linejoin="round"/>
<path d="M67.6147 329.195L98.5218 336.376C98.5218 336.376 101.575 339.655 108.416 341.515C113.862 342.997 113.996 342.104 115.507 340.741C116.612 339.744 117.262 338.774 116.8 337.519C116.164 335.787 117.4 335.738 117.961 334.877C119.464 332.57 117.587 331.795 117.587 331.795" stroke="#151515" stroke-width="2" stroke-linecap="round" stroke-linejoin="round"/>
<path d="M43.374 388.077C43.374 388.077 55.9394 435.635 55.0479 431.687C54.1567 427.74 54.8637 485.326 54.8637 485.326" stroke="#151515" stroke-width="2" stroke-linecap="round" stroke-linejoin="round"/>
<path d="M112.985 323.606C112.985 323.606 115.939 324.692 115.718 327.001" stroke="#151515" stroke-width="2" stroke-linecap="round" stroke-linejoin="round"/>
<path d="M101.944 322.616C101.944 322.616 106.014 318.012 106.633 316.879" stroke="#151515" stroke-width="2" stroke-linecap="round" stroke-linejoin="round"/>
<path d="M88.1137 240.001C88.1137 240.001 84.7063 237.708 82.4919 240.734C79.8571 244.334 80.157 248.211 83.8338 250.161" stroke="#151515" stroke-width="2" stroke-linecap="round" stroke-linejoin="round"/>
<path d="M11.8877 485.74H35.4824C35.4824 485.74 35.8148 491.5 34.9286 495.488L13.217 496.153C12.3308 491.279 11.8877 485.74 11.8877 485.74Z" stroke="#151515" stroke-width="2" stroke-linecap="round" stroke-linejoin="round"/>
<path d="M178.676 277.52L169.719 289.405" stroke="#151515" stroke-width="2" stroke-linecap="round" stroke-linejoin="round"/>
<path d="M145.634 348.129L184.023 508.853" stroke="#151515" stroke-width="2" stroke-linecap="round" stroke-linejoin="round"/>
<path d="M74.6697 316.502C74.6697 316.502 75.7898 315.127 77.7966 318.069C79.2435 320.19 64.4802 332.27 62.6785 332.257C60.8769 332.245 56.7571 331.711 56.136 329.278C55.7482 327.759 56.6544 326.455 57.6912 324.555" stroke="#151515" stroke-width="2" stroke-linecap="round" stroke-linejoin="round"/>
<path d="M3.03571 351.168C3.03571 351.168 -0.50166 387.379 4.09003 428.82C8.08012 464.832 11.7798 484.927 11.7798 484.927" stroke="#151515" stroke-width="2" stroke-linecap="round" stroke-linejoin="round"/>
<path d="M173.319 271.022H185.532C186.438 271.022 187.173 271.757 187.173 272.663V275.546C187.173 276.452 186.438 277.187 185.532 277.187H173.319C172.413 277.187 171.679 276.452 171.679 275.546V272.663C171.679 271.757 172.413 271.022 173.319 271.022Z" stroke="#151515" stroke-width="2" stroke-linecap="round" stroke-linejoin="round"/>
<path d="M134.464 348.625L95.5654 509.247" stroke="#151515" stroke-width="2" stroke-linecap="round" stroke-linejoin="round"/>
<path d="M107.845 240.55C107.268 239.139 100.647 237.273 99.994 239.361C99.5652 240.733 101.123 240.718 102.072 240.978C106.645 242.232 108.408 241.93 107.845 240.55Z" fill="#151515"/>
<path d="M59.3652 284.877C59.3652 284.877 65.415 304.818 70.8061 311.749" stroke="#151515" stroke-width="2" stroke-linecap="round" stroke-linejoin="round"/>
<path d="M91.0415 311.104C91.0415 311.104 97.3439 320.052 101.876 322.787" stroke="#151515" stroke-width="2" stroke-linecap="round" stroke-linejoin="round"/>
<path d="M175.72 292.014H179.355C180.115 292.014 180.731 292.59 180.731 293.301V314.313C180.731 315.023 180.115 315.599 179.355 315.599H175.72C174.96 315.599 174.344 315.023 174.344 314.313V293.301C174.344 292.59 174.96 292.014 175.72 292.014Z" stroke="#151515" stroke-width="2" stroke-linecap="round" stroke-linejoin="round"/>
<path d="M71.3294 505.203C71.3294 505.203 77.0047 506.392 85.5139 512.774C88.9643 515.362 86.8559 516.992 84.7471 517.566C82.6679 518.134 56.5939 517.508 55.7073 515.841C53.3115 511.337 55.1085 506.795 56.1102 504.708" stroke="#151515" stroke-width="2" stroke-linecap="round" stroke-linejoin="round"/>
<path d="M98.0489 256.785C98.0489 256.785 97.7667 259.738 101.094 261.1C103.897 262.246 105.91 259.43 105.91 259.43" stroke="#151515" stroke-width="2" stroke-linecap="round" stroke-linejoin="round"/>
<path d="M80.1653 280.704C79.0159 286.614 69.4941 308.613 69.4941 308.613" stroke="#151515" stroke-width="2" stroke-linecap="round" stroke-linejoin="round"/>
<path d="M94.3746 301.612C94.3746 301.612 90.0662 311.204 87.2271 320.04" stroke="#151515" stroke-width="2" stroke-linecap="round" stroke-linejoin="round"/>
<path d="M106.739 290.653L98.2521 288.274L97.8594 300.192L106.896 298.227" stroke="#151515" stroke-width="2" stroke-linecap="round" stroke-linejoin="round"/>
<path d="M70.6943 497.364V505.145" stroke="#151515" stroke-width="2" stroke-linecap="round" stroke-linejoin="round"/>
<path d="M104.31 244.537C104.862 244.827 105.069 245.52 104.772 246.085L104.414 246.767C104.117 247.332 103.429 247.555 102.877 247.266C102.325 246.976 102.118 246.283 102.415 245.717L102.773 245.036C103.07 244.47 103.758 244.247 104.31 244.537Z" fill="#151515"/>
<path d="M97.1208 269.82C97.1208 269.82 94.4089 274.141 94.1402 275.748C93.8715 277.354 94.9218 278.639 96.4061 280.045" stroke="#151515" stroke-width="2" stroke-linecap="round" stroke-linejoin="round"/>
<path d="M113.935 284.953V280.932C113.935 280.025 114.669 279.291 115.576 279.291H161.609C162.515 279.291 163.25 280.025 163.25 280.932V285.013" stroke="#151515" stroke-width="2" stroke-linecap="round" stroke-linejoin="round"/>
<path d="M31.3237 496.11L31.4986 504.6" stroke="#151515" stroke-width="2" stroke-linecap="round" stroke-linejoin="round"/>
<path d="M135.013 328.595H144.078V339.387H135.013V328.595Z" stroke="#151515" stroke-width="2" stroke-linecap="round" stroke-linejoin="round"/>
<path d="M51.1987 363.432C51.1987 363.432 61.4022 367.978 68.4104 366.744L51.1987 363.432Z" fill="#151515"/>
<path d="M51.1987 363.432C51.1987 363.432 61.4022 367.978 68.4104 366.744" stroke="#151515" stroke-width="2" stroke-linecap="round" stroke-linejoin="round"/>
<path d="M84.3046 261.089C84.3046 261.089 82.1653 267.535 79.2379 268.511C76.3102 269.487 76.2104 267.861 76.2104 267.861" stroke="#151515" stroke-width="2" stroke-linecap="round" stroke-linejoin="round"/>
<path d="M92.3428 286.374C88.2014 298.173 85.7789 301.924 81.1689 317.943" stroke="#151515" stroke-width="2" stroke-linecap="round" stroke-linejoin="round"/>
<path d="M54.4423 485.193C54.4423 485.193 75.8246 487.071 75.8614 487.343C76.4756 491.889 74.6086 496.894 74.6086 496.894C74.6086 496.894 55.4351 497.286 54.565 494.531C53.8277 492.197 54.4423 485.193 54.4423 485.193Z" stroke="#151515" stroke-width="2" stroke-linecap="round" stroke-linejoin="round"/>
<path d="M120.847 293.906H155.413C156.319 293.906 157.054 294.64 157.054 295.546V312.433C157.054 313.339 156.319 314.074 155.413 314.074H120.847C119.94 314.074 119.206 313.339 119.206 312.433V295.546C119.206 294.64 119.94 293.906 120.847 293.906Z" stroke="#151515" stroke-width="2" stroke-linecap="round" stroke-linejoin="round"/>
<path d="M101.014 323.625C101.014 323.625 104.935 323.37 108.403 322.72" stroke="#151515" stroke-width="2" stroke-linecap="round" stroke-linejoin="round"/>
<path d="M117.789 240.112C117.789 240.112 107.798 239.211 106.113 233.197C106.113 233.197 99.1701 237.698 91.5858 234.757L87.7676 240.604" stroke="#151515" stroke-width="2" stroke-linecap="round" stroke-linejoin="round"/>
<path d="M77.7183 318.782L101.593 323.757" stroke="#151515" stroke-width="2" stroke-linecap="round" stroke-linejoin="round"/>
<path d="M74.7671 371.768C74.7671 371.768 83.7616 415.305 85.1 429.522C86.1184 440.346 75.2965 487.128 75.2965 487.128" stroke="#151515" stroke-width="2" stroke-linecap="round" stroke-linejoin="round"/>
<path d="M120.573 323.423L112.385 329.441C112.385 329.441 111.695 333.584 115.838 332.795L127.182 324.508" stroke="#151515" stroke-width="2" stroke-linecap="round" stroke-linejoin="round"/>
<path d="M118.178 335.555C118.178 335.555 127.176 334.038 133.196 329.28" stroke="#151515" stroke-width="2" stroke-linecap="round" stroke-linejoin="round"/>
<path d="M118.269 240.592C118.269 240.592 115.842 250.421 111.954 257.147C106.88 265.925 101.89 270.473 96.5036 268.946C87.7782 266.472 81.3334 259.892 83.831 250.658" stroke="#151515" stroke-width="2" stroke-linecap="round" stroke-linejoin="round"/>
<path d="M55.9449 327.49C55.9449 327.49 55.6749 328.406 53.3013 327.879C51.2267 327.418 50.5599 325.342 50.5826 325.204C51.037 322.429 65.9671 314.576 70.0104 312.458C70.0104 312.458 71.734 311.614 72.9657 312.648C75.691 314.933 74.6971 315.628 73.1452 318.939" stroke="#151515" stroke-width="2" stroke-linecap="round" stroke-linejoin="round"/>
<path d="M48.5198 370.862L43.5358 385.814C43.5358 385.814 36.3141 420.917 35.9883 440.782C35.8459 449.469 35.0181 485.742 35.0181 485.742" stroke="#151515" stroke-width="2" stroke-linecap="round" stroke-linejoin="round"/>
<path d="M172.512 277.353L166.514 285.184" stroke="#151515" stroke-width="2" stroke-linecap="round" stroke-linejoin="round"/>
</svg>
