<svg width="207" height="200" viewBox="0 0 207 200" fill="none" xmlns="http://www.w3.org/2000/svg">
<g clip-path="url(#clip0_669_4534)">
<rect width="207" height="200" fill="white"/>
<path d="M31.2974 114.645C34.4698 113.004 37.9596 111.69 38.2768 106.765C38.5306 102.825 38.3826 100.088 38.2768 98.8845C36.0561 96.9144 34.7871 93.3025 33.8354 89.6906C33.0605 89.2897 31.2974 88.2131 30.3456 86.4071C28.7901 83.4555 28.1249 77.8699 31.2974 76.2281" stroke="#151515" stroke-width="3"/>
<path d="M68.9624 114.645C65.7899 113.004 62.3002 111.69 61.9829 106.765C61.7291 102.825 61.8772 100.088 61.9829 98.8845C64.2037 96.9144 65.4727 93.3025 66.4244 89.6906C67.1993 89.2897 68.9624 88.2131 69.9141 86.4071C71.4696 83.4555 72.1349 77.8699 68.9624 76.2281" stroke="#151515" stroke-width="3"/>
<path d="M30.8905 114.116L48.8298 152.114H52.0635L68.0726 113.709C76.3725 117.961 94.167 128.262 97.0128 132.973C99.8585 137.683 100.354 145.621 100.247 149.001C90.7494 150.754 71.4727 152.275 48.8298 152.114C33.4373 152.005 16.4891 151.119 0 149.001C0 144.64 2.58701 135.328 3.88051 132.973C5.17401 130.618 21.5126 119.349 30.8905 114.116Z" fill="#151515"/>
<path d="M30.8905 114.116L48.8298 152.114H52.0635L68.0726 113.709C76.3725 117.961 94.167 128.262 97.0128 132.973C99.8585 137.683 100.354 145.621 100.247 149.001C84.2933 151.945 40.7454 154.235 0 149.001C0 144.64 2.58701 135.328 3.88051 132.973C5.17401 130.618 21.5126 119.349 30.8905 114.116Z" stroke="#151515" stroke-width="3"/>
<path d="M37.4805 110.897L50.5986 120.268L63.7167 110.897" stroke="#151515" stroke-width="3"/>
<path d="M41.2285 134.323L50.7574 121.205L59.9687 134.323" stroke="#151515" stroke-width="3"/>
<path d="M47.8679 133.326L44.7358 129.498L50.6521 121.205L56.2206 129.498L52.7403 133.326L55.7521 142.756L52.7403 151.189H48.564L44.7354 142.756L47.8679 133.326Z" fill="#71B82B" stroke="#151515" stroke-width="3"/>
<path d="M36.2203 77.2205C46.0264 76.9585 57.8324 67.2876 62.0258 62.485C66.1547 67.2003 65.4665 77.9845 65.2515 82.7872C65.8966 82.7872 69.7675 80.9535 71.0578 70.9988C72.348 61.0441 65.2515 57.0273 62.0258 56.5907C59.7678 52.5521 52.2197 46.1776 40.0911 52.9887C27.9625 59.7998 29.2313 71.9812 31.3817 77.2205L36.2203 82.7872V77.2205Z" fill="#151515" stroke="#151515" stroke-width="3"/>
<path d="M138.116 114.645C141.288 113.004 144.778 111.69 145.095 106.765C145.349 102.825 145.201 100.088 145.095 98.8845C142.874 96.9144 141.605 93.3025 140.654 89.6906C139.879 89.2897 138.116 88.2131 137.164 86.4071C135.609 83.4555 134.943 77.8699 138.116 76.2281" stroke="#151515" stroke-width="3"/>
<path d="M175.781 114.645C172.608 113.004 169.119 111.69 168.801 106.765C168.548 102.825 168.696 100.088 168.801 98.8845C171.022 96.9144 172.291 93.3025 173.243 89.6906C174.018 89.2897 175.781 88.2131 176.733 86.4071C178.288 83.4555 178.953 77.8699 175.781 76.2281" stroke="#151515" stroke-width="3"/>
<path d="M137.709 114.116L155.648 152.114H158.882L174.891 113.709C183.191 117.961 200.985 128.262 203.831 132.973C206.677 137.683 207.173 145.621 207.065 149.001C197.568 150.754 178.291 152.275 155.648 152.114C140.256 152.005 123.308 151.119 106.818 149.001C106.818 144.64 109.405 135.328 110.699 132.973C111.992 130.618 128.331 119.349 137.709 114.116Z" fill="#151515"/>
<path d="M137.709 114.116L155.648 152.114H158.882L174.891 113.709C183.191 117.961 200.985 128.262 203.831 132.973C206.677 137.683 207.173 145.621 207.065 149.001C191.112 151.945 147.564 154.235 106.818 149.001C106.818 144.64 109.405 135.328 110.699 132.973C111.992 130.618 128.331 119.349 137.709 114.116Z" stroke="#151515" stroke-width="3"/>
<path d="M144.299 110.897L157.417 120.268L170.535 110.897" stroke="#151515" stroke-width="3"/>
<path d="M148.047 134.323L157.576 121.205L166.787 134.323" stroke="#151515" stroke-width="3"/>
<path d="M142.894 79.9763C142.894 72.4802 147.11 63.1101 148.516 61.2361C157.886 77.6337 170.067 71.0746 171.004 79.9763C172.878 74.3542 177.095 75.7597 178.5 77.1652C181.873 61.4235 175.22 53.74 168.661 50.4605C163.82 48.4304 152.264 44.8384 142.894 53.7401C134.361 61.8461 135.866 72.6364 137.272 77.1652C139.521 74.9164 141.957 78.1022 142.894 79.9763Z" fill="#151515" stroke="#151515" stroke-width="3"/>
<mask id="path-16-inside-1_669_4534" fill="white">
<rect x="136.896" y="65" width="12.4989" height="8" rx="2" transform="rotate(13.7081 136.896 65)"/>
</mask>
<rect x="136.896" y="65" width="12.4989" height="8" rx="2" transform="rotate(13.7081 136.896 65)" fill="#71B82B" stroke="#151515" stroke-width="6" mask="url(#path-16-inside-1_669_4534)"/>
<path d="M135.865 105.275C140.506 100.513 139.881 92.0471 138.989 88.4093L140.499 90C140.657 92.5 141.588 98.3 144.999 99.5V105.275H135.865Z" fill="#151515" stroke="#151515" stroke-width="3"/>
<path d="M179.133 105.275C174.492 100.513 175.117 92.0471 176.009 88.4093L174.499 90C174.341 92.5 173.41 98.3 169.999 99.5V105.275H179.133Z" fill="#151515" stroke="#151515" stroke-width="3"/>
</g>
<defs>
<clipPath id="clip0_669_4534">
<rect width="207" height="200" fill="white"/>
</clipPath>
</defs>
</svg>
