<svg width="200" height="200" viewBox="0 0 200 200" fill="none" xmlns="http://www.w3.org/2000/svg">
<rect width="200" height="200" fill="white"/>
<circle cx="100" cy="100" r="71" fill="#151515"/>
<path fill-rule="evenodd" clip-rule="evenodd" d="M118.403 61C119.788 72.92 126.438 80.0266 138 80.7826V94.1895C131.3 94.8447 125.431 92.6522 118.605 88.5193V113.594C118.605 145.448 83.8944 155.402 69.9397 132.57C60.9725 117.878 66.4637 92.0978 95.2293 91.0646V105.202C93.0379 105.555 90.6954 106.109 88.5543 106.84C82.1563 109.008 78.5291 113.065 79.5367 120.222C81.4762 133.931 106.615 137.988 104.524 111.2V61.0252H118.403V61Z" fill="#71B82B"/>
<path fill-rule="evenodd" clip-rule="evenodd" d="M115.403 55C116.788 66.92 123.438 74.0266 135 74.7826V88.1895C128.3 88.8447 122.431 86.6522 115.605 82.5193V107.594C115.605 139.448 80.8944 149.402 66.9397 126.57C57.9725 111.878 63.4637 86.0978 92.2293 85.0646V99.2022C90.0379 99.555 87.6954 100.109 85.5543 100.84C79.1563 103.008 75.5291 107.065 76.5367 114.222C78.4762 127.931 103.615 131.988 101.524 105.2V55.0252H115.403V55Z" fill="white"/>
</svg>
