<svg width="200" height="200" viewBox="0 0 200 200" fill="none" xmlns="http://www.w3.org/2000/svg">
<rect width="200" height="200" fill="white"/>
<path d="M62.4352 114.205L62.4358 114.207C66.2898 127.091 76.3414 137.495 89.7408 141.571L86.0057 155.359C78.4064 153.11 71.6184 149.33 65.8733 144.454L65.8717 144.452C59.699 139.229 54.7412 132.74 51.4015 125.372L51.4006 125.37C48.3781 118.732 46.6444 111.424 46.4588 103.789L46.4348 102.805L45.48 102.566L39.49 101.066L39.4936 101.062L39.4737 101.057L45.7493 94.595L45.7509 94.5933L59.7619 80.1151L59.7786 80.1738L59.7906 80.1612L62.2232 88.7304L62.2238 88.7325L67.7724 108.15L67.5329 108.088L67.5329 108.088L67.5231 108.085L62.7491 106.89L60.8842 106.423L61.1546 108.327C61.4399 110.334 61.8685 112.298 62.4352 114.205Z" fill="white" stroke="black" stroke-width="2.58652"/>
<path d="M109.25 60.4051L109.248 60.4046C96.1632 57.3004 82.1269 60.8031 71.8973 70.3693L61.8243 60.2408C67.5716 54.784 74.2391 50.7954 81.335 48.2583L81.3368 48.2576C88.9466 45.5235 97.0455 44.4746 105.096 45.2663L105.098 45.2665C112.358 45.9677 119.554 48.1205 126.259 51.7771L127.123 52.2484L127.807 51.5411L132.101 47.1036L132.103 47.1085L132.117 47.0939L134.576 55.7597L134.576 55.762L140.109 75.1349L140.05 75.1201L140.055 75.1367L131.418 72.9588L131.416 72.9583L111.825 68.0548L111.999 67.8784L111.999 67.8784L112.006 67.8712L115.428 64.3344L116.765 62.9528L114.981 62.2353C113.1 61.4785 111.185 60.8676 109.25 60.4051Z" fill="white" stroke="black" stroke-width="2.58652"/>
<mask id="path-3-inside-1_645_4562" fill="white">
<path d="M157.167 87.9705C157.149 87.9014 157.136 87.8309 157.118 87.762H157.118C157.114 87.7499 157.112 87.7368 157.108 87.7249L139.685 92.3303L139.675 92.3332L139.637 92.3425C140.971 97.3883 141.274 102.591 140.538 107.807C139.435 115.602 136.055 122.69 130.955 128.379C129.972 129.469 128.947 130.526 127.836 131.505L126.307 126.558L125.565 124.096L125.55 124.112L125.537 124.07L109.266 141.635L101.055 150.47L101.077 150.474L101.047 150.507L136.185 158.503L133.531 149.922C147.12 140.872 156.13 126.62 158.43 110.335C159.494 102.804 159.065 95.281 157.167 87.9705Z"/>
</mask>
<path d="M157.167 87.9705C157.149 87.9014 157.136 87.8309 157.118 87.762H157.118C157.114 87.7499 157.112 87.7368 157.108 87.7249L139.685 92.3303L139.675 92.3332L139.637 92.3425C140.971 97.3883 141.274 102.591 140.538 107.807C139.435 115.602 136.055 122.69 130.955 128.379C129.972 129.469 128.947 130.526 127.836 131.505L126.307 126.558L125.565 124.096L125.55 124.112L125.537 124.07L109.266 141.635L101.055 150.47L101.077 150.474L101.047 150.507L136.185 158.503L133.531 149.922C147.12 140.872 156.13 126.62 158.43 110.335C159.494 102.804 159.065 95.281 157.167 87.9705Z" fill="white"/>
<path d="M157.167 87.9705L154.661 88.61L154.663 88.6205L157.167 87.9705ZM157.118 87.762L159.624 87.1204L159.126 85.1755H157.118V87.762ZM157.118 87.762L154.65 88.5363L155.218 90.3485H157.118V87.762ZM157.108 87.7249L159.586 86.9816L158.867 84.5847L156.447 85.2242L157.108 87.7249ZM139.685 92.3303L139.024 89.8297L139.006 89.8343L138.989 89.8392L139.685 92.3303ZM139.675 92.3332L140.302 94.8426L140.336 94.8339L140.37 94.8244L139.675 92.3332ZM139.637 92.3425L139.01 89.8331L136.467 90.4688L137.137 93.0035L139.637 92.3425ZM140.538 107.807L143.099 108.169L143.099 108.168L140.538 107.807ZM130.955 128.379L132.876 130.111L132.881 130.106L130.955 128.379ZM127.836 131.505L125.365 132.269L126.546 136.089L129.546 133.445L127.836 131.505ZM126.307 126.558L123.83 127.304L123.833 127.313L123.835 127.322L126.307 126.558ZM125.565 124.096L128.041 123.35L126.748 119.058L123.68 122.325L125.565 124.096ZM125.55 124.112L123.082 124.887L124.408 129.105L127.435 125.882L125.55 124.112ZM125.537 124.07L128.004 123.294L126.668 119.042L123.639 122.312L125.537 124.07ZM109.266 141.635L111.16 143.395L111.163 143.392L109.266 141.635ZM101.055 150.47L99.1605 148.709L96.0514 152.055L100.52 153L101.055 150.47ZM101.077 150.474L102.987 152.218L106.034 148.88L101.612 147.944L101.077 150.474ZM101.047 150.507L99.1364 148.763L96.1426 152.044L100.473 153.029L101.047 150.507ZM136.185 158.503L135.611 161.025L139.98 162.019L138.656 157.738L136.185 158.503ZM133.531 149.922L132.098 147.769L130.49 148.84L131.06 150.686L133.531 149.922ZM158.43 110.335L160.991 110.697L160.991 110.696L158.43 110.335ZM159.673 87.331C159.677 87.3448 159.678 87.352 159.669 87.3096C159.662 87.2816 159.646 87.2042 159.624 87.1204L154.613 88.4036C154.609 88.3887 154.607 88.381 154.617 88.4227C154.623 88.4501 154.639 88.5271 154.661 88.61L159.673 87.331ZM157.118 85.1755H157.118V90.3485H157.118V85.1755ZM159.586 86.9878C159.596 87.0201 159.604 87.0488 159.611 87.0728C159.617 87.0968 159.622 87.1174 159.626 87.1332C159.63 87.1489 159.633 87.1615 159.635 87.1692C159.637 87.1764 159.638 87.1818 159.638 87.181C159.638 87.1808 159.638 87.1808 159.637 87.1802C159.637 87.1797 159.637 87.1788 159.637 87.1778C159.636 87.1759 159.636 87.1726 159.635 87.1686C159.633 87.1608 159.63 87.1477 159.626 87.1316C159.622 87.1154 159.617 87.0942 159.611 87.0695C159.604 87.0448 159.596 87.0151 159.586 86.9816L154.631 88.4681C154.613 88.4086 154.601 88.3611 154.595 88.3363C154.592 88.3234 154.59 88.3134 154.589 88.3087C154.588 88.3053 154.587 88.3011 154.588 88.3057C154.589 88.308 154.591 88.3166 154.593 88.3269C154.596 88.3377 154.599 88.3535 154.604 88.3723C154.613 88.4091 154.628 88.4668 154.65 88.5363L159.586 86.9878ZM156.447 85.2242L139.024 89.8297L140.346 94.831L157.769 90.2255L156.447 85.2242ZM138.989 89.8392L138.979 89.842L140.37 94.8244L140.381 94.8215L138.989 89.8392ZM139.047 89.8239L139.01 89.8331L140.264 94.8518L140.302 94.8426L139.047 89.8239ZM137.137 93.0035C138.382 97.7126 138.665 102.568 137.976 107.445L143.099 108.168C143.883 102.615 143.561 97.064 142.138 91.6814L137.137 93.0035ZM137.977 107.445C136.947 114.723 133.793 121.338 129.029 126.653L132.881 130.106C138.317 124.042 141.923 116.481 143.099 108.169L137.977 107.445ZM129.034 126.647C128.091 127.692 127.139 128.672 126.126 129.564L129.546 133.445C130.756 132.379 131.853 131.246 132.876 130.111L129.034 126.647ZM130.307 130.741L128.778 125.794L123.835 127.322L125.365 132.269L130.307 130.741ZM128.783 125.812L128.041 123.35L123.088 124.842L123.83 127.304L128.783 125.812ZM123.68 122.325L123.665 122.341L127.435 125.882L127.45 125.867L123.68 122.325ZM128.018 123.336L128.004 123.294L123.069 124.845L123.082 124.887L128.018 123.336ZM123.639 122.312L107.368 139.877L111.163 143.392L127.434 125.828L123.639 122.312ZM107.371 139.874L99.1605 148.709L102.95 152.231L111.16 143.395L107.371 139.874ZM100.52 153L100.541 153.005L101.612 147.944L101.591 147.939L100.52 153ZM99.1662 148.731L99.1364 148.763L102.957 152.251L102.987 152.218L99.1662 148.731ZM100.473 153.029L135.611 161.025L136.759 155.981L101.621 147.985L100.473 153.029ZM138.656 157.738L136.003 149.157L131.06 150.686L133.714 159.267L138.656 157.738ZM134.965 152.074C149.167 142.617 158.588 127.713 160.991 110.697L155.869 109.973C153.673 125.527 145.073 139.128 132.098 147.769L134.965 152.074ZM160.991 110.696C162.102 102.829 161.654 94.9621 159.67 87.3206L154.663 88.6205C156.475 95.5998 156.885 102.779 155.869 109.973L160.991 110.696Z" fill="black" mask="url(#path-3-inside-1_645_4562)"/>
<path d="M106.255 123H98.1474V92.4455C95.1853 95.2153 91.6941 97.2638 87.6741 98.591V91.2337C89.7899 90.5412 92.0885 89.2333 94.5697 87.3098C97.051 85.3671 98.7533 83.107 99.6766 80.5295H106.255V123Z" fill="#71B82B"/>
</svg>
