<svg width="200" height="200" viewBox="0 0 200 200" fill="none" xmlns="http://www.w3.org/2000/svg">
<path d="M30.5 176.5V120.816H65.6277V176.5H30.5Z" fill="white" stroke="#151515" stroke-width="3"/>
<path d="M117.554 96.9706V176.5H82.4288V96.9706H117.554Z" fill="white" stroke="#151515" stroke-width="3"/>
<path d="M134.355 176.5V73.1243H169.481V176.5H134.355Z" fill="white" stroke="#151515" stroke-width="3"/>
<path d="M38.4076 81.2073C38.9576 82.375 40.1216 83.0586 41.334 83.0586C41.7919 83.0586 42.2578 82.9616 42.6986 82.7529L125.044 43.947L128.039 50.3167C128.535 51.3732 129.524 52.0622 130.687 52.1593C131.85 52.2591 132.94 51.7461 133.607 50.788L149.202 28.3722C149.867 27.4157 149.971 26.2148 149.473 25.1586C148.979 24.1024 147.988 23.4134 146.827 23.3149L119.615 21.0121C118.457 20.9133 117.363 21.4253 116.696 22.3834C116.029 23.3415 115.927 24.5421 116.422 25.597L119.437 31.7712L119.467 31.834L36.9866 70.5899C36.2056 70.9561 35.614 71.6055 35.321 72.4154C35.0288 73.2264 35.0704 74.1015 35.4366 74.8826L38.4076 81.2073Z" fill="#71B82B"/>
</svg>
