<svg width="200" height="200" viewBox="0 0 200 200" fill="none" xmlns="http://www.w3.org/2000/svg">
<rect width="200" height="200" fill="white"/>
<mask id="path-1-inside-1_756_4624" fill="white">
<path d="M53.915 47.4106C53.4621 47.6089 52.7813 48.0899 52.4705 48.4584C52.1301 48.8269 46.549 58.6008 40.0326 70.1878C26.9716 93.3927 27.2838 92.7134 28.6144 95.0355C29.1812 95.9708 30.2009 96.736 34.7904 99.5406C39.2378 102.261 40.5698 102.94 41.5895 103.025C43.771 103.223 45.0172 102.203 47.0581 98.5771C47.6812 97.4434 47.6531 97.4434 50.8824 101.354L53.2904 104.3L52.8094 105.065C51.7616 106.68 51.393 107.814 51.393 109.627C51.3649 112.942 53.3481 116.001 56.4354 117.447C57.2287 117.816 58.1359 118.126 58.4748 118.126C58.9854 118.126 59.0979 118.353 59.24 119.515C59.4946 121.752 60.4862 123.651 62.1586 125.182C63.8591 126.74 65.644 127.477 67.6834 127.477H69.0435L69.7228 128.978C70.6005 130.905 72.1589 132.463 74.0859 133.341C75.3039 133.908 75.9551 134.02 77.5994 133.964L79.6388 133.908L80.2057 135.012C80.9708 136.57 82.5855 138.157 84.2283 139.034C85.3901 139.657 86.0413 139.8 87.77 139.8C90.7448 139.8 92.0768 138.978 94.4847 135.719C94.541 135.663 95.873 136.003 97.4595 136.484C102.56 138.043 104.401 138.383 107.886 138.383C110.861 138.383 111.286 138.327 112.816 137.59C114.855 136.655 116.528 135.324 117.83 133.624C118.766 132.377 118.822 132.349 120.777 132.179C124.629 131.839 127.067 129.884 128.143 126.258C128.624 124.671 128.908 124.359 130.042 124.359C131.656 124.359 133.894 123.255 135.198 121.781C136.36 120.506 137.351 118.409 137.351 117.275C137.351 116.907 137.72 116.737 138.966 116.596C140.977 116.37 142.876 115.519 144.094 114.358C146.276 112.291 147.211 108.721 146.304 106.057C146.049 105.32 145.851 104.697 145.851 104.669C145.851 104.641 146.701 103.96 147.778 103.168C148.826 102.375 150.498 100.902 151.518 99.881C152.51 98.8613 153.445 98.0103 153.529 98.0103C153.643 98.0103 154.181 98.8317 154.747 99.8233C156.107 102.231 157.127 102.968 159.167 102.968C160.669 102.968 160.952 102.826 166.25 99.5687C170.811 96.736 171.859 95.9708 172.426 95.0355C173.758 92.7119 174.069 93.3927 161.009 70.1892C154.493 58.6023 148.912 48.8269 148.571 48.4599C147.834 47.6385 146.446 47.0154 145.284 47.0154C144.179 47.0154 143.67 47.27 137.692 50.9537C132.139 54.3532 131.572 54.9482 131.572 57.3562C131.572 58.4321 131.798 59.1692 132.479 60.3591L133.387 61.9738L132.14 62.286C129.846 62.8529 127.353 62.6546 122.252 61.4646C114.858 59.7641 111.289 59.3675 105.225 59.5954C96.5552 59.9358 90.323 60.8697 86.8953 62.4C85.4789 63.0231 84.4311 63.9303 83.0132 65.6871L82.4745 66.3664L78.1677 65.6575C73.6907 64.8923 72.8131 64.5815 69.5556 62.4844L67.9128 61.4365L68.5921 60.2466C68.9888 59.5954 69.3854 58.66 69.4698 58.1494C69.7524 56.9033 69.2152 55.1184 68.2798 54.2112C67.8551 53.8145 65.1067 52.0015 62.1882 50.2448C56.4931 46.8156 55.8138 46.561 53.915 47.4106ZM60.4876 54.5501C62.8956 56.0508 64.8226 57.4109 64.7648 57.6092C64.7086 57.8076 59.5242 67.1005 53.2623 78.2626L41.8174 98.549L39.6078 97.1608C38.3616 96.3956 36.2926 95.0932 34.9606 94.2718C33.6286 93.4785 32.5808 92.7415 32.637 92.6571C34.2798 89.4559 55.6702 51.8313 55.8404 51.8313C55.9825 51.8313 58.0797 53.0494 60.4876 54.5501ZM156.843 72.06C163.105 83.194 168.26 92.4292 168.289 92.5994C168.346 92.7696 166.306 94.186 163.784 95.7163L159.195 98.5209L147.692 78.0939C141.374 66.8459 136.19 57.553 136.162 57.4405C136.077 57.2141 144.689 51.8594 145.17 51.8313C145.34 51.8313 150.581 60.9259 156.843 72.06ZM113.553 64.4098C115.196 64.6363 118.851 65.3452 121.656 65.9683C127.662 67.3284 130.128 67.4424 133.357 66.5632C135.086 66.0822 135.51 66.0245 135.793 66.3368C135.991 66.5351 139.533 72.797 143.698 80.2192L151.29 93.7331L148.542 96.3675C147.04 97.812 145.086 99.4844 144.235 100.079C142.847 101.015 142.592 101.099 142.195 100.731C138.626 97.6151 126.246 88.5486 119.785 84.3558C113.609 80.3317 100.861 73.3624 99.6706 73.3624C98.7634 73.3624 92.8434 75.2316 92.2766 75.686C92.0501 75.8843 91.3131 76.7619 90.69 77.6129C87.0921 82.3726 82.3887 85.263 78.224 85.263H76.6374L76.7795 84.0169C76.9497 82.5428 77.8273 81.0702 82.8993 73.7886C87.8292 66.7053 87.8573 66.6772 89.4157 66.1681C94.4566 64.4957 107.263 63.5884 113.553 64.4098ZM68.8733 67.3565C71.1111 68.7448 73.2364 69.5099 76.1549 69.9347C77.3167 70.133 78.5629 70.3313 78.9033 70.4157C79.4701 70.5296 79.328 70.8404 76.892 74.4383C75.4179 76.5636 73.8032 79.1418 73.2941 80.1334C72.4164 81.8043 72.3306 82.1728 72.3306 84.4402C72.3306 87.2729 72.6991 88.038 74.6261 89.1717C75.6177 89.7667 76.0143 89.7948 78.5644 89.7104C80.5476 89.6246 81.9639 89.4278 83.2397 88.9734C86.8376 87.7272 90.5775 84.9789 93.468 81.4372C95.0826 79.4822 95.3091 79.312 97.2642 78.6608L99.3317 77.9518L104.12 80.5019C114.885 86.2532 123.611 91.9763 134.633 100.532C139.761 104.527 141.772 106.397 142.027 107.445C142.706 110.194 140.186 112.658 137.295 112.035C136.842 111.922 131.6 108.918 125.651 105.348C114.204 98.4913 113.609 98.2367 112.419 99.4266C111.71 100.136 111.654 101.806 112.363 102.458C112.618 102.74 117.349 105.631 122.818 108.918L132.79 114.867L132.818 116.114C132.818 117.53 132.053 119.004 131.033 119.457C130.665 119.627 129.673 119.854 128.824 119.968L127.293 120.138L117.972 114.755C111.654 111.071 108.397 109.344 107.83 109.344C106.782 109.344 105.62 110.478 105.62 111.469C105.62 111.922 105.931 112.545 106.414 113C106.838 113.396 110.919 115.918 115.508 118.553C120.069 121.187 123.894 123.511 123.952 123.709C124.206 124.36 123.158 126.628 122.393 127.137C121.854 127.477 121.089 127.618 119.645 127.59C117.69 127.59 117.577 127.533 110.069 123.85C105.876 121.782 102.108 120.11 101.683 120.11C100.069 120.11 98.9632 122.461 99.9829 123.679C100.209 123.934 103.496 125.691 107.321 127.532L114.262 130.931L112.902 132.149C112.137 132.858 111.061 133.538 110.494 133.708C108.256 134.331 104.657 133.878 99.7284 132.404L97.4048 131.695L98.056 130.788C99.0194 129.514 99.388 128.238 99.388 126.226C99.388 122.571 96.8098 119.199 93.24 118.123C92.2484 117.813 92.136 117.699 92.2484 116.99C92.4468 115.658 91.7378 113.08 90.804 111.691C89.6422 109.963 87.8854 108.632 85.9599 108.037L84.4577 107.556L84.2875 106.082C83.8628 102.06 80.5476 98.9427 76.411 98.6319C74.7104 98.5179 74.2857 98.6038 72.8974 99.2831C71.8215 99.7937 70.9705 100.501 70.263 101.436C69.6962 102.174 69.1575 102.797 69.0731 102.797C68.9888 102.797 68.5921 102.316 68.1659 101.749C67.2882 100.503 65.6158 99.2564 64.0574 98.6896C61.7057 97.8682 58.3905 98.4632 56.7196 100.022L56.0965 100.588L54.3116 98.3788C53.32 97.1608 51.9599 95.5742 51.2806 94.8372C50.4592 93.9595 50.0906 93.3364 50.2046 93.0523C50.3467 92.6275 64.0026 68.2904 65.163 66.3353C65.7017 65.4858 65.786 65.4281 66.3529 65.7966C66.6637 66.0245 67.7974 66.7334 68.8733 67.3565ZM63.35 103.395C65.0786 104.47 65.9 106.738 65.0505 108.296C64.2853 109.798 61.3105 113.368 60.6593 113.623C58.2232 114.529 55.0782 111.157 56.0417 108.637C56.3244 107.872 58.4216 104.983 59.6677 103.594C60.5439 102.657 61.9898 102.573 63.35 103.395ZM77.7977 103.677C79.0439 104.442 79.8372 105.831 79.8372 107.247C79.8372 108.125 79.6388 108.635 78.8737 109.513C78.3631 110.108 76.0691 113.167 73.8017 116.284C71.5358 119.401 69.4668 122.177 69.2404 122.432C68.6454 123.111 66.8886 123.083 65.755 122.376C64.5369 121.638 63.5734 119.741 63.7718 118.523C63.942 117.56 72.5541 105.462 74.1984 103.876C75.1914 102.94 76.4672 102.884 77.7977 103.677ZM85.5041 112.8C86.9486 113.792 87.6294 114.897 87.6294 116.228C87.6294 117.333 87.2608 117.928 83.2944 123.283C80.9427 126.484 78.7893 129.204 78.5348 129.289C76.9201 129.912 74.7948 128.948 73.8594 127.191C72.7835 125.208 72.7835 125.236 78.7035 117.191C80.4884 114.783 82.217 112.658 82.5278 112.488C83.4646 112.035 84.5125 112.149 85.5041 112.8ZM93.6071 123.623C94.7408 124.727 94.8532 124.983 94.8532 126.229C94.8532 127.532 94.683 127.844 92.1611 131.244C90.687 133.227 89.1582 134.984 88.7897 135.154C86.4661 136.231 83.2367 133.171 83.916 130.536C84.0581 129.913 88.0245 124.36 89.2707 123C89.6954 122.547 90.1779 122.377 91.1118 122.377C92.2188 122.376 92.5311 122.518 93.6071 123.623Z"/>
</mask>
<path d="M53.915 47.4106C53.4621 47.6089 52.7813 48.0899 52.4705 48.4584C52.1301 48.8269 46.549 58.6008 40.0326 70.1878C26.9716 93.3927 27.2838 92.7134 28.6144 95.0355C29.1812 95.9708 30.2009 96.736 34.7904 99.5406C39.2378 102.261 40.5698 102.94 41.5895 103.025C43.771 103.223 45.0172 102.203 47.0581 98.5771C47.6812 97.4434 47.6531 97.4434 50.8824 101.354L53.2904 104.3L52.8094 105.065C51.7616 106.68 51.393 107.814 51.393 109.627C51.3649 112.942 53.3481 116.001 56.4354 117.447C57.2287 117.816 58.1359 118.126 58.4748 118.126C58.9854 118.126 59.0979 118.353 59.24 119.515C59.4946 121.752 60.4862 123.651 62.1586 125.182C63.8591 126.74 65.644 127.477 67.6834 127.477H69.0435L69.7228 128.978C70.6005 130.905 72.1589 132.463 74.0859 133.341C75.3039 133.908 75.9551 134.02 77.5994 133.964L79.6388 133.908L80.2057 135.012C80.9708 136.57 82.5855 138.157 84.2283 139.034C85.3901 139.657 86.0413 139.8 87.77 139.8C90.7448 139.8 92.0768 138.978 94.4847 135.719C94.541 135.663 95.873 136.003 97.4595 136.484C102.56 138.043 104.401 138.383 107.886 138.383C110.861 138.383 111.286 138.327 112.816 137.59C114.855 136.655 116.528 135.324 117.83 133.624C118.766 132.377 118.822 132.349 120.777 132.179C124.629 131.839 127.067 129.884 128.143 126.258C128.624 124.671 128.908 124.359 130.042 124.359C131.656 124.359 133.894 123.255 135.198 121.781C136.36 120.506 137.351 118.409 137.351 117.275C137.351 116.907 137.72 116.737 138.966 116.596C140.977 116.37 142.876 115.519 144.094 114.358C146.276 112.291 147.211 108.721 146.304 106.057C146.049 105.32 145.851 104.697 145.851 104.669C145.851 104.641 146.701 103.96 147.778 103.168C148.826 102.375 150.498 100.902 151.518 99.881C152.51 98.8613 153.445 98.0103 153.529 98.0103C153.643 98.0103 154.181 98.8317 154.747 99.8233C156.107 102.231 157.127 102.968 159.167 102.968C160.669 102.968 160.952 102.826 166.25 99.5687C170.811 96.736 171.859 95.9708 172.426 95.0355C173.758 92.7119 174.069 93.3927 161.009 70.1892C154.493 58.6023 148.912 48.8269 148.571 48.4599C147.834 47.6385 146.446 47.0154 145.284 47.0154C144.179 47.0154 143.67 47.27 137.692 50.9537C132.139 54.3532 131.572 54.9482 131.572 57.3562C131.572 58.4321 131.798 59.1692 132.479 60.3591L133.387 61.9738L132.14 62.286C129.846 62.8529 127.353 62.6546 122.252 61.4646C114.858 59.7641 111.289 59.3675 105.225 59.5954C96.5552 59.9358 90.323 60.8697 86.8953 62.4C85.4789 63.0231 84.4311 63.9303 83.0132 65.6871L82.4745 66.3664L78.1677 65.6575C73.6907 64.8923 72.8131 64.5815 69.5556 62.4844L67.9128 61.4365L68.5921 60.2466C68.9888 59.5954 69.3854 58.66 69.4698 58.1494C69.7524 56.9033 69.2152 55.1184 68.2798 54.2112C67.8551 53.8145 65.1067 52.0015 62.1882 50.2448C56.4931 46.8156 55.8138 46.561 53.915 47.4106ZM60.4876 54.5501C62.8956 56.0508 64.8226 57.4109 64.7648 57.6092C64.7086 57.8076 59.5242 67.1005 53.2623 78.2626L41.8174 98.549L39.6078 97.1608C38.3616 96.3956 36.2926 95.0932 34.9606 94.2718C33.6286 93.4785 32.5808 92.7415 32.637 92.6571C34.2798 89.4559 55.6702 51.8313 55.8404 51.8313C55.9825 51.8313 58.0797 53.0494 60.4876 54.5501ZM156.843 72.06C163.105 83.194 168.26 92.4292 168.289 92.5994C168.346 92.7696 166.306 94.186 163.784 95.7163L159.195 98.5209L147.692 78.0939C141.374 66.8459 136.19 57.553 136.162 57.4405C136.077 57.2141 144.689 51.8594 145.17 51.8313C145.34 51.8313 150.581 60.9259 156.843 72.06ZM113.553 64.4098C115.196 64.6363 118.851 65.3452 121.656 65.9683C127.662 67.3284 130.128 67.4424 133.357 66.5632C135.086 66.0822 135.51 66.0245 135.793 66.3368C135.991 66.5351 139.533 72.797 143.698 80.2192L151.29 93.7331L148.542 96.3675C147.04 97.812 145.086 99.4844 144.235 100.079C142.847 101.015 142.592 101.099 142.195 100.731C138.626 97.6151 126.246 88.5486 119.785 84.3558C113.609 80.3317 100.861 73.3624 99.6706 73.3624C98.7634 73.3624 92.8434 75.2316 92.2766 75.686C92.0501 75.8843 91.3131 76.7619 90.69 77.6129C87.0921 82.3726 82.3887 85.263 78.224 85.263H76.6374L76.7795 84.0169C76.9497 82.5428 77.8273 81.0702 82.8993 73.7886C87.8292 66.7053 87.8573 66.6772 89.4157 66.1681C94.4566 64.4957 107.263 63.5884 113.553 64.4098ZM68.8733 67.3565C71.1111 68.7448 73.2364 69.5099 76.1549 69.9347C77.3167 70.133 78.5629 70.3313 78.9033 70.4157C79.4701 70.5296 79.328 70.8404 76.892 74.4383C75.4179 76.5636 73.8032 79.1418 73.2941 80.1334C72.4164 81.8043 72.3306 82.1728 72.3306 84.4402C72.3306 87.2729 72.6991 88.038 74.6261 89.1717C75.6177 89.7667 76.0143 89.7948 78.5644 89.7104C80.5476 89.6246 81.9639 89.4278 83.2397 88.9734C86.8376 87.7272 90.5775 84.9789 93.468 81.4372C95.0826 79.4822 95.3091 79.312 97.2642 78.6608L99.3317 77.9518L104.12 80.5019C114.885 86.2532 123.611 91.9763 134.633 100.532C139.761 104.527 141.772 106.397 142.027 107.445C142.706 110.194 140.186 112.658 137.295 112.035C136.842 111.922 131.6 108.918 125.651 105.348C114.204 98.4913 113.609 98.2367 112.419 99.4266C111.71 100.136 111.654 101.806 112.363 102.458C112.618 102.74 117.349 105.631 122.818 108.918L132.79 114.867L132.818 116.114C132.818 117.53 132.053 119.004 131.033 119.457C130.665 119.627 129.673 119.854 128.824 119.968L127.293 120.138L117.972 114.755C111.654 111.071 108.397 109.344 107.83 109.344C106.782 109.344 105.62 110.478 105.62 111.469C105.62 111.922 105.931 112.545 106.414 113C106.838 113.396 110.919 115.918 115.508 118.553C120.069 121.187 123.894 123.511 123.952 123.709C124.206 124.36 123.158 126.628 122.393 127.137C121.854 127.477 121.089 127.618 119.645 127.59C117.69 127.59 117.577 127.533 110.069 123.85C105.876 121.782 102.108 120.11 101.683 120.11C100.069 120.11 98.9632 122.461 99.9829 123.679C100.209 123.934 103.496 125.691 107.321 127.532L114.262 130.931L112.902 132.149C112.137 132.858 111.061 133.538 110.494 133.708C108.256 134.331 104.657 133.878 99.7284 132.404L97.4048 131.695L98.056 130.788C99.0194 129.514 99.388 128.238 99.388 126.226C99.388 122.571 96.8098 119.199 93.24 118.123C92.2484 117.813 92.136 117.699 92.2484 116.99C92.4468 115.658 91.7378 113.08 90.804 111.691C89.6422 109.963 87.8854 108.632 85.9599 108.037L84.4577 107.556L84.2875 106.082C83.8628 102.06 80.5476 98.9427 76.411 98.6319C74.7104 98.5179 74.2857 98.6038 72.8974 99.2831C71.8215 99.7937 70.9705 100.501 70.263 101.436C69.6962 102.174 69.1575 102.797 69.0731 102.797C68.9888 102.797 68.5921 102.316 68.1659 101.749C67.2882 100.503 65.6158 99.2564 64.0574 98.6896C61.7057 97.8682 58.3905 98.4632 56.7196 100.022L56.0965 100.588L54.3116 98.3788C53.32 97.1608 51.9599 95.5742 51.2806 94.8372C50.4592 93.9595 50.0906 93.3364 50.2046 93.0523C50.3467 92.6275 64.0026 68.2904 65.163 66.3353C65.7017 65.4858 65.786 65.4281 66.3529 65.7966C66.6637 66.0245 67.7974 66.7334 68.8733 67.3565ZM63.35 103.395C65.0786 104.47 65.9 106.738 65.0505 108.296C64.2853 109.798 61.3105 113.368 60.6593 113.623C58.2232 114.529 55.0782 111.157 56.0417 108.637C56.3244 107.872 58.4216 104.983 59.6677 103.594C60.5439 102.657 61.9898 102.573 63.35 103.395ZM77.7977 103.677C79.0439 104.442 79.8372 105.831 79.8372 107.247C79.8372 108.125 79.6388 108.635 78.8737 109.513C78.3631 110.108 76.0691 113.167 73.8017 116.284C71.5358 119.401 69.4668 122.177 69.2404 122.432C68.6454 123.111 66.8886 123.083 65.755 122.376C64.5369 121.638 63.5734 119.741 63.7718 118.523C63.942 117.56 72.5541 105.462 74.1984 103.876C75.1914 102.94 76.4672 102.884 77.7977 103.677ZM85.5041 112.8C86.9486 113.792 87.6294 114.897 87.6294 116.228C87.6294 117.333 87.2608 117.928 83.2944 123.283C80.9427 126.484 78.7893 129.204 78.5348 129.289C76.9201 129.912 74.7948 128.948 73.8594 127.191C72.7835 125.208 72.7835 125.236 78.7035 117.191C80.4884 114.783 82.217 112.658 82.5278 112.488C83.4646 112.035 84.5125 112.149 85.5041 112.8ZM93.6071 123.623C94.7408 124.727 94.8532 124.983 94.8532 126.229C94.8532 127.532 94.683 127.844 92.1611 131.244C90.687 133.227 89.1582 134.984 88.7897 135.154C86.4661 136.231 83.2367 133.171 83.916 130.536C84.0581 129.913 88.0245 124.36 89.2707 123C89.6954 122.547 90.1779 122.377 91.1118 122.377C92.2188 122.376 92.5311 122.518 93.6071 123.623Z" fill="#151515" stroke="white" stroke-width="1.6" mask="url(#path-1-inside-1_756_4624)"/>
<path d="M26 130L36.1471 119L41 127.885L26 130Z" fill="#71B82B"/>
<path d="M57.4434 162.073L60.4234 147.421L69.0492 152.885L57.4434 162.073Z" fill="#71B82B"/>
<path d="M175 130L165.529 119L161 127.885L175 130Z" fill="#71B82B"/>
<path d="M143.779 162.073L140.799 147.421L132.173 152.885L143.779 162.073Z" fill="#71B82B"/>
<path d="M100.531 173.271L95.2016 159.302L105.413 159.297L100.531 173.271Z" fill="#71B82B"/>
</svg>
