<svg width="173" height="424" viewBox="0 0 173 424" fill="none" xmlns="http://www.w3.org/2000/svg">
<path d="M73.421 25.7335C75.4538 15.5691 81.6795 9.45028 84.8559 8.17974C91.4203 2.25054 108.361 -2.85376 122.337 8.17974C138.132 20.6496 133.772 39.0963 130.595 45.6608C130.595 50.7429 125.725 54.131 122.972 55.1898C121.447 61.2884 115.349 68.7202 112.808 70.8377C113.02 71.6848 113.57 72.7233 114.078 76.789C114.587 80.8548 121.066 80.6007 124.243 79.9654C127.419 80.3889 136.059 82.1253 145.207 85.6829C154.355 89.2404 160.03 98.1765 161.724 102.2L169.347 125.471L171.888 146.435L169.982 160.411L162.359 166.764L150.924 168.268L152.83 210.597L152.195 214.409L153.465 241.96V283.654L152.195 335.746L147.748 388.473L145.207 389.343V398.236C145.207 397.389 145.588 397.347 147.112 403.954C148.637 410.561 146.477 413.483 145.207 414.118L113.443 417.295C109.42 417.718 102.389 417.569 103.914 411.978C105.439 406.388 119.584 400.354 126.784 398.236V388.473L120.431 388.072L102.643 253.161L89.3027 306.523L94.3849 386.568L92.4791 388.473L94.3849 398.638C98.4506 406.769 96.7142 413.461 95.6554 415.79L76.5973 420.471C76.5973 420.471 51.1864 425.341 53.7275 417.295C56.7768 407.638 69.6093 403.72 75.3268 401.413L72.7857 392.285L68.9741 391.248C62.8331 369.861 48.6454 324.057 46.1043 312.876C42.9279 298.9 47.3748 283.654 48.6454 276.666C49.395 272.542 57.3274 236.855 60.7155 220.127L61.9861 173.35H58.1744L56.2686 177.797L50.5512 180.74L35.9399 179.703L29.5872 177.797L26.4109 173.986H9.8938L7.98799 171.211L1 119.754L1.63527 115.942L4.81163 113L51.8217 112.766C53.7275 100.06 62.6213 92.437 70.2446 87.3548C76.3432 83.289 88.4557 80.1772 93.7496 79.9654V71.7069C86.6346 69.1658 84.6441 60.0381 83.5853 55.5912C76.9785 52.5419 75.5385 46.7195 76.5973 44.3902C74.4798 42.0609 71.3881 35.8978 73.421 25.7335Z" fill="white"/>
<path d="M72.7856 32.0862C73.8021 16.3314 82.103 9.85168 86.1263 8.58113C90.7003 1.97431 101.161 1.16963 105.82 1.59315C112.172 2.65193 126.148 7.43765 131.231 18.1102C136.313 28.7828 133.348 40.3447 131.231 44.7916C128.69 37.6766 123.819 40.5565 121.702 42.8858C118.144 43.9022 112.596 39.9212 110.267 37.8036C98.5777 38.8201 88.4557 28.0628 84.8558 22.5571C85.8722 30.1804 82.3147 38.4389 80.4089 41.6152L76.5973 43.5211L72.7856 36.5331V32.0862Z" fill="#151515"/>
<path d="M11.7996 173.752H32.1283V163.587L32.7636 160.411L35.3047 159.14L37.8457 159.776L39.1163 157.87H41.6574L44.1985 159.776L46.1043 157.87H49.2806L51.1864 159.776H52.457H55.6333L58.1744 163.587V173.116H86.1264L89.3027 170.575L93.7496 157.87L81.6795 155.329L76.5973 117.213L74.6915 114.671L70.2446 113.401H5.4469L2.27054 114.671L1 118.483L7.98799 171.846L11.7996 173.752Z" fill="white"/>
<path d="M85.3389 22.8242C85.3389 22.8242 94.6159 37.7478 109.936 37.7478C110.444 37.7478 115.506 43.3641 122.243 42.4047" stroke="#151515" stroke-width="2" stroke-linecap="round" stroke-linejoin="round"/>
<path d="M100.854 50.6094C100.854 50.6094 99.1733 51.5859 99.1733 53.202C99.1733 54.8177 101.641 54.7558 101.641 54.7558" stroke="#151515" stroke-width="2" stroke-linecap="round" stroke-linejoin="round"/>
<path d="M72.9146 392.188L76.0567 402.244" stroke="#151515" stroke-width="2" stroke-linecap="round" stroke-linejoin="round"/>
<path d="M102.695 160.021C102.695 160.021 93.9544 158.335 81.939 155.604" stroke="#151515" stroke-width="2" stroke-linecap="round" stroke-linejoin="round"/>
<path d="M141.227 120.204L144.349 145.943" stroke="#151515" stroke-width="2" stroke-linecap="round" stroke-linejoin="round"/>
<path d="M121.957 43.1051C123.326 40.3653 128.701 39.1507 130.476 43.9977C133.165 51.3379 124.137 54.7123 124.137 54.7123" stroke="#151515" stroke-width="2" stroke-linecap="round" stroke-linejoin="round"/>
<path d="M96.6519 62.0028C101.4 63.7796 107.097 62.276 109.132 60.7725" stroke="#151515" stroke-width="2" stroke-linecap="round" stroke-linejoin="round"/>
<path d="M99.7534 43.1101C99.7534 43.1101 101.427 42.4144 103.676 43.1487" stroke="#151515" stroke-width="2" stroke-linecap="round" stroke-linejoin="round"/>
<path d="M127.121 398.787C127.121 398.787 113.553 402.16 106.462 408.834C101.796 413.225 104.177 416.521 107.107 417.437C107.875 417.677 145.29 415.66 147.031 413.471C149.615 410.223 146.411 398.344 146.411 398.344C146.411 398.344 134.409 400.829 127.582 398.787" stroke="#151515" stroke-width="2" stroke-linecap="round" stroke-linejoin="round"/>
<path d="M104.903 147.681C104.903 147.681 101.136 146.252 95.4209 142.096C89.4924 137.784 90.6151 135.991 80.3535 141.057" stroke="#151515" stroke-width="2" stroke-linecap="round" stroke-linejoin="round"/>
<path d="M125.304 80.2979C125.304 80.2979 152.007 82.0921 161.128 101.385C172.002 124.383 171.973 148.074 170.683 156.363C169.014 167.084 156.309 169.406 140.446 169.328C126.254 169.259 103.002 162.429 103.002 162.429L105.492 146.953C105.492 146.953 131.386 147.239 148.273 146.412" stroke="#151515" stroke-width="2" stroke-linecap="round" stroke-linejoin="round"/>
<path d="M81.7886 39.4062C81.7886 39.4062 81.9375 63.2083 90.4102 69.6361C98.1446 75.5036 104.143 74.5868 108.415 73.4627C114.141 71.956 121.244 62.7441 123.376 54.9675" stroke="#151515" stroke-width="2" stroke-linecap="round" stroke-linejoin="round"/>
<path d="M110.331 41.4658C111.267 41.4658 112.025 42.2476 112.025 43.2125V44.3774C112.025 45.3418 111.267 46.1241 110.331 46.1241C109.396 46.1241 108.638 45.3418 108.638 44.3774V43.2125C108.638 42.2476 109.396 41.4658 110.331 41.4658Z" fill="#151515"/>
<path d="M110.415 37.7544H111.214C114.525 37.7544 117.209 40.5233 117.209 43.9386C117.209 47.3543 114.525 50.1233 111.214 50.1233H110.415C107.104 50.1233 104.42 47.3543 104.42 43.9386C104.42 40.5233 107.104 37.7544 110.415 37.7544Z" stroke="#151515" stroke-width="2" stroke-linecap="round" stroke-linejoin="round"/>
<path d="M145.964 389.417V398.344" stroke="#151515" stroke-width="2" stroke-linecap="round" stroke-linejoin="round"/>
<path d="M28.0645 175.271C28.0645 175.271 30.0758 179.423 36.2074 179.423" stroke="#151515" stroke-width="2" stroke-linecap="round" stroke-linejoin="round"/>
<path d="M113.639 71.5459C113.639 71.5459 113.93 77.892 115.074 79.0359C116.865 80.8274 121.448 79.8325 125.909 80.7884" stroke="#151515" stroke-width="2" stroke-linecap="round" stroke-linejoin="round"/>
<path d="M92.1351 38.0156H92.9344C96.2448 38.0156 98.9289 40.7846 98.9289 44.2003C98.9289 47.6156 96.2448 50.3845 92.9344 50.3845H92.1351C88.8243 50.3845 86.1406 47.6156 86.1406 44.2003C86.1406 40.7846 88.8243 38.0156 92.1351 38.0156Z" stroke="#151515" stroke-width="2" stroke-linecap="round" stroke-linejoin="round"/>
<path d="M92.5512 41.6968C93.4864 41.6968 94.2449 42.4791 94.2449 43.4439V44.6083C94.2449 45.5732 93.4864 46.3555 92.5512 46.3555C91.616 46.3555 90.8579 45.5732 90.8579 44.6083V43.4439C90.8579 42.4791 91.616 41.6968 92.5512 41.6968Z" fill="#151515"/>
<path d="M126.548 388.748L127.44 399.014" stroke="#151515" stroke-width="2" stroke-linecap="round" stroke-linejoin="round"/>
<path d="M51.4719 160.963C51.4719 160.963 53.2329 157.571 56.3638 160.245C57.8822 161.542 57.9948 168.268 58.1903 171.269C58.4267 174.894 57.1452 179.354 51.4064 179.945C45.6681 180.535 41.0349 181.445 35.0337 178.836" stroke="#151515" stroke-width="2" stroke-linecap="round" stroke-linejoin="round"/>
<path d="M94.5826 71.9521C94.7467 76.2219 95.0307 79.8651 95.0307 79.8651C95.0307 79.8651 88.3261 81.6974 84.4443 82.4438" stroke="#151515" stroke-width="2" stroke-linecap="round" stroke-linejoin="round"/>
<path d="M107.745 33.2044C108.594 30.8432 117.534 32.1816 118.767 35.1771C119.999 38.1727 115.63 36.2604 112.875 35.7672C110.119 35.274 106.989 35.3054 107.745 33.2044Z" fill="#151515"/>
<path d="M102.129 226.888L102.538 253.856" stroke="#151515" stroke-width="2" stroke-linecap="round" stroke-linejoin="round"/>
<path d="M102.364 252.72L89.6111 307.049L94.4837 387.818C94.4837 387.818 78.5175 394.26 68.7139 391.179" stroke="#151515" stroke-width="2" stroke-linecap="round" stroke-linejoin="round"/>
<path d="M44.4268 159.658C44.4268 159.658 46.164 155.856 49.4497 157.962C51.9934 159.593 51.4717 169.704 51.4717 169.704" stroke="#151515" stroke-width="2" stroke-linecap="round" stroke-linejoin="round"/>
<path d="M81.9156 41.9571C81.9156 41.9571 77.3286 40.9568 76.8438 46.4215C76.2099 53.5643 83.3101 55.8605 83.3101 55.8605" stroke="#151515" stroke-width="2" stroke-linecap="round" stroke-linejoin="round"/>
<path d="M96.2041 227.706C96.2041 227.706 96.5289 239.431 97.0155 242.837C97.4161 245.641 102.129 250.179 102.129 250.179" stroke="#151515" stroke-width="2" stroke-linecap="round" stroke-linejoin="round"/>
<path d="M95.1179 33.9614C93.2999 30.4808 82.8199 34.0199 83.7053 37.2052C84.2867 39.2972 87.4095 37.2043 88.7753 36.6377C90.9037 35.7548 92.7509 35.9006 93.6578 35.7548C95.1982 35.507 95.6405 34.962 95.1179 33.9614Z" fill="#151515"/>
<path d="M151.979 214.017C158.821 270.558 147.89 389.168 147.89 389.168L120.68 388.702C120.68 388.702 116.421 358.009 112.54 323.583C108.658 289.158 102.772 250.79 102.772 250.79" stroke="#151515" stroke-width="2" stroke-linecap="round" stroke-linejoin="round"/>
<path d="M38.1822 161.561C38.1822 161.561 38.1393 158.06 41.4389 158.06C43.5561 158.06 44.3868 159.185 44.6958 162.701C45.0049 166.217 45.1843 170.274 45.1843 170.274" stroke="#151515" stroke-width="2" stroke-linecap="round" stroke-linejoin="round"/>
<path d="M86.173 8.35596C86.173 8.35596 78.3651 9.68614 74.1809 24.6098C69.9968 39.5333 77.3509 43.8704 77.3509 43.8704" stroke="#151515" stroke-width="2" stroke-linecap="round" stroke-linejoin="round"/>
<path d="M75.9351 402.297C75.9351 402.297 87.1843 403.717 94.4657 398.346" stroke="#151515" stroke-width="2" stroke-linecap="round" stroke-linejoin="round"/>
<path d="M60.4447 221.021C60.4447 221.021 44.7072 285.671 45.5603 303.582C46.4906 323.118 68.6568 391.199 68.6568 391.199" stroke="#151515" stroke-width="2" stroke-linecap="round" stroke-linejoin="round"/>
<path d="M37.0493 179.617C37.0493 179.617 32.4646 178.783 32.2181 171.263C32.0031 164.705 31.4355 163.74 32.4011 160.992C33.4596 157.979 37.8774 158.282 38.1006 161.806C38.3239 165.33 39.0776 170.844 39.0776 170.844" stroke="#151515" stroke-width="2" stroke-linecap="round" stroke-linejoin="round"/>
<path d="M86.2261 8.15574C86.2261 8.15574 88.7622 2.671 101.695 1.65059C114.628 0.63017 142.56 13.1438 131.251 46.3484" stroke="#151515" stroke-width="2" stroke-linecap="round" stroke-linejoin="round"/>
<path d="M75.3328 401.975C75.3328 401.975 57.1735 406.971 53.8443 417.758C52.1196 423.346 61.9138 422.492 61.9138 422.492C61.9138 422.492 95.2974 417.54 95.9232 416.148C97.3545 412.963 97.4222 406.109 94.599 398.583" stroke="#151515" stroke-width="2" stroke-linecap="round" stroke-linejoin="round"/>
<path d="M61.659 173.994C61.659 173.994 59.7455 218.605 60.6771 219.625C65.0025 224.363 85.0919 226.514 103.262 226.514C121.433 226.514 151.635 219.245 152.487 212.715C153.339 206.185 151.285 170.568 151.285 170.568" stroke="#151515" stroke-width="2" stroke-linecap="round" stroke-linejoin="round"/>
<path d="M32.4164 174.087C32.4164 174.087 13.6674 174.307 13.3161 174.321C7.57429 174.555 7.33992 169.165 7.33992 169.165L1.12942 120.536C1.12942 120.536 -0.301471 113.723 6.35251 113.444C14.3395 113.108 70.7343 113.036 70.7343 113.036C70.7343 113.036 76.1246 112.802 76.8275 118.075L82.2178 162.603" stroke="#151515" stroke-width="2" stroke-linecap="round" stroke-linejoin="round"/>
<path d="M85.3389 23.0791C85.3389 23.0791 84.0708 37.7475 79.7598 41.9568" stroke="#151515" stroke-width="2" stroke-linecap="round" stroke-linejoin="round"/>
<path d="M92.647 389.294L94.1891 399.154" stroke="#151515" stroke-width="2" stroke-linecap="round" stroke-linejoin="round"/>
<path d="M59.1416 173.632C59.1416 173.632 82.3516 173.073 82.6705 173.062C86.8057 172.919 87.6616 171.779 89.6576 169.069C89.7774 168.906 93.6507 158.517 93.6507 158.517" stroke="#151515" stroke-width="2" stroke-linecap="round" stroke-linejoin="round"/>
<path d="M125.909 80.9478C125.909 80.9478 122.244 93.0587 105.154 93.3036C89.3236 93.531 84.132 82.4033 84.132 82.4033C84.132 82.4033 67.2538 82.8048 57.1089 100.021C52.182 108.381 51.4854 112.986 51.4854 112.986" stroke="#151515" stroke-width="2" stroke-linecap="round" stroke-linejoin="round"/>
</svg>
