<svg width="200" height="200" viewBox="0 0 200 200" fill="none" xmlns="http://www.w3.org/2000/svg">
<rect width="200" height="200" fill="white"/>
<path d="M100.632 146.239H129.123H157.615V153H100.632V146.239Z" stroke="#151515" stroke-width="3" stroke-linecap="round" stroke-linejoin="round"/>
<path d="M115.748 131.752V145.273" stroke="#151515" stroke-width="3" stroke-linecap="round" stroke-linejoin="round"/>
<path d="M141.824 131.752L141.824 145.273" stroke="#151515" stroke-width="3" stroke-linecap="round" stroke-linejoin="round"/>
<path d="M62.5742 40H195.684C196.423 40 197.021 40.6578 197.021 41.4692V129.892C197.021 130.703 196.423 131.361 195.684 131.361H62.5742C61.8358 131.361 61.2373 130.703 61.2373 129.892V41.4692C61.2373 40.6578 61.8358 40 62.5742 40Z" stroke="#151515" stroke-width="3" stroke-linecap="round" stroke-linejoin="round"/>
<path d="M67.105 46.7056H191.155V124.656H67.105V46.7056Z" stroke="#151515" stroke-width="3" stroke-linecap="round" stroke-linejoin="round"/>
<circle cx="129.399" cy="85.744" r="20.3856" fill="#71B82B"/>
<path d="M137.34 85.958L125.753 92.6481L125.753 79.2679L137.34 85.958Z" fill="white"/>
<rect x="17.6445" y="75.5" width="102.711" height="66.2333" rx="1.5" fill="#151515" stroke="#151515" stroke-width="3"/>
<path d="M22.8452 80.7007H115.156V137.278H22.8452V80.7007Z" fill="white" stroke="#151515" stroke-width="3" stroke-linecap="round" stroke-linejoin="round"/>
<path d="M2 146.956H136V151.423H2V146.956Z" fill="#151515" stroke="#151515" stroke-width="3" stroke-linecap="round" stroke-linejoin="round"/>
<path d="M136 151.53C135.184 153.237 133.571 154.4 131.716 154.4H6.33362C4.43942 154.4 2.79879 153.188 2 151.422" fill="#151515"/>
<path d="M136 151.53C135.184 153.237 133.571 154.4 131.716 154.4H6.33362C4.43942 154.4 2.79879 153.188 2 151.422" stroke="#151515" stroke-width="3" stroke-linecap="round" stroke-linejoin="round"/>
<path d="M78.6698 149.877C78.6698 150.502 77.9859 151.009 77.1424 151.009H61.2281C60.3846 151.009 59.7007 150.502 59.7007 149.877" fill="white" stroke="white" stroke-width="3" stroke-linecap="round" stroke-linejoin="round"/>
<circle cx="68.6999" cy="108.928" r="14.5607" fill="#71B82B"/>
<path d="M74.3716 109.081L66.095 113.859L66.095 104.302L74.3716 109.081Z" fill="white"/>
<path d="M95.8399 104.143H120.305C122.323 104.143 123.959 105.641 123.959 107.489V156.195C123.959 158.043 122.323 159.541 120.305 159.541H95.8399C93.8222 159.541 92.1865 158.043 92.1865 156.195V107.489C92.1865 105.641 93.8222 104.143 95.8399 104.143Z" fill="white"/>
<path d="M95.8399 104.143H120.305C122.323 104.143 123.959 105.641 123.959 107.489V156.195C123.959 158.043 122.323 159.541 120.305 159.541H95.8399C93.8222 159.541 92.1865 158.043 92.1865 156.195V107.489C92.1865 105.641 93.8222 104.143 95.8399 104.143Z" stroke="#151515" stroke-width="3" stroke-linecap="round" stroke-linejoin="round"/>
<path d="M96.2603 111.476H119.886V146.507H96.2603V111.476Z" stroke="#151515" stroke-width="3" stroke-linecap="round" stroke-linejoin="round"/>
<path d="M107.956 149.577C109.966 149.577 111.595 151.206 111.595 153.216C111.595 155.226 109.966 156.855 107.956 156.855C105.946 156.855 104.317 155.226 104.317 153.216C104.317 151.206 105.946 149.577 107.956 149.577Z" stroke="#151515" stroke-width="3" stroke-linecap="round" stroke-linejoin="round"/>
<path d="M104.767 107.402H110.977C111.174 107.402 111.333 107.561 111.333 107.758C111.333 107.954 111.174 108.113 110.977 108.113H104.767C104.571 108.113 104.412 107.954 104.412 107.758C104.412 107.561 104.571 107.402 104.767 107.402Z" stroke="#151515" stroke-width="3" stroke-linecap="round" stroke-linejoin="round"/>
<circle cx="107.666" cy="128.584" r="7.33208" fill="#71B82B"/>
<path d="M110.521 128.661L106.353 131.067L106.353 126.255L110.521 128.661Z" fill="white"/>
</svg>
