<svg width="200" height="200" viewBox="0 0 200 200" fill="none" xmlns="http://www.w3.org/2000/svg">
<rect width="200" height="200" fill="white"/>
<path d="M116.12 159.241L113.806 162.018" stroke="#151515" stroke-width="3"/>
<path d="M149.438 73.6323C148.204 80.8821 146.662 96.3072 152.215 99.0838C159.156 102.555 164.709 100.935 166.097 97.2328" stroke="#151515" stroke-width="3"/>
<path d="M176.741 82.4248C177.666 87.9778 173.039 89.8284 170.262 89.8284" stroke="#151515" stroke-width="3"/>
<path d="M167.948 79.6472C164.246 72.7059 153.14 83.8116 145.273 68.078C150.826 66.227 151.929 61.4036 161.007 59.286C174.89 56.0476 188.772 71.318 176.278 86.5886C178.499 79.184 173.193 78.4139 170.725 79.1853C169.247 79.6472 168.874 80.5736 168.874 83.3492L167.948 79.6472Z" fill="#151515" stroke="#151515" stroke-width="3"/>
<path d="M159.156 101.86V106.95" stroke="#151515" stroke-width="3"/>
<path d="M175.353 88.4399L174.89 102.785" stroke="#151515" stroke-width="3"/>
<path d="M177.667 106.488C175.445 105.378 162.858 110.19 157.305 112.504C154.683 118.211 149.253 134.716 148.513 147.673H141.572V162.018H159.619C166.56 162.172 183.96 161.463 185.071 161.093C186.459 160.63 189.235 147.21 187.384 134.716C185.533 122.222 180.443 107.876 177.667 106.488Z" fill="#151515" stroke="#151515" stroke-width="3"/>
<path d="M133.705 148.135C132.162 147.364 128.522 145.821 126.301 145.821C124.079 145.821 122.907 148.752 122.599 149.523" stroke="#151515" stroke-width="3"/>
<path d="M128.615 137.955L123.524 147.21" stroke="#151515" stroke-width="3"/>
<path d="M133.705 161.555C130.928 162.018 124.727 162.666 122.136 161.555C118.896 160.167 112.881 156.927 114.732 154.151C116.583 151.374 118.897 145.821 121.21 145.821C123.061 145.821 125.067 145.821 125.838 145.821" stroke="#151515" stroke-width="3"/>
<path d="M161.007 126.386C161.007 131.939 161.77 140.894 158.231 144.433C154.529 148.135 138.332 146.747 134.167 146.747V162.018H158.231C166.097 162.018 172.576 157.39 174.427 151.837C176.278 146.284 175.815 137.955 175.815 130.088" stroke="#151515" stroke-width="3"/>
<path d="M140.646 147.21V162.481" stroke="#151515" stroke-width="3"/>
<path d="M175.815 106.488V102.786C170.571 103.711 159.526 106.303 157.305 109.264V112.966" stroke="#151515" stroke-width="3"/>
<path d="M50.5621 73.6323C51.7962 80.8821 53.3383 96.3072 47.7858 99.0838C40.8449 102.555 35.2915 100.935 33.9033 97.2328" stroke="#151515" stroke-width="3"/>
<path d="M23.2597 82.4248C22.3342 87.9778 26.9618 89.8284 29.7383 89.8284" stroke="#151515" stroke-width="3"/>
<path d="M32.052 79.6471C37.4514 79.6471 43.4672 73.6323 51.334 73.6323C51.334 65.7655 48.071 61.4034 38.9933 59.2859C25.1107 56.0475 11.2281 71.3179 23.7224 86.5885C21.6241 78.8136 25.7795 77.3341 28.1963 78.2598C30.6131 79.1855 31.2807 81.3438 31.1265 83.3491L32.052 79.6471Z" fill="#151515" stroke="#151515" stroke-width="3"/>
<path d="M40.8442 101.86V111.578" stroke="#151515" stroke-width="3"/>
<path d="M24.6479 88.4399L24.6479 106.025" stroke="#151515" stroke-width="3"/>
<path d="M40.3812 162.018C33.4399 162.172 16.0404 161.463 14.9298 161.093C13.5415 160.63 10.765 147.21 12.616 134.716C14.467 122.222 19.5573 107.876 22.3338 106.488C24.555 105.378 31.898 112.504 42.695 112.504C45.3173 118.211 50.7469 132.865 51.4873 145.822" stroke="#151515" stroke-width="3"/>
<path d="M39.8165 126.386C39.8165 131.939 39.0537 140.894 42.5931 144.433C46.2951 148.135 62.4915 146.747 66.6562 146.747V162.018H42.5931C34.7263 162.018 28.2477 157.39 26.3967 151.837C24.5457 146.284 25.0084 137.955 25.0084 130.088" stroke="#151515" stroke-width="3"/>
<path d="M59.3545 147.21V162.481" stroke="#151515" stroke-width="3"/>
<path d="M66.605 147.929C69.4964 146.923 75.6919 145.413 77.5619 145.413C78.6366 145.413 80.225 146.082 79.8446 148.598C79.388 151.617 77.0595 152.961 79.8446 152.961C84.1896 152.961 91.1433 153.908 92.0564 156.927C92.9695 159.946 88.7741 162.017 85.5783 162.017C82.3826 162.017 71.6269 162.017 66.605 162.017" stroke="#151515" stroke-width="3"/>
<path d="M66.6055 162.018H123.061" stroke="#151515" stroke-width="3"/>
<path d="M81.8368 79.4248L73.2726 86.6187L74.1059 80.7855L74.3505 79.0733H72.621H64.2012C62.2682 79.0733 60.7012 77.5063 60.7012 75.5733V43C60.7012 41.067 62.2682 39.5 64.2012 39.5H125.465C127.398 39.5 128.965 41.067 128.965 43V75.5733C128.965 77.5063 127.398 79.0733 125.465 79.0733H82.8016H82.2552L81.8368 79.4248Z" fill="#71B82B" stroke="#151515" stroke-width="3"/>
</svg>
