<svg width="200" height="200" viewBox="0 0 200 200" fill="none" xmlns="http://www.w3.org/2000/svg">
<rect width="200" height="200" fill="white"/>
<rect x="21.5" y="51.9783" width="157.582" height="95.5245" fill="white" stroke="#151515" stroke-width="3"/>
<path d="M125.965 77.6147L116 84.4843" stroke="#71B82B" stroke-width="5"/>
<path d="M129.687 89.7375L117.61 90.5471" stroke="#71B82B" stroke-width="5"/>
<path d="M128.134 102.033L117.203 96.8377" stroke="#71B82B" stroke-width="5"/>
<rect x="20" y="46" width="160.582" height="16.3141" fill="#151515"/>
<rect x="24" y="49" width="15.876" height="10.5562" rx="2" fill="white"/>
<rect x="43.5889" y="49" width="15.876" height="10.5562" rx="2" fill="white"/>
<rect x="82.7666" y="49" width="15.876" height="10.5562" rx="2" fill="white"/>
<rect x="63.1787" y="49" width="15.876" height="10.5562" rx="2" fill="white"/>
<rect x="102.356" y="49" width="15.876" height="10.5562" rx="2" fill="white"/>
<rect x="121.945" y="49" width="15.876" height="10.5562" rx="2" fill="white"/>
<rect x="161.124" y="49" width="15.876" height="10.5562" rx="2" fill="white"/>
<rect x="141.535" y="49" width="15.876" height="10.5562" rx="2" fill="white"/>
<rect x="20" y="137" width="160.582" height="16.3141" fill="#151515"/>
<rect x="24" y="140" width="15.876" height="10.5562" rx="2" fill="white"/>
<rect x="43.5889" y="140" width="15.876" height="10.5562" rx="2" fill="white"/>
<rect x="82.7666" y="140" width="15.876" height="10.5562" rx="2" fill="white"/>
<rect x="63.1787" y="140" width="15.876" height="10.5562" rx="2" fill="white"/>
<rect x="102.356" y="140" width="15.876" height="10.5562" rx="2" fill="white"/>
<rect x="121.945" y="140" width="15.876" height="10.5562" rx="2" fill="white"/>
<rect x="161.124" y="140" width="15.876" height="10.5562" rx="2" fill="white"/>
<rect x="141.535" y="140" width="15.876" height="10.5562" rx="2" fill="white"/>
<path d="M83.1806 116.718C85.2263 115.659 87.8775 114.588 88.082 111.412C88.2457 108.871 88.1502 106.882 88.082 106.106C86.1526 104.659 85.4309 102.185 84.8172 99.8564C84.3175 99.5978 83.1806 98.9036 82.5669 97.7391C81.564 95.8359 81.135 92.2342 83.1806 91.1755" stroke="#151515" stroke-width="3"/>
<path d="M98.1683 70.1976C99.3376 68.1212 102.846 67.4093 105.184 68.5246C107.523 69.6399 109.277 75.8677 103.43 78.9657C100.688 80.419 95.6347 78.9657 92.9062 77.8505C95.2449 76.7352 96.9946 72.2817 98.1683 70.1976Z" fill="#151515"/>
<path d="M107.469 115.948C106.412 114.788 102.275 114.105 102.071 110.929C101.907 108.389 102.003 106.4 102.071 105.624C103.503 104.353 105.219 102.185 105.832 99.8564C106.332 99.5978 107.469 98.9036 108.082 97.7391C109.085 95.8359 109.514 92.2342 107.469 91.1755" stroke="#151515" stroke-width="3"/>
<path d="M122.323 125.526C120.488 122.488 108.852 116.242 103.5 113.5L95.8856 137.777H95.2408L87.1806 114.242C81.1336 117.617 66.3363 126.247 65.5022 127.765C64.6681 129.284 63 136.094 63 138.906" stroke="#151515" stroke-width="3"/>
<path d="M116.842 139.712L124.257 121.98L134.252 125.203C133.392 129.18 132.304 133.586 130.047 139.712" stroke="#151515" stroke-width="3"/>
<path d="M84.6011 115.531L83.0508 120.045L85.6707 122.506L84.6011 125.849L95.2406 139.067" stroke="#151515" stroke-width="3"/>
<path d="M106.847 115.531L108.397 120.045L105.929 122.506L106.847 125.849L96.2077 139.067" stroke="#151515" stroke-width="3"/>
<path d="M90.4043 122.947C91.8014 124.559 98.2431 125.526 100.5 122.947" stroke="#151515" stroke-width="3"/>
<path d="M87.6003 93.0823C87.6003 88.2487 88.1478 79.4218 95.2408 77.8097C104.388 79.0994 103.518 93.5647 103.518 93.5647C104.726 89.9395 108.315 90.8735 109.222 91.7798C111.397 81.6293 106.563 76.3777 102.334 74.263C99.2122 72.9539 92.3038 70.9349 86.262 76.6749C80.7602 81.9018 81.7306 88.8595 82.6369 91.7798C84.087 90.3297 86.9961 91.8739 87.6003 93.0823Z" fill="#151515" stroke="#151515" stroke-width="3"/>
<path d="M132.963 125.073C133.285 123.139 138.875 120.31 141.668 119.593C146.182 118.433 145.214 116.561 143.925 115.724C142.635 114.886 134.575 114.886 134.575 114.886C136.187 109.858 132.39 110.373 131.673 111.985C130.957 113.597 129.002 116.82 128.449 117.788C127.16 120.045 127.16 120.69 126.192 122.302" stroke="#151515" stroke-width="3"/>
<path d="M103.892 85.1795C103.256 87.2986 101.053 91.695 97.2837 92.56C97.2146 92.6841 97.1579 92.6683 97.1212 92.5949C97.1757 92.584 97.2299 92.5724 97.2837 92.56C97.417 92.3208 97.5961 91.5616 97.766 89.6932C97.2287 90.6605 93.8326 93.5622 87.1265 93.5622C85.2995 88.7261 84.9987 77.8286 95.8316 76.7969C106.664 75.7652 105.719 81.9555 103.892 85.1795Z" fill="#151515"/>
</svg>
