<svg width="200" height="200" viewBox="0 0 200 200" fill="none" xmlns="http://www.w3.org/2000/svg">
<rect width="200" height="200" fill="white"/>
<circle cx="100" cy="100" r="65.5" stroke="#151515" stroke-width="3"/>
<path d="M63.8344 140.961C74.0571 143.572 86.7358 145.122 100.474 145.122C114.198 145.122 126.862 143.572 137.072 140.976C138.829 140.53 139.917 138.799 139.596 137.011C139.521 136.59 139.411 136.195 139.32 135.786C139.304 135.711 139.287 135.636 139.27 135.561C139.172 135.138 139.093 134.7 138.983 134.29C138.787 133.564 138.578 132.865 138.327 132.196C138.219 131.858 138.081 131.555 137.958 131.233C137.95 131.212 137.941 131.19 137.933 131.168C137.794 130.808 137.668 130.432 137.518 130.088C136.235 127.046 134.673 124.743 133.432 123.612C131.841 122.146 124.644 118.49 118.508 115.363C114.031 113.059 111.506 111.063 110.781 110.406V106.527V104.392C111.116 104.265 111.437 104.028 111.743 103.693C111.799 103.638 111.855 103.581 111.897 103.511C112.748 102.55 113.445 101.46 113.794 100.442C113.835 100.316 113.877 100.19 113.919 100.065C114.686 97.8864 115.272 95.4315 115.384 94.7322C115.397 94.6621 115.397 94.6069 115.411 94.5509C115.732 94.6477 116.039 94.69 116.304 94.69C119.54 94.69 120.865 88.0597 121.046 86.3156C121.242 84.5572 119.679 83.357 119.107 82.8955C119.233 82.616 119.386 82.1983 119.54 81.7089C119.554 81.6809 119.568 81.6387 119.581 81.5977C119.777 80.9973 120.055 80.1876 120.307 79.0576C120.46 78.3864 120.6 77.5917 120.725 76.6558C120.809 76.084 120.823 75.4698 120.795 74.8701C120.753 73.6134 120.488 72.3144 120.028 71.1284C119.651 70.0959 119.121 69.1463 118.479 68.379L118.466 68.3647C118.019 67.8351 117.518 67.2899 116.986 66.8012C114.895 64.7769 112.426 63.1437 111.269 63.1437C108.926 58.929 105.927 56.1933 100.376 55.8163C100.041 55.802 99.7069 55.802 99.3439 55.7891H99.2738C95.0896 55.7891 88.0322 59.3898 84.4343 64.3031C84.4343 64.3174 84.4343 64.3174 84.4343 64.3174C84.0714 64.8062 83.7506 65.3076 83.472 65.8106C82.9974 66.6755 82.5649 67.4853 82.2026 68.2534C81.617 69.4958 81.1701 70.6538 80.8915 71.8117C80.724 72.3562 80.6122 72.9144 80.5564 73.4877C80.3195 75.1066 80.361 76.8233 80.6823 78.8891V78.9027C80.8077 79.7552 80.9752 80.6761 81.1986 81.6665C81.2122 81.6808 81.2122 81.6951 81.2122 81.7087C81.3797 82.1981 81.5186 82.6158 81.6726 82.8953C81.1142 83.3568 79.7337 84.1235 79.9013 85.869C80.0817 87.6267 81.2122 94.6896 84.4478 94.6896C84.7393 94.6896 85.0451 94.6474 85.3774 94.5513C85.3795 94.5513 85.3808 94.5513 85.3822 94.5513C85.4387 95.1101 85.7315 96.7003 86.3308 98.319C86.4986 98.7934 86.6931 99.3939 86.903 100.022C86.9445 100.148 86.9862 100.26 87.0282 100.386C87.3769 101.391 88.0321 102.479 88.8555 103.414C88.9394 103.511 89.0366 103.61 89.1203 103.707C89.4268 104.028 89.7483 104.265 90.0827 104.392V106.485V110.407C89.3717 111.064 86.8328 113.074 82.3701 115.363C76.2335 118.503 69.0643 122.161 67.474 123.612C66.2332 124.729 64.6702 127.046 63.3736 130.088C63.0943 130.759 62.8152 131.457 62.5645 132.197C62.3276 132.866 62.1041 133.565 61.9229 134.29C61.6717 135.169 61.4769 136.076 61.3094 137.012C61.0027 138.799 62.091 140.515 63.8344 140.961Z" fill="#71B82B"/>
</svg>
