<svg width="200" height="200" viewBox="0 0 200 200" fill="none" xmlns="http://www.w3.org/2000/svg">
<path fill-rule="evenodd" clip-rule="evenodd" d="M64.4764 49.9794C47.303 59.8883 34.5998 76.6783 30.1338 96.5822H40.4272C44.1698 82.3684 52.829 70.1494 64.4764 61.8538V49.9794ZM100.428 184.465C89.9796 184.465 80.0503 182.24 71.0883 178.239V167.103C79.8241 171.8 89.8151 174.465 100.428 174.465C111.098 174.465 121.138 171.772 129.906 167.028V178.178C120.908 182.218 110.931 184.465 100.428 184.465ZM170.723 96.5822C166.269 76.7315 153.622 59.9782 136.518 50.059V61.9522C148.096 70.2459 156.702 82.4245 160.43 96.5822H170.723Z" fill="#71B82B"/>
<path d="M136.046 143.595V143.596V151.899C136.046 151.974 135.987 152.064 135.931 152.093L123.489 157.697C123.119 157.864 122.782 157.856 122.567 157.771C122.369 157.692 122.279 157.56 122.279 157.38V138.12C122.279 137.941 122.369 137.808 122.567 137.729C122.782 137.644 123.119 137.636 123.489 137.803C123.489 137.803 123.489 137.803 123.489 137.803L135.931 143.401C135.987 143.43 136.046 143.52 136.046 143.595Z" fill="#151515" stroke="#151515"/>
<path d="M142.528 137.924H182.215C183.261 137.924 184.12 138.782 184.12 139.828V162.284C184.12 163.33 183.262 164.188 182.216 164.188H142.528C141.482 164.188 140.623 163.33 140.623 162.284V139.828C140.623 138.782 141.481 137.924 142.528 137.924Z" fill="#151515" stroke="#151515"/>
<path d="M164.06 110.441L164.06 110.44C166.779 106.376 171.394 103.694 176.647 103.694C185.019 103.694 191.806 110.481 191.806 118.853C191.806 127.225 185.019 134.012 176.647 134.012C170.494 134.012 165.207 130.339 162.831 125.067L162.377 124.06L161.92 125.066C161.652 125.656 161.342 126.222 161.004 126.77L161.003 126.77C160.98 126.807 160.959 126.845 160.941 126.875L160.934 126.887C160.914 126.922 160.899 126.948 160.885 126.971L160.884 126.972C160.847 127.029 160.817 127.073 160.781 127.124C160.754 127.162 160.724 127.205 160.686 127.261L160.685 127.263C157.966 131.329 153.35 134.012 148.096 134.012C139.724 134.012 132.937 127.225 132.937 118.853C132.937 110.481 139.724 103.694 148.096 103.694C154.249 103.694 159.537 107.367 161.912 112.638L162.365 113.645L162.823 112.64C163.092 112.048 163.404 111.48 163.744 110.929L163.744 110.929C163.769 110.888 163.793 110.847 163.81 110.816C163.83 110.782 163.845 110.757 163.859 110.735L163.859 110.735C163.896 110.676 163.927 110.633 163.962 110.583C163.99 110.543 164.021 110.5 164.06 110.441ZM141.545 118.853V118.853C141.545 122.466 144.483 125.405 148.096 125.405C151.709 125.405 154.647 122.466 154.647 118.853C154.647 115.24 151.709 112.302 148.096 112.302C144.483 112.302 141.545 115.24 141.545 118.853ZM170.096 118.853C170.096 122.466 173.035 125.404 176.647 125.404C180.26 125.404 183.199 122.466 183.199 118.853C183.199 115.24 180.26 112.301 176.647 112.301C173.035 112.301 170.096 115.24 170.096 118.853Z" fill="#151515" stroke="#151515"/>
<rect x="8" y="102.173" width="55" height="61" rx="3" fill="#151515"/>
<rect x="11" y="105.173" width="7.51894" height="8.81216" rx="2" fill="white"/>
<rect x="11" y="116.72" width="7.51894" height="8.81216" rx="2" fill="white"/>
<rect x="11" y="128.267" width="7.51894" height="8.81216" rx="2" fill="white"/>
<rect x="11" y="139.814" width="7.51894" height="8.81216" rx="2" fill="white"/>
<rect x="11" y="151.361" width="7.51894" height="8.81216" rx="2" fill="white"/>
<rect x="53" y="105.173" width="7.51894" height="8.81216" rx="2" fill="white"/>
<rect x="53" y="116.72" width="7.51894" height="8.81216" rx="2" fill="white"/>
<rect x="53" y="128.267" width="7.51894" height="8.81216" rx="2" fill="white"/>
<rect x="53" y="139.814" width="7.51894" height="8.81216" rx="2" fill="white"/>
<rect x="53" y="151.361" width="7.51894" height="8.81216" rx="2" fill="white"/>
<rect x="21" y="105.173" width="29" height="26" rx="2" fill="white"/>
<rect x="21" y="134.173" width="29" height="26" rx="2" fill="white"/>
<path d="M51.9019 157.31L57.7561 155.037L56.7919 150.698L54.2436 149.32L43.637 131.138L40.4 131.964L45.29 145.946L31.9974 141.469L30.8954 144.017L51.9019 157.31Z" fill="white"/>
<path d="M82.2597 162.974C82.2591 162.975 82.2579 162.976 82.2579 162.977C82.2568 162.977 82.2568 162.978 82.2568 162.978L82.2597 162.974Z" fill="#151515"/>
<path d="M61.0468 183.395L61.0464 183.394C61.0517 183.392 61.0571 183.39 61.0625 183.388L60.9838 183.203L60.983 183.2L61.0558 183.372L61.0563 183.373L61.0628 183.388C61.7146 183.112 62.2963 182.793 62.7993 182.435C63.7304 181.769 64.4039 180.946 64.7425 179.993C64.9386 179.446 65.0214 178.893 65.0209 178.353C65.0157 176.533 64.1142 174.854 63.4456 173.578C61.864 170.564 57.2266 161.385 55.5804 158.127L56.3034 156.478L57.9438 155.756C61.2099 157.41 70.3892 162.047 73.4028 163.63C74.6729 164.291 76.3549 165.191 78.1725 165.196C78.7135 165.196 79.2654 165.114 79.8109 164.918C80.7589 164.581 81.5914 163.917 82.2583 162.976C82.6163 162.481 82.936 161.899 83.2047 161.238C83.2047 161.238 83.2051 161.238 83.2051 161.237C83.2059 161.235 83.2067 161.234 83.2071 161.232L83.2067 161.232C83.7274 160.002 83.9924 158.749 83.9919 157.516C83.9924 156.336 83.7506 155.174 83.2677 154.069C82.6807 152.725 81.9503 151.593 80.9237 150.647C79.8976 149.701 78.5854 148.948 76.8539 148.323C75.267 147.746 73.7708 147.513 72.3857 147.513C68.7205 147.514 65.8503 149.134 63.9688 150.193C63.6834 150.348 63.4258 150.494 63.1898 150.619C62.297 151.096 61.6223 151.245 61.1255 151.245C61.0216 151.244 60.931 151.233 60.8411 151.222C60.7987 151.216 60.7555 151.212 60.7147 151.204C60.5709 151.177 60.449 151.136 60.3403 151.089C60.2772 151.061 60.2154 151.032 60.1561 150.997C60.1075 150.969 60.0576 150.94 60.0165 150.91C59.9011 150.826 59.8159 150.74 59.7553 150.671L59.6804 150.581L59.6502 150.543L59.6087 150.496L59.6091 150.495L59.4319 150.31L59.3355 150.208L57.6967 149.98C57.1908 149.734 56.4308 149.355 55.6353 148.96C53.29 144.8 48.9651 137.24 45.2339 131.267L45.2323 131.264C44.8726 130.699 44.2901 130.324 43.6293 130.228L43.6252 130.227C43.3623 130.191 43.0979 130.174 42.8343 130.174C42.6467 130.174 42.4593 130.183 42.2739 130.201C42.0251 130.226 41.768 130.26 41.5143 130.323L41.5143 130.322C41.5131 130.322 41.5119 130.323 41.511 130.323C41.5097 130.323 41.5082 130.323 41.5069 130.324L41.5069 130.324C40.4836 130.56 39.7652 131.468 39.7672 132.52C39.7668 132.8 39.8154 133.076 39.9146 133.334L39.9155 133.336C40.1627 133.966 40.7682 135.58 41.5419 137.627C42.3065 139.664 43.0501 141.635 43.743 143.475L44.0014 144.192C41.9679 143.42 39.7425 142.58 37.4425 141.717C35.3963 140.951 33.7847 140.339 33.1584 140.098C32.8948 139.996 32.6151 139.943 32.3342 139.943C31.9758 139.943 31.6156 140.03 31.2877 140.207L31.2873 140.206C31.2862 140.207 31.2853 140.207 31.2845 140.208C31.2836 140.209 31.2825 140.209 31.2821 140.209L31.2821 140.209C30.7069 140.513 30.2863 141.051 30.1393 141.689L30.1372 141.698C30.0869 141.94 30.0437 142.188 30.0178 142.449L30.0165 142.467L30.0165 142.467C30.0083 142.622 30 142.8 30 142.997C30 143.264 30.0169 143.538 30.0515 143.806C30.1397 144.476 30.5265 145.059 31.093 145.41C37.0652 149.149 44.6478 153.489 48.8004 155.834C49.1794 156.611 49.5497 157.353 49.8043 157.856L50.0235 159.504L50.3048 159.786L50.311 159.792L50.3179 159.799L50.4044 159.867C50.4901 159.932 50.6508 160.062 50.7953 160.288C50.8271 160.338 50.8571 160.395 50.8859 160.454C50.8963 160.475 50.9049 160.498 50.9144 160.52C50.9697 160.647 51.0166 160.793 51.0425 160.968C51.0437 160.975 51.0441 160.983 51.0454 160.99C51.0586 161.085 51.0668 161.188 51.0672 161.3C51.0672 161.797 50.9177 162.474 50.436 163.372L50.4308 163.383C50.3162 163.612 50.1762 163.862 50.0171 164.132L50.0127 164.14C48.9597 166.021 47.337 168.897 47.3362 172.573C47.3357 173.956 47.5672 175.45 48.1396 177.037C48.7691 178.766 49.5242 180.076 50.4713 181.101C51.4176 182.126 52.5492 182.856 53.894 183.443C54.9992 183.927 56.1638 184.171 57.3491 184.171C58.5495 184.171 59.7698 183.916 60.9719 183.422C60.9965 183.412 61.0221 183.405 61.0468 183.395ZM55.3448 180.003C53.467 179.222 52.4759 178.158 51.6136 175.788C51.2025 174.644 51.0332 173.564 51.0332 172.573C51.0332 170.405 51.823 168.705 52.5159 167.883C52.5562 167.826 52.6045 167.778 52.6527 167.729L52.7255 167.657C52.7737 167.617 52.8223 167.577 52.8705 167.544L53.0073 167.455C53.886 167.012 55.3288 166.69 55.7956 167.367C56.6017 168.527 57.698 170.34 58.6007 172.114C59.5918 174.064 61.1631 177.094 60.7923 178.238C60.6955 178.536 60.5427 178.802 60.3174 179.036C60.2927 179.06 60.2687 179.084 60.2366 179.109C60.2284 179.125 60.2124 179.132 60.2041 179.141C60.188 179.157 60.172 179.165 60.1481 179.181C60.1239 179.197 60.0995 179.221 60.0673 179.238C59.914 179.35 59.7369 179.439 59.5515 179.535C58.3023 180.173 56.6821 180.559 55.3448 180.003ZM75.6612 151.733C78.0304 152.595 79.094 153.586 79.876 155.464C80.0141 155.796 80.0931 156.145 80.1257 156.501C80.1261 156.507 80.1268 156.513 80.1272 156.519C80.2204 157.595 79.8846 158.736 79.4084 159.671C79.3276 159.848 79.239 160.009 79.1423 160.163C79.1345 160.178 79.1262 160.194 79.1184 160.203C79.0455 160.299 78.9735 160.38 78.9009 160.453L78.8767 160.476C78.7959 160.557 78.7156 160.622 78.6348 160.678C78.5944 160.71 78.5541 160.742 78.506 160.759C78.377 160.839 78.232 160.896 78.0952 160.944C76.9425 161.315 73.9125 159.743 71.9623 158.752C70.1892 157.849 68.3761 156.745 67.2156 155.939C66.9334 155.754 66.8288 155.391 66.8288 154.98C66.8288 154.384 67.0463 153.675 67.312 153.159L67.3684 153.046C67.4249 152.966 67.4977 152.885 67.5777 152.797C67.5942 152.78 67.6103 152.764 67.6263 152.756C67.7231 152.668 67.8277 152.571 67.9567 152.482C68.0696 152.401 68.1907 152.321 68.3193 152.24C68.4321 152.168 68.5615 152.095 68.6901 152.031C68.8029 151.966 68.9319 151.91 69.0527 151.854C70.5998 151.169 72.9694 150.757 75.6612 151.733ZM44.2069 139.008C44.1509 138.847 44.0944 138.693 44.0379 138.549C43.9815 138.403 43.9333 138.266 43.8847 138.137C43.7879 137.895 43.6993 137.654 43.6186 137.428C43.0628 135.961 42.5874 134.68 42.2406 133.77C42.1923 133.633 42.1442 133.504 42.0956 133.383C42.0718 133.318 42.0474 133.254 42.023 133.189C41.9992 133.125 41.9748 133.068 41.9584 133.02C41.9427 132.988 41.9346 132.964 41.9262 132.931C41.9024 132.875 41.8784 132.819 41.8538 132.762C41.8376 132.706 41.8138 132.657 41.7978 132.609L41.7816 132.52C41.7816 132.407 41.8538 132.311 41.9666 132.287C42.0877 132.254 42.2566 132.222 42.4585 132.206C42.7081 132.182 43.0143 132.182 43.3532 132.23L43.5222 132.335C45.3435 135.244 47.2938 138.516 49.0828 141.587C49.276 141.925 49.4775 142.263 49.6711 142.602C50.0658 143.271 50.4448 143.932 50.8078 144.568C51.0814 145.036 51.3474 145.495 51.6053 145.946C51.7502 146.204 51.8953 146.454 52.0403 146.704C52.1775 146.945 52.3143 147.187 52.451 147.429C52.5803 147.663 52.7171 147.888 52.8378 148.114L52.8222 148.106C51.9842 147.703 49.7358 146.817 46.7292 145.664C46.6489 145.447 46.5598 145.229 46.48 145.003C46.375 144.737 46.2698 144.472 46.1735 144.198C46.1092 144.028 46.0363 143.851 45.9721 143.674C45.8831 143.44 45.7946 143.206 45.7064 142.972C45.198 141.627 44.6905 140.273 44.2069 139.008ZM32.0308 142.634C34.1673 143.11 41.532 146.003 45.8028 147.744C46.1736 147.897 46.5201 148.042 46.8345 148.171C47.2213 148.332 47.576 148.477 47.866 148.598C47.9468 148.63 48.0189 148.654 48.0836 148.686C51.0975 149.96 52.2905 149.75 52.3227 149.646C52.8223 149.855 53.4992 150.177 54.1921 150.508C54.6271 150.717 55.0544 150.935 55.4655 151.128L55.4733 151.128C55.5623 151.29 55.6431 151.443 55.7233 151.58L56.3038 153.474L56.5212 154.191L55.8683 154.473L55.8601 154.473L54.7726 154.956L52.854 155.794C52.854 155.794 51.9037 155.271 50.3403 154.384L50.332 154.384C49.9612 154.175 49.5584 153.949 49.1233 153.699C48.7525 153.49 48.3579 153.264 47.9381 153.03C43.6512 150.589 37.3247 146.938 32.1594 143.706L32.0461 143.529C32.0218 143.343 32.014 143.158 32.014 142.997C32.014 142.87 32.0144 142.752 32.03 142.641C32.0304 142.638 32.0304 142.637 32.0308 142.634Z" fill="#151515"/>
<path d="M50.6945 152.643C50.6945 153.062 50.8556 153.481 51.17 153.796C51.4925 154.11 51.9115 154.271 52.3227 154.271C52.7416 154.271 53.1606 154.11 53.475 153.796C53.7892 153.481 53.9508 153.062 53.9508 152.643C53.9508 152.232 53.7892 151.813 53.475 151.491C53.1606 151.177 52.7416 151.015 52.3227 151.015C51.9116 151.015 51.4926 151.177 51.17 151.491C50.8556 151.813 50.6945 152.232 50.6945 152.643ZM52.524 153.428L52.524 152.133L52.5277 151.855C52.6633 151.888 52.7987 151.959 52.9026 152.063C53.0641 152.224 53.1444 152.434 53.1444 152.643C53.1444 152.861 53.0641 153.062 52.9026 153.223C52.8119 153.314 52.6961 153.375 52.578 153.412C52.5594 153.416 52.5434 153.425 52.524 153.428ZM52.1174 153.432C51.9819 153.399 51.846 153.327 51.7422 153.223C51.5812 153.062 51.5007 152.861 51.5007 152.643C51.5007 152.434 51.5811 152.224 51.7422 152.063C51.8468 151.958 51.9844 151.886 52.1212 151.854L52.1212 153.145L52.1174 153.432Z" fill="#151515"/>
<rect x="72.5883" y="26.3158" width="55.8181" height="58.7108" rx="1.5" fill="white" stroke="#151515" stroke-width="3"/>
<rect x="82.9346" y="23.1162" width="34.9878" height="8.58705" fill="white"/>
<path d="M89.2075 31.7436H94.5354H106.554H111.882C113.181 31.7436 114.235 30.6906 114.235 29.3911V23.0573H109.562C108.661 19.024 104.958 16 100.545 16C96.1314 16 92.4289 19.024 91.5274 23.0573H86.8946H86.8662H86.8549V29.3911C86.8549 30.6906 87.9085 31.7436 89.2075 31.7436ZM100.545 18.7146C102.044 18.7146 103.259 19.9301 103.259 21.4286C103.259 22.9281 102.044 24.1436 100.545 24.1436C99.0456 24.1436 97.8306 22.9281 97.8306 21.4286C97.8306 19.9301 99.0456 18.7146 100.545 18.7146Z" fill="#151515"/>
<path d="M117.053 40.964H84.0365V44.3905H117.053V40.964Z" fill="#151515"/>
<path d="M117.053 50.5588H84.0365V53.9853H117.053V50.5588Z" fill="#151515"/>
<path d="M117.053 60.1534H84.0365V63.5803H117.053V60.1534Z" fill="#151515"/>
<path d="M117.053 69.7483H84.0365V73.1753H117.053V69.7483Z" fill="#151515"/>
</svg>
