<svg width="200" height="200" viewBox="0 0 200 200" fill="none" xmlns="http://www.w3.org/2000/svg">
<rect width="200" height="200" fill="white"/>
<path d="M42.7456 111.894L101.069 180.144L158.151 111.894L135.814 70.9436H65.0821L42.7456 111.894Z" stroke="black" stroke-width="3"/>
<path d="M42.7456 111.894H158.151" stroke="black" stroke-width="3"/>
<path d="M65.082 71.5641L83.6958 111.894L100.448 74.0459L117.201 111.894L135.814 71.5641" stroke="black" stroke-width="3"/>
<path d="M83.0757 113.135L101.069 175.801L117.201 113.135" stroke="black" stroke-width="3"/>
<path d="M8 65.6962L20.5917 79.3463L26.6138 68.3212L8 65.6962Z" fill="#71B82B"/>
<path d="M47.0181 25.8967L50.716 44.0784L61.4199 37.2976L47.0181 25.8967Z" fill="#71B82B"/>
<path d="M192.896 65.6962L181.144 79.3463L175.524 68.3212L192.896 65.6962Z" fill="#71B82B"/>
<path d="M154.154 25.8967L150.456 44.0784L139.752 37.2976L154.154 25.8967Z" fill="#71B82B"/>
<path d="M100.487 12L93.8732 29.3352L106.544 29.3407L100.487 12Z" fill="#71B82B"/>
</svg>
