<svg width="200" height="200" viewBox="0 0 200 200" fill="none" xmlns="http://www.w3.org/2000/svg">
<rect width="200" height="200" fill="white"/>
<rect x="22.5" y="45.5" width="156" height="109" fill="white" stroke="#151515" stroke-width="3"/>
<path d="M21 68L177 68" stroke="#151515" stroke-width="3"/>
<circle cx="34.6084" cy="57.6081" r="3.58108" fill="#151515"/>
<circle cx="44.6358" cy="57.6081" r="3.58108" fill="#151515"/>
<circle cx="54.6631" cy="57.6081" r="3.58108" fill="#151515"/>
<path d="M37.5574 94V78.9795H40.5082L46.6557 89.0102V78.9795H49.4734V94H46.4303L40.375 84.2049V94H37.5574ZM52.6906 94V78.9795H63.8279V81.5205H55.7234V84.8504H63.2643V87.3811H55.7234V91.4693H64.1148V94H52.6906ZM68.8176 94L65.2316 78.9795H68.3361L70.6004 89.2971L73.3463 78.9795H76.9529L79.5861 89.4713L81.8914 78.9795H84.9447L81.2971 94H78.0799L75.0881 82.7705L72.1066 94H68.8176ZM85.7336 89.1127L88.6844 88.8258C88.862 89.8163 89.2206 90.5437 89.7603 91.0082C90.3067 91.4727 91.041 91.7049 91.9631 91.7049C92.9399 91.7049 93.6742 91.5 94.166 91.0902C94.6646 90.6735 94.9139 90.1885 94.9139 89.6352C94.9139 89.2801 94.8081 88.9795 94.5963 88.7336C94.3914 88.4809 94.0294 88.2623 93.5103 88.0779C93.1551 87.9549 92.3456 87.7363 91.082 87.4221C89.4563 87.0191 88.3156 86.5239 87.6598 85.9365C86.7377 85.11 86.2766 84.1025 86.2766 82.9139C86.2766 82.1489 86.4918 81.4351 86.9221 80.7725C87.3593 80.1031 87.9843 79.5943 88.7971 79.2459C89.6168 78.8975 90.6038 78.7234 91.7582 78.7234C93.6434 78.7234 95.0608 79.1366 96.0103 79.9631C96.9665 80.7896 97.4686 81.8928 97.5164 83.2725L94.4836 83.4057C94.3538 82.6339 94.0738 82.0806 93.6434 81.7459C93.22 81.4044 92.5813 81.2336 91.7275 81.2336C90.8463 81.2336 90.1564 81.4146 89.6578 81.7766C89.3368 82.0089 89.1762 82.3197 89.1762 82.709C89.1762 83.0642 89.3265 83.3682 89.6271 83.6209C90.0096 83.9419 90.9385 84.2766 92.4139 84.625C93.8893 84.9734 94.9788 85.3354 95.6824 85.7111C96.3928 86.0799 96.946 86.5888 97.3422 87.2377C97.7452 87.8798 97.9467 88.6755 97.9467 89.625C97.9467 90.4857 97.7077 91.2917 97.2295 92.043C96.7514 92.7944 96.0751 93.3545 95.2008 93.7234C94.3265 94.0854 93.237 94.2664 91.9324 94.2664C90.0335 94.2664 88.5751 93.8292 87.5574 92.9549C86.5396 92.0738 85.9317 90.793 85.7336 89.1127Z" fill="#151515"/>
<rect x="38.5" y="103.5" width="60" height="40" fill="#71B82B" stroke="#151515" stroke-width="3"/>
<rect x="108.5" y="120.5" width="23" height="23" stroke="#151515" stroke-width="3"/>
<rect x="140.5" y="120.5" width="23" height="23" stroke="#151515" stroke-width="3"/>
<path d="M107 81L165 81" stroke="#151515" stroke-width="3"/>
<path d="M107 91L165 91" stroke="#151515" stroke-width="3"/>
<path d="M107 101L165 101" stroke="#151515" stroke-width="3"/>
<path d="M107 111L152 111" stroke="#151515" stroke-width="3"/>
</svg>
