<svg width="200" height="200" viewBox="0 0 200 200" fill="none" xmlns="http://www.w3.org/2000/svg">
<rect width="200" height="200" fill="white"/>
<path d="M72.8702 47.5848H119.388C123.224 47.5848 126.334 50.8411 126.334 54.8578V160.727C126.334 164.744 123.224 168 119.388 168H72.8702C69.0338 168 65.9238 164.744 65.9238 160.727V54.8578C65.9238 50.8411 69.0338 47.5848 72.8702 47.5848Z" fill="white"/>
<rect x="74.0371" y="151.112" width="43.8112" height="1.62264" fill="#EBEBEB"/>
<rect x="74.0371" y="151.923" width="43.8112" height="1.62264" fill="#EBEBEB"/>
<path d="M73.9188 53.2642H122.023C125.991 53.2642 129.207 56.3576 129.207 60.1736V160.751C129.207 164.567 125.991 167.66 122.023 167.66H73.9188C69.9515 167.66 66.7354 164.567 66.7354 160.751V60.1736C66.7354 56.3576 69.9515 53.2642 73.9188 53.2642Z" stroke="#151515" stroke-width="3" stroke-linecap="round" stroke-linejoin="round"/>
<path d="M70.792 63.8113H125.15V152.245H70.792V63.8113Z" stroke="#151515" stroke-width="3" stroke-linecap="round" stroke-linejoin="round"/>
<rect x="77.1602" y="74.2358" width="18.0943" height="12.4151" fill="#151515" stroke="#151515" stroke-width="3"/>
<rect x="100.688" y="74.2358" width="18.0943" height="12.4151" fill="#151515" stroke="#151515" stroke-width="3"/>
<rect x="77.1602" y="92.0848" width="18.0943" height="12.4151" fill="#151515" stroke="#151515" stroke-width="3"/>
<rect x="100.688" y="92.0848" width="18.0943" height="12.4151" fill="#151515" stroke="#151515" stroke-width="3"/>
<rect x="77.1602" y="109.934" width="18.0943" height="12.4151" fill="#151515" stroke="#151515" stroke-width="3"/>
<rect x="100.688" y="109.934" width="18.0943" height="12.4151" fill="#151515" stroke="#151515" stroke-width="3"/>
<rect x="77.1602" y="127.783" width="18.0943" height="12.4151" fill="#151515" stroke="#151515" stroke-width="3"/>
<rect x="100.688" y="127.783" width="18.0943" height="12.4151" fill="#151515" stroke="#151515" stroke-width="3"/>
<path d="M97.2436 155.48C99.7546 155.48 101.79 157.516 101.79 160.026C101.79 162.537 99.7546 164.573 97.2436 164.573C94.7328 164.573 92.6973 162.537 92.6973 160.026C92.6973 157.516 94.7328 155.48 97.2436 155.48Z" stroke="#151515" stroke-width="3" stroke-linecap="round" stroke-linejoin="round"/>
<path d="M91.7603 58.132H103.718C104.096 58.132 104.403 58.4387 104.403 58.817C104.403 59.1954 104.096 59.5021 103.718 59.5021H91.7603C91.3819 59.5021 91.0752 59.1954 91.0752 58.817C91.0752 58.4387 91.3819 58.132 91.7603 58.132Z" stroke="#151515" stroke-width="3" stroke-linecap="round" stroke-linejoin="round"/>
<circle cx="35.5" cy="68.2735" r="21.5" fill="#71B82B"/>
<path d="M35.9059 64.9439C33.8429 64.9439 32.1705 66.6163 32.1705 68.6793C32.1705 70.7424 33.8429 72.4148 35.9059 72.4148C37.9689 72.4148 39.6414 70.7424 39.6414 68.6793C39.6414 66.6163 37.9689 64.9439 35.9059 64.9439Z" fill="white"/>
<path fill-rule="evenodd" clip-rule="evenodd" d="M29.8942 58.4286C33.8573 57.9857 37.9545 57.9857 41.9177 58.4286C44.0996 58.6725 45.8595 60.3917 46.1156 62.5813C46.5895 66.6328 46.5895 70.7258 46.1156 74.7773C45.8595 76.9669 44.0996 78.6861 41.9177 78.93C37.9545 79.3729 33.8573 79.3729 29.8942 78.93C27.7122 78.6861 25.9523 76.9669 25.6962 74.7773C25.2224 70.7258 25.2224 66.6328 25.6962 62.5813C25.9523 60.3917 27.7122 58.6725 29.8942 58.4286ZM41.6528 61.7831C41.018 61.7831 40.5034 62.2977 40.5034 62.9325C40.5034 63.5673 41.018 64.0818 41.6528 64.0818C42.2875 64.0818 42.8021 63.5673 42.8021 62.9325C42.8021 62.2977 42.2875 61.7831 41.6528 61.7831ZM30.4464 68.6793C30.4464 65.6641 32.8907 63.2198 35.9059 63.2198C38.9211 63.2198 41.3654 65.6641 41.3654 68.6793C41.3654 71.6945 38.9211 74.1388 35.9059 74.1388C32.8907 74.1388 30.4464 71.6945 30.4464 68.6793Z" fill="white"/>
<path d="M59.887 81.007L48.8632 81.5129L53.9371 71.7131L59.887 81.007Z" fill="#71B82B"/>
<circle cx="170.99" cy="94.2357" r="21.5" fill="#71B82B"/>
<path fill-rule="evenodd" clip-rule="evenodd" d="M175.258 84.0942C175.575 86.8184 177.095 88.4426 179.737 88.6154V91.6794C178.206 91.8291 176.865 91.3281 175.305 90.3835V96.1141C175.305 103.394 167.372 105.669 164.183 100.451C162.133 97.0932 163.388 91.2014 169.962 90.9652V94.1962C169.461 94.2769 168.926 94.4036 168.437 94.5706C166.975 95.0659 166.146 95.9932 166.376 97.6289C166.819 100.762 172.564 101.689 172.087 95.567V84.1H175.258V84.0942Z" fill="white"/>
<path d="M143.004 95.3335L152.565 89.8224L152.558 100.858L143.004 95.3335Z" fill="#71B82B"/>
<circle cx="153.142" cy="41.5" r="21.5" fill="#71B82B"/>
<path d="M132.901 59.4776L135.757 48.8182L143.56 56.6214L132.901 59.4776Z" fill="#71B82B"/>
<path d="M159.524 52.4527H147.57C145.046 52.4527 143 50.4064 143 47.8822V35.9289C143 33.4047 145.046 31.3584 147.57 31.3584H159.524C162.048 31.3584 164.094 33.4047 164.094 35.9289V47.8823C164.094 50.4064 162.048 52.4527 159.524 52.4527Z" fill="white"/>
<path d="M160.849 40.8227C160.849 37.3936 157.573 34.6038 153.547 34.6038C149.52 34.6038 146.245 37.3936 146.245 40.8227C146.245 43.8968 148.843 46.4714 152.352 46.9581C152.59 47.012 152.913 47.1228 152.995 47.3361C153.069 47.5297 153.043 47.8333 153.018 48.0292L152.914 48.6852C152.882 48.8789 152.767 49.443 153.547 49.0983C154.326 48.7537 157.752 46.4997 159.284 44.649H159.284C160.342 43.4312 160.849 42.1952 160.849 40.8229" fill="#71B82B"/>
<path d="M151.953 39.3184H151.414C151.332 39.3184 151.265 39.3854 151.265 39.4678V42.8142C151.265 42.8964 151.332 42.9625 151.414 42.9625H151.953C152.036 42.9625 152.103 42.8966 152.103 42.8142V39.467C152.103 39.3846 152.036 39.3176 151.953 39.3176M155.661 39.3184H155.122C155.039 39.3184 154.972 39.3854 154.972 39.4678V41.4559L153.438 39.3848C153.435 39.3796 153.431 39.3744 153.427 39.3697L153.426 39.3687L153.414 39.3569L153.406 39.3503C153.405 39.3492 153.404 39.3482 153.402 39.3473L153.395 39.3421C153.393 39.341 153.392 39.3404 153.39 39.3394L153.382 39.3349L153.377 39.3326L153.369 39.3289L153.364 39.3272C153.361 39.326 153.358 39.325 153.355 39.3243L153.35 39.3229L153.341 39.3212C153.339 39.3207 153.337 39.3204 153.335 39.3204C153.332 39.3199 153.33 39.3196 153.327 39.3193L153.319 39.3188C153.317 39.3188 153.316 39.3187 153.314 39.3187H152.775C152.693 39.3187 152.626 39.3856 152.626 39.468V42.8145C152.626 42.8967 152.693 42.9628 152.775 42.9628H153.314C153.397 42.9628 153.464 42.8969 153.464 42.8145V40.8268L154.999 42.9006C155.009 42.9151 155.022 42.9276 155.037 42.9375C155.037 42.9378 155.038 42.9383 155.039 42.9387L155.048 42.9442L155.052 42.9466C155.054 42.9479 155.057 42.949 155.059 42.95L155.066 42.9531L155.071 42.9548L155.081 42.9579C155.082 42.9581 155.082 42.9582 155.083 42.9584C155.096 42.9618 155.109 42.9634 155.122 42.9634H155.66C155.743 42.9634 155.81 42.8974 155.81 42.815V39.4669C155.81 39.3845 155.743 39.3175 155.66 39.3175" fill="white"/>
<path d="M150.654 42.1247H149.19V39.467C149.19 39.3843 149.123 39.3174 149.041 39.3174H148.502C148.419 39.3174 148.353 39.3844 148.353 39.467V42.8124C148.353 42.851 148.368 42.8881 148.394 42.9157C148.395 42.9166 148.396 42.9174 148.396 42.918C148.397 42.9187 148.398 42.9194 148.399 42.9202C148.426 42.9469 148.463 42.9618 148.502 42.9619H150.654C150.737 42.9619 150.804 42.8947 150.804 42.8123V42.2734C150.804 42.1908 150.738 42.1239 150.654 42.1239M158.636 40.1548C158.718 40.1548 158.785 40.0878 158.785 40.0052V39.4663C158.785 39.3837 158.719 39.3168 158.636 39.3168H156.483C156.445 39.3167 156.407 39.3319 156.38 39.359C156.379 39.3595 156.378 39.36 156.378 39.3606C156.378 39.3612 156.376 39.3623 156.376 39.3632C156.351 39.3899 156.334 39.4262 156.334 39.4662V42.8127C156.334 42.8528 156.35 42.8892 156.376 42.9161L156.378 42.9182L156.38 42.9202C156.407 42.9461 156.443 42.962 156.483 42.962H158.636C158.718 42.962 158.785 42.8951 158.785 42.8127V42.2738C158.785 42.1911 158.719 42.1242 158.636 42.1242H157.173V41.5585H158.637C158.656 41.5586 158.676 41.5547 158.694 41.5472C158.712 41.5397 158.729 41.5287 158.742 41.5148C158.756 41.5009 158.767 41.4844 158.775 41.4662C158.782 41.4481 158.786 41.4286 158.786 41.409V40.8703C158.786 40.7877 158.72 40.7205 158.637 40.7205H157.173V40.155H158.637L158.636 40.1548Z" fill="white"/>
<circle cx="159.198" cy="148.349" r="21.5" fill="#71B82B"/>
<path d="M137.168 129.893L147.924 132.358L140.411 140.441L137.168 129.893Z" fill="#71B82B"/>
<path d="M161.536 139.019C160.262 139.019 159.039 139.517 158.138 140.404C157.237 141.291 156.73 142.494 156.73 143.748V146.381H154.159C154.029 146.381 153.925 146.484 153.925 146.611V150.087C153.925 150.214 154.029 150.317 154.159 150.317H156.73V157.449C156.73 157.576 156.835 157.679 156.964 157.679H160.497C160.626 157.679 160.731 157.576 160.731 157.449V150.317H163.326C163.433 150.317 163.527 150.245 163.553 150.143L164.436 146.667C164.473 146.521 164.361 146.381 164.209 146.381H160.731V143.748C160.731 143.538 160.816 143.336 160.967 143.187C161.118 143.039 161.323 142.955 161.536 142.955H164.238C164.367 142.955 164.472 142.852 164.472 142.725V139.249C164.472 139.122 164.367 139.019 164.238 139.019H161.536Z" fill="white"/>
<circle cx="35.5" cy="132.368" r="21.5" fill="#71B82B"/>
<path d="M56.0532 129.712L51.2328 119.786L62.24 120.574L56.0532 129.712Z" fill="#71B82B"/>
<path d="M44.0027 127.469C44.0533 127.397 43.9785 127.303 43.8976 127.335C43.3222 127.565 42.7208 127.719 42.1074 127.795C42.7904 127.376 43.3175 126.738 43.6097 125.983C43.6395 125.906 43.5577 125.838 43.4871 125.878C42.8523 126.238 42.1677 126.497 41.4566 126.646C41.4268 126.652 41.3961 126.642 41.3752 126.619C40.8416 126.041 40.1391 125.656 39.3732 125.523C38.5913 125.387 37.7876 125.522 37.0882 125.905C36.3887 126.289 35.8331 126.9 35.5084 127.643C35.1997 128.35 35.1164 129.137 35.2687 129.894C35.2805 129.952 35.2358 130.008 35.1776 130.004C33.7939 129.916 32.442 129.538 31.2051 128.893C29.9714 128.25 28.8789 127.355 27.9942 126.264C27.9549 126.215 27.8805 126.222 27.8519 126.277C27.5766 126.814 27.4325 127.412 27.4329 128.019C27.4317 128.624 27.5763 129.22 27.8537 129.754C28.131 130.287 28.5326 130.742 29.0226 131.078C28.5029 131.064 27.9934 130.932 27.53 130.692C27.4703 130.662 27.3987 130.706 27.4018 130.774C27.4379 131.572 27.7231 132.372 28.2166 132.987C28.7419 133.641 29.4709 134.088 30.2804 134.253C29.9688 134.351 29.6453 134.402 29.3196 134.406C29.1423 134.404 28.9654 134.39 28.7898 134.366C28.7248 134.356 28.6716 134.42 28.6944 134.483C28.9358 135.154 29.3624 135.739 29.9232 136.166C30.5228 136.622 31.2461 136.876 31.9925 136.89C30.7322 137.909 29.1762 138.464 27.5726 138.469C27.4078 138.47 27.2431 138.464 27.0788 138.453C26.9862 138.446 26.9436 138.573 27.0234 138.622C28.5859 139.574 30.3718 140.077 32.1934 140.075C33.5383 140.089 34.8725 139.828 36.118 139.307C37.3636 138.786 38.4956 138.015 39.4478 137.04C40.4001 136.064 41.1535 134.904 41.6642 133.626C42.1748 132.349 42.4324 130.979 42.4219 129.598V129.168C42.4219 129.139 42.4349 129.113 42.4569 129.096C43.0494 128.636 43.5704 128.088 44.0027 127.469Z" fill="white"/>
</svg>
