<svg width="200" height="200" viewBox="0 0 200 200" fill="none" xmlns="http://www.w3.org/2000/svg">
<rect width="200" height="200" fill="white"/>
<path d="M78.9832 93.677C82.6998 91.7537 86.7881 90.215 87.1598 84.4449C87.4571 79.8288 87.2837 76.6232 87.1598 75.2127C84.5581 72.9047 83.0715 68.6733 81.9565 64.4419C81.0487 63.9721 78.9832 62.7109 77.8682 60.5952C76.0459 57.1373 75.2666 50.5937 78.9832 48.6703" stroke="#151515" stroke-width="3"/>
<path d="M123.109 93.677C119.392 91.7537 115.304 90.215 114.932 84.4449C114.635 79.8288 114.808 76.6232 114.932 75.2127C117.534 72.9047 119.02 68.6733 120.135 64.4419C121.043 63.9721 123.109 62.7109 124.224 60.5952C126.046 57.1373 126.825 50.5937 123.109 48.6703" stroke="#151515" stroke-width="3"/>
<path d="M146.826 101.387C138.965 93.526 129.254 95.8382 122.066 92.5791C121.225 95.6693 114.456 101.387 101.508 101.387C88.5602 101.387 80.162 95.6789 78.5063 93.056C67.5198 99.1875 59.602 96.3006 52.4909 109.249C50.9755 112.008 31.2195 157.341 33.5316 168.439C35.8437 179.538 57.0375 177.423 65.9015 177.423C107.058 172.139 127.404 177.423 143.127 177.423C151.913 177.423 167.349 177.688 170.872 168.439C174.396 159.191 154.687 109.249 146.826 101.387Z" stroke="#151515" stroke-width="3"/>
<path d="M119.432 46.3584C117.693 46.3584 116.595 44.586 111.682 38.9595C106.845 44.4837 83.0114 42.5438 83.0114 50.9827C83.0114 50.9827 77.8245 49.8327 76.8797 42.5438C76.0275 35.9684 81.513 25.6645 87.4609 25.6645C90.1061 20.9331 104.777 15.7269 117.693 25.6645C128.68 34.1188 125.88 43.6947 123.361 49.8327L119.432 50.9827V46.3584Z" fill="#151515" stroke="#151515" stroke-width="3"/>
<path d="M49.168 108.436H152C153.933 108.436 155.5 110.003 155.5 111.936V171.101H45.668V111.936C45.668 110.003 47.235 108.436 49.168 108.436Z" fill="white" stroke="#151515" stroke-width="3"/>
<path d="M13 178H187" stroke="#151515" stroke-width="3"/>
<path d="M53.2432 178.5C49 178.5 45.483 175.391 44.8461 171.327H158.172C157.535 175.391 154.018 178.5 149.775 178.5H53.2432Z" fill="white" stroke="#151515" stroke-width="3"/>
<ellipse cx="101.046" cy="140.231" rx="7.86127" ry="8.3237" fill="#71B82B"/>
</svg>
