<svg width="200" height="200" viewBox="0 0 200 200" fill="none" xmlns="http://www.w3.org/2000/svg">
<rect width="200" height="200" fill="white"/>
<path d="M55.8726 100.258L100.98 153.044L145.128 100.258L127.852 68.5872H73.1477L55.8726 100.258Z" stroke="black" stroke-width="3"/>
<path d="M55.8726 100.258H145.128" stroke="black" stroke-width="3"/>
<path d="M73.1475 69.0671L87.5434 100.258L100.5 70.9866L113.456 100.258L127.852 69.0671" stroke="black" stroke-width="3"/>
<path d="M87.064 101.218L100.98 149.684L113.457 101.218" stroke="black" stroke-width="3"/>
<path d="M29 64.5288L38.7385 75.0859L43.396 66.559L29 64.5288Z" fill="#71B82B"/>
<path d="M59.1768 33.7478L62.0368 47.8096L70.3152 42.5653L59.1768 33.7478Z" fill="#71B82B"/>
<path d="M172 64.5288L162.911 75.0859L158.564 66.559L172 64.5288Z" fill="#71B82B"/>
<path d="M142.036 33.7478L139.176 47.8096L130.898 42.5653L142.036 33.7478Z" fill="#71B82B"/>
<path d="M100.53 23L95.4148 36.4071L105.215 36.4114L100.53 23Z" fill="#71B82B"/>
</svg>
