<svg width="200" height="200" viewBox="0 0 200 200" fill="none" xmlns="http://www.w3.org/2000/svg">
<rect width="200" height="200" fill="white"/>
<path d="M2.10352 146.179H26.1459L26.2417 48.9558L27.008 47.04L28.9237 46.2737H171.741L172.891 47.4232L173.848 49.3389V146.754H197.316V150.968L195.305 153.076L192.048 154.129H7.18019L4.01924 153.267L2.10352 151.16V146.179Z" fill="white"/>
<path d="M26.1416 146.021L26.2051 48.8767C26.2051 47.2879 27.4952 46 29.0866 46H171.073C172.665 46 173.955 47.2879 173.955 48.8767L173.897 146.023" stroke="#151515" stroke-width="3" stroke-linecap="round" stroke-linejoin="round"/>
<path d="M197.413 151.212V146.397H2V151.212" stroke="#151515" stroke-width="3" stroke-linecap="round" stroke-linejoin="round"/>
<path d="M32.6875 51.8907H167.406V140.133H32.6875V51.8907Z" stroke="#151515" stroke-width="3" stroke-linecap="round" stroke-linejoin="round"/>
<path d="M197.315 151.085C196.126 153.002 193.775 154.307 191.071 154.307H8.33548C5.57481 154.307 3.18371 152.947 2.01953 150.965" stroke="#151515" stroke-width="3" stroke-linecap="round" stroke-linejoin="round"/>
<path d="M76.6966 113.799C79.036 112.588 81.6094 111.62 81.8433 107.988C82.0305 105.082 81.9213 103.064 81.8433 102.177C80.2057 100.724 79.27 98.0603 78.5682 95.3969C77.9968 95.1012 76.6966 94.3073 75.9948 92.9756C74.8478 90.7991 74.3572 86.6802 76.6966 85.4695" stroke="#151515" stroke-width="3"/>
<path d="M104.472 113.799C102.133 112.588 99.5596 111.62 99.3256 107.988C99.1385 105.082 99.2476 103.064 99.3256 102.177C100.963 100.724 101.899 98.0603 102.601 95.3969C103.172 95.1012 104.472 94.3073 105.174 92.9756C106.321 90.7991 106.812 86.6802 104.472 85.4695" stroke="#151515" stroke-width="3"/>
<path d="M127.541 139.133C127.62 136.64 127.254 130.787 125.156 127.313C123.058 123.84 109.936 116.244 103.815 113.108C93.2395 121.79 81.1299 116.925 76.3971 113.408C69.4817 117.267 57.4335 125.577 56.4797 127.313C55.5258 129.05 53.6182 135.917 53.6182 139.133" stroke="#151515" stroke-width="3"/>
<path d="M98.6004 73.8643C93.4392 73.1275 86.4332 79.7635 79.0592 78.2887V85.2941V86.2013L77.9535 85.2941L77.0035 85.2943C76.4636 85.461 75.8747 85.6654 75.7414 85.2945C74.2818 81.2335 74.7063 73.3794 82.3778 69.0713C91.2266 65.3841 107.818 66.4908 105.237 85.2945C105.077 86.4605 104.482 84.4054 103.394 85.2941C102.442 86.0711 102.287 86.2013 102.287 86.2013C102.287 86.2013 102.287 76.8139 98.6004 73.8643Z" fill="#151515"/>
<path d="M77.9535 85.2941L79.0592 86.2013C79.0592 86.2013 79.0592 87.8744 79.0592 85.2941C79.0592 82.7137 79.0592 78.2887 79.0592 78.2887C86.4332 79.7635 93.4392 73.1275 98.6004 73.8643C102.287 76.8139 102.287 86.2013 102.287 86.2013C102.287 86.2013 102.442 86.0711 103.394 85.2941C104.482 84.4054 105.077 86.4605 105.237 85.2945C107.818 66.4908 91.2266 65.3841 82.3778 69.0713C74.7063 73.3794 74.2818 81.2335 75.7414 85.2945M77.9535 85.2941C77.728 84.7445 75.9835 85.968 75.7414 85.2945M77.9535 85.2941L75.7414 85.2945" stroke="#151515" stroke-width="3"/>
<path fill-rule="evenodd" clip-rule="evenodd" d="M127.142 83.8026C134.759 83.8026 140.933 79.302 140.933 73.7502C140.933 68.1984 134.759 63.6978 127.142 63.6978C119.524 63.6978 113.35 68.1984 113.35 73.7502C113.35 77.6619 116.415 81.0518 120.891 82.7133L119.708 85.82L124.588 83.6307C125.416 83.7436 126.269 83.8026 127.142 83.8026Z" fill="#71B82B"/>
<path d="M120.891 82.7133L122.292 83.2468L122.83 81.8334L121.413 81.307L120.891 82.7133ZM119.708 85.82L118.306 85.2865L117.018 88.6708L120.322 87.1886L119.708 85.82ZM124.588 83.6307L124.791 82.1445L124.366 82.0865L123.974 82.2621L124.588 83.6307ZM139.433 73.7502C139.433 75.9294 138.225 78.0323 136.01 79.6462C133.797 81.2591 130.667 82.3026 127.142 82.3026V85.3026C131.233 85.3026 134.999 84.0959 137.777 82.0705C140.555 80.0461 142.433 77.1228 142.433 73.7502H139.433ZM127.142 65.1978C130.667 65.1978 133.797 66.2414 136.01 67.8543C138.225 69.4681 139.433 71.571 139.433 73.7502H142.433C142.433 70.3776 140.555 67.4543 137.777 65.4299C134.999 63.4046 131.233 62.1978 127.142 62.1978V65.1978ZM114.85 73.7502C114.85 71.571 116.058 69.4681 118.273 67.8543C120.486 66.2414 123.616 65.1978 127.142 65.1978V62.1978C123.05 62.1978 119.284 63.4046 116.506 65.4299C113.728 67.4543 111.85 70.3776 111.85 73.7502H114.85ZM121.413 81.307C117.276 79.7713 114.85 76.8054 114.85 73.7502H111.85C111.85 78.5185 115.554 82.3323 120.369 84.1195L121.413 81.307ZM121.11 86.3536L122.292 83.2468L119.489 82.1797L118.306 85.2865L121.11 86.3536ZM123.974 82.2621L119.094 84.4514L120.322 87.1886L125.202 84.9993L123.974 82.2621ZM127.142 82.3026C126.337 82.3026 125.551 82.2482 124.791 82.1445L124.386 85.1169C125.28 85.239 126.202 85.3026 127.142 85.3026V82.3026Z" fill="#151515"/>
</svg>
