<svg width="326" height="276" viewBox="0 0 326 276" fill="none" xmlns="http://www.w3.org/2000/svg">
<path d="M6.5 117L6 180L175 274.5L322 193.5L324 93L148.5 1.5L7 77V96L1.5 98.5L1 119.5L6.5 117Z" fill="white"/>
<path d="M128.5 82.5001L104.5 94.5001L119.5 110.5L132 104L131 102L128.5 99.0001L129.5 96.5001L128.5 95.0001V94.0001H131L133 96.5001L134.5 99.0001L137 101L143 97.5001L128.5 82.5001Z" fill="#71B82B"/>
<path d="M72.5 111.5L48.5 124L63.5 139.5L88 127.5L72.5 111.5Z" fill="#71B82B"/>
<path d="M155 86.0001L157.5 89.0001H159.5V91.0001L161 94.5001L164 93.5001L168 89.0001V82.5001L164 79.5001H158L154 82.5001L153 88.0001L155 86.0001Z" fill="#151515"/>
<path d="M260 105.5L262.5 109.5L258 113H256L255 114.5L256 116L258.5 116.5L259 120.5L258 126L256 129.5L252.5 132V129.5L247 132V122L246 117V111.5L248 107C254.4 101.4 258.667 103.667 260 105.5Z" fill="#151515"/>
<path d="M261.63 109.282C262.623 108 259.925 111.457 258 112.292" stroke="#151515" stroke-width="2" stroke-linecap="round" stroke-linejoin="round"/>
<path d="M132.075 104.023L119.529 110.647" stroke="#151515" stroke-width="2" stroke-linecap="round" stroke-linejoin="round"/>
<path d="M149.676 137.808L121.317 152.813" stroke="#151515" stroke-width="2" stroke-linecap="round" stroke-linejoin="round"/>
<path d="M165.992 169.911C166.924 172.546 165.174 173.487 164.115 173.84C163.056 174.193 160.071 173.464 160.071 173.464" stroke="#151515" stroke-width="2" stroke-linecap="round" stroke-linejoin="round"/>
<path d="M103.301 94.5153L119.562 110.694" stroke="#151515" stroke-width="2" stroke-linecap="round" stroke-linejoin="round"/>
<path d="M1.51614 99.1208L113.551 40.1664L113.374 60.2723L1 120.156L1.51614 99.1208Z" stroke="#151515" stroke-width="2" stroke-linecap="round" stroke-linejoin="round"/>
<path d="M169.359 130.307C169.176 133.51 169.391 137.347 167.039 143.689C165.875 146.828 166.136 169.547 166.136 169.547C166.136 169.547 164.807 172.125 160.169 171.256" stroke="#151515" stroke-width="2" stroke-linecap="round" stroke-linejoin="round"/>
<path d="M155.348 196.823L168.162 190.481" stroke="#151515" stroke-width="2" stroke-linecap="round" stroke-linejoin="round"/>
<path opacity="0.865385" d="M90.2994 90.8798L90.0703 121.9" stroke="#151515" stroke-width="2" stroke-linecap="round" stroke-linejoin="round"/>
<path d="M161.51 28.563L161.666 59.2937L197.67 78.2283L198.289 48.0119L161.51 28.563Z" stroke="#151515" stroke-width="2" stroke-linecap="round" stroke-linejoin="round"/>
<path d="M260.258 134.934C260.258 134.934 259.869 139.67 260.621 146.643C260.985 150.001 263.125 162.839 263.125 162.839C263.125 162.839 266.406 163.875 268.298 161.983" stroke="#151515" stroke-width="2" stroke-linecap="round" stroke-linejoin="round"/>
<path d="M148.508 1L147.427 95.2625" stroke="#151515" stroke-width="2" stroke-linecap="round" stroke-linejoin="round"/>
<path d="M149.634 130.653C149.698 128.15 149.02 147.485 152.013 170.574" stroke="#151515" stroke-width="2" stroke-linecap="round" stroke-linejoin="round"/>
<path d="M34.7719 119.91L34.6875 164.863L65.6936 181.781L65.5407 150.377" stroke="#151515" stroke-width="2" stroke-linecap="round" stroke-linejoin="round"/>
<path d="M264.33 196.72C265.471 195.177 269.073 195.202 267.909 199.037C267.762 199.513 267.106 201.211 264.673 203.807C263.814 204.721 263.713 206.227 260.328 205.521C257.81 204.995 259.76 201.162 259.76 201.162" stroke="#151515" stroke-width="2" stroke-linecap="round" stroke-linejoin="round"/>
<path d="M158.475 98.0219C158.475 98.0219 154.343 97.8814 149.731 101.769C145.12 105.657 142.972 106.912 142.972 106.912L134.693 98.6769L131.083 102.522C131.083 102.522 139.042 114.805 143.615 115.045C148.929 115.325 154.453 108.291 154.453 108.291" stroke="#151515" stroke-width="2" stroke-linecap="round" stroke-linejoin="round"/>
<path d="M34.9111 119.802L65.3205 149.87L99.3331 132.231" stroke="#151515" stroke-width="2" stroke-linecap="round" stroke-linejoin="round"/>
<path d="M264.19 178.857C264.163 179.992 263.675 192.751 264.006 199.215C264.019 199.426 263.913 201.581 262.756 202.355C261.579 203.142 261.374 203.125 260.167 202.558C260.167 202.558 258.105 183.282 257.731 181.735" stroke="#151515" stroke-width="2" stroke-linecap="round" stroke-linejoin="round"/>
<path d="M302.697 186.016L305.862 184.258V188.516L303.106 189.936" stroke="#151515" stroke-width="2" stroke-linecap="round" stroke-linejoin="round"/>
<path d="M306.6 103.964L305.786 184.16" stroke="#151515" stroke-width="2" stroke-linecap="round" stroke-linejoin="round"/>
<path d="M158.432 94.6901V99.8065" stroke="#151515" stroke-width="2" stroke-linecap="round" stroke-linejoin="round"/>
<path d="M34.792 119.743L69.7906 101.03L99.3405 132.03" stroke="#151515" stroke-width="2" stroke-linecap="round" stroke-linejoin="round"/>
<path d="M211.176 55.2196L214.718 53.8162L250.848 72.8978L248.055 75.0307" stroke="#151515" stroke-width="2" stroke-linecap="round" stroke-linejoin="round"/>
<path d="M161.58 28.2853L165.233 27.5095L201.331 46.6368L198.458 48.0964" stroke="#151515" stroke-width="2" stroke-linecap="round" stroke-linejoin="round"/>
<path d="M246.372 121.591C246.372 121.591 242.96 124.24 242.559 128.035C242.302 130.476 244.084 136.625 243.442 140.864C242.8 145.104 239.93 153.554 241.772 154.226C252.692 158.209 261.167 154.812 261.801 154.63" stroke="#151515" stroke-width="2" stroke-linecap="round" stroke-linejoin="round"/>
<path d="M176.466 207.699L176.338 254.552L198.057 243.658L197.929 197.391L176.466 207.699Z" stroke="#151515" stroke-width="2" stroke-linecap="round" stroke-linejoin="round"/>
<path d="M151.163 165.792C151.163 165.792 149.7 165.682 149.001 167.955" stroke="#151515" stroke-width="2" stroke-linecap="round" stroke-linejoin="round"/>
<path d="M271.672 85.4608V89.5711L303.002 105.688L302.942 101.273L271.672 85.4608Z" stroke="#151515" stroke-width="2" stroke-linecap="round" stroke-linejoin="round"/>
<path d="M157.887 89.4258C157.887 89.4258 159.724 88.0299 159.724 90.3074C159.724 92.5851 157.96 92.3648 157.96 92.3648" stroke="#151515" stroke-width="2" stroke-linecap="round" stroke-linejoin="round"/>
<path d="M243.184 154.997C243.184 154.997 241.669 157.694 242.671 163.091C244.182 171.224 244.366 175.031 244.879 178.985C244.879 178.985 250.755 183.14 255.751 181.862C260.745 180.584 266.704 177.31 266.704 177.31L266.347 168.724" stroke="#151515" stroke-width="2" stroke-linecap="round" stroke-linejoin="round"/>
<path d="M176.361 189.734L176.64 198.811L179.765 197.512L179.568 187.305L176.361 189.734Z" stroke="#151515" stroke-width="2" stroke-linecap="round" stroke-linejoin="round"/>
<path d="M6.46484 180.487L34.7902 164.966" stroke="#151515" stroke-width="2" stroke-linecap="round" stroke-linejoin="round"/>
<path d="M211.198 55.2502L210.977 85.1941L247.254 104.462L247.885 74.9462L211.198 55.2502Z" stroke="#151515" stroke-width="2" stroke-linecap="round" stroke-linejoin="round"/>
<path d="M201.3 47.0745L200.584 75.726L198.027 78.2086" stroke="#151515" stroke-width="2" stroke-linecap="round" stroke-linejoin="round"/>
<path d="M134.67 99.1239C134.67 99.1239 132.465 92.8789 129.233 93.834C126.878 94.5296 130.509 96.3319 129.6 96.3319C129.529 96.3319 128.129 97.6927 128.498 99.0504C128.895 100.511 131.068 101.977 131.068 101.977" stroke="#151515" stroke-width="2" stroke-linecap="round" stroke-linejoin="round"/>
<path d="M267.583 166.441L270.445 168.18" stroke="#151515" stroke-width="2" stroke-linecap="round" stroke-linejoin="round"/>
<path d="M47.8047 123.658L72.3288 110.98L87.9324 126.912L64.0019 139.677" stroke="#151515" stroke-width="2" stroke-linecap="round" stroke-linejoin="round"/>
<path d="M262.16 109.458C261.154 103.606 255.956 102.582 252.088 103.71C249.093 104.583 245.751 107.095 245.463 114.42C245.281 119.049 247.201 118.925 247.345 125.009C247.491 131.092 246.749 132.849 246.749 132.849L252.293 128.922L252.735 132.634C252.735 132.634 259.634 128.568 258.782 117.181" stroke="#151515" stroke-width="2" stroke-linecap="round" stroke-linejoin="round"/>
<path d="M303.151 105.662L306.741 103.953L306.733 99.765" stroke="#151515" stroke-width="2" stroke-linecap="round" stroke-linejoin="round"/>
<path d="M151.46 168.647C151.46 168.647 148.125 167.08 146.272 168.676C145.092 169.692 144.844 172.372 146.684 173.052C148.897 173.871 150.336 173.967 153.017 174.185C154.922 174.339 156.115 175.394 158.886 174.082C160.211 173.454 159.123 171.269 159.123 171.269" stroke="#151515" stroke-width="2" stroke-linecap="round" stroke-linejoin="round"/>
<path d="M47.7739 123.545L64.0345 139.723" stroke="#151515" stroke-width="2" stroke-linecap="round" stroke-linejoin="round"/>
<path d="M266.704 147.188C266.974 154.086 267.702 155.175 268.336 161.71" stroke="#151515" stroke-width="2" stroke-linecap="round" stroke-linejoin="round"/>
<path d="M272.016 85.2039L275.555 83.8328L306.395 99.4283L302.929 101.132" stroke="#151515" stroke-width="2" stroke-linecap="round" stroke-linejoin="round"/>
<path d="M163.203 136.284C163.203 136.284 161.75 138.629 160.903 142.133C160.056 145.636 160.026 170.961 160.026 170.961C160.026 170.961 156.869 172.862 151.962 170.81" stroke="#151515" stroke-width="2" stroke-linecap="round" stroke-linejoin="round"/>
<path d="M171.1 186.147L164.073 196.806L184.387 188.138L191.413 177.948L171.1 186.147Z" stroke="#151515" stroke-width="2" stroke-linecap="round" stroke-linejoin="round"/>
<path opacity="0.865385" d="M99.5571 140.681L121.221 152.751L121.068 121.346" stroke="#151515" stroke-width="2" stroke-linecap="round" stroke-linejoin="round"/>
<path d="M253.814 196.492C253.814 196.492 256.486 194.307 257.664 196.244C259.351 199.024 255.031 201.834 253.892 203.689C253.334 204.592 252.601 205.972 249.82 205.277C247.858 204.786 248.358 203.089 249.242 200.835" stroke="#151515" stroke-width="2" stroke-linecap="round" stroke-linejoin="round"/>
<path d="M197.974 196.879L183.328 188.656" stroke="#151515" stroke-width="2" stroke-linecap="round" stroke-linejoin="round"/>
<path d="M169.542 112.653L241.013 151.943" stroke="#151515" stroke-width="2" stroke-linecap="round" stroke-linejoin="round"/>
<path d="M163.691 97.1403C163.691 97.1403 170.092 97.9029 170.671 102.871C171.251 107.839 169.486 110.986 168.761 117.712C168.036 124.439 170.33 128.885 169.301 129.914C165.14 134.075 149.561 130.432 149.561 130.432C148.582 116.223 150.549 112.547 150.549 112.547" stroke="#151515" stroke-width="2" stroke-linecap="round" stroke-linejoin="round"/>
<path d="M6.64834 117.493L5.75391 180.511L174.962 274.791L322.064 193.83L324.155 92.9874L148.361 1.20667L7.0648 77.1989L6.82591 96.45" stroke="#151515" stroke-width="2" stroke-linecap="round" stroke-linejoin="round"/>
<path d="M270.127 168.144L270.043 171.818L302.689 189.852V186.179L270.127 168.144Z" stroke="#151515" stroke-width="2" stroke-linecap="round" stroke-linejoin="round"/>
<path d="M90.4385 90.7722L120.848 120.84L138.494 111.93" stroke="#151515" stroke-width="2" stroke-linecap="round" stroke-linejoin="round"/>
<path d="M247.014 180.403C247.271 182.45 249.388 201.857 249.388 201.857C249.388 201.857 251.267 202.782 252.465 201.316C253.665 199.85 253.134 200.12 253.531 199.383C253.531 199.383 253.862 186.062 253.831 182.31" stroke="#151515" stroke-width="2" stroke-linecap="round" stroke-linejoin="round"/>
<path d="M163.545 94.1278L163.324 98.9037C163.324 98.9037 160.532 102.063 158.401 99.6383" stroke="#151515" stroke-width="2" stroke-linecap="round" stroke-linejoin="round"/>
<path d="M90.3193 90.7128L125.318 72L152.024 99.9413" stroke="#151515" stroke-width="2" stroke-linecap="round" stroke-linejoin="round"/>
<path d="M257.5 112.5C257.5 112.5 254.669 111.479 255.028 114.51C255.383 117.54 258.5 117 258.5 117" stroke="#151515" stroke-width="2" stroke-linecap="round" stroke-linejoin="round"/>
<path d="M153.92 87.2952C153.92 87.2952 152.671 95.5976 158.401 95.3036" stroke="#151515" stroke-width="2" stroke-linecap="round" stroke-linejoin="round"/>
<path d="M306.362 185.545L321.955 193.752" stroke="#151515" stroke-width="2" stroke-linecap="round" stroke-linejoin="round"/>
<path d="M270.152 167.962L273.133 166.725L305.862 184.091" stroke="#151515" stroke-width="2" stroke-linecap="round" stroke-linejoin="round"/>
<path d="M261.164 110.249C261.164 110.249 262.892 118.967 259.053 119.059" stroke="#151515" stroke-width="2" stroke-linecap="round" stroke-linejoin="round"/>
<path d="M99.2271 132.009L99.6831 164.039L65.79 181.843" stroke="#151515" stroke-width="2" stroke-linecap="round" stroke-linejoin="round"/>
<path d="M267.886 162.574C267.886 162.574 268.654 163.875 268.477 165.59C268.298 167.305 267.674 164.898 267.59 166.359C267.472 168.429 268.121 168.724 265.756 168.784C263.208 168.847 263.569 165.413 263.508 162.988" stroke="#151515" stroke-width="2" stroke-linecap="round" stroke-linejoin="round"/>
<path d="M273.213 91.0267L273.59 166.856" stroke="#151515" stroke-width="2" stroke-linecap="round" stroke-linejoin="round"/>
<path d="M250.99 72.978L250.414 103.005L247.623 105.143" stroke="#151515" stroke-width="2" stroke-linecap="round" stroke-linejoin="round"/>
<path d="M157.74 88.9849L155.022 86.2664L153.185 88.2501C152.303 82.2989 157.262 79.3424 159.944 78.8458C161.928 78.4783 169.086 79.37 168.246 87.6623C167.659 93.4668 160.831 95.1802 160.752 94.2748C160.605 92.585 160.091 90.3073 159.797 91.1156" stroke="#151515" stroke-width="2" stroke-linecap="round" stroke-linejoin="round"/>
<path d="M176.849 207.816L154.875 196.923L155.057 243.824L176.594 254.668" stroke="#151515" stroke-width="2" stroke-linecap="round" stroke-linejoin="round"/>
<path d="M176.289 196.823C176.289 196.823 173.932 197.321 174.386 199.981C174.839 202.641 178.27 201.63 180.641 200.48C183.012 199.329 184.035 196.516 180.308 195.519" stroke="#151515" stroke-width="2" stroke-linecap="round" stroke-linejoin="round"/>
<path d="M258.982 121.684C264.476 123.366 264.797 125.312 265.613 128.852C266.492 132.654 266.431 140.289 266.704 147.187" stroke="#151515" stroke-width="2" stroke-linecap="round" stroke-linejoin="round"/>
<path d="M103.332 94.6284L127.856 81.9504L143.46 97.8824L137.306 101.148" stroke="#151515" stroke-width="2" stroke-linecap="round" stroke-linejoin="round"/>
</svg>
