<svg width="200" height="200" viewBox="0 0 200 200" fill="none" xmlns="http://www.w3.org/2000/svg">
<rect width="200" height="200" fill="white"/>
<rect x="25.5" y="35.5" width="149" height="129" stroke="#151515" stroke-width="3"/>
<rect x="24" y="34" width="152" height="19" fill="#151515"/>
<circle cx="37.5811" cy="43.5811" r="3.58108" fill="white"/>
<circle cx="47.6084" cy="43.5811" r="3.58108" fill="white"/>
<circle cx="57.6358" cy="43.5811" r="3.58108" fill="white"/>
<mask id="mask0_820_4964" style="mask-type:alpha" maskUnits="userSpaceOnUse" x="38" y="82" width="124" height="24">
<rect x="39.5" y="83.5" width="121" height="21" rx="10.5" fill="#71B82B" stroke="#151515" stroke-width="3"/>
</mask>
<g mask="url(#mask0_820_4964)">
<rect x="28" y="82" width="139" height="28" fill="white"/>
<rect x="133" y="82" width="35" height="28" fill="#151515"/>
<circle cx="145" cy="93" r="5" stroke="white" stroke-width="2"/>
<path d="M151 99L149 97" stroke="white" stroke-width="2" stroke-linecap="round"/>
<rect x="39.5" y="83.5" width="121" height="21" rx="10.5" stroke="#151515" stroke-width="3"/>
</g>
<rect x="41" y="124" width="117" height="9" fill="#71B82B"/>
<rect x="41" y="137" width="117" height="3" fill="#151515"/>
<rect x="41" y="142" width="101" height="3" fill="#151515"/>
<rect x="41" y="117" width="42" height="5" fill="#71B82B"/>
<rect x="41" y="159" width="117" height="4" fill="#71B82B"/>
<rect x="41" y="152" width="42" height="5" fill="#71B82B"/>
<path d="M68.8574 71.5063L70.9668 71.3013C71.0938 72.0093 71.3501 72.5293 71.7358 72.8613C72.1265 73.1934 72.6514 73.3594 73.3105 73.3594C74.0088 73.3594 74.5337 73.2129 74.8853 72.9199C75.2417 72.6221 75.4199 72.2754 75.4199 71.8799C75.4199 71.626 75.3442 71.4111 75.1929 71.2354C75.0464 71.0547 74.7876 70.8984 74.4165 70.7666C74.1626 70.6787 73.584 70.5225 72.6807 70.2979C71.5186 70.0098 70.7031 69.6558 70.2344 69.2358C69.5752 68.645 69.2456 67.9248 69.2456 67.0752C69.2456 66.5283 69.3994 66.0181 69.707 65.5444C70.0195 65.0659 70.4663 64.7021 71.0474 64.4531C71.6333 64.2041 72.3389 64.0796 73.1641 64.0796C74.5117 64.0796 75.5249 64.375 76.2036 64.9658C76.8872 65.5566 77.2461 66.3452 77.2803 67.3315L75.1123 67.4268C75.0195 66.875 74.8193 66.4795 74.5117 66.2402C74.209 65.9961 73.7524 65.874 73.1421 65.874C72.5122 65.874 72.019 66.0034 71.6626 66.2622C71.4331 66.4282 71.3184 66.6504 71.3184 66.9287C71.3184 67.1826 71.4258 67.3999 71.6406 67.5806C71.9141 67.8101 72.5781 68.0493 73.6328 68.2983C74.6875 68.5474 75.4663 68.8062 75.9692 69.0747C76.4771 69.3384 76.8726 69.7021 77.1558 70.166C77.4438 70.625 77.5879 71.1938 77.5879 71.8726C77.5879 72.4878 77.417 73.064 77.0752 73.6011C76.7334 74.1382 76.25 74.5386 75.625 74.8022C75 75.061 74.2212 75.1904 73.2886 75.1904C71.9312 75.1904 70.8887 74.8779 70.1611 74.2529C69.4336 73.623 68.999 72.7075 68.8574 71.5063ZM79.4116 75V64.2627H87.373V66.0791H81.5796V68.4595H86.9702V70.2686H81.5796V73.1909H87.5781V75H79.4116ZM99.0991 75H96.7407L95.8032 72.561H91.5112L90.625 75H88.3252L92.5073 64.2627H94.7998L99.0991 75ZM95.1074 70.752L93.6279 66.7676L92.1777 70.752H95.1074ZM100.264 75V64.2627H104.827C105.974 64.2627 106.807 64.3604 107.324 64.5557C107.847 64.7461 108.264 65.0879 108.577 65.5811C108.889 66.0742 109.045 66.6382 109.045 67.2729C109.045 68.0786 108.809 68.7451 108.335 69.2725C107.861 69.7949 107.153 70.1245 106.211 70.2612C106.68 70.5347 107.065 70.835 107.368 71.1621C107.676 71.4893 108.088 72.0703 108.606 72.9053L109.917 75H107.324L105.757 72.6636C105.2 71.8286 104.819 71.3037 104.614 71.0889C104.409 70.8691 104.192 70.7202 103.962 70.6421C103.733 70.5591 103.369 70.5176 102.871 70.5176H102.432V75H100.264ZM102.432 68.8037H104.036C105.076 68.8037 105.725 68.7598 105.984 68.6719C106.243 68.584 106.445 68.4326 106.592 68.2178C106.738 68.0029 106.812 67.7344 106.812 67.4121C106.812 67.0508 106.714 66.7603 106.519 66.5405C106.328 66.3159 106.057 66.1743 105.706 66.1157C105.53 66.0913 105.002 66.0791 104.124 66.0791H102.432V68.8037ZM117.966 71.0522L120.068 71.7188C119.746 72.8906 119.209 73.7622 118.457 74.3335C117.71 74.8999 116.76 75.1831 115.608 75.1831C114.182 75.1831 113.01 74.6973 112.092 73.7256C111.174 72.749 110.715 71.416 110.715 69.7266C110.715 67.9395 111.177 66.5527 112.1 65.5664C113.022 64.5752 114.236 64.0796 115.74 64.0796C117.053 64.0796 118.12 64.4678 118.94 65.2441C119.429 65.7031 119.795 66.3623 120.039 67.2217L117.893 67.7344C117.766 67.1777 117.5 66.7383 117.095 66.416C116.694 66.0938 116.206 65.9326 115.63 65.9326C114.834 65.9326 114.187 66.2183 113.689 66.7896C113.196 67.3608 112.949 68.2861 112.949 69.5654C112.949 70.9229 113.193 71.8896 113.682 72.4658C114.17 73.042 114.805 73.3301 115.586 73.3301C116.162 73.3301 116.658 73.147 117.073 72.7808C117.488 72.4146 117.786 71.8384 117.966 71.0522ZM121.943 75V64.2627H124.111V68.4888H128.359V64.2627H130.527V75H128.359V70.3052H124.111V75H121.943Z" fill="#151515"/>
<rect x="50" y="91" width="6" height="6" fill="#71B82B"/>
<rect x="58" y="91" width="6" height="6" fill="#71B82B"/>
<rect x="66" y="91" width="6" height="6" fill="#71B82B"/>
<rect x="74" y="91" width="6" height="6" fill="#71B82B"/>
<rect x="82" y="91" width="6" height="6" fill="#71B82B"/>
<rect x="90" y="91" width="6" height="6" fill="#71B82B"/>
</svg>
