<svg width="142" height="157" viewBox="0 0 142 157" fill="none" xmlns="http://www.w3.org/2000/svg">
<path d="M1.5 155.5V99.8158H36.6277V155.5H1.5Z" fill="white" stroke="#151515" stroke-width="3"/>
<path d="M88.5541 75.9706V155.5H53.4287V75.9706H88.5541Z" fill="white" stroke="#151515" stroke-width="3"/>
<path d="M105.355 155.5V52.1243H140.481V155.5H105.355Z" fill="white" stroke="#151515" stroke-width="3"/>
<path d="M9.40768 60.2073C9.95761 61.375 11.1216 62.0586 12.334 62.0586C12.7919 62.0586 13.2579 61.9616 13.6986 61.7529L96.0443 22.947L99.0389 29.3167C99.535 30.3732 100.524 31.0622 101.687 31.1593C102.85 31.2591 103.94 30.7461 104.607 29.788L120.202 7.37215C120.867 6.41573 120.971 5.21475 120.473 4.15856C119.979 3.10237 118.988 2.41336 117.827 2.31493L90.6155 0.0120675C89.4569 -0.0866985 88.3627 0.425272 87.6959 1.38337C87.0294 2.34147 86.9269 3.54211 87.4218 4.59696L90.4371 10.7712L90.4674 10.834L7.98666 49.5899C7.2056 49.9561 6.61401 50.6055 6.32107 51.4154C6.0288 52.2264 6.07046 53.1015 6.43663 53.8826L9.40768 60.2073Z" fill="#71B82B"/>
</svg>
