<svg width="200" height="200" viewBox="0 0 200 200" fill="none" xmlns="http://www.w3.org/2000/svg">
<rect width="200" height="200" fill="white"/>
<path d="M76.6447 115.663C80.6633 113.584 85.0837 111.92 85.4856 105.681C85.8071 100.69 85.6195 97.2238 85.4856 95.6988C82.6726 93.2032 81.0651 88.628 79.8595 84.0528C78.878 83.5449 76.6447 82.1812 75.4391 79.8935C73.4687 76.1547 72.6261 69.0794 76.6447 66.9998" stroke="#151515" stroke-width="3"/>
<path d="M124.355 115.663C120.337 113.584 115.916 111.92 115.514 105.681C115.193 100.69 115.38 97.2238 115.514 95.6988C118.327 93.2032 119.935 88.628 121.14 84.0528C122.122 83.5449 124.355 82.1812 125.561 79.8935C127.531 76.1547 128.374 69.0794 124.355 66.9998" stroke="#151515" stroke-width="3"/>
<path d="M76.1293 114.992L98.853 163.125H102.949L123.228 114.476C133.742 119.863 156.282 132.912 159.887 138.878C163.492 144.845 164.12 154.9 163.983 159.182C151.953 161.402 127.535 163.328 98.853 163.125C79.3553 162.987 57.8869 161.865 37 159.182C37 153.657 40.277 141.862 41.9155 138.878C43.554 135.895 64.2502 121.621 76.1293 114.992Z" fill="#151515"/>
<path d="M76.1293 114.992L98.853 163.125H102.949L123.228 114.476C133.742 119.863 156.282 132.912 159.887 138.878C163.491 144.845 164.12 154.9 163.983 159.182C143.775 162.911 88.6125 165.811 37 159.182C37 153.657 40.277 141.862 41.9155 138.878C43.554 135.895 64.2502 121.621 76.1293 114.992Z" stroke="#151515" stroke-width="3"/>
<path d="M84.4766 110.916L101.093 122.785L117.71 110.916" stroke="#151515" stroke-width="3"/>
<path d="M89.2246 140.589L101.295 123.972L112.963 140.589" stroke="#151515" stroke-width="3"/>
<path d="M97.635 139.326L93.6675 134.477L101.162 123.972L108.216 134.477L103.807 139.326L107.622 151.271L103.807 161.953H98.5167L93.667 151.271L97.635 139.326Z" fill="#71B82B" stroke="#151515" stroke-width="3"/>
<path d="M120.38 62.7659C107.958 62.434 91.1228 54.3496 85.811 48.266C80.5809 54.239 80.6075 61.1823 80.8799 67.2659C80.8799 67.2659 75.3917 68.2566 74.3702 60.3755C73.4486 53.2659 79.3799 42.1247 85.811 42.1247C88.6712 37.0089 104.534 31.3797 118.499 42.1247C130.38 51.266 127.352 61.6199 124.628 68.2566H120.38V62.7659Z" fill="#151515" stroke="#151515" stroke-width="3"/>
<rect x="86" y="68.2659" width="12" height="8" rx="1.5" stroke="#151515" stroke-width="3"/>
<rect x="104" y="68.2659" width="12" height="8" rx="1.5" stroke="#151515" stroke-width="3"/>
<path d="M98.5 70.7659H104" stroke="#151515" stroke-width="3"/>
<path d="M80 67.2659L85.5 69.7659M121.5 67.2659L115.5 69.7659" stroke="#151515" stroke-width="3"/>
</svg>
