<svg width="200" height="200" viewBox="0 0 200 200" fill="none" xmlns="http://www.w3.org/2000/svg">
<g clip-path="url(#clip0_645_4562)">
<rect width="200" height="200" fill="white"/>
<path d="M50.6973 120.829L50.698 120.831C55.8876 138.18 69.4868 152.164 87.6015 157.521L82.3354 176.96C71.8568 173.929 62.5051 168.754 54.6082 162.051L54.6066 162.05C46.2411 154.971 39.5205 146.175 34.9931 136.187L34.9922 136.185C30.8954 127.188 28.5457 117.282 28.2942 106.935L28.2702 105.951L27.3154 105.712L18.49 103.502L18.5043 103.487L18.4769 103.48L27.4652 94.2251L27.4668 94.2235L46.8835 74.1592L46.9044 74.2323L46.9216 74.2143L50.4133 86.5144L50.4139 86.5166L58.1047 113.431L57.0222 113.151L57.0222 113.151L57.0124 113.148L50.5808 111.538L48.7159 111.071L48.9863 112.974C49.3675 115.658 49.9403 118.282 50.6973 120.829Z" fill="white" stroke="black" stroke-width="2.58652"/>
<path d="M113.232 48.913L113.23 48.9125C95.6109 44.7326 76.7003 49.5176 63.0039 62.527L48.8019 48.2467C56.6666 40.6878 65.8239 35.1764 75.5775 31.689L75.5794 31.6884C85.8925 27.9829 96.8704 26.5608 107.784 27.6341L107.786 27.6343C117.626 28.5846 127.379 31.5026 136.466 36.4583L137.33 36.9296L138.015 36.2222L144.341 29.6842L144.347 29.7039L144.367 29.6839L147.888 42.0954L147.889 42.0976L155.556 68.9452L155.483 68.9267L155.49 68.9506L143.092 65.8244L143.089 65.8239L115.936 59.0272L116.719 58.2298L116.719 58.2298L116.726 58.2225L121.337 53.4577L122.674 52.0761L120.89 51.3586C118.376 50.3472 115.817 49.531 113.232 48.913Z" fill="white" stroke="black" stroke-width="2.58652"/>
<mask id="path-3-inside-1_645_4562" fill="white">
<path d="M177.892 85.6134C177.868 85.5203 177.851 85.4253 177.827 85.3326H177.826C177.821 85.3162 177.818 85.2985 177.814 85.2825L154.34 91.4871L154.326 91.491L154.276 91.5035C156.073 98.3013 156.481 105.311 155.489 112.337C154.004 122.839 149.45 132.389 142.579 140.053C141.255 141.521 139.874 142.945 138.377 144.264L136.317 137.599L135.317 134.282L135.297 134.303L135.28 134.247L113.359 157.911L102.297 169.814L102.326 169.82L102.286 169.864L149.625 180.636L146.05 169.075C164.357 156.884 176.496 137.683 179.595 115.743C181.027 105.597 180.449 95.4623 177.892 85.6134Z"/>
</mask>
<path d="M177.892 85.6134C177.868 85.5203 177.851 85.4253 177.827 85.3326H177.826C177.821 85.3162 177.818 85.2985 177.814 85.2825L154.34 91.4871L154.326 91.491L154.276 91.5035C156.073 98.3013 156.481 105.311 155.489 112.337C154.004 122.839 149.45 132.389 142.579 140.053C141.255 141.521 139.874 142.945 138.377 144.264L136.317 137.599L135.317 134.282L135.297 134.303L135.28 134.247L113.359 157.911L102.297 169.814L102.326 169.82L102.286 169.864L149.625 180.636L146.05 169.075C164.357 156.884 176.496 137.683 179.595 115.743C181.027 105.597 180.449 95.4623 177.892 85.6134Z" fill="white"/>
<path d="M177.892 85.6134L175.386 86.253L175.389 86.2634L177.892 85.6134ZM177.827 85.3326L180.333 84.691L179.835 82.746H177.827V85.3326ZM177.826 85.3326L175.358 86.1068L175.927 87.9191H177.826V85.3326ZM177.814 85.2825L180.291 84.5392L179.572 82.1423L177.153 82.7818L177.814 85.2825ZM154.34 91.4871L153.679 88.9865L153.662 88.9911L153.644 88.9959L154.34 91.4871ZM154.326 91.491L154.953 94.0003L154.988 93.9917L155.022 93.9821L154.326 91.491ZM154.276 91.5035L153.649 88.9941L151.106 89.6298L151.776 92.1645L154.276 91.5035ZM155.489 112.337L158.05 112.699L158.05 112.699L155.489 112.337ZM142.579 140.053L144.5 141.785L144.505 141.779L142.579 140.053ZM138.377 144.264L135.906 145.028L137.087 148.848L140.087 146.205L138.377 144.264ZM136.317 137.599L133.84 138.345L133.843 138.354L133.845 138.363L136.317 137.599ZM135.317 134.282L137.794 133.536L136.501 129.245L133.432 132.511L135.317 134.282ZM135.297 134.303L132.83 135.079L134.155 139.297L137.182 136.074L135.297 134.303ZM135.28 134.247L137.747 133.472L136.411 129.22L133.382 132.49L135.28 134.247ZM113.359 157.911L115.253 159.672L115.256 159.669L113.359 157.911ZM102.297 169.814L100.403 168.053L97.2935 171.399L101.762 172.345L102.297 169.814ZM102.326 169.82L104.237 171.564L107.284 168.225L102.862 167.29L102.326 169.82ZM102.286 169.864L100.376 168.121L97.3819 171.401L101.712 172.386L102.286 169.864ZM149.625 180.636L149.051 183.158L153.42 184.152L152.096 179.872L149.625 180.636ZM146.05 169.075L144.616 166.923L143.008 167.994L143.579 169.84L146.05 169.075ZM179.595 115.743L182.156 116.105L182.156 116.105L179.595 115.743ZM180.398 84.9739C180.399 84.9758 180.398 84.9708 180.386 84.9163C180.377 84.8762 180.357 84.7867 180.333 84.691L175.321 85.9741C175.321 85.9712 175.322 85.9756 175.334 86.0294C175.342 86.0689 175.362 86.158 175.386 86.253L180.398 84.9739ZM177.827 82.746H177.826V87.9191H177.827V82.746ZM180.294 84.5583C180.304 84.5901 180.312 84.6182 180.319 84.6417C180.325 84.6652 180.33 84.6852 180.334 84.7005C180.338 84.7157 180.34 84.7278 180.342 84.7349C180.344 84.7415 180.345 84.7464 180.344 84.745C180.344 84.7447 180.344 84.7446 180.344 84.7438C180.344 84.7432 180.344 84.7422 180.343 84.741C180.343 84.7388 180.342 84.7352 180.341 84.731C180.339 84.7227 180.336 84.709 180.332 84.6924C180.328 84.6757 180.323 84.6539 180.316 84.6287C180.31 84.6035 180.301 84.5732 180.291 84.5392L175.336 86.0257C175.319 85.9673 175.307 85.9208 175.301 85.8971C175.298 85.8847 175.296 85.8752 175.295 85.8711C175.295 85.8682 175.294 85.8646 175.295 85.8698C175.296 85.8726 175.298 85.8817 175.3 85.8926C175.303 85.9039 175.307 85.9203 175.311 85.9397C175.321 85.9775 175.336 86.0363 175.358 86.1068L180.294 84.5583ZM177.153 82.7818L153.679 88.9865L155.001 93.9877L178.475 87.7831L177.153 82.7818ZM153.644 88.9959L153.631 88.9998L155.022 93.9821L155.036 93.9783L153.644 88.9959ZM153.699 88.9816L153.649 88.9941L154.903 94.0128L154.953 94.0003L153.699 88.9816ZM151.776 92.1645C153.484 98.6256 153.872 105.288 152.928 111.976L158.05 112.699C159.089 105.335 158.663 97.9771 156.777 90.8424L151.776 92.1645ZM152.928 111.975C151.516 121.96 147.188 131.037 140.653 138.326L144.505 141.779C151.712 133.74 156.492 123.718 158.05 112.699L152.928 111.975ZM140.658 138.321C139.374 139.745 138.065 141.091 136.667 142.323L140.087 146.205C141.683 144.798 143.135 143.298 144.5 141.785L140.658 138.321ZM140.848 143.5L138.788 136.835L133.845 138.363L135.906 145.028L140.848 143.5ZM138.793 136.853L137.794 133.536L132.841 135.028L133.84 138.345L138.793 136.853ZM133.432 132.511L133.412 132.532L137.182 136.074L137.202 136.053L133.432 132.511ZM137.765 133.528L137.747 133.472L132.812 135.023L132.83 135.079L137.765 133.528ZM133.382 132.49L111.461 156.153L115.256 159.669L137.177 136.005L133.382 132.49ZM111.464 156.15L100.403 168.053L104.192 171.575L115.253 159.672L111.464 156.15ZM101.762 172.345L101.791 172.351L102.862 167.29L102.833 167.284L101.762 172.345ZM100.416 168.077L100.376 168.121L104.197 171.608L104.237 171.564L100.416 168.077ZM101.712 172.386L149.051 183.158L150.199 178.114L102.86 167.342L101.712 172.386ZM152.096 179.872L148.521 168.311L143.579 169.84L147.154 181.4L152.096 179.872ZM147.484 171.228C166.404 158.628 178.954 138.776 182.156 116.105L177.033 115.382C174.038 136.59 162.31 155.139 144.616 166.923L147.484 171.228ZM182.156 116.105C183.636 105.622 183.039 95.1434 180.396 84.9635L175.389 86.2634C177.86 95.7811 178.419 105.572 177.033 115.382L182.156 116.105Z" fill="black" mask="url(#path-3-inside-1_645_4562)"/>
<path d="M107.569 129.5H98.3063V94.5908C94.9219 97.7554 90.9332 100.096 86.3402 101.612V93.2063C88.7576 92.4152 91.3838 90.9208 94.2187 88.7232C97.0536 86.5036 98.9985 83.9214 100.053 80.9765H107.569V129.5Z" fill="#71B82B"/>
</g>
<defs>
<clipPath id="clip0_645_4562">
<rect width="200" height="200" fill="white"/>
</clipPath>
</defs>
</svg>
