<svg width="185" height="170" viewBox="0 0 185 170" fill="none" xmlns="http://www.w3.org/2000/svg">
<path fill-rule="evenodd" clip-rule="evenodd" d="M56.4764 34.8059C39.303 44.7149 26.5998 61.5048 22.1338 81.4087H32.4272C36.1698 67.1949 44.829 54.976 56.4764 46.6804V34.8059ZM92.4285 169.291C81.9796 169.291 72.0503 167.067 63.0883 163.066V151.929C71.8241 156.626 81.8151 159.291 92.4285 159.291C103.098 159.291 113.138 156.598 121.906 151.855V163.004C112.908 167.044 102.931 169.291 92.4285 169.291ZM162.723 81.4087C158.269 61.5581 145.622 44.8047 128.518 34.8856V46.7787C140.096 55.0724 148.702 67.251 152.43 81.4087H162.723Z" fill="#71B82B"/>
<path d="M128.046 128.422V128.422V136.725C128.046 136.8 127.987 136.891 127.931 136.92L115.489 142.523C115.119 142.69 114.782 142.683 114.567 142.597C114.369 142.519 114.279 142.386 114.279 142.207V122.947C114.279 122.767 114.369 122.634 114.567 122.556C114.782 122.47 115.119 122.463 115.489 122.629C115.489 122.629 115.489 122.629 115.489 122.629L127.931 128.228C127.987 128.257 128.046 128.347 128.046 128.422Z" fill="#151515" stroke="#151515"/>
<path d="M134.528 122.751H174.216C175.262 122.751 176.12 123.608 176.12 124.655V147.11C176.12 148.156 175.262 149.015 174.216 149.015H134.528C133.482 149.015 132.624 148.156 132.624 147.11V124.655C132.624 123.608 133.482 122.751 134.528 122.751Z" fill="#151515" stroke="#151515"/>
<path d="M153.305 112.067C153.265 112.13 153.223 112.191 153.18 112.252C153.153 112.29 153.126 112.328 153.1 112.367L153.305 112.067ZM153.305 112.067C153.33 112.029 153.352 111.99 153.375 111.951M153.305 112.067L153.375 111.951M153.375 111.951C153.393 111.92 153.41 111.889 153.429 111.859L153.375 111.951ZM156.06 95.2676L156.06 95.2667C158.779 91.2021 163.394 88.5206 168.647 88.5206C177.019 88.5206 183.806 95.3073 183.806 103.68C183.806 112.051 177.019 118.838 168.647 118.838C162.494 118.838 157.207 115.165 154.831 109.894L154.377 108.887L153.92 109.893C153.652 110.482 153.342 111.048 153.004 111.596L153.003 111.597C152.977 111.639 152.953 111.682 152.934 111.714C152.914 111.749 152.899 111.774 152.885 111.797L152.884 111.798C152.847 111.856 152.817 111.899 152.781 111.95C152.754 111.989 152.724 112.031 152.686 112.087L152.684 112.089C149.966 116.155 145.35 118.838 140.096 118.838C131.724 118.838 124.937 112.052 124.937 103.68C124.937 95.3074 131.724 88.5207 140.096 88.5207C146.249 88.5207 151.536 92.1936 153.912 97.4648L154.365 98.4713L154.822 97.4666C155.092 96.8744 155.403 96.3061 155.744 95.7558L155.744 95.7556C155.769 95.7148 155.792 95.6735 155.81 95.6426C155.83 95.6089 155.844 95.5839 155.859 95.5615L155.859 95.5613C155.896 95.5029 155.927 95.4595 155.962 95.4091C155.99 95.3697 156.02 95.326 156.06 95.2676ZM133.545 103.68V103.68C133.545 107.293 136.483 110.231 140.096 110.231C143.709 110.231 146.647 107.292 146.647 103.68C146.647 100.066 143.709 97.128 140.096 97.128C136.483 97.128 133.545 100.066 133.545 103.68ZM162.096 103.68C162.096 107.293 165.035 110.231 168.647 110.231C172.26 110.231 175.199 107.292 175.199 103.68C175.199 100.066 172.26 97.1279 168.647 97.1279C165.035 97.1279 162.096 100.066 162.096 103.68Z" fill="#151515" stroke="#151515"/>
<rect y="87" width="55" height="61" rx="3" fill="#151515"/>
<rect x="3" y="90" width="7.51894" height="8.81216" rx="2" fill="white"/>
<rect x="3" y="101.547" width="7.51894" height="8.81216" rx="2" fill="white"/>
<rect x="3" y="113.094" width="7.51894" height="8.81216" rx="2" fill="white"/>
<rect x="3" y="124.641" width="7.51894" height="8.81216" rx="2" fill="white"/>
<rect x="3" y="136.188" width="7.51894" height="8.81216" rx="2" fill="white"/>
<rect x="45" y="90" width="7.51894" height="8.81216" rx="2" fill="white"/>
<rect x="45" y="101.547" width="7.51894" height="8.81216" rx="2" fill="white"/>
<rect x="45" y="113.094" width="7.51894" height="8.81216" rx="2" fill="white"/>
<rect x="45" y="124.641" width="7.51894" height="8.81216" rx="2" fill="white"/>
<rect x="45" y="136.188" width="7.51894" height="8.81216" rx="2" fill="white"/>
<rect x="13" y="90" width="29" height="26" rx="2" fill="white"/>
<rect x="13" y="119" width="29" height="26" rx="2" fill="white"/>
<path d="M43.9015 142.136L49.7557 139.863L48.7915 135.524L46.2432 134.147L35.6366 115.964L32.3996 116.791L37.2896 130.772L23.997 126.295L22.895 128.844L43.9015 142.136Z" fill="white"/>
<path d="M74.2593 147.801C74.2587 147.802 74.2575 147.802 74.2575 147.803C74.2563 147.803 74.2563 147.805 74.2563 147.805L74.2593 147.801Z" fill="#151515"/>
<path d="M53.0465 168.221L53.0461 168.221C53.0515 168.218 53.0569 168.217 53.0622 168.215L52.9836 168.029L52.9827 168.027L53.0556 168.198L53.056 168.199L53.0626 168.215C53.7143 167.939 54.2961 167.619 54.799 167.261C55.7301 166.596 56.4036 165.773 56.7423 164.819C56.9383 164.273 57.0211 163.72 57.0207 163.179C57.0154 161.359 56.1139 159.68 55.4454 158.404C53.8638 155.391 49.2263 146.212 47.5802 142.954L48.3031 141.305L49.9436 140.583C53.2097 142.236 62.389 146.874 65.4026 148.456C66.6727 149.118 68.3547 150.017 70.1722 150.023C70.7133 150.023 71.2652 149.94 71.8106 149.744C72.7586 149.408 73.5911 148.743 74.2581 147.803C74.616 147.308 74.9358 146.726 75.2044 146.065C75.2044 146.064 75.2048 146.064 75.2048 146.064C75.2057 146.062 75.2064 146.06 75.2068 146.059L75.2064 146.059C75.7272 144.828 75.9921 143.576 75.9917 142.342C75.9921 141.162 75.7504 140 75.2675 138.896C74.6805 137.551 73.95 136.419 72.9235 135.474C71.8973 134.527 70.5851 133.774 68.8536 133.149C67.2667 132.572 65.7705 132.34 64.3855 132.34C60.7202 132.341 57.8501 133.961 55.9686 135.02C55.6831 135.175 55.4256 135.32 55.1895 135.446C54.2968 135.922 53.622 136.071 53.1252 136.071C53.0213 136.071 52.9307 136.059 52.8409 136.048C52.7985 136.043 52.7552 136.039 52.7144 136.03C52.5707 136.003 52.4488 135.962 52.34 135.915C52.277 135.888 52.2152 135.859 52.1559 135.824C52.1073 135.795 52.0574 135.766 52.0163 135.736C51.9009 135.652 51.8157 135.566 51.755 135.497L51.6802 135.407L51.65 135.369L51.6084 135.322L51.6089 135.322L51.4317 135.136L51.3353 135.035L49.6965 134.807C49.1906 134.56 48.4305 134.181 47.635 133.787C45.2897 129.627 40.9649 122.066 37.2336 116.093L37.232 116.09C36.8724 115.525 36.2898 115.15 35.6291 115.054L35.625 115.053C35.3621 115.018 35.0977 115 34.834 115C34.6465 115 34.4591 115.009 34.2737 115.028C34.0249 115.053 33.7678 115.086 33.514 115.149L33.514 115.148C33.5129 115.149 33.5116 115.149 33.5108 115.149C33.5095 115.149 33.5079 115.149 33.5067 115.15L33.5067 115.151C32.4833 115.387 31.7649 116.295 31.7669 117.347C31.7665 117.626 31.8151 117.902 31.9144 118.16L31.9152 118.162C32.1624 118.792 32.768 120.406 33.5417 122.453C34.3063 124.491 35.0499 126.462 35.7428 128.301L36.0012 129.018C33.9676 128.247 31.7423 127.406 29.4422 126.543C27.396 125.778 25.7844 125.166 25.1582 124.924C24.8945 124.822 24.6149 124.77 24.3339 124.77C23.9755 124.77 23.6154 124.856 23.2875 125.033L23.2871 125.033C23.2859 125.033 23.2851 125.034 23.2842 125.035C23.2834 125.035 23.2822 125.035 23.2818 125.035L23.2818 125.036C22.7066 125.34 22.286 125.878 22.139 126.516L22.137 126.524C22.0867 126.767 22.0435 127.014 22.0175 127.275L22.0163 127.293L22.0163 127.293C22.008 127.449 21.9998 127.626 21.9998 127.823C21.9998 128.09 22.0167 128.364 22.0513 128.632C22.1394 129.302 22.5263 129.886 23.0927 130.236C29.065 133.975 36.6476 138.315 40.8002 140.66C41.1792 141.438 41.5495 142.179 41.8041 142.682L42.0232 144.33L42.3046 144.612L42.3107 144.618L42.3177 144.625L42.4042 144.693C42.4899 144.759 42.6505 144.888 42.7951 145.115C42.8268 145.165 42.8569 145.221 42.8857 145.28C42.896 145.302 42.9047 145.324 42.9142 145.346C42.9694 145.473 43.0164 145.619 43.0423 145.795C43.0435 145.802 43.0439 145.809 43.0452 145.816C43.0583 145.912 43.0666 146.014 43.067 146.126C43.067 146.623 42.9174 147.3 42.4358 148.199L42.4305 148.209C42.316 148.438 42.1759 148.689 42.0169 148.959L42.0125 148.966C40.9594 150.848 39.3368 153.723 39.3359 157.399C39.3355 158.782 39.567 160.277 40.1393 161.863C40.7688 163.592 41.524 164.902 42.471 165.927C43.4173 166.952 44.549 167.682 45.8937 168.269C46.999 168.754 48.1636 168.997 49.3489 168.997C50.5493 168.997 51.7696 168.743 52.9717 168.248C52.9962 168.238 53.0219 168.231 53.0465 168.221ZM47.3446 164.83C45.4668 164.048 44.4757 162.984 43.6134 160.615C43.2023 159.471 43.0329 158.391 43.0329 157.399C43.0329 155.232 43.8227 153.531 44.5156 152.709C44.5559 152.653 44.6042 152.605 44.6524 152.556L44.7253 152.483C44.7735 152.443 44.8221 152.403 44.8703 152.37L45.0071 152.282C45.8858 151.839 47.3285 151.516 47.7953 152.193C48.6015 153.354 49.6978 155.167 50.6004 156.94C51.5916 158.89 53.1629 161.921 52.792 163.065C52.6952 163.363 52.5424 163.629 52.3171 163.863C52.2925 163.887 52.2684 163.911 52.2364 163.935C52.2281 163.951 52.2121 163.959 52.2039 163.967C52.1877 163.984 52.1717 163.991 52.1479 164.007C52.1236 164.024 52.0993 164.048 52.0671 164.064C51.9138 164.177 51.7367 164.265 51.5513 164.362C50.3021 164.999 48.6818 165.386 47.3446 164.83ZM67.661 136.559C70.0302 137.421 71.0938 138.412 71.8758 140.291C72.0138 140.622 72.0928 140.972 72.1254 141.328C72.1258 141.334 72.1266 141.339 72.127 141.346C72.2201 142.421 71.8843 143.563 71.4082 144.497C71.3274 144.674 71.2388 144.836 71.1421 144.989C71.1343 145.005 71.1259 145.021 71.1181 145.029C71.0453 145.126 70.9732 145.206 70.9007 145.279L70.8764 145.303C70.7956 145.384 70.7154 145.448 70.6346 145.504C70.5942 145.537 70.5538 145.569 70.5057 145.585C70.3767 145.665 70.2317 145.722 70.0949 145.77C68.9422 146.141 65.9123 144.57 63.9621 143.578C62.1889 142.676 60.3759 141.572 59.2154 140.766C58.9332 140.58 58.8285 140.218 58.8285 139.807C58.8285 139.21 59.046 138.501 59.3118 137.986L59.3682 137.873C59.4246 137.792 59.4975 137.712 59.5774 137.623C59.594 137.607 59.61 137.591 59.6261 137.583C59.7229 137.494 59.8275 137.397 59.9565 137.309C60.0693 137.228 60.1905 137.147 60.319 137.067C60.4319 136.994 60.5613 136.922 60.6899 136.857C60.8027 136.792 60.9317 136.736 61.0524 136.68C62.5996 135.995 64.9691 135.584 67.661 136.559ZM36.2066 123.834C36.1506 123.673 36.0942 123.52 36.0377 123.375C35.9812 123.23 35.933 123.093 35.8844 122.964C35.7876 122.722 35.699 122.481 35.6183 122.254C35.0626 120.788 34.5871 119.507 34.2404 118.596C34.1921 118.459 34.144 118.33 34.0954 118.209C34.0715 118.145 34.0472 118.08 34.0228 118.016C33.999 117.951 33.9746 117.895 33.9581 117.846C33.9424 117.814 33.9343 117.79 33.926 117.758C33.9021 117.701 33.8782 117.645 33.8535 117.588C33.8374 117.532 33.8136 117.484 33.7975 117.435L33.7814 117.347C33.7814 117.234 33.8535 117.137 33.9664 117.113C34.0874 117.081 34.2564 117.048 34.4583 117.032C34.7079 117.008 35.014 117.008 35.353 117.057L35.5219 117.162C37.3433 120.07 39.2935 123.343 41.0826 126.413C41.2758 126.751 41.4772 127.09 41.6709 127.429C42.0655 128.097 42.4445 128.758 42.8075 129.395C43.0811 129.862 43.3472 130.321 43.6051 130.773C43.75 131.031 43.8951 131.28 44.0401 131.53C44.1773 131.772 44.3141 132.014 44.4508 132.255C44.5801 132.489 44.7168 132.715 44.8376 132.941L44.822 132.932C43.984 132.53 41.7355 131.643 38.729 130.491C38.6486 130.273 38.5596 130.056 38.4798 129.83C38.3747 129.564 38.2696 129.298 38.1733 129.024C38.109 128.855 38.0361 128.678 37.9719 128.5C37.8828 128.267 37.7944 128.033 37.7062 127.799C37.1978 126.453 36.6903 125.099 36.2066 123.834ZM24.0306 127.461C26.1671 127.937 33.5318 130.829 37.8026 132.57C38.1734 132.723 38.5198 132.868 38.8342 132.997C39.2211 133.158 39.5757 133.303 39.8658 133.424C39.9465 133.456 40.0187 133.481 40.0833 133.513C43.0973 134.786 44.2902 134.577 44.3224 134.472C44.8221 134.682 45.499 135.004 46.1919 135.334C46.6269 135.544 47.0541 135.761 47.4652 135.955L47.473 135.955C47.562 136.116 47.6428 136.269 47.7231 136.406L48.3035 138.3L48.521 139.017L47.8681 139.299L47.8599 139.299L46.7723 139.783L44.8537 140.621C44.8537 140.621 43.9034 140.097 42.34 139.211L42.3318 139.211C41.961 139.001 41.5581 138.775 41.1231 138.526C40.7523 138.316 40.3576 138.09 39.9379 137.857C35.6509 135.415 29.3244 131.764 24.1592 128.532L24.0459 128.355C24.0215 128.17 24.0137 127.984 24.0137 127.823C24.0137 127.696 24.0141 127.578 24.0298 127.467C24.0302 127.465 24.0302 127.463 24.0306 127.461Z" fill="#151515"/>
<path d="M42.6944 137.47C42.6944 137.889 42.8554 138.308 43.1698 138.622C43.4923 138.936 43.9113 139.098 44.3225 139.098C44.7414 139.098 45.1604 138.936 45.4748 138.622C45.7891 138.308 45.9507 137.889 45.9507 137.47C45.9507 137.059 45.7891 136.64 45.4748 136.317C45.1604 136.003 44.7414 135.842 44.3225 135.842C43.9114 135.842 43.4924 136.003 43.1698 136.317C42.8554 136.64 42.6944 137.059 42.6944 137.47ZM44.5239 138.255L44.5239 136.96L44.5276 136.681C44.6632 136.714 44.7986 136.786 44.9025 136.89C45.064 137.051 45.1443 137.26 45.1443 137.47C45.1443 137.687 45.064 137.889 44.9025 138.05C44.8118 138.14 44.696 138.201 44.5779 138.239C44.5593 138.243 44.5433 138.252 44.5239 138.255ZM44.1173 138.258C43.9818 138.225 43.8459 138.154 43.7421 138.05C43.581 137.889 43.5006 137.687 43.5006 137.47C43.5006 137.26 43.5809 137.051 43.7421 136.89C43.8467 136.785 43.9843 136.712 44.1211 136.68L44.1211 137.972L44.1173 138.258Z" fill="#151515"/>
<rect x="64.5884" y="11.1423" width="55.8181" height="58.7108" rx="1.5" fill="white" stroke="#151515" stroke-width="3"/>
<rect x="74.9346" y="7.94269" width="34.9878" height="8.58705" fill="white"/>
<path d="M81.2076 16.5701H86.5355H98.5545H103.882C105.181 16.5701 106.235 15.5172 106.235 14.2177V7.88392H101.562C100.661 3.85054 96.9586 0.826569 92.5447 0.826569C88.1314 0.826569 84.4289 3.85054 83.5275 7.88392H78.8947H78.8663H78.855V14.2177C78.855 15.5172 79.9086 16.5701 81.2076 16.5701ZM92.5447 3.54116C94.0437 3.54116 95.2592 4.75664 95.2592 6.25519C95.2592 7.75471 94.0437 8.97019 92.5447 8.97019C91.0456 8.97019 89.8307 7.75471 89.8307 6.25519C89.8307 4.75664 91.0456 3.54116 92.5447 3.54116Z" fill="#151515"/>
<path d="M109.053 25.7905H76.0366V29.217H109.053V25.7905Z" fill="#151515"/>
<path d="M109.053 35.3854H76.0366V38.8119H109.053V35.3854Z" fill="#151515"/>
<path d="M109.053 44.9799H76.0366V48.4068H109.053V44.9799Z" fill="#151515"/>
<path d="M109.053 54.5749H76.0366V58.0019H109.053V54.5749Z" fill="#151515"/>
</svg>
