<svg width="200" height="200" viewBox="0 0 200 200" fill="none" xmlns="http://www.w3.org/2000/svg">
<rect width="200" height="200" fill="white"/>
<path d="M164 45H139L117 130H55.5" stroke="#151515" stroke-width="3"/>
<path d="M36 58L53 116.5H120.5" stroke="#151515" stroke-width="3"/>
<circle cx="64" cy="146" r="7.5" stroke="#151515" stroke-width="3"/>
<circle cx="111" cy="146" r="7.5" stroke="#151515" stroke-width="3"/>
<path fill-rule="evenodd" clip-rule="evenodd" d="M87.9941 109H99.9695L101.503 95.5H87.9941V109ZM87.9941 92.5H101.844L103.549 77.5H87.9941V92.5ZM84.9941 77.5V92.5H70.6498L68.9454 77.5H84.9941ZM87.9941 74.5H103.89L105.764 58H87.9941V74.5ZM84.9941 58V74.5H68.6046L66.7298 58H84.9941ZM84.9941 95.5V109H72.5246L70.9907 95.5H84.9941ZM113.394 109H102.989L104.523 95.5H116.731L113.394 109ZM117.472 92.5H104.864L106.568 77.5H121.18L117.472 92.5ZM121.922 74.5H106.909L108.784 58H126L121.922 74.5ZM65.9261 77.5L67.6305 92.5H55.1836L51.1907 77.5H65.9261ZM63.7105 58L65.5853 74.5H50.3922L46 58H63.7105ZM67.9714 95.5L69.5053 109H59.5758L55.9822 95.5H67.9714Z" fill="#71B82B"/>
</svg>
