<svg width="334" height="194" viewBox="0 0 334 194" fill="none" xmlns="http://www.w3.org/2000/svg">
<path d="M134 179H223V171H198L198.5 144H299L300.5 142.5V2.5L299 1H59L57.5 3V142L59 144H158V171.5H134V179Z" fill="white"/>
<path d="M133.529 171.197H223.102V178.845H133.529V171.197Z" stroke="#151515" stroke-width="2" stroke-linecap="round" stroke-linejoin="round"/>
<path d="M157.894 144.687L158.092 170.276" stroke="#151515" stroke-width="2" stroke-linecap="round" stroke-linejoin="round"/>
<path d="M198.162 145.083L197.765 170.673" stroke="#151515" stroke-width="2" stroke-linecap="round" stroke-linejoin="round"/>
<path d="M59.9155 1H298.193C299.515 1 300.586 2.03118 300.586 3.30321V141.923C300.586 143.196 299.515 144.227 298.193 144.227H59.9155C58.5939 144.227 57.5225 143.196 57.5225 141.923V3.30321C57.5225 2.03118 58.5939 1 59.9155 1Z" stroke="#151515" stroke-width="2" stroke-linecap="round" stroke-linejoin="round"/>
<path d="M63.4824 6.47498H293.858V139.122H63.4824V6.47498Z" stroke="#151515" stroke-width="2" stroke-linecap="round" stroke-linejoin="round"/>
<circle cx="179.24" cy="72.9574" r="32.068" fill="#71B82B"/>
<path d="M191.729 73.295L173.501 83.819L173.501 62.771L191.729 73.295Z" fill="white"/>
<path d="M227 123.5L225.5 114L326.5 95.5L329.5 107L231.5 125.5L332 123.5L332.5 191L228 191.5L227 128.5L226.5 128L225.5 125.5L227 123.5Z" fill="white"/>
<path d="M241.549 112.062L248.945 120.414L259.621 118.777L252.56 109.943L241.549 112.062Z" fill="#151515" stroke="#151515" stroke-width="2" stroke-linecap="round" stroke-linejoin="round"/>
<path d="M230.81 124.784L329.548 106.975L326.66 95.9741L225.641 113.931L226.986 124.092" stroke="#151515" stroke-width="2" stroke-linecap="round" stroke-linejoin="round"/>
<path d="M290.297 103.143L296.958 112.051L307.307 110.094L301.131 101.127L290.297 103.143Z" fill="#151515" stroke="#151515" stroke-width="2" stroke-linecap="round" stroke-linejoin="round"/>
<path d="M273.43 125.184L269 134L279.708 133.644L284 125L273.43 125.184Z" fill="#151515" stroke="#151515" stroke-width="2" stroke-linecap="round" stroke-linejoin="round"/>
<path d="M227.957 124.039C229.21 124.039 230.225 125.055 230.225 126.307V126.354C230.225 127.607 229.21 128.622 227.957 128.622C226.704 128.622 225.689 127.607 225.689 126.354V126.307C225.689 125.055 226.704 124.039 227.957 124.039Z" stroke="#151515" stroke-width="2" stroke-linecap="round" stroke-linejoin="round"/>
<path d="M226.963 135.447L227.316 191.91L332.54 191.423L332.142 133.256" stroke="#151515" stroke-width="2" stroke-linecap="round" stroke-linejoin="round"/>
<path d="M247.849 125.716L243.137 134.627L254.651 134.443L259.21 125.369L247.849 125.716Z" fill="#151515" stroke="#151515" stroke-width="2" stroke-linecap="round" stroke-linejoin="round"/>
<path d="M322.624 124.345L318.101 133.708L332.045 133.312L331.623 123.931L322.624 124.345Z" fill="#151515" stroke="#151515" stroke-width="2" stroke-linecap="round" stroke-linejoin="round"/>
<path d="M266.511 107.216L273.442 115.908L282.28 114.315L275.97 105.45L266.511 107.216Z" fill="#151515" stroke="#151515" stroke-width="2" stroke-linecap="round" stroke-linejoin="round"/>
<path d="M315.393 98.2785L321.497 107.987L329.17 106.51L326.432 96.6044L315.393 98.2785Z" fill="#151515" stroke="#151515" stroke-width="2" stroke-linecap="round" stroke-linejoin="round"/>
<path d="M296.813 124.557L293.119 134.042H303.897L307.816 124.484L296.813 124.557Z" fill="#151515" stroke="#151515" stroke-width="2" stroke-linecap="round" stroke-linejoin="round"/>
<path d="M230.343 125.921L331.78 123.674L332.42 133.788L227.115 135.296L227.056 128.772" stroke="#151515" stroke-width="2" stroke-linecap="round" stroke-linejoin="round"/>
<path d="M39 117L49 129.5V130H56L55.5 124.5L56 122L57.5 120.5H59.5H134H137.5L139 123L139.5 130.5H147L149.5 132.5L151 135L151.5 139.5L166 135.5L166.5 155L151.5 151.5V189L149 192L145 193L49 193.5L45 190.5L44.5 187.5V177.5H38L35 180.5H27.5L26 179.5L1.5 190V132.5L26 143L27.5 141.5H33L36 143L37 145H44.5V135L29 117H16.5L15 115.5V108.5L16.5 107H39L41 108.5V114.5L39 117Z" fill="white"/>
<path d="M123.746 150.794H72.2656V172.213H123.746V150.794Z" stroke="#151515" stroke-width="2" stroke-linecap="round" stroke-linejoin="round"/>
<path d="M127.383 144.696H68.6044C67.0637 144.696 65.8149 145.908 65.8149 147.404V175.278C65.8149 176.774 67.0637 177.986 68.6044 177.986H127.383C128.924 177.986 130.173 176.774 130.173 175.278V147.404C130.173 145.908 128.924 144.696 127.383 144.696Z" stroke="#151515" stroke-width="2" stroke-linecap="round" stroke-linejoin="round"/>
<path d="M34.0732 141.574H27.8919C26.6 141.574 25.5527 142.524 25.5527 143.697V178.381C25.5527 179.554 26.6 180.504 27.8919 180.504H34.0732C35.3653 180.504 36.4126 179.554 36.4126 178.381V143.697C36.4126 142.524 35.3653 141.574 34.0732 141.574Z" stroke="#151515" stroke-width="2" stroke-linecap="round" stroke-linejoin="round"/>
<path d="M39.5288 117.374L49.7276 130.299" stroke="#151515" stroke-width="2" stroke-linecap="round" stroke-linejoin="round"/>
<path d="M44.0617 144.874H36.5483V177.613H44.0617V144.874Z" stroke="#151515" stroke-width="2" stroke-linecap="round" stroke-linejoin="round"/>
<path d="M139.136 129.918V123.28C139.136 121.785 137.886 120.572 136.346 120.572H58.068C56.5274 120.572 55.2783 121.785 55.2783 123.28V130.57" stroke="#151515" stroke-width="2" stroke-linecap="round" stroke-linejoin="round"/>
<path d="M29.0469 117.649L43.2119 134.699" stroke="#151515" stroke-width="2" stroke-linecap="round" stroke-linejoin="round"/>
<path d="M38.1558 106.923H17.3881C15.8474 106.923 14.5986 108.136 14.5986 109.631V114.391C14.5986 115.886 15.8474 117.099 17.3881 117.099H38.1558C39.6964 117.099 40.9455 115.886 40.9455 114.391V109.631C40.9455 108.136 39.6964 106.923 38.1558 106.923Z" stroke="#151515" stroke-width="2" stroke-linecap="round" stroke-linejoin="round"/>
<path d="M145.571 130.299H49.9246C46.8433 130.299 44.3452 132.724 44.3452 135.715V187.584C44.3452 190.575 46.8433 193 49.9246 193H145.571C148.652 193 151.15 190.575 151.15 187.584V135.715C151.15 132.724 148.652 130.299 145.571 130.299Z" stroke="#151515" stroke-width="2" stroke-linecap="round" stroke-linejoin="round"/>
<path d="M151.372 139.328L165.803 135.401L166.472 155.072L151.106 151.829" stroke="#151515" stroke-width="2" stroke-linecap="round" stroke-linejoin="round"/>
<path d="M25.6472 142.399L1.31391 132.134L1 190.25L25.0805 180.075L25.6472 142.399Z" stroke="#151515" stroke-width="2" stroke-linecap="round" stroke-linejoin="round"/>
</svg>
