<svg width="200" height="200" viewBox="0 0 200 200" fill="none" xmlns="http://www.w3.org/2000/svg">
<rect width="200" height="200" fill="white"/>
<path fill-rule="evenodd" clip-rule="evenodd" d="M71.1551 128.317C102.721 128.317 128.31 109.665 128.31 86.6583C128.31 63.651 102.721 45 71.1551 45C39.5892 45 14 63.651 14 86.6583C14 103.328 27.4327 117.71 46.8389 124.369V137.607L62.6078 127.854C65.3961 128.159 68.2503 128.317 71.1551 128.317Z" fill="white"/>
<path d="M46.8389 124.369H48.3389V123.298L47.3257 122.95L46.8389 124.369ZM46.8389 137.607H45.3389V140.299L47.6279 138.883L46.8389 137.607ZM62.6078 127.854L62.7708 126.363L62.2577 126.307L61.8188 126.578L62.6078 127.854ZM126.81 86.6583C126.81 97.5652 120.748 107.57 110.686 114.903C100.626 122.235 86.6547 126.817 71.1551 126.817V129.817C87.2214 129.817 101.827 125.072 112.453 117.327C123.078 109.583 129.81 98.7586 129.81 86.6583H126.81ZM71.1551 46.5C86.6547 46.5 100.626 51.0812 110.686 58.4136C120.748 65.747 126.81 75.7513 126.81 86.6583H129.81C129.81 74.5579 123.078 63.7332 112.453 55.9892C101.827 48.2443 87.2214 43.5 71.1551 43.5V46.5ZM15.5 86.6583C15.5 75.7513 21.5625 65.747 31.6239 58.4136C41.684 51.0812 55.6555 46.5 71.1551 46.5V43.5C55.0888 43.5 40.4828 48.2443 29.8568 55.9892C19.2321 63.7332 12.5 74.5579 12.5 86.6583H15.5ZM47.3257 122.95C28.261 116.408 15.5 102.446 15.5 86.6583H12.5C12.5 104.209 26.6044 119.012 46.352 125.788L47.3257 122.95ZM48.3389 137.607V124.369H45.3389V137.607H48.3389ZM61.8188 126.578L46.0498 136.332L47.6279 138.883L63.3969 129.13L61.8188 126.578ZM71.1551 126.817C68.3047 126.817 65.5049 126.662 62.7708 126.363L62.4449 129.345C65.2874 129.656 68.196 129.817 71.1551 129.817V126.817Z" fill="#151515"/>
<path d="M39.4805 71.9797L103.182 71.9797" stroke="#151515" stroke-width="3"/>
<path d="M39.4805 83.2212L103.182 83.2212" stroke="#151515" stroke-width="3"/>
<path d="M39.4805 94.4626L103.182 94.4626" stroke="#151515" stroke-width="3"/>
<path d="M39.4805 104.955H85.1959" stroke="#151515" stroke-width="3"/>
<path fill-rule="evenodd" clip-rule="evenodd" d="M144.433 147.688C121.476 147.688 102.865 134.124 102.865 117.391C102.865 100.659 121.476 87.0942 144.433 87.0942C167.39 87.0942 186 100.659 186 117.391C186 129.514 176.231 139.974 162.117 144.817V154.445L150.649 147.352C148.621 147.573 146.545 147.688 144.433 147.688Z" fill="#71B82B"/>
<path d="M162.117 144.817H160.617V143.746L161.63 143.399L162.117 144.817ZM162.117 154.445H163.617V157.137L161.328 155.721L162.117 154.445ZM150.649 147.352L150.486 145.86L150.999 145.804L151.438 146.076L150.649 147.352ZM104.365 117.391C104.365 125.161 108.683 132.325 115.924 137.602C123.163 142.879 133.237 146.188 144.433 146.188V149.188C132.671 149.188 121.962 145.715 114.157 140.027C106.353 134.339 101.365 126.354 101.365 117.391H104.365ZM144.433 88.5942C133.237 88.5942 123.163 91.9038 115.924 97.1802C108.683 102.458 104.365 109.622 104.365 117.391H101.365C101.365 108.428 106.353 100.444 114.157 94.7558C121.962 89.0669 132.671 85.5942 144.433 85.5942V88.5942ZM184.5 117.391C184.5 109.622 180.182 102.458 172.942 97.1802C165.702 91.9038 155.628 88.5942 144.433 88.5942V85.5942C156.194 85.5942 166.904 89.0669 174.709 94.7558C182.513 100.444 187.5 108.428 187.5 117.391H184.5ZM161.63 143.399C175.402 138.673 184.5 128.632 184.5 117.391H187.5C187.5 130.396 177.059 141.276 162.604 146.236L161.63 143.399ZM160.617 154.445V144.817H163.617V154.445H160.617ZM151.438 146.076L162.906 153.169L161.328 155.721L149.86 148.627L151.438 146.076ZM144.433 146.188C146.491 146.188 148.512 146.076 150.486 145.86L150.812 148.843C148.73 149.07 146.6 149.188 144.433 149.188V146.188Z" fill="#151515"/>
<path d="M167.562 106.823L121.234 106.823" stroke="#151515" stroke-width="3"/>
<path d="M167.562 118.469L121.234 118.468" stroke="#151515" stroke-width="3"/>
<path d="M154.575 129.337H121.328" stroke="#151515" stroke-width="3"/>
</svg>
