<svg width="400" height="300" viewBox="0 0 400 300" fill="none" xmlns="http://www.w3.org/2000/svg">
<path d="M43.5 129L43 192L212 286.5L359 205.5L361 105L185.5 13.5L44 89V108L38.5 110.5L38 131.5L43.5 129Z" fill="white"/>
<path d="M165.5 94.5001L141.5 106.5L156.5 122.5L169 116L168 114L165.5 111L166.5 108.5L165.5 107V106H168L170 108.5L171.5 111L174 113L180 109.5L165.5 94.5001Z" fill="#71B82B"/>
<path d="M109.5 123.5L85.5 136L100.5 151.5L125 139.5L109.5 123.5Z" fill="#71B82B"/>
<path d="M192 98.0001L194.5 101H196.5V103L198 106.5L201 105.5L205 101V94.5001L201 91.5001H195L191 94.5001L190 100L192 98.0001Z" fill="#151515"/>
<path d="M297 117.5L299.5 121.5L295 125H293L292 126.5L293 128L295.5 128.5L296 132.5L295 138L293 141.5L289.5 144V141.5L284 144V134L283 129V123.5L285 119C291.4 113.4 295.667 115.667 297 117.5Z" fill="#151515"/>
<path d="M298.63 121.282C299.623 120 296.925 123.457 295 124.292" stroke="#151515" stroke-width="2" stroke-linecap="round" stroke-linejoin="round"/>
<path d="M169.075 116.023L156.529 122.647" stroke="#151515" stroke-width="2" stroke-linecap="round" stroke-linejoin="round"/>
<path d="M186.676 149.808L158.318 164.813" stroke="#151515" stroke-width="2" stroke-linecap="round" stroke-linejoin="round"/>
<path d="M202.992 181.911C203.924 184.546 202.173 185.487 201.115 185.84C200.056 186.193 197.071 185.464 197.071 185.464" stroke="#151515" stroke-width="2" stroke-linecap="round" stroke-linejoin="round"/>
<path d="M140.301 106.515L156.562 122.694" stroke="#151515" stroke-width="2" stroke-linecap="round" stroke-linejoin="round"/>
<path d="M38.5161 111.121L150.551 52.1663L150.374 72.2722L38 132.156L38.5161 111.121Z" stroke="#151515" stroke-width="2" stroke-linecap="round" stroke-linejoin="round"/>
<path d="M206.359 142.307C206.176 145.51 206.391 149.347 204.039 155.689C202.875 158.828 203.136 181.547 203.136 181.547C203.136 181.547 201.808 184.125 197.17 183.257" stroke="#151515" stroke-width="2" stroke-linecap="round" stroke-linejoin="round"/>
<path d="M192.348 208.823L205.162 202.481" stroke="#151515" stroke-width="2" stroke-linecap="round" stroke-linejoin="round"/>
<path opacity="0.865385" d="M127.299 102.88L127.07 133.9" stroke="#151515" stroke-width="2" stroke-linecap="round" stroke-linejoin="round"/>
<path d="M198.51 40.563L198.666 71.2937L234.67 90.2283L235.289 60.0119L198.51 40.563Z" stroke="#151515" stroke-width="2" stroke-linecap="round" stroke-linejoin="round"/>
<path d="M297.258 146.934C297.258 146.934 296.869 151.67 297.621 158.643C297.985 162.001 300.125 174.839 300.125 174.839C300.125 174.839 303.406 175.875 305.298 173.983" stroke="#151515" stroke-width="2" stroke-linecap="round" stroke-linejoin="round"/>
<path d="M185.508 13L184.427 107.263" stroke="#151515" stroke-width="2" stroke-linecap="round" stroke-linejoin="round"/>
<path d="M186.634 142.653C186.699 140.15 186.02 159.485 189.013 182.574" stroke="#151515" stroke-width="2" stroke-linecap="round" stroke-linejoin="round"/>
<path d="M71.772 131.91L71.6876 176.863L102.694 193.781L102.541 162.377" stroke="#151515" stroke-width="2" stroke-linecap="round" stroke-linejoin="round"/>
<path d="M301.329 208.72C302.471 207.177 306.073 207.202 304.909 211.037C304.762 211.513 304.105 213.211 301.673 215.807C300.814 216.721 300.713 218.227 297.328 217.521C294.81 216.995 296.76 213.162 296.76 213.162" stroke="#151515" stroke-width="2" stroke-linecap="round" stroke-linejoin="round"/>
<path d="M195.475 110.022C195.475 110.022 191.343 109.881 186.731 113.769C182.12 117.657 179.972 118.912 179.972 118.912L171.693 110.677L168.083 114.522C168.083 114.522 176.042 126.805 180.615 127.045C185.929 127.325 191.453 120.291 191.453 120.291" stroke="#151515" stroke-width="2" stroke-linecap="round" stroke-linejoin="round"/>
<path d="M71.9109 131.802L102.32 161.87L136.333 144.231" stroke="#151515" stroke-width="2" stroke-linecap="round" stroke-linejoin="round"/>
<path d="M301.191 190.857C301.163 191.992 300.675 204.751 301.006 211.215C301.019 211.426 300.913 213.581 299.756 214.355C298.579 215.142 298.374 215.125 297.167 214.558C297.167 214.558 295.105 195.282 294.732 193.735" stroke="#151515" stroke-width="2" stroke-linecap="round" stroke-linejoin="round"/>
<path d="M339.697 198.016L342.862 196.258V200.516L340.106 201.936" stroke="#151515" stroke-width="2" stroke-linecap="round" stroke-linejoin="round"/>
<path d="M343.599 115.964L342.786 196.16" stroke="#151515" stroke-width="2" stroke-linecap="round" stroke-linejoin="round"/>
<path d="M195.432 106.69V111.806" stroke="#151515" stroke-width="2" stroke-linecap="round" stroke-linejoin="round"/>
<path d="M71.7922 131.743L106.791 113.03L136.341 144.029" stroke="#151515" stroke-width="2" stroke-linecap="round" stroke-linejoin="round"/>
<path d="M248.176 67.2197L251.718 65.8162L287.848 84.8978L285.054 87.0308" stroke="#151515" stroke-width="2" stroke-linecap="round" stroke-linejoin="round"/>
<path d="M198.579 40.2853L202.232 39.5095L238.331 58.6368L235.458 60.0964" stroke="#151515" stroke-width="2" stroke-linecap="round" stroke-linejoin="round"/>
<path d="M283.372 133.591C283.372 133.591 279.96 136.24 279.559 140.035C279.302 142.476 281.084 148.625 280.442 152.864C279.8 157.104 276.93 165.554 278.772 166.226C289.692 170.209 298.167 166.812 298.801 166.63" stroke="#151515" stroke-width="2" stroke-linecap="round" stroke-linejoin="round"/>
<path d="M213.466 219.699L213.338 266.552L235.057 255.658L234.929 209.391L213.466 219.699Z" stroke="#151515" stroke-width="2" stroke-linecap="round" stroke-linejoin="round"/>
<path d="M188.163 177.792C188.163 177.792 186.7 177.682 186.001 179.955" stroke="#151515" stroke-width="2" stroke-linecap="round" stroke-linejoin="round"/>
<path d="M308.673 97.4608V101.571L340.002 117.688L339.942 113.273L308.673 97.4608Z" stroke="#151515" stroke-width="2" stroke-linecap="round" stroke-linejoin="round"/>
<path d="M194.887 101.426C194.887 101.426 196.724 100.03 196.724 102.307C196.724 104.585 194.96 104.365 194.96 104.365" stroke="#151515" stroke-width="2" stroke-linecap="round" stroke-linejoin="round"/>
<path d="M280.184 166.997C280.184 166.997 278.669 169.694 279.672 175.091C281.182 183.224 281.367 187.032 281.879 190.985C281.879 190.985 287.755 195.14 292.751 193.862C297.745 192.584 303.704 189.311 303.704 189.311L303.348 180.724" stroke="#151515" stroke-width="2" stroke-linecap="round" stroke-linejoin="round"/>
<path d="M213.361 201.734L213.64 210.811L216.765 209.512L216.568 199.305L213.361 201.734Z" stroke="#151515" stroke-width="2" stroke-linecap="round" stroke-linejoin="round"/>
<path d="M43.4648 192.487L71.7902 176.966" stroke="#151515" stroke-width="2" stroke-linecap="round" stroke-linejoin="round"/>
<path d="M248.198 67.2503L247.977 97.1942L284.254 116.462L284.885 86.9462L248.198 67.2503Z" stroke="#151515" stroke-width="2" stroke-linecap="round" stroke-linejoin="round"/>
<path d="M238.3 59.0744L237.584 87.726L235.027 90.2085" stroke="#151515" stroke-width="2" stroke-linecap="round" stroke-linejoin="round"/>
<path d="M171.67 111.124C171.67 111.124 169.465 104.879 166.233 105.834C163.878 106.53 167.509 108.332 166.6 108.332C166.529 108.332 165.129 109.693 165.498 111.05C165.895 112.511 168.068 113.977 168.068 113.977" stroke="#151515" stroke-width="2" stroke-linecap="round" stroke-linejoin="round"/>
<path d="M304.583 178.441L307.445 180.18" stroke="#151515" stroke-width="2" stroke-linecap="round" stroke-linejoin="round"/>
<path d="M84.8048 135.658L109.329 122.98L124.932 138.912L101.002 151.677" stroke="#151515" stroke-width="2" stroke-linecap="round" stroke-linejoin="round"/>
<path d="M299.16 121.458C298.154 115.606 292.956 114.582 289.088 115.71C286.093 116.583 282.751 119.095 282.463 126.42C282.281 131.049 284.201 130.925 284.345 137.009C284.491 143.092 283.749 144.849 283.749 144.849L289.293 140.922L289.735 144.634C289.735 144.634 296.634 140.568 295.782 129.181" stroke="#151515" stroke-width="2" stroke-linecap="round" stroke-linejoin="round"/>
<path d="M340.151 117.662L343.741 115.953L343.733 111.765" stroke="#151515" stroke-width="2" stroke-linecap="round" stroke-linejoin="round"/>
<path d="M188.46 180.647C188.46 180.647 185.126 179.08 183.272 180.676C182.092 181.692 181.844 184.372 183.684 185.052C185.898 185.871 187.336 185.967 190.017 186.185C191.922 186.339 193.115 187.394 195.886 186.082C197.211 185.454 196.123 183.269 196.123 183.269" stroke="#151515" stroke-width="2" stroke-linecap="round" stroke-linejoin="round"/>
<path d="M84.774 135.545L101.035 151.723" stroke="#151515" stroke-width="2" stroke-linecap="round" stroke-linejoin="round"/>
<path d="M303.704 159.187C303.974 166.086 304.702 167.175 305.336 173.71" stroke="#151515" stroke-width="2" stroke-linecap="round" stroke-linejoin="round"/>
<path d="M309.016 97.2038L312.555 95.8327L343.395 111.428L339.929 113.131" stroke="#151515" stroke-width="2" stroke-linecap="round" stroke-linejoin="round"/>
<path d="M200.203 148.284C200.203 148.284 198.75 150.629 197.903 154.133C197.056 157.636 197.026 182.961 197.026 182.961C197.026 182.961 193.869 184.862 188.962 182.81" stroke="#151515" stroke-width="2" stroke-linecap="round" stroke-linejoin="round"/>
<path d="M208.1 198.147L201.073 208.806L221.387 200.138L228.413 189.948L208.1 198.147Z" stroke="#151515" stroke-width="2" stroke-linecap="round" stroke-linejoin="round"/>
<path opacity="0.865385" d="M136.557 152.681L158.221 164.751L158.068 133.346" stroke="#151515" stroke-width="2" stroke-linecap="round" stroke-linejoin="round"/>
<path d="M290.814 208.492C290.814 208.492 293.486 206.307 294.663 208.244C296.351 211.024 292.031 213.834 290.892 215.689C290.334 216.592 289.601 217.972 286.82 217.277C284.857 216.786 285.358 215.089 286.242 212.835" stroke="#151515" stroke-width="2" stroke-linecap="round" stroke-linejoin="round"/>
<path d="M234.974 208.879L220.328 200.656" stroke="#151515" stroke-width="2" stroke-linecap="round" stroke-linejoin="round"/>
<path d="M206.541 124.653L278.013 163.943" stroke="#151515" stroke-width="2" stroke-linecap="round" stroke-linejoin="round"/>
<path d="M200.691 109.14C200.691 109.14 207.091 109.903 207.671 114.871C208.251 119.839 206.486 122.986 205.761 129.712C205.036 136.439 207.33 140.885 206.301 141.914C202.14 146.075 186.56 142.432 186.56 142.432C185.582 128.223 187.549 124.547 187.549 124.547" stroke="#151515" stroke-width="2" stroke-linecap="round" stroke-linejoin="round"/>
<path d="M43.6481 129.493L42.7537 192.511L211.962 286.791L359.064 205.83L361.155 104.987L185.36 13.2066L44.0646 89.1989L43.8257 108.45" stroke="#151515" stroke-width="2" stroke-linecap="round" stroke-linejoin="round"/>
<path d="M307.127 180.144L307.043 183.818L339.689 201.852V198.179L307.127 180.144Z" stroke="#151515" stroke-width="2" stroke-linecap="round" stroke-linejoin="round"/>
<path d="M127.438 102.772L157.848 132.84L175.494 123.93" stroke="#151515" stroke-width="2" stroke-linecap="round" stroke-linejoin="round"/>
<path d="M284.014 192.403C284.271 194.45 286.388 213.857 286.388 213.857C286.388 213.857 288.268 214.782 289.465 213.316C290.665 211.85 290.134 212.12 290.531 211.383C290.531 211.383 290.862 198.062 290.831 194.31" stroke="#151515" stroke-width="2" stroke-linecap="round" stroke-linejoin="round"/>
<path d="M200.544 106.128L200.324 110.904C200.324 110.904 197.532 114.063 195.401 111.638" stroke="#151515" stroke-width="2" stroke-linecap="round" stroke-linejoin="round"/>
<path d="M127.319 102.713L162.318 83.9999L189.024 111.941" stroke="#151515" stroke-width="2" stroke-linecap="round" stroke-linejoin="round"/>
<path d="M294.5 124.5C294.5 124.5 291.669 123.479 292.028 126.51C292.383 129.54 295.5 129 295.5 129" stroke="#151515" stroke-width="2" stroke-linecap="round" stroke-linejoin="round"/>
<path d="M190.92 99.2952C190.92 99.2952 189.67 107.598 195.401 107.304" stroke="#151515" stroke-width="2" stroke-linecap="round" stroke-linejoin="round"/>
<path d="M343.362 197.545L358.955 205.752" stroke="#151515" stroke-width="2" stroke-linecap="round" stroke-linejoin="round"/>
<path d="M307.152 179.962L310.133 178.725L342.862 196.091" stroke="#151515" stroke-width="2" stroke-linecap="round" stroke-linejoin="round"/>
<path d="M298.164 122.249C298.164 122.249 299.892 130.967 296.053 131.059" stroke="#151515" stroke-width="2" stroke-linecap="round" stroke-linejoin="round"/>
<path d="M136.227 144.009L136.683 176.039L102.79 193.843" stroke="#151515" stroke-width="2" stroke-linecap="round" stroke-linejoin="round"/>
<path d="M304.886 174.574C304.886 174.574 305.654 175.875 305.477 177.59C305.298 179.305 304.674 176.898 304.59 178.359C304.472 180.429 305.121 180.724 302.757 180.784C300.208 180.847 300.569 177.413 300.508 174.988" stroke="#151515" stroke-width="2" stroke-linecap="round" stroke-linejoin="round"/>
<path d="M310.213 103.027L310.59 178.856" stroke="#151515" stroke-width="2" stroke-linecap="round" stroke-linejoin="round"/>
<path d="M287.99 84.978L287.414 115.005L284.623 117.143" stroke="#151515" stroke-width="2" stroke-linecap="round" stroke-linejoin="round"/>
<path d="M194.74 100.985L192.022 98.2664L190.185 100.25C189.303 94.2989 194.262 91.3424 196.944 90.8458C198.928 90.4783 206.086 91.37 205.247 99.6623C204.659 105.467 197.831 107.18 197.752 106.275C197.605 104.585 197.091 102.307 196.797 103.116" stroke="#151515" stroke-width="2" stroke-linecap="round" stroke-linejoin="round"/>
<path d="M213.849 219.816L191.875 208.923L192.057 255.824L213.594 266.668" stroke="#151515" stroke-width="2" stroke-linecap="round" stroke-linejoin="round"/>
<path d="M213.29 208.823C213.29 208.823 210.933 209.321 211.386 211.981C211.839 214.641 215.271 213.63 217.641 212.48C220.012 211.329 221.035 208.516 217.308 207.519" stroke="#151515" stroke-width="2" stroke-linecap="round" stroke-linejoin="round"/>
<path d="M295.982 133.684C301.476 135.366 301.797 137.312 302.613 140.852C303.492 144.654 303.431 152.289 303.704 159.187" stroke="#151515" stroke-width="2" stroke-linecap="round" stroke-linejoin="round"/>
<path d="M140.332 106.628L164.856 93.9504L180.46 109.882L174.307 113.148" stroke="#151515" stroke-width="2" stroke-linecap="round" stroke-linejoin="round"/>
</svg>
