<svg width="200" height="200" viewBox="0 0 200 200" fill="none" xmlns="http://www.w3.org/2000/svg">
<rect width="200" height="200" fill="white"/>
<rect x="57.5" y="51.183" width="86" height="105.537" fill="#151515" stroke="#151515" stroke-width="3"/>
<path d="M139.804 41H67C67 41 57.3818 41 57.3818 50.2092" stroke="#151515" stroke-width="3"/>
<path d="M129.673 46.5254L66.1299 46.5254" stroke="#151515" stroke-width="3"/>
<path d="M134.277 41L142.105 51.5905" stroke="#151515" stroke-width="3"/>
<path d="M81.5487 126.154V136H79.2511V131.837H75.2505V136H72.9528V126.154H75.2505V130.269H79.2511V126.154H81.5487ZM93.1226 131.074C93.1226 131.785 92.9988 132.448 92.751 133.06C92.5077 133.673 92.163 134.207 91.717 134.662C91.271 135.112 90.7327 135.466 90.1019 135.723C89.4757 135.98 88.7797 136.108 88.0138 136.108C87.2479 136.108 86.5496 135.98 85.9189 135.723C85.2882 135.466 84.7475 135.112 84.297 134.662C83.851 134.207 83.5041 133.673 83.2563 133.06C83.013 132.448 82.8914 131.785 82.8914 131.074C82.8914 130.362 83.013 129.7 83.2563 129.087C83.5041 128.474 83.851 127.942 84.297 127.492C84.7475 127.041 85.2882 126.688 85.9189 126.431C86.5496 126.174 87.2479 126.046 88.0138 126.046C88.7797 126.046 89.4757 126.176 90.1019 126.438C90.7327 126.695 91.271 127.048 91.717 127.499C92.163 127.949 92.5077 128.481 92.751 129.094C92.9988 129.706 93.1226 130.366 93.1226 131.074ZM90.7845 131.074C90.7845 130.587 90.7214 130.15 90.5952 129.763C90.4691 129.371 90.2866 129.04 90.0479 128.769C89.8136 128.499 89.5253 128.292 89.1829 128.147C88.8405 128.003 88.4508 127.931 88.0138 127.931C87.5723 127.931 87.1781 128.003 86.8312 128.147C86.4888 128.292 86.1982 128.499 85.9594 128.769C85.7252 129.04 85.5449 129.371 85.4188 129.763C85.2927 130.15 85.2296 130.587 85.2296 131.074C85.2296 131.565 85.2927 132.006 85.4188 132.398C85.5449 132.786 85.7252 133.114 85.9594 133.385C86.1982 133.655 86.4888 133.862 86.8312 134.006C87.1781 134.146 87.5723 134.216 88.0138 134.216C88.4508 134.216 88.8405 134.146 89.1829 134.006C89.5253 133.862 89.8136 133.655 90.0479 133.385C90.2866 133.114 90.4691 132.786 90.5952 132.398C90.7214 132.006 90.7845 131.565 90.7845 131.074ZM107.63 126.154L104.589 136H102.521L100.67 129.898C100.634 129.803 100.6 129.7 100.568 129.587C100.537 129.47 100.505 129.348 100.474 129.222C100.442 129.348 100.411 129.47 100.379 129.587C100.348 129.7 100.314 129.803 100.278 129.898L98.3991 136H96.3312L93.2902 126.154H95.2094C95.4077 126.154 95.5721 126.199 95.7027 126.289C95.8379 126.379 95.9257 126.499 95.9663 126.647L97.3178 131.783C97.3584 131.945 97.3989 132.123 97.4395 132.317C97.48 132.506 97.5206 132.704 97.5611 132.912C97.6422 132.488 97.7413 132.112 97.8585 131.783L99.4533 126.647C99.4938 126.521 99.5794 126.408 99.7101 126.309C99.8452 126.206 100.007 126.154 100.197 126.154H100.872C101.071 126.154 101.231 126.201 101.352 126.296C101.474 126.386 101.566 126.503 101.629 126.647L103.211 131.783C103.328 132.099 103.427 132.457 103.508 132.858C103.544 132.655 103.58 132.466 103.616 132.29C103.657 132.11 103.697 131.941 103.738 131.783L105.089 126.647C105.125 126.517 105.211 126.402 105.346 126.303C105.481 126.203 105.643 126.154 105.833 126.154H107.63ZM118.41 127.965H115.64V136H113.355V127.965H110.585V126.154H118.41V127.965ZM129.01 131.074C129.01 131.785 128.886 132.448 128.638 133.06C128.395 133.673 128.05 134.207 127.604 134.662C127.158 135.112 126.62 135.466 125.989 135.723C125.363 135.98 124.667 136.108 123.901 136.108C123.135 136.108 122.437 135.98 121.806 135.723C121.176 135.466 120.635 135.112 120.184 134.662C119.738 134.207 119.392 133.673 119.144 133.06C118.9 132.448 118.779 131.785 118.779 131.074C118.779 130.362 118.9 129.7 119.144 129.087C119.392 128.474 119.738 127.942 120.184 127.492C120.635 127.041 121.176 126.688 121.806 126.431C122.437 126.174 123.135 126.046 123.901 126.046C124.667 126.046 125.363 126.176 125.989 126.438C126.62 126.695 127.158 127.048 127.604 127.499C128.05 127.949 128.395 128.481 128.638 129.094C128.886 129.706 129.01 130.366 129.01 131.074ZM126.672 131.074C126.672 130.587 126.609 130.15 126.483 129.763C126.357 129.371 126.174 129.04 125.935 128.769C125.701 128.499 125.413 128.292 125.07 128.147C124.728 128.003 124.338 127.931 123.901 127.931C123.46 127.931 123.065 128.003 122.719 128.147C122.376 128.292 122.086 128.499 121.847 128.769C121.613 129.04 121.432 129.371 121.306 129.763C121.18 130.15 121.117 130.587 121.117 131.074C121.117 131.565 121.18 132.006 121.306 132.398C121.432 132.786 121.613 133.114 121.847 133.385C122.086 133.655 122.376 133.862 122.719 134.006C123.065 134.146 123.46 134.216 123.901 134.216C124.338 134.216 124.728 134.146 125.07 134.006C125.413 133.862 125.701 133.655 125.935 133.385C126.174 133.114 126.357 132.786 126.483 132.398C126.609 132.006 126.672 131.565 126.672 131.074Z" fill="white"/>
<path d="M103.001 104.436H96.5496C96.5327 103.508 96.5243 102.943 96.5243 102.741C96.5243 100.649 96.8701 98.9287 97.5616 97.5793C98.2532 96.2299 99.6364 94.7118 101.711 93.025C103.786 91.3382 105.026 90.2334 105.43 89.7105C106.055 88.884 106.367 87.9731 106.367 86.9779C106.367 85.5948 105.81 84.414 104.697 83.4357C103.6 82.4405 102.116 81.9429 100.244 81.9429C98.4388 81.9429 96.9291 82.4574 95.7146 83.4863C94.5001 84.5153 93.6652 86.0839 93.2098 88.1924L86.682 87.3828C86.8675 84.3634 88.1495 81.7995 90.5278 79.6911C92.923 77.5826 96.0604 76.5284 99.94 76.5284C104.022 76.5284 107.269 77.5995 109.681 79.7417C112.093 81.867 113.299 84.3466 113.299 87.1803C113.299 88.749 112.852 90.2334 111.958 91.6334C111.081 93.0334 109.192 94.9395 106.291 97.3516C104.789 98.5998 103.853 99.6034 103.482 100.362C103.128 101.122 102.968 102.479 103.001 104.436ZM96.5496 114V106.89H103.659V114H96.5496Z" fill="white"/>
<path d="M114 53L110 47H125L129 53V71L121.5 66.5L114 71V53Z" fill="#71B82B" stroke="#151515" stroke-width="3"/>
</svg>
