<svg width="598" height="526" viewBox="0 0 598 526" fill="none" xmlns="http://www.w3.org/2000/svg">
<rect x="79.0796" y="173.455" width="464.551" height="284.251" fill="white" stroke="#151515" stroke-width="2"/>
<rect x="78.0796" y="159.443" width="466.551" height="47.3986" fill="#151515"/>
<rect x="84.5853" y="167.808" width="44.6105" height="30.6697" rx="5" fill="white"/>
<rect x="135.701" y="167.808" width="44.6105" height="30.6697" rx="5" fill="white"/>
<rect x="186.818" y="167.808" width="44.6105" height="30.6697" rx="5" fill="white"/>
<rect x="237.934" y="167.808" width="44.6105" height="30.6697" rx="5" fill="white"/>
<rect x="289.05" y="167.808" width="44.6105" height="30.6697" rx="5" fill="white"/>
<rect x="340.166" y="167.808" width="44.6105" height="30.6697" rx="5" fill="white"/>
<rect x="391.282" y="167.808" width="44.6105" height="30.6697" rx="5" fill="white"/>
<rect x="442.398" y="167.808" width="44.6105" height="30.6697" rx="5" fill="white"/>
<rect x="493.515" y="167.808" width="44.6105" height="30.6697" rx="5" fill="white"/>
<rect x="78.0796" y="434.541" width="466.551" height="47.3986" fill="#151515"/>
<rect x="84.5853" y="442.905" width="44.6105" height="30.6697" rx="5" fill="white"/>
<rect x="135.701" y="442.905" width="44.6105" height="30.6697" rx="5" fill="white"/>
<rect x="186.818" y="442.905" width="44.6105" height="30.6697" rx="5" fill="white"/>
<rect x="237.934" y="442.905" width="44.6105" height="30.6697" rx="5" fill="white"/>
<rect x="289.05" y="442.905" width="44.6105" height="30.6697" rx="5" fill="white"/>
<rect x="340.166" y="442.905" width="44.6105" height="30.6697" rx="5" fill="white"/>
<rect x="391.282" y="442.905" width="44.6105" height="30.6697" rx="5" fill="white"/>
<rect x="442.398" y="442.905" width="44.6105" height="30.6697" rx="5" fill="white"/>
<rect x="493.515" y="442.905" width="44.6105" height="30.6697" rx="5" fill="white"/>
<circle cx="311.82" cy="315.115" r="66.451" fill="#71B82B"/>
<path d="M341.095 315.115L297.182 340.469L297.182 289.762L341.095 315.115Z" fill="white"/>
<path d="M390.324 21.4291C391.439 13.994 398.533 9.34711 401.941 7.95303C415.022 -5.37969 431.798 2.78272 440.046 13.0646C443.986 17.9772 442.275 22.2979 444.228 27.0054C451.663 31.4665 451.663 38.7776 450.734 41.8756C460.027 47.0801 459.253 57.9849 457.704 62.7867C467.741 70.5936 464.055 77.1922 460.957 79.5157C463.559 83.9767 467.617 110.805 469.321 123.661C472.574 127.844 472.574 138.532 472.109 142.249C471.738 145.223 466.688 145.967 464.21 145.967L466.068 157.584L457.704 158.978C452.592 167.188 441.719 184.629 439.116 188.718C436.514 192.808 434.005 197.857 433.075 199.871L449.804 263.069L445.622 264.463L447.945 270.969C448.72 272.363 450.641 276.081 452.128 279.798C453.986 284.445 453.057 284.445 452.128 287.233C451.384 289.464 438.187 293.429 431.681 295.133C427.034 297.302 417.74 300.338 417.74 295.133C417.74 289.928 427.964 280.573 433.075 276.545L430.287 269.575L423.781 270.969C416.191 253.93 400.547 218.18 398.688 211.488C396.829 204.797 396.984 198.787 397.294 196.618C396.365 199.871 393.948 207.771 391.718 213.347C389.487 218.923 387.381 248.819 386.606 263.069V269.575H380.565L379.171 277.475C384.004 288.999 381.185 294.358 379.171 294.668C369.103 293.739 341.362 293.274 341.996 288.627C342.566 284.445 359.654 276.081 364.301 276.081V267.716H361.513C361.358 249.593 361.141 211.953 361.513 206.377C361.884 200.8 371.891 178.03 376.847 167.343L372.201 115.297C369.412 114.987 363.278 113.81 361.048 111.579C358.26 108.791 360.583 102.75 362.442 96.2446C363.929 91.0401 368.948 90.3585 371.271 90.6683C376.847 77.2852 385.057 68.9827 388.465 66.5043C386.978 61.6715 387.845 54.2674 388.465 51.1694C384.376 43.7343 388 39.3972 390.324 38.158C389.859 35.6797 389.208 28.8642 390.324 21.4291Z" fill="white"/>
<path d="M390.788 22.8232C391.903 14.2729 398.378 9.03736 401.476 7.48839C402.732 6.74489 406.336 4.39044 407.982 3.30615C417.276 -0.411385 423.781 1.44738 433.54 7.02369C441.347 11.4847 443.918 22.2036 444.228 27.0055C451.663 30.3513 451.663 38.313 450.733 41.8756C459.655 47.0802 459.098 57.985 457.704 62.7868C467.369 69.4784 463.9 76.7276 460.957 79.5157C454.637 64.2738 439.736 61.0829 433.075 61.3927C431.526 61.3927 427.778 61.2068 425.175 60.4633C422.573 59.7198 423.162 53.9576 423.781 51.1695C424.153 49.6825 427.034 44.354 428.428 41.8756L429.822 40.9462C434.934 37.6934 433.54 34.9052 433.075 31.6524C432.703 29.0501 429.822 29.6387 428.428 30.2583C426.105 27.9349 420.528 26.0761 415.417 25.1467C411.327 24.4032 405.658 20.19 403.335 18.1763C404.078 24.4961 400.547 28.2447 398.688 29.3289V31.6524C394.97 31.6524 394.506 33.0465 394.97 37.6934C395.342 41.4109 399.462 42.0305 401.476 41.8756C403.335 50.426 408.137 52.8734 410.305 53.0282V59.5339C410.77 60.6182 410.026 62.7868 403.335 62.7868C396.643 62.7868 391.563 65.2652 389.859 66.5043C385.026 61.6715 387.225 54.2674 388.929 51.1695C385.212 44.4779 388.62 39.7071 390.788 38.1581C390.323 36.6091 389.673 31.3736 390.788 22.8232Z" fill="#151515"/>
<path d="M361.977 203.124C362.349 197.92 372.046 177.721 376.847 168.272L378.706 169.202L457.239 158.979C455.009 164.555 439.891 188.254 432.61 199.407L443.763 239.835L450.269 263.07L424.246 270.969C416.811 255.015 401.383 221.34 399.153 214.277C396.922 207.214 396.674 201.42 396.829 199.407C395.435 201.73 392.368 207.957 391.253 214.277C390.138 220.597 387.69 248.819 386.606 262.14V269.575L361.513 267.252V260.281L361.048 211.953C361.203 211.179 361.605 208.329 361.977 203.124Z" fill="#5989E8"/>
<path d="M416.5 71C408.5 71.4 404.167 65.8333 403 63L390 66L381.5 73.5L370.5 90.5L376 91.5L379 94L451.5 70L455.5 81L380 104V105.5L459 95L462.5 121.5L469 123L465 98.5L461.5 81L459 75C453 65 439.5 62.1667 433.5 62C432 65.5 426.5 70.5 416.5 71Z" fill="#FF6868"/>
<path d="M378.475 108.33C378.475 108.33 380.202 112.269 376.657 112.269C373.882 112.269 371.108 110.924 371.108 110.924" stroke="#151515" stroke-width="2" stroke-linecap="round" stroke-linejoin="round"/>
<path d="M410.149 102.223L407.257 112.193L416.231 110.797L419.022 101.026L410.149 102.223Z" fill="#151515" stroke="#151515" stroke-width="2" stroke-linecap="round" stroke-linejoin="round"/>
<path d="M389.112 105.214L385.5 115L395 113.5L398.882 103.719L389.112 105.214Z" fill="#151515" stroke="#151515" stroke-width="2" stroke-linecap="round" stroke-linejoin="round"/>
<path d="M363.912 268.736L364.085 275.476" stroke="#151515" stroke-width="2" stroke-linecap="round" stroke-linejoin="round"/>
<path d="M427.921 30.6986C427.921 30.6986 432.808 27.0152 433.984 33.5754C434.902 38.6995 429.207 41.2168 429.207 41.2168" stroke="#151515" stroke-width="2" stroke-linecap="round" stroke-linejoin="round"/>
<path d="M445.986 264.654L447.847 271.397" stroke="#151515" stroke-width="2" stroke-linecap="round" stroke-linejoin="round"/>
<path d="M443.15 73.608L449.032 82.0828L455.314 79.9888L452.223 71.0156L443.15 73.608Z" fill="#151515" stroke="#151515" stroke-width="2" stroke-linecap="round" stroke-linejoin="round"/>
<path d="M460.244 104.776L462.769 126.272" stroke="#151515" stroke-width="2" stroke-linecap="round" stroke-linejoin="round"/>
<path d="M398.833 29.1211C398.833 29.1211 400.455 49.629 409.314 52.7054C415.406 54.8211 420.123 53.2826 423.071 50.8785C426.183 48.3402 428.932 41.3967 428.932 41.3967" stroke="#151515" stroke-width="2" stroke-linecap="round" stroke-linejoin="round"/>
<path d="M420.676 263.241L423.949 270.748L450.567 263.098L448.264 255.242" stroke="#151515" stroke-width="2" stroke-linecap="round" stroke-linejoin="round"/>
<path d="M409.872 53.1348C409.872 53.1348 410.796 58.7455 410.006 60.9832C409.217 63.2206 402.779 62.7898 402.779 62.7898" stroke="#151515" stroke-width="2" stroke-linecap="round" stroke-linejoin="round"/>
<path d="M422.611 80.488L428.892 88.1648L437.367 85.3732L431.485 77.5967L422.611 80.488Z" fill="#151515" stroke="#151515" stroke-width="2" stroke-linecap="round" stroke-linejoin="round"/>
<path d="M416.107 27.4774C416.336 25.8319 422.217 25.2358 423.432 27.0036C424.647 28.7715 421.642 28.5691 419.778 28.6311C417.914 28.6931 415.903 28.9411 416.107 27.4774Z" fill="#151515"/>
<path d="M376.885 167.609C376.885 167.609 363.546 195.738 361.805 204.446C360.645 210.244 361.501 260.682 361.501 260.682L386.549 262.622C386.549 262.622 389.791 218.385 391.768 212.851C393.744 207.317 397.237 198.264 397.237 198.264" stroke="#151515" stroke-width="2" stroke-linecap="round" stroke-linejoin="round"/>
<path d="M403.1 86.506L409.589 93.9567L416.833 91.6455L410.846 83.9766L403.1 86.506Z" fill="#151515" stroke="#151515" stroke-width="2" stroke-linecap="round" stroke-linejoin="round"/>
<path d="M408.968 27.4692C408.003 26.2893 401.126 26.4485 401.114 28.6366C401.107 30.0734 402.591 29.6019 403.575 29.5724C408.315 29.4296 409.912 28.6232 408.968 27.4692Z" fill="#151515"/>
<path d="M432.946 276.639C422.931 285.896 422.352 286.803 419.03 291.543C416.4 295.298 418.613 298.049 422.495 297.3C426.515 296.525 445.581 292.645 452.59 286.907C455.483 284.539 448.714 271.653 448.315 271.92C440.328 277.272 433.058 276.536 432.946 276.639Z" stroke="#151515" stroke-width="2" stroke-linecap="round" stroke-linejoin="round"/>
<path d="M430.386 269.971L432.794 276.033" stroke="#151515" stroke-width="2" stroke-linecap="round" stroke-linejoin="round"/>
<path d="M406.827 165.323C406.827 165.323 397.291 191.243 396.858 202.753C396.456 213.431 420.798 263.212 420.798 263.212L448.283 256.165C448.283 256.165 433.23 204.044 432.784 199.744C432.485 196.864 447.831 178.301 457.612 158.928" stroke="#151515" stroke-width="2" stroke-linecap="round" stroke-linejoin="round"/>
<path d="M455.763 138.067C455.391 138.388 453.564 139.174 454.353 141.615C455.012 143.656 458.547 142.363 458.547 142.363L464.275 140.835" stroke="#151515" stroke-width="2" stroke-linecap="round" stroke-linejoin="round"/>
<path d="M382.671 93.3558L389.521 100.446L398.293 97.9224L391.684 90.3516L382.671 93.3558Z" fill="#151515" stroke="#151515" stroke-width="2" stroke-linecap="round" stroke-linejoin="round"/>
<path d="M413.144 37.2725C413.144 37.2725 412.274 37.822 412.274 38.891C412.274 39.9597 413.669 40.0151 413.669 40.0151" stroke="#151515" stroke-width="2" stroke-linecap="round" stroke-linejoin="round"/>
<path d="M402.979 62.6908C402.979 62.6908 405.31 70.9677 416.056 71.1035C419.714 71.1498 429.658 69.8793 433.602 61.9902" stroke="#151515" stroke-width="2" stroke-linecap="round" stroke-linejoin="round"/>
<path d="M361.444 261.387L361.147 267.7L386.55 269.563V262.321" stroke="#151515" stroke-width="2" stroke-linecap="round" stroke-linejoin="round"/>
<path d="M445.804 88.3311L447.408 96.8879" stroke="#151515" stroke-width="2" stroke-linecap="round" stroke-linejoin="round"/>
<path d="M371.466 117.076L377.297 169.084L465.888 157.611L464.389 146.758" stroke="#151515" stroke-width="2" stroke-linecap="round" stroke-linejoin="round"/>
<path d="M453.713 133.652C452.352 135.851 453.17 136.944 454.651 137.896C455.848 138.666 463.799 136.272 463.799 136.272" stroke="#151515" stroke-width="2" stroke-linecap="round" stroke-linejoin="round"/>
<path d="M451.305 97.2193L448.293 106.366L459.894 104.693L458.778 95.9922L451.305 97.2193Z" fill="#151515" stroke="#151515" stroke-width="2" stroke-linecap="round" stroke-linejoin="round"/>
<path d="M402.063 7.6543C402.063 7.6543 386.15 12.6693 390.601 38.0088C390.601 38.0088 383.818 44.5939 389.387 51.6021C389.387 51.6021 384.107 58.4806 389.619 66.6204" stroke="#151515" stroke-width="2" stroke-linecap="round" stroke-linejoin="round"/>
<path d="M410.303 45.153C412.086 46.2541 416.7 47.0406 419.375 44.209" stroke="#151515" stroke-width="2" stroke-linecap="round" stroke-linejoin="round"/>
<path d="M423.842 50.792C423.842 50.792 422.312 59.1342 425.713 60.6304C429.113 62.1266 433.466 61.5826 433.466 61.5826" stroke="#151515" stroke-width="2" stroke-linecap="round" stroke-linejoin="round"/>
<path d="M402.58 62.6914C402.58 62.6914 394.517 62.6914 386.353 68.6647C378.742 74.2337 370.504 90.7666 370.504 90.7666" stroke="#151515" stroke-width="2" stroke-linecap="round" stroke-linejoin="round"/>
<path d="M379.432 103.814C379.432 103.814 380.58 106.12 379.145 107.465C377.71 108.81 371.874 106.6 371.874 106.6" stroke="#151515" stroke-width="2" stroke-linecap="round" stroke-linejoin="round"/>
<path d="M379.948 106.133L458.888 95.7383L460.245 105.102L371.466 117.077L371.517 115.621" stroke="#151515" stroke-width="2" stroke-linecap="round" stroke-linejoin="round"/>
<path d="M433.466 61.4463C433.466 61.4463 457.503 61.5847 462.182 83.5085C466.861 105.432 468.788 122.765 468.788 122.765" stroke="#151515" stroke-width="2" stroke-linecap="round" stroke-linejoin="round"/>
<path d="M465.175 126.134C465.175 126.134 454.027 127.214 452.928 129.674C451.348 133.211 454.76 133.286 454.76 133.286L462.612 131.559" stroke="#151515" stroke-width="2" stroke-linecap="round" stroke-linejoin="round"/>
<path d="M402.521 7.21563C402.521 7.21563 412.865 -4.35551 430.518 5.27912C444.543 12.9337 443.988 27.1972 443.988 27.1972C443.988 27.1972 453.003 30.4183 450.57 41.9015C450.57 41.9015 461.875 47.5034 457.624 62.6883C457.624 62.6883 468.788 69.623 461.641 79.3892" stroke="#151515" stroke-width="2" stroke-linecap="round" stroke-linejoin="round"/>
<path d="M419.46 31.2246C420.084 31.2246 420.589 31.742 420.589 32.3802V33.1506C420.589 33.7888 420.084 34.3059 419.46 34.3059C418.837 34.3059 418.332 33.7888 418.332 33.1506V32.3802C418.332 31.742 418.837 31.2246 419.46 31.2246Z" fill="#151515"/>
<path d="M368.945 96.1318C368.945 96.1318 381.441 97.2815 381.154 101.124C380.836 105.377 376.619 103.286 373.081 102.397" stroke="#151515" stroke-width="2" stroke-linecap="round" stroke-linejoin="round"/>
<path d="M403.532 18.2793C403.532 18.2793 403.486 24.4053 398.984 29.5294" stroke="#151515" stroke-width="2" stroke-linecap="round" stroke-linejoin="round"/>
<path d="M379.816 103.946L455.667 80.3884L452.362 70.4082L372.186 96.4501" stroke="#151515" stroke-width="2" stroke-linecap="round" stroke-linejoin="round"/>
<path d="M363.567 276.166C349.397 280.141 344.04 284.634 344.04 284.634C344.04 284.634 338.511 289.645 343.868 291.2C346.569 291.984 378.255 296.902 381.019 293.101C383.784 289.299 380.483 276.97 379.81 277.203C370.824 280.314 363.733 276.12 363.567 276.166Z" stroke="#151515" stroke-width="2" stroke-linecap="round" stroke-linejoin="round"/>
<path d="M407.74 32.0254C408.363 32.0254 408.869 32.5428 408.869 33.181V33.9514C408.869 34.5896 408.363 35.107 407.74 35.107C407.117 35.107 406.611 34.5896 406.611 33.9514V33.181C406.611 32.5428 407.117 32.0254 407.74 32.0254Z" fill="#151515"/>
<path d="M456.496 143.656C456.496 143.656 455.96 145.538 458.269 145.978C459.572 146.227 462.156 146.291 464.246 145.856C471.636 144.318 472.005 143.75 472.27 138.939C472.483 135.069 472.394 130.274 469.907 124.707C468.781 122.187 462.876 121.781 462.876 121.781" stroke="#151515" stroke-width="2" stroke-linecap="round" stroke-linejoin="round"/>
<path d="M403.486 18.0234C403.486 18.0234 408.773 24.2741 417.725 25.7548C424.247 26.8336 428.564 29.9799 428.564 29.9799" stroke="#151515" stroke-width="2" stroke-linecap="round" stroke-linejoin="round"/>
<path d="M376.657 112.942C376.657 112.942 376.712 114.595 374.839 115.151C372.966 115.708 363.611 114.512 360.679 110.156C357.748 105.799 361.579 98.6669 363.643 94.8765C365.708 91.0862 368.331 91.3598 371.144 91.0068C373.959 90.6534 379.39 93.3282 379.39 93.3282" stroke="#151515" stroke-width="2" stroke-linecap="round" stroke-linejoin="round"/>
<path d="M429.79 99.8293L427.497 109.5L436.47 108.005L438.962 98.7324L429.79 99.8293Z" fill="#151515" stroke="#151515" stroke-width="2" stroke-linecap="round" stroke-linejoin="round"/>
<path d="M380.501 269.428L379.81 276.34" stroke="#151515" stroke-width="2" stroke-linecap="round" stroke-linejoin="round"/>
<path d="M398.984 31.7779C398.984 31.7779 394.275 31.2155 394.943 36.7225C395.61 42.2292 401.281 41.9365 401.281 41.9365" stroke="#151515" stroke-width="2" stroke-linecap="round" stroke-linejoin="round"/>
<path d="M524.973 234.723C526.46 227.288 531.014 222.812 533.337 221.883C538.139 217.546 550.531 213.812 560.754 221.883C572.308 231.004 569.118 244.498 566.795 249.3C566.795 253.017 563.232 255.496 561.219 256.27C560.103 260.731 555.642 266.167 553.783 267.716C553.938 268.336 554.341 269.096 554.713 272.07C555.085 275.044 559.824 274.858 562.148 274.393C564.471 274.703 570.791 275.973 577.483 278.575C584.174 281.178 588.326 287.714 589.565 290.657L595.141 307.68L597 323.015L595.606 333.238L590.029 337.885L581.665 338.985L583.059 369.949L582.594 372.737L583.524 392.89V423.388L582.594 461.493L579.342 500.063L577.483 500.698V507.204C577.483 506.585 577.762 506.553 578.877 511.386C579.992 516.219 578.412 518.357 577.483 518.821L554.248 521.145C551.305 521.455 546.162 521.346 547.278 517.256C548.393 513.167 558.74 508.753 564.007 507.204V500.063L559.36 499.769L546.348 401.083L536.59 440.117L540.307 498.669L538.913 500.063L540.307 507.498C543.281 513.446 542.011 518.341 541.237 520.044L527.296 523.468C527.296 523.468 508.708 527.031 510.567 521.145C512.798 514.082 522.184 511.215 526.367 509.528L524.508 502.851L521.72 502.092C517.228 486.448 506.849 452.943 504.991 444.764C502.667 434.541 505.92 423.388 506.849 418.277C507.398 415.261 513.2 389.156 515.679 376.919L516.608 342.703H513.82L512.426 345.956L508.244 348.108L497.556 347.35L492.909 345.956L490.585 343.168H478.503L477.109 341.138L471.998 303.498L472.462 300.71L474.786 298.557L509.173 298.386C510.567 289.092 517.073 283.516 522.649 279.798C527.11 276.824 535.97 274.548 539.843 274.393V268.352C534.638 266.493 533.182 259.817 532.408 256.564C527.575 254.333 526.521 250.074 527.296 248.37C525.747 246.666 523.485 242.158 524.973 234.723Z" fill="white"/>
<path d="M513 288.5L509 298.5H525.5L527.5 302.5L529.5 319L536.5 316.5L543 321.5L548.5 324L546.5 333L539.5 332L536.5 340L533.5 343H516.5L515.5 364.5V376.5L519.5 378.5L529.5 380.5L543 381.5L561.5 380.5L576.5 376.5L581.5 373L583 370L581.5 340L587.5 338L594 335L596.5 329.5V319L595.5 309.5L592.5 298.5L587.5 286.5L581.5 281.5L571.5 276L563.5 274.5L562.5 277.5L558.5 281.5L551 284L541.5 283L535 280L533.5 276L526.5 277.5L521 280L513 288.5Z" fill="#9972EC"/>
<path d="M510 403L515.5 377L518.5 378.5L526.5 380L540.5 382L554 381L566.5 379L576.5 376L582.5 372.5L584 389.5V406.5L583.5 432.5L582 468L580 499L579 500.5L560 500L553.5 451L547.5 404.5L546 399.5L536.5 440.5L540.5 499.5L530 502.5H524.5H521.5L513 474.5L504.5 442V437L505 428L510 403Z" fill="#65AF75"/>
<path d="M524.508 239.369C525.251 227.845 531.323 223.105 534.266 222.176C537.612 217.343 545.264 216.754 548.672 217.064C553.319 217.839 563.542 221.339 567.26 229.146C570.977 236.953 568.808 245.41 567.26 248.663C565.401 243.459 561.838 245.565 560.289 247.269C557.687 248.013 553.629 245.101 551.925 243.552C543.374 244.295 535.97 236.426 533.337 232.399C534.08 237.975 531.478 244.016 530.084 246.34L527.296 247.734L524.508 242.622V239.369Z" fill="#151515"/>
<path d="M479.897 342.995H494.767V335.56L495.232 333.237L497.091 332.307L498.95 332.772L499.879 331.378H501.738L503.597 332.772L504.991 331.378H507.314L508.708 332.772H509.638H511.961L513.82 335.56V342.531H534.266L536.59 340.672L539.843 331.378L531.014 329.519L527.296 301.638L525.902 299.779L522.649 298.85H475.25L472.927 299.779L471.998 302.567L477.109 341.601L479.897 342.995Z" fill="white"/>
<path d="M533.69 232.594C533.69 232.594 540.476 243.51 551.683 243.51C552.054 243.51 555.757 247.618 560.685 246.917" stroke="#151515" stroke-width="2" stroke-linecap="round" stroke-linejoin="round"/>
<path d="M545.039 252.919C545.039 252.919 543.81 253.633 543.81 254.815C543.81 255.997 545.615 255.952 545.615 255.952" stroke="#151515" stroke-width="2" stroke-linecap="round" stroke-linejoin="round"/>
<path d="M524.602 502.779L526.9 510.135" stroke="#151515" stroke-width="2" stroke-linecap="round" stroke-linejoin="round"/>
<path d="M546.386 332.951C546.386 332.951 539.992 331.718 531.203 329.721" stroke="#151515" stroke-width="2" stroke-linecap="round" stroke-linejoin="round"/>
<path d="M574.571 303.826L576.855 322.655" stroke="#151515" stroke-width="2" stroke-linecap="round" stroke-linejoin="round"/>
<path d="M560.476 247.429C561.477 245.425 565.41 244.537 566.708 248.082C568.674 253.452 562.071 255.92 562.071 255.92" stroke="#151515" stroke-width="2" stroke-linecap="round" stroke-linejoin="round"/>
<path d="M541.965 261.254C545.438 262.553 549.606 261.453 551.094 260.354" stroke="#151515" stroke-width="2" stroke-linecap="round" stroke-linejoin="round"/>
<path d="M544.234 247.433C544.234 247.433 545.458 246.924 547.104 247.461" stroke="#151515" stroke-width="2" stroke-linecap="round" stroke-linejoin="round"/>
<path d="M564.254 507.606C564.254 507.606 554.329 510.073 549.141 514.955C545.728 518.167 547.47 520.579 549.613 521.249C550.175 521.424 577.543 519.948 578.817 518.347C580.707 515.971 578.364 507.282 578.364 507.282C578.364 507.282 569.585 509.1 564.59 507.606" stroke="#151515" stroke-width="2" stroke-linecap="round" stroke-linejoin="round"/>
<path d="M548.001 323.925C548.001 323.925 545.246 322.88 541.065 319.84C536.728 316.686 537.55 315.374 530.043 319.08" stroke="#151515" stroke-width="2" stroke-linecap="round" stroke-linejoin="round"/>
<path d="M562.925 274.636C562.925 274.636 582.457 275.948 589.129 290.061C597.083 306.883 597.062 324.213 596.119 330.277C594.898 338.119 585.605 339.817 574.001 339.76C563.619 339.709 546.611 334.713 546.611 334.713L548.433 323.393C548.433 323.393 567.373 323.602 579.726 322.997" stroke="#151515" stroke-width="2" stroke-linecap="round" stroke-linejoin="round"/>
<path d="M531.093 244.724C531.093 244.724 531.202 262.135 537.4 266.836C543.058 271.128 547.445 270.458 550.57 269.635C554.758 268.533 559.954 261.795 561.514 256.106" stroke="#151515" stroke-width="2" stroke-linecap="round" stroke-linejoin="round"/>
<path d="M551.972 246.23C552.656 246.23 553.21 246.802 553.21 247.508V248.36C553.21 249.066 552.656 249.638 551.972 249.638C551.287 249.638 550.733 249.066 550.733 248.36V247.508C550.733 246.802 551.287 246.23 551.972 246.23Z" fill="#151515"/>
<path d="M552.033 243.516H552.618C555.039 243.516 557.002 245.541 557.002 248.039C557.002 250.538 555.039 252.563 552.618 252.563H552.033C549.611 252.563 547.648 250.538 547.648 248.039C547.648 245.541 549.611 243.516 552.033 243.516Z" stroke="#151515" stroke-width="2" stroke-linecap="round" stroke-linejoin="round"/>
<path d="M578.037 500.752V507.282" stroke="#151515" stroke-width="2" stroke-linecap="round" stroke-linejoin="round"/>
<path d="M491.795 344.107C491.795 344.107 493.266 347.144 497.751 347.144" stroke="#151515" stroke-width="2" stroke-linecap="round" stroke-linejoin="round"/>
<path d="M554.367 268.005C554.367 268.005 554.604 272.876 555.441 273.713C556.751 275.023 560.103 274.295 563.367 274.995" stroke="#151515" stroke-width="2" stroke-linecap="round" stroke-linejoin="round"/>
<path d="M538.662 243.707H539.246C541.668 243.707 543.631 245.732 543.631 248.231C543.631 250.729 541.668 252.755 539.246 252.755H538.662C536.24 252.755 534.277 250.729 534.277 248.231C534.277 245.732 536.24 243.707 538.662 243.707Z" stroke="#151515" stroke-width="2" stroke-linecap="round" stroke-linejoin="round"/>
<path d="M538.966 246.399C539.65 246.399 540.205 246.972 540.205 247.677V248.529C540.205 249.235 539.65 249.807 538.966 249.807C538.282 249.807 537.728 249.235 537.728 248.529V247.677C537.728 246.972 538.282 246.399 538.966 246.399Z" fill="#151515"/>
<path d="M563.889 500.394L564.421 507.496" stroke="#151515" stroke-width="2" stroke-linecap="round" stroke-linejoin="round"/>
<path d="M508.917 333.642C508.917 333.642 510.205 331.161 512.495 333.117C513.606 334.065 513.688 338.986 513.831 341.181C514.004 343.832 513.067 347.095 508.869 347.527C504.671 347.959 501.282 348.624 496.893 346.716" stroke="#151515" stroke-width="2" stroke-linecap="round" stroke-linejoin="round"/>
<path d="M540.411 268.799C540.531 271.922 540.78 274.319 540.78 274.319C540.78 274.319 535.876 275.659 533.036 276.205" stroke="#151515" stroke-width="2" stroke-linecap="round" stroke-linejoin="round"/>
<path d="M550.08 240.188C550.701 238.461 557.24 239.44 558.142 241.631C559.044 243.822 555.848 242.423 553.832 242.062C551.817 241.702 549.527 241.725 550.08 240.188Z" fill="#151515"/>
<path d="M545.972 381.865L546.271 401.592" stroke="#151515" stroke-width="2" stroke-linecap="round" stroke-linejoin="round"/>
<path d="M546.144 400.76L536.815 440.501L540.38 499.582C540.38 499.582 528.7 504.295 521.529 502.041" stroke="#151515" stroke-width="2" stroke-linecap="round" stroke-linejoin="round"/>
<path d="M503.764 332.686C503.764 332.686 505.034 329.905 507.438 331.445C509.299 332.638 508.917 340.034 508.917 340.034" stroke="#151515" stroke-width="2" stroke-linecap="round" stroke-linejoin="round"/>
<path d="M531.186 246.59C531.186 246.59 527.831 245.858 527.476 249.855C527.012 255.08 532.206 256.76 532.206 256.76" stroke="#151515" stroke-width="2" stroke-linecap="round" stroke-linejoin="round"/>
<path d="M541.638 382.463C541.638 382.463 541.876 391.04 542.232 393.531C542.525 395.582 545.972 398.902 545.972 398.902" stroke="#151515" stroke-width="2" stroke-linecap="round" stroke-linejoin="round"/>
<path d="M540.844 240.741C539.514 238.195 531.848 240.783 532.496 243.113C532.921 244.644 535.205 243.113 536.204 242.698C537.761 242.052 539.112 242.159 539.776 242.052C540.903 241.871 541.226 241.473 540.844 240.741Z" fill="#151515"/>
<path d="M582.437 372.449C587.441 413.808 579.445 500.569 579.445 500.569L559.542 500.229C559.542 500.229 556.427 477.778 553.587 452.595C550.748 427.413 546.442 399.348 546.442 399.348" stroke="#151515" stroke-width="2" stroke-linecap="round" stroke-linejoin="round"/>
<path d="M499.196 334.079C499.196 334.079 499.164 331.518 501.578 331.518C503.127 331.518 503.734 332.34 503.96 334.913C504.187 337.485 504.318 340.452 504.318 340.452" stroke="#151515" stroke-width="2" stroke-linecap="round" stroke-linejoin="round"/>
<path d="M534.301 222.012C534.301 222.012 528.589 222.985 525.529 233.901C522.468 244.818 527.847 247.99 527.847 247.99" stroke="#151515" stroke-width="2" stroke-linecap="round" stroke-linejoin="round"/>
<path d="M526.812 510.174C526.812 510.174 535.04 511.212 540.366 507.283" stroke="#151515" stroke-width="2" stroke-linecap="round" stroke-linejoin="round"/>
<path d="M515.481 377.572C515.481 377.572 503.969 424.863 504.593 437.965C505.273 452.255 521.488 502.055 521.488 502.055" stroke="#151515" stroke-width="2" stroke-linecap="round" stroke-linejoin="round"/>
<path d="M498.367 347.287C498.367 347.287 495.014 346.677 494.833 341.176C494.676 336.379 494.261 335.673 494.967 333.663C495.741 331.459 498.973 331.68 499.136 334.258C499.3 336.836 499.851 340.869 499.851 340.869" stroke="#151515" stroke-width="2" stroke-linecap="round" stroke-linejoin="round"/>
<path d="M534.339 221.865C534.339 221.865 536.194 217.853 545.655 217.106C555.115 216.36 575.547 225.514 567.275 249.802" stroke="#151515" stroke-width="2" stroke-linecap="round" stroke-linejoin="round"/>
<path d="M526.371 509.938C526.371 509.938 513.088 513.593 510.652 521.483C509.391 525.571 516.555 524.946 516.555 524.946C516.555 524.946 540.975 521.324 541.433 520.306C542.48 517.976 542.529 512.962 540.464 507.457" stroke="#151515" stroke-width="2" stroke-linecap="round" stroke-linejoin="round"/>
<path d="M516.369 343.173C516.369 343.173 514.969 375.805 515.65 376.552C518.814 380.017 533.51 381.591 546.801 381.591C560.093 381.591 582.185 376.273 582.808 371.497C583.431 366.72 581.929 340.667 581.929 340.667" stroke="#151515" stroke-width="2" stroke-linecap="round" stroke-linejoin="round"/>
<path d="M494.978 343.241C494.978 343.241 481.264 343.402 481.007 343.412C476.807 343.584 476.635 339.641 476.635 339.641L472.092 304.069C472.092 304.069 471.046 299.086 475.913 298.881C481.755 298.636 523.007 298.583 523.007 298.583C523.007 298.583 526.95 298.412 527.464 302.269L531.407 334.841" stroke="#151515" stroke-width="2" stroke-linecap="round" stroke-linejoin="round"/>
<path d="M533.69 232.781C533.69 232.781 532.763 243.511 529.609 246.59" stroke="#151515" stroke-width="2" stroke-linecap="round" stroke-linejoin="round"/>
<path d="M539.036 500.662L540.164 507.874" stroke="#151515" stroke-width="2" stroke-linecap="round" stroke-linejoin="round"/>
<path d="M514.527 342.908C514.527 342.908 531.505 342.499 531.738 342.491C534.763 342.387 535.389 341.553 536.849 339.57C536.937 339.452 539.77 331.852 539.77 331.852" stroke="#151515" stroke-width="2" stroke-linecap="round" stroke-linejoin="round"/>
<path d="M563.367 275.111C563.367 275.111 560.686 283.97 548.185 284.149C536.605 284.316 532.807 276.176 532.807 276.176C532.807 276.176 520.461 276.47 513.04 289.063C509.436 295.179 508.927 298.547 508.927 298.547" stroke="#151515" stroke-width="2" stroke-linecap="round" stroke-linejoin="round"/>
<path fill-rule="evenodd" clip-rule="evenodd" d="M116.708 222.642C113.61 220.163 104.533 215.764 93.0091 217.995C81.4847 220.225 77.6743 230.697 77.2096 235.653C76.1253 240.145 75.7225 250.152 82.7859 254.241C82.9408 256.1 83.5294 260.003 84.6446 260.747C84.0251 263.69 81.6706 269.483 77.2096 269.111L76.2802 267.252C75.041 266.013 70.7968 263.628 63.7335 263.999C58.3121 263.38 44.4952 264.65 32.5991 274.687C20.703 284.725 16.4897 293.74 15.8702 296.993C13.2369 302.879 7.41276 316.789 5.18223 325.339C2.39408 336.027 1 344.856 1 347.644L3.32346 350.432C2.39408 360.965 0.814123 386.028 1.92938 402.013C3.04465 417.999 6.42141 448.328 7.97039 461.494L12.1526 485.658L13.082 496.346H15.8702L17.2642 504.71C15.8702 507.034 13.9185 512.61 17.2642 516.328L19.5877 517.257H44.6811C46.8497 517.102 50.6292 516.142 48.3986 513.539C46.1681 510.937 36.9362 506.569 32.5991 504.71L31.205 503.781V495.416H34.9226L35.3872 486.122L34.9226 482.87L36.3166 435.471C36.4715 433.457 36.9672 427.85 37.7107 421.53C38.4542 415.21 41.738 396.282 43.287 387.608L54.9043 431.289V484.728L53.9749 486.122V493.093L54.9043 495.416L56.7631 496.346V503.781C55.369 505.485 53.2314 510.379 55.8337 516.328L67.451 517.257H84.6446L86.9681 516.328V513.539C85.1093 511.99 79.3472 508.056 71.1686 504.71L70.7039 496.81H74.4214L75.8155 491.234L75.3508 486.587C78.4487 472.956 84.6446 443.464 84.6446 434.542C84.6446 425.62 83.4055 416.883 82.7859 413.63L74.8861 371.343L75.8155 370.414L84.6446 333.239L98.5854 336.027C101.064 338.66 107.508 343.555 113.456 342.068L116.708 339.28V336.956L118.103 335.097C121.046 334.943 128.326 333.425 133.902 328.592L135.296 329.986V339.28H129.72L128.79 340.674V346.715L131.114 347.644H148.772L150.166 346.715V340.674L148.772 339.28H144.125V328.592H150.166L151.096 326.268V323.48H166.431L169.219 321.621L170.148 319.298V313.722H173.866L176.189 316.045H180.371L180.836 314.186L194.777 321.621V286.769L180.836 292.81L179.442 291.881H175.26L173.866 293.74H169.219L170.148 287.699L178.513 277.476H185.948L187.342 275.617V272.364L185.018 270.97H172.472L171.542 273.293V276.546L172.472 277.476L166.431 284.911H163.178V281.193L162.248 279.334H115.314L113.92 280.728V284.911H110.203L107.879 286.769L106.95 290.952L103.232 289.558L101.374 287.699V285.84L97.1913 280.728L93.9385 276.546L97.1913 269.111L100.909 268.646L106.95 265.394L112.991 255.17L118.103 240.765C120.891 240.3 126.374 238.256 126.002 233.794C126.932 233.485 128.697 232.215 128.326 229.612C126.467 229.783 122.006 229.279 119.032 225.895L116.708 222.642ZM86.9681 320.692L90.6856 310.469C93.0091 314.031 98.4925 321.621 101.838 323.48L86.9681 320.692Z" fill="white"/>
<path d="M76.7448 244.482C77.1165 250.802 80.927 253.621 82.7858 254.24L83.7152 250.058C81.9867 250.213 80.1279 245.876 80.927 243.552C82.8449 237.976 86.3731 238.751 87.8974 239.835L92.0796 234.723C97.2842 236.954 103.542 234.723 106.02 233.329C109.738 238.905 115.934 240.3 118.567 240.3C125.259 238.812 126.312 235.343 126.002 233.794C127.861 233.794 128.635 231.006 128.79 229.612C126.622 229.457 121.355 228.125 117.638 224.035C112.991 218.924 109.273 218.924 104.626 217.53C99.9794 216.135 90.2209 217.065 84.6446 221.712C79.0682 226.359 76.2801 236.582 76.7448 244.482Z" fill="#151515"/>
<path d="M2 368.5L3 350L14.5 357.5L30 363L46.5 367.5H49.5L51.5 363L58.5 366L65 367.5L69 366.5L68.5 369L70.5 370.5L74.5 371L79 392.5L84.5 423.5L85 430.5V441L81 460.5L75.5 486V487.5V493.5L74 497L57.5 496L55 495.5L54 492L54.5 486L55 484L54.5 469.5V445.5L55 431.5L43 387.5L39.5 407.5L36.5 428.5L36 436.5L35 485L35.5 486.5L34.5 495L13.5 496L12 486L8.5 460.5L4 429L2 406V388.5V368.5Z" fill="#FF6B3D"/>
<path d="M57.5 264L64.5 264.5H70L76.5 267.5V269L80.5 280L77 290L70 308L68.5 309L70.5 312H72.5L74.5 314.5V316H75.5L78 318V319.5L68.5 328.5L63 332H60.5L51 362.5L49.5 367.5H44.5L34 364L13 356.5L3 350.5L1 347L1.5 339.5L4.5 329L8 317L13.5 302.5L19 290L26.5 280L37.5 270.5L48 266L57.5 264Z" fill="#40C8C0"/>
<path d="M87 299.5L92.5 287.5V285L97.5 280L102 285L100.5 289L98.5 287.5L97.5 299.5L106.5 298V319L102 323L90.5 311L87 320.5L81 319L87 299.5Z" fill="#40C8C0"/>
<path d="M72 355.5L77.5 332.5L84.5 333.5L75.5 371L68.5 369.5L72 355.5Z" fill="#40C8C0"/>
<path d="M139.635 348.196L140.419 510.466" stroke="#151515" stroke-width="2" stroke-linecap="round" stroke-linejoin="round"/>
<path d="M113.218 243.451C114.254 242.153 117.628 243.009 117.771 245.149C117.914 247.289 116.481 246.475 114.846 245.577C113.211 244.68 112.296 244.606 113.218 243.451Z" fill="#151515"/>
<path d="M34.46 288.171C34.46 288.171 43.6592 317.97 50.0131 324.709" stroke="#151515" stroke-width="2" stroke-linecap="round" stroke-linejoin="round"/>
<path d="M101.303 286.963L102.846 289.188" stroke="#151515" stroke-width="2" stroke-linecap="round" stroke-linejoin="round"/>
<path d="M180.675 292.514L194.985 286.295L195.17 321.503L181.009 315.338L180.675 292.514Z" stroke="#151515" stroke-width="2" stroke-linecap="round" stroke-linejoin="round"/>
<path d="M71.204 505.038C71.204 505.038 64.8531 508.787 56.5601 504.285" stroke="#151515" stroke-width="2" stroke-linecap="round" stroke-linejoin="round"/>
<path d="M108.23 252.896C108.23 252.896 108.799 253.696 108.333 254.653C107.867 255.609 106.547 255.165 106.547 255.165" stroke="#151515" stroke-width="2" stroke-linecap="round" stroke-linejoin="round"/>
<path d="M60.4948 332.347C60.4948 332.347 53.6379 355.05 50.0789 366.974C49.5884 368.618 39.1908 366.297 30.6114 363.037C23.1995 360.22 7.8803 356.525 1.30092 347.944C-1.04357 344.886 10.7408 301.288 21.7218 286.237C32.7028 271.187 48.2805 262.474 64.2156 264.152" stroke="#151515" stroke-width="2" stroke-linecap="round" stroke-linejoin="round"/>
<path d="M100.373 288.455C101.593 286.839 101.499 286.659 101.641 285.983C101.954 284.499 97.0311 279.967 97.0311 279.967L92.2646 285.671L95.0789 296.48C95.0789 296.48 96.5714 294.139 97.7165 292.623" stroke="#151515" stroke-width="2" stroke-linecap="round" stroke-linejoin="round"/>
<path d="M169.846 294.014H174.265V313.848H169.846V294.014Z" stroke="#151515" stroke-width="2" stroke-linecap="round" stroke-linejoin="round"/>
<path d="M17.138 504.881C17.138 504.881 23.781 508.398 31.8489 504.425C32.2679 504.218 47.0769 509.676 48.5645 513.614C49.6234 516.416 47.427 517.202 42.9637 517.377C34.503 517.709 18.4179 518.074 17.138 516.321C13.8205 511.776 17.138 504.881 17.138 504.881Z" stroke="#151515" stroke-width="2" stroke-linecap="round" stroke-linejoin="round"/>
<path d="M113.1 247.528C113.65 247.822 113.851 248.517 113.55 249.079L113.186 249.758C112.885 250.321 112.195 250.538 111.646 250.244C111.096 249.95 110.895 249.255 111.196 248.693L111.56 248.013C111.861 247.451 112.551 247.233 113.1 247.528Z" fill="#151515"/>
<path d="M76.7359 267.538C72.9833 264.447 64.2277 263.593 64.1532 264.116C62.3286 276.925 72.8675 289.492 72.8675 289.492L80.5 280.04L76.187 267.96" stroke="#151515" stroke-width="2" stroke-linecap="round" stroke-linejoin="round"/>
<path d="M77.4184 331.93C76.6519 335.462 68.7746 367.359 68.795 369.11C68.8153 370.861 75.6778 371.248 75.6778 371.248L84.2657 333.513" stroke="#151515" stroke-width="2" stroke-linecap="round" stroke-linejoin="round"/>
<path d="M150.687 323.621V326.816C150.687 327.722 149.952 328.457 149.046 328.457H129.502C128.596 328.457 127.862 327.722 127.862 326.816V323.72" stroke="#151515" stroke-width="2" stroke-linecap="round" stroke-linejoin="round"/>
<path d="M56.7586 495.955L56.6021 504.567" stroke="#151515" stroke-width="2" stroke-linecap="round" stroke-linejoin="round"/>
<path d="M130.61 339.604H148.588C149.495 339.604 150.229 340.338 150.229 341.244V345.949C150.229 346.855 149.495 347.589 148.588 347.589H130.61C129.704 347.589 128.97 346.855 128.97 345.949V341.244C128.97 340.338 129.704 339.604 130.61 339.604Z" stroke="#151515" stroke-width="2" stroke-linecap="round" stroke-linejoin="round"/>
<path d="M110.151 285.184H166.399C168.21 285.184 169.68 286.653 169.68 288.465V319.888C169.68 321.7 168.21 323.169 166.399 323.169H110.151C108.339 323.169 106.87 321.7 106.87 319.888V288.465C106.87 286.653 108.339 285.184 110.151 285.184Z" stroke="#151515" stroke-width="2" stroke-linecap="round" stroke-linejoin="round"/>
<path d="M16.1299 496.433L17.1377 504.761" stroke="#151515" stroke-width="2" stroke-linecap="round" stroke-linejoin="round"/>
<path d="M122.985 297.6H153.26V310.575H122.985V297.6Z" stroke="#151515" stroke-width="2" stroke-linecap="round" stroke-linejoin="round"/>
<path d="M79.6703 282.174C78.4346 280.875 82.9606 290.779 91.8186 287.404" stroke="#151515" stroke-width="2" stroke-linecap="round" stroke-linejoin="round"/>
<path d="M82.9891 254.265C76.3738 251.61 76.0092 240.682 77.7932 233.599C79.5768 226.516 84.0375 220.66 91.5394 218.524C91.9259 218.414 97.6541 215.138 109.193 218.776C119.188 221.927 117.431 225.147 120.973 227.268C125.848 230.189 128.448 229.701 128.448 229.701C128.448 229.701 128.997 232.561 125.978 233.923C125.978 233.923 125.713 240.487 117.598 240.116" stroke="#151515" stroke-width="2" stroke-linecap="round" stroke-linejoin="round"/>
<path d="M67.6147 329.195L98.5218 336.376C98.5218 336.376 101.575 339.655 108.416 341.516C113.862 342.997 113.996 342.105 115.507 340.741C116.612 339.744 117.262 338.775 116.8 337.519C116.164 335.788 117.4 335.739 117.961 334.878C119.464 332.571 117.587 331.796 117.587 331.796" stroke="#151515" stroke-width="2" stroke-linecap="round" stroke-linejoin="round"/>
<path d="M43.374 388.077C43.374 388.077 55.9394 435.635 55.0479 431.687C54.1567 427.74 54.8637 485.326 54.8637 485.326" stroke="#151515" stroke-width="2" stroke-linecap="round" stroke-linejoin="round"/>
<path d="M112.985 323.607C112.985 323.607 115.939 324.692 115.718 327.002" stroke="#151515" stroke-width="2" stroke-linecap="round" stroke-linejoin="round"/>
<path d="M101.944 322.616C101.944 322.616 106.014 318.012 106.633 316.879" stroke="#151515" stroke-width="2" stroke-linecap="round" stroke-linejoin="round"/>
<path d="M88.1137 240.001C88.1137 240.001 84.7063 237.708 82.4919 240.734C79.8571 244.334 80.157 248.211 83.8338 250.162" stroke="#151515" stroke-width="2" stroke-linecap="round" stroke-linejoin="round"/>
<path d="M11.8877 485.74H35.4824C35.4824 485.74 35.8148 491.501 34.9286 495.488L13.217 496.153C12.3308 491.279 11.8877 485.74 11.8877 485.74Z" stroke="#151515" stroke-width="2" stroke-linecap="round" stroke-linejoin="round"/>
<path d="M178.676 277.52L169.719 289.405" stroke="#151515" stroke-width="2" stroke-linecap="round" stroke-linejoin="round"/>
<path d="M145.634 348.129L184.023 508.853" stroke="#151515" stroke-width="2" stroke-linecap="round" stroke-linejoin="round"/>
<path d="M74.6697 316.502C74.6697 316.502 75.7898 315.128 77.7966 318.069C79.2435 320.191 64.4802 332.27 62.6785 332.258C60.8769 332.245 56.7571 331.711 56.136 329.279C55.7482 327.76 56.6544 326.456 57.6912 324.556" stroke="#151515" stroke-width="2" stroke-linecap="round" stroke-linejoin="round"/>
<path d="M3.03571 351.168C3.03571 351.168 -0.50166 387.379 4.09003 428.82C8.08012 464.832 11.7798 484.927 11.7798 484.927" stroke="#151515" stroke-width="2" stroke-linecap="round" stroke-linejoin="round"/>
<path d="M173.319 271.022H185.532C186.438 271.022 187.173 271.757 187.173 272.663V275.546C187.173 276.452 186.438 277.187 185.532 277.187H173.319C172.413 277.187 171.679 276.452 171.679 275.546V272.663C171.679 271.757 172.413 271.022 173.319 271.022Z" stroke="#151515" stroke-width="2" stroke-linecap="round" stroke-linejoin="round"/>
<path d="M134.464 348.625L95.5654 509.247" stroke="#151515" stroke-width="2" stroke-linecap="round" stroke-linejoin="round"/>
<path d="M107.845 240.55C107.268 239.139 100.647 237.273 99.994 239.361C99.5652 240.733 101.123 240.718 102.072 240.978C106.645 242.232 108.408 241.93 107.845 240.55Z" fill="#151515"/>
<path d="M59.3652 284.877C59.3652 284.877 65.415 304.818 70.8061 311.749" stroke="#151515" stroke-width="2" stroke-linecap="round" stroke-linejoin="round"/>
<path d="M91.0415 311.104C91.0415 311.104 97.3439 320.053 101.876 322.788" stroke="#151515" stroke-width="2" stroke-linecap="round" stroke-linejoin="round"/>
<path d="M175.72 292.015H179.355C180.115 292.015 180.731 292.59 180.731 293.301V314.313C180.731 315.023 180.115 315.599 179.355 315.599H175.72C174.96 315.599 174.344 315.023 174.344 314.313V293.301C174.344 292.59 174.96 292.015 175.72 292.015Z" stroke="#151515" stroke-width="2" stroke-linecap="round" stroke-linejoin="round"/>
<path d="M71.3294 505.203C71.3294 505.203 77.0047 506.393 85.5139 512.775C88.9643 515.362 86.8559 516.992 84.7471 517.567C82.6679 518.134 56.5939 517.508 55.7073 515.841C53.3115 511.337 55.1085 506.795 56.1102 504.708" stroke="#151515" stroke-width="2" stroke-linecap="round" stroke-linejoin="round"/>
<path d="M98.0489 256.785C98.0489 256.785 97.7667 259.738 101.094 261.1C103.897 262.247 105.91 259.43 105.91 259.43" stroke="#151515" stroke-width="2" stroke-linecap="round" stroke-linejoin="round"/>
<path d="M80.1653 280.704C79.0159 286.614 69.4941 308.613 69.4941 308.613" stroke="#151515" stroke-width="2" stroke-linecap="round" stroke-linejoin="round"/>
<path d="M94.3746 301.611C94.3746 301.611 90.0662 311.204 87.2271 320.04" stroke="#151515" stroke-width="2" stroke-linecap="round" stroke-linejoin="round"/>
<path d="M106.739 290.654L98.2521 288.275L97.8594 300.193L106.896 298.228" stroke="#151515" stroke-width="2" stroke-linecap="round" stroke-linejoin="round"/>
<path d="M70.6943 497.364V505.145" stroke="#151515" stroke-width="2" stroke-linecap="round" stroke-linejoin="round"/>
<path d="M104.31 244.537C104.862 244.827 105.069 245.52 104.772 246.085L104.414 246.767C104.117 247.332 103.429 247.555 102.877 247.266C102.325 246.976 102.118 246.283 102.415 245.718L102.773 245.036C103.07 244.47 103.758 244.247 104.31 244.537Z" fill="#151515"/>
<path d="M97.1208 269.82C97.1208 269.82 94.4089 274.141 94.1402 275.748C93.8715 277.354 94.9218 278.639 96.4061 280.045" stroke="#151515" stroke-width="2" stroke-linecap="round" stroke-linejoin="round"/>
<path d="M113.935 284.953V280.932C113.935 280.025 114.669 279.291 115.576 279.291H161.609C162.515 279.291 163.25 280.025 163.25 280.932V285.012" stroke="#151515" stroke-width="2" stroke-linecap="round" stroke-linejoin="round"/>
<path d="M31.3237 496.111L31.4986 504.601" stroke="#151515" stroke-width="2" stroke-linecap="round" stroke-linejoin="round"/>
<path d="M135.013 328.596H144.078V339.387H135.013V328.596Z" stroke="#151515" stroke-width="2" stroke-linecap="round" stroke-linejoin="round"/>
<path d="M51.1987 363.433C51.1987 363.433 61.4022 367.978 68.4104 366.744Z" fill="#151515"/>
<path d="M51.1987 363.433C51.1987 363.433 61.4022 367.978 68.4104 366.744" stroke="#151515" stroke-width="2" stroke-linecap="round" stroke-linejoin="round"/>
<path d="M84.3046 261.089C84.3046 261.089 82.1653 267.536 79.2379 268.511C76.3102 269.487 76.2104 267.861 76.2104 267.861" stroke="#151515" stroke-width="2" stroke-linecap="round" stroke-linejoin="round"/>
<path d="M92.3428 286.375C88.2014 298.174 85.7789 301.925 81.1689 317.943" stroke="#151515" stroke-width="2" stroke-linecap="round" stroke-linejoin="round"/>
<path d="M54.4423 485.193C54.4423 485.193 75.8246 487.071 75.8614 487.343C76.4756 491.889 74.6086 496.894 74.6086 496.894C74.6086 496.894 55.4351 497.287 54.565 494.531C53.8277 492.197 54.4423 485.193 54.4423 485.193Z" stroke="#151515" stroke-width="2" stroke-linecap="round" stroke-linejoin="round"/>
<path d="M120.847 293.906H155.413C156.319 293.906 157.054 294.641 157.054 295.547V312.434C157.054 313.34 156.319 314.074 155.413 314.074H120.847C119.94 314.074 119.206 313.34 119.206 312.434V295.547C119.206 294.641 119.94 293.906 120.847 293.906Z" stroke="#151515" stroke-width="2" stroke-linecap="round" stroke-linejoin="round"/>
<path d="M101.014 323.625C101.014 323.625 104.935 323.371 108.403 322.721" stroke="#151515" stroke-width="2" stroke-linecap="round" stroke-linejoin="round"/>
<path d="M117.789 240.112C117.789 240.112 107.798 239.212 106.113 233.197C106.113 233.197 99.1701 237.699 91.5858 234.757L87.7676 240.604" stroke="#151515" stroke-width="2" stroke-linecap="round" stroke-linejoin="round"/>
<path d="M77.7183 318.781L101.593 323.757" stroke="#151515" stroke-width="2" stroke-linecap="round" stroke-linejoin="round"/>
<path d="M74.7671 371.768C74.7671 371.768 83.7616 415.305 85.1 429.522C86.1184 440.346 75.2965 487.128 75.2965 487.128" stroke="#151515" stroke-width="2" stroke-linecap="round" stroke-linejoin="round"/>
<path d="M120.573 323.424L112.385 329.441C112.385 329.441 111.695 333.584 115.838 332.795L127.182 324.509" stroke="#151515" stroke-width="2" stroke-linecap="round" stroke-linejoin="round"/>
<path d="M118.178 335.555C118.178 335.555 127.176 334.038 133.196 329.28" stroke="#151515" stroke-width="2" stroke-linecap="round" stroke-linejoin="round"/>
<path d="M118.269 240.592C118.269 240.592 115.842 250.421 111.954 257.147C106.88 265.925 101.89 270.473 96.5036 268.945C87.7782 266.472 81.3334 259.892 83.831 250.658" stroke="#151515" stroke-width="2" stroke-linecap="round" stroke-linejoin="round"/>
<path d="M55.9449 327.49C55.9449 327.49 55.6749 328.407 53.3013 327.879C51.2267 327.418 50.5599 325.342 50.5826 325.205C51.037 322.429 65.9671 314.576 70.0104 312.458C70.0104 312.458 71.734 311.615 72.9657 312.648C75.691 314.934 74.6971 315.629 73.1452 318.94" stroke="#151515" stroke-width="2" stroke-linecap="round" stroke-linejoin="round"/>
<path d="M48.5198 370.862L43.5358 385.815C43.5358 385.815 36.3141 420.917 35.9883 440.782C35.8459 449.469 35.0181 485.743 35.0181 485.743" stroke="#151515" stroke-width="2" stroke-linecap="round" stroke-linejoin="round"/>
<path d="M172.512 277.354L166.514 285.184" stroke="#151515" stroke-width="2" stroke-linecap="round" stroke-linejoin="round"/>
</svg>
