<svg width="200" height="200" viewBox="0 0 200 200" fill="none" xmlns="http://www.w3.org/2000/svg">
<rect width="200" height="200" fill="white"/>
<path d="M100.477 33.3119L100.472 33.312C74.4028 33.3584 53.3123 54.4432 53.2627 80.5122L53.2627 80.5179C53.3123 106.593 74.4023 127.677 100.471 127.727L100.477 127.727C126.546 127.677 147.634 106.593 147.68 80.5177L147.68 80.5124C147.633 54.4433 126.546 33.3588 100.477 33.3119Z" fill="white" stroke="#151515" stroke-width="3"/>
<path d="M168.312 84.6257C166.629 82.3699 166.629 78.6744 168.312 76.4155L171.979 71.4803C173.659 69.2218 173.108 66.1106 170.759 64.5632L165.621 61.1751C163.272 59.6333 162.01 56.1584 162.815 53.4619L164.574 47.5696C165.378 44.8735 163.8 42.1378 161.062 41.4911L155.079 40.0625C152.344 39.4131 149.969 36.5841 149.8 33.7779L149.438 27.6316C149.272 24.8285 146.852 22.7955 144.06 23.1146L137.948 23.823C135.153 24.1506 131.954 22.3042 130.839 19.7238L128.4 14.0772C127.282 11.4969 124.309 10.413 121.796 11.6748L116.296 14.4272C113.784 15.6921 110.145 15.0484 108.213 13.0043L103.987 8.53305C102.055 6.48898 98.8931 6.48898 96.9651 8.53305L92.7361 13.0051C90.8078 15.0492 87.1687 15.6928 84.6558 14.428L79.1562 11.6755C76.6406 10.4137 73.6703 11.4977 72.5551 14.078L70.113 19.7246C68.9979 22.3049 65.799 24.1513 63.0039 23.8238L56.8942 23.1154C54.099 22.7966 51.6768 24.8293 51.5073 27.6324L51.1516 33.7787C50.9851 36.5849 48.6105 39.4139 45.8721 40.0633L39.8869 41.4919C37.1481 42.1382 35.5729 44.8739 36.3746 47.5704L38.1365 53.4627C38.9385 56.1588 37.679 59.6341 35.3272 61.1758L30.1917 64.5639C27.843 66.111 27.2949 69.2226 28.9722 71.4811L32.6422 76.4163C34.3195 78.6748 34.3195 82.3706 32.6422 84.6265L28.9722 89.5616C27.2949 91.8232 27.843 94.9314 30.1917 96.4788L35.3272 99.8692C37.679 101.414 38.9385 104.886 38.1365 107.582L36.3746 113.475C35.5729 116.168 37.1485 118.906 39.8869 119.559L45.8721 120.979C48.6105 121.631 50.9851 124.46 51.1516 127.269L51.5073 133.41C51.6768 136.216 54.099 138.249 56.8942 137.93L63.0039 137.212C65.799 136.891 68.9975 138.74 70.11 141.32L72.5547 146.967C73.6699 149.55 76.6402 150.631 79.1558 149.366L84.6554 146.614C87.1683 145.354 90.8074 145.993 92.7357 148.04L96.9648 152.512C98.8927 154.556 102.055 154.556 103.986 152.512L108.213 148.04C110.144 145.993 113.783 145.354 116.296 146.614L121.795 149.366C124.308 150.631 127.281 149.55 128.396 146.967L130.838 141.32C131.954 138.74 135.152 136.891 137.947 137.212L144.06 137.93C146.852 138.248 149.271 136.216 149.438 133.41L149.799 127.269C149.969 124.46 152.343 121.631 155.079 120.979L161.061 119.559C163.799 118.907 165.378 116.168 164.573 113.475L162.814 107.582C162.01 104.886 163.272 101.414 165.62 99.8692L170.759 96.4788C173.108 94.9318 173.658 91.8232 171.978 89.5616L168.312 84.6257ZM100.474 133.045C71.4628 133.042 47.9504 109.533 47.9504 80.5151C47.9504 51.5088 71.4624 27.9969 100.474 27.9912C129.483 27.9969 152.998 51.5088 152.998 80.5151C152.998 109.533 129.483 133.042 100.474 133.045Z" fill="#151515"/>
<path d="M87.9057 152.844C87.8265 152.816 87.6909 152.785 87.5641 152.785L82.2027 155.467C80.5795 156.28 78.7613 156.715 76.9545 156.715C72.3271 156.715 68.1403 153.949 66.2965 149.668L63.8514 144.028C63.8628 144.059 63.8514 144.07 63.8286 144.07C63.7893 144.07 63.696 144.034 63.6229 144.002L60.3281 144.389L41.3867 171.308L66.2965 167L72.1998 191.58L94.7014 159.245C93.7214 158.686 92.7956 158.026 92.0106 157.195L87.9057 152.844Z" fill="#71B82B"/>
<path d="M137.34 144.002C137.238 144.041 137.105 144.111 137.03 144.182L134.655 149.673C132.812 153.948 128.628 156.714 123.995 156.714C122.191 156.714 120.37 156.279 118.741 155.461L113.399 152.787C113.235 152.796 113.117 152.824 113.043 152.844L108.944 157.194C108.012 158.177 106.9 158.939 105.714 159.546L128.752 192.58L134.655 168L159.565 172.309L139.825 144.292L137.34 144.002Z" fill="#71B82B"/>
<path d="M132.377 84.0817C133.324 83.0012 133.948 81.6228 133.948 80.102C133.948 76.1855 130.762 72.9995 126.848 72.9995H117.781C115.789 72.9075 115.304 72.5304 115.284 72.5143L115.268 72.4926C115.322 71.9657 116.235 70.6777 116.682 70.0499C117.324 69.1479 117.93 68.2946 118.277 67.3475L118.43 66.9326C119.316 64.5494 120.967 60.1133 119.177 55.0151C118.093 51.9231 115.681 50 112.885 50C109.628 50 106.921 52.6051 106.302 56.3376C106.094 57.5932 103.341 62.327 98.0862 68.5058C96.6321 70.2161 94.9922 71.6376 93.2568 73.1421C91.8857 74.3291 90.4678 75.5559 88.965 77.0587C85.0231 80.9987 83.147 87.679 84.1843 94.0724C85.081 99.6072 87.9692 103.85 92.317 106.024C95.8781 107.805 102.793 108.801 108.066 108.995C110.272 109.077 111.936 109.114 113.3 109.114C115.908 109.114 117.205 108.968 118.847 108.782L119.401 108.721L119.495 108.71L122.159 108.324L122.21 108.317C125.661 107.754 128.165 104.813 128.165 101.324L128.159 101.074C130.175 99.8235 131.486 97.6009 131.486 95.0663C131.486 94.2075 131.354 93.4607 131.127 92.813C132.504 91.5177 133.361 89.6831 133.361 87.6626C133.36 86.3728 133.005 85.1425 132.377 84.0817ZM127.033 84.5507H129.112C129.961 85.3192 130.499 86.4233 130.499 87.6627C130.499 88.985 129.88 90.1504 128.928 90.9225H126.142C125.616 90.9225 125.19 91.3483 125.19 91.875C125.19 92.4018 125.616 92.8294 126.142 92.8294H127.882C128.459 93.477 128.625 94.2419 128.625 95.0664C128.625 96.3816 128.013 97.5433 127.07 98.3137H124.391C123.862 98.3137 123.436 98.7412 123.436 99.268C123.436 99.7949 123.862 100.221 124.391 100.221H125.145C125.246 100.572 125.304 100.94 125.304 101.325C125.304 103.432 123.765 105.164 121.75 105.492L119.085 105.878C117.155 106.091 116.022 106.253 113.3 106.253C112.022 106.253 110.395 106.217 108.173 106.134C103.134 105.949 96.6702 105.001 93.5961 103.464C84.9909 99.1617 84.9855 85.0848 90.9893 79.081C94.379 75.6913 97.5091 73.604 100.266 70.3604C104.525 65.3506 108.696 59.4028 109.125 56.805C109.547 54.2576 111.202 52.8614 112.885 52.8614C114.299 52.8614 115.735 53.8482 116.478 55.9643C118.026 60.377 116.34 64.3061 115.591 66.3628C114.837 68.423 110.678 71.7677 113.213 74.4863C114.155 75.4965 116.004 75.7888 117.718 75.8628H126.848C129.191 75.8628 131.087 77.7607 131.087 80.1023C131.087 81.1035 130.521 82.0037 129.771 82.6423H127.034C126.507 82.6423 126.079 83.0681 126.079 83.5949C126.079 84.1216 126.507 84.5507 127.033 84.5507Z" fill="#151515"/>
<path d="M88.155 77H76.5614C74.6929 77 73.279 78.6895 73.6083 80.5287L77.6179 102.924C77.8224 104.066 78.6668 104.988 79.7865 105.291L85.1626 106.747C85.7693 106.912 86.4122 106.881 87.0006 106.661L90.0302 105.524C91.2009 105.085 91.9766 103.966 91.9766 102.715V82.0031C91.9766 81.6126 91.9003 81.2259 91.7522 80.8647L90.9306 78.8616C90.4687 77.7354 89.3721 77 88.155 77Z" fill="white"/>
<path d="M68.9766 76H88.9766C90.6334 76 91.9766 77.3431 91.9766 79V103C91.9766 104.657 90.6334 106 88.9766 106H68.9766" stroke="#151515" stroke-width="3"/>
</svg>
