<svg width="200" height="200" viewBox="0 0 200 200" fill="none" xmlns="http://www.w3.org/2000/svg">
<rect width="200" height="200" fill="white"/>
<path d="M32.456 113.725C35.4418 112.18 38.7262 110.943 39.0248 106.308C39.2637 102.599 39.1244 100.024 39.0248 98.891C36.9347 97.0368 35.7404 93.6374 34.8447 90.238C34.1154 89.8606 32.456 88.8473 31.5602 87.1476C30.0963 84.3697 29.4701 79.1127 32.456 77.5675" stroke="#151515" stroke-width="3"/>
<path d="M67.9053 113.725C64.9195 112.18 61.6351 110.943 61.3365 106.308C61.0976 102.599 61.237 100.024 61.3365 98.891C63.4266 97.0368 64.6209 93.6374 65.5167 90.238C66.2459 89.8606 67.9053 88.8473 68.8011 87.1476C70.2651 84.3697 70.8912 79.1127 67.9053 77.5675" stroke="#151515" stroke-width="3"/>
<path d="M32.0732 113.226L48.957 148.989H52.0005L67.0678 112.843C74.8794 116.845 91.6271 126.54 94.3054 130.974C96.9837 135.407 97.4503 142.878 97.3489 146.059C88.4105 147.709 70.2679 149.14 48.957 148.989C34.4701 148.886 18.5191 148.053 3 146.059C3 141.954 5.43481 133.19 6.65222 130.974C7.86962 128.757 23.247 118.152 32.0732 113.226Z" fill="#151515"/>
<path d="M32.0732 113.226L48.957 148.989H52.0005L67.0678 112.843C74.8794 116.845 91.6271 126.54 94.3054 130.974C96.9837 135.407 97.4503 142.878 97.3489 146.059C82.3342 148.83 41.3483 150.985 3 146.059C3 141.954 5.43481 133.19 6.65221 130.974C7.86962 128.757 23.247 118.152 32.0732 113.226Z" stroke="#151515" stroke-width="3"/>
<path d="M38.2754 110.197L50.6218 119.016L62.9681 110.197" stroke="#151515" stroke-width="3"/>
<path d="M41.8037 132.244L50.772 119.898L59.4414 132.244" stroke="#151515" stroke-width="3"/>
<path d="M48.0518 131.306L45.1039 127.703L50.6722 119.898L55.9131 127.703L52.6376 131.306L55.4721 140.181L52.6376 148.118H48.7069L45.1035 140.181L48.0518 131.306Z" fill="#71B82B" stroke="#151515" stroke-width="3"/>
<path d="M37.0898 78.5014C46.3189 78.2548 57.4304 69.1529 61.3771 64.6328C65.263 69.0707 64.6154 79.2205 64.413 83.7407C65.0202 83.7407 68.6633 82.0148 69.8777 72.6457C71.092 63.2767 64.413 59.4962 61.3771 59.0853C59.2519 55.2843 52.1479 49.2848 40.7328 55.6952C29.3178 62.1056 30.5119 73.5703 32.5358 78.5014L37.0898 83.7407V78.5014Z" fill="#151515" stroke="#151515" stroke-width="3"/>
<path d="M132.991 113.725C135.977 112.18 139.261 110.943 139.56 106.308C139.799 102.599 139.66 100.024 139.56 98.891C137.47 97.0368 136.276 93.6374 135.38 90.238C134.651 89.8606 132.991 88.8473 132.095 87.1476C130.631 84.3697 130.005 79.1127 132.991 77.5675" stroke="#151515" stroke-width="3"/>
<path d="M168.44 113.725C165.455 112.18 162.17 110.943 161.872 106.308C161.633 102.599 161.772 100.024 161.872 98.891C163.962 97.0368 165.156 93.6374 166.052 90.238C166.781 89.8606 168.44 88.8473 169.336 87.1476C170.8 84.3697 171.426 79.1127 168.44 77.5675" stroke="#151515" stroke-width="3"/>
<path d="M132.608 113.226L149.492 148.989H152.536L167.603 112.843C175.415 116.845 192.162 126.54 194.841 130.974C197.519 135.407 197.985 142.878 197.884 146.059C188.946 147.709 170.803 149.14 149.492 148.989C135.005 148.886 119.054 148.053 103.535 146.059C103.535 141.954 105.97 133.19 107.187 130.974C108.405 128.757 123.782 118.152 132.608 113.226Z" fill="#151515"/>
<path d="M132.608 113.226L149.492 148.989H152.536L167.603 112.843C175.415 116.845 192.162 126.54 194.841 130.974C197.519 135.407 197.985 142.878 197.884 146.059C182.869 148.83 141.883 150.985 103.535 146.059C103.535 141.954 105.97 133.19 107.187 130.974C108.405 128.757 123.782 118.152 132.608 113.226Z" stroke="#151515" stroke-width="3"/>
<path d="M138.811 110.197L151.157 119.016L163.503 110.197" stroke="#151515" stroke-width="3"/>
<path d="M142.338 132.244L151.306 119.898L159.976 132.244" stroke="#151515" stroke-width="3"/>
<path d="M137.488 81.0951C137.488 74.04 141.457 65.2211 142.779 63.4574C151.598 78.8903 163.063 72.7171 163.945 81.0951C165.708 75.8038 169.677 77.1266 171 78.4494C174.174 63.6338 167.913 56.4024 161.74 53.3157C157.183 51.405 146.307 48.0244 137.488 56.4024C129.458 64.0316 130.874 74.187 132.197 78.4494C134.314 76.3329 136.606 79.3313 137.488 81.0951Z" fill="#151515" stroke="#151515" stroke-width="3"/>
<mask id="path-16-inside-1_669_4534" fill="white">
<rect x="131.843" y="66.9999" width="11.7636" height="7.52935" rx="2" transform="rotate(13.7081 131.843 66.9999)"/>
</mask>
<rect x="131.843" y="66.9999" width="11.7636" height="7.52935" rx="2" transform="rotate(13.7081 131.843 66.9999)" fill="#71B82B" stroke="#151515" stroke-width="6" mask="url(#path-16-inside-1_669_4534)"/>
<path d="M130.873 104.906C135.24 100.424 134.653 92.4558 133.813 89.032L135.234 90.5291C135.382 92.882 136.259 98.3408 139.469 99.4702V104.906H130.873Z" fill="#151515" stroke="#151515" stroke-width="3"/>
<path d="M171.596 104.906C167.228 100.424 167.816 92.4558 168.656 89.032L167.235 90.5291C167.086 92.882 166.21 98.3408 162.999 99.4702V104.906H171.596Z" fill="#151515" stroke="#151515" stroke-width="3"/>
</svg>
