<svg width="172" height="153" viewBox="0 0 172 153" fill="none" xmlns="http://www.w3.org/2000/svg">
<rect x="1.5" y="1.5" width="145.893" height="106.218" rx="2.5" fill="white" stroke="#151515" stroke-width="3"/>
<path d="M64.5148 70.4156L91.6511 54.7491C93.3038 53.7951 93.3038 51.4098 91.6511 50.4545L64.5148 34.7884C62.8633 33.8344 60.7974 35.027 60.7974 36.9356V68.2683C60.797 70.1766 62.8633 71.3699 64.5148 70.4156Z" fill="#71B82B"/>
<path d="M19.2043 33.6234H25.7158C27.8697 33.6234 29.622 31.8712 29.622 29.7173V18.113C29.622 15.9594 27.8697 14.2072 25.7158 14.2072H19.2043C17.0521 14.2072 15.2998 15.9594 15.2998 18.113V29.7173C15.2998 31.8715 17.0521 33.6234 19.2043 33.6234Z" fill="#151515"/>
<path d="M19.2043 64.0289H25.7158C27.8697 64.0289 29.622 62.2767 29.622 60.1231V48.5188C29.622 46.3636 27.8697 44.6113 25.7158 44.6113H19.2043C17.0521 44.6113 15.2998 46.3636 15.2998 48.5188V60.1231C15.2998 62.277 17.0521 64.0289 19.2043 64.0289Z" fill="#151515"/>
<path d="M19.2043 94.4348H25.7158C27.8697 94.4348 29.622 92.6825 29.622 90.5286V78.9229C29.622 76.7694 27.8697 75.0172 25.7158 75.0172H19.2043C17.0521 75.0172 15.2998 76.7694 15.2998 78.9229V90.5286C15.2998 92.6825 17.0521 94.4348 19.2043 94.4348Z" fill="#151515"/>
<path d="M123.96 33.6234H130.472C132.625 33.6234 134.377 31.8712 134.377 29.7173V18.113C134.377 15.9594 132.625 14.2072 130.472 14.2072H123.96C121.807 14.2072 120.055 15.9594 120.055 18.113V29.7173C120.055 31.8715 121.807 33.6234 123.96 33.6234Z" fill="#151515"/>
<path d="M123.96 64.0289H130.472C132.625 64.0289 134.377 62.2767 134.377 60.1231V48.5188C134.377 46.3636 132.625 44.6113 130.472 44.6113H123.96C121.807 44.6113 120.055 46.3636 120.055 48.5188V60.1231C120.055 62.277 121.807 64.0289 123.96 64.0289Z" fill="#151515"/>
<path d="M123.96 94.4348H130.472C132.625 94.4348 134.377 92.6825 134.377 90.5286V78.9229C134.377 76.7694 132.625 75.0172 130.472 75.0172H123.96C121.807 75.0172 120.055 76.7694 120.055 78.9229V90.5286C120.055 92.6825 121.807 94.4348 123.96 94.4348Z" fill="#151515"/>
<path d="M144.379 118.934L151.581 126.246L144.642 133.251L137.003 125.502L144.379 118.934Z" fill="#151515"/>
<circle cx="118.276" cy="100.968" r="32.8036" fill="white" stroke="#151515" stroke-width="3"/>
<path d="M100.498 82.7433C93.7547 88.7771 85.9462 107.234 102.628 121.786" stroke="#151515" stroke-width="3" stroke-linejoin="round"/>
<path d="M158.135 130.282H158.134L158.154 130.262L154.605 126.713L154.598 126.705L154.577 126.685L144.997 136.266L148.573 139.842L158.114 130.302L158.135 130.282Z" fill="#151515"/>
<path d="M169.361 141.667L159.121 131.426L159.099 131.404L159.079 131.384L149.696 140.768L159.978 151.05C162.571 153.644 166.768 153.656 169.372 151.051C171.966 148.458 171.954 144.26 169.361 141.667Z" fill="#151515"/>
</svg>
