<svg width="200" height="200" viewBox="0 0 200 200" fill="none" xmlns="http://www.w3.org/2000/svg">
<rect width="200" height="200" fill="white"/>
<mask id="mask0_820_4969" style="mask-type:alpha" maskUnits="userSpaceOnUse" x="53" y="64" width="95" height="95">
<path d="M83.525 123.045C86.4044 121.555 89.5717 120.363 89.8596 115.893C90.09 112.317 89.9556 109.833 89.8596 108.74C87.844 106.952 86.6923 103.674 85.8285 100.396C85.1252 100.032 83.525 99.055 82.6612 97.4159C81.2494 94.737 80.6456 89.6675 83.525 88.1774" stroke="#151515" stroke-width="3"/>
<path d="M117.709 123.045C114.83 121.555 111.663 120.363 111.375 115.893C111.144 112.317 111.279 109.833 111.375 108.74C113.39 106.952 114.542 103.674 115.406 100.396C116.109 100.032 117.709 99.055 118.573 97.4159C119.985 94.737 120.589 89.6675 117.709 88.1774" stroke="#151515" stroke-width="3"/>
<path d="M143.169 139.679C140.586 135.404 124.436 126.054 116.902 122.195C103.886 132.881 88.9809 126.894 83.1557 122.564C74.6442 127.314 59.8151 137.542 58.6411 139.679C57.4671 141.817 55.1191 150.268 55.1191 154.227C92.1 158.977 131.624 156.899 146.104 154.227C146.202 151.159 145.752 143.954 143.169 139.679Z" stroke="#151515" stroke-width="3"/>
<path d="M110.483 73.8933C104.131 72.9864 95.5077 81.1542 86.4316 79.339V87.9613V89.0779L85.0708 87.9613L83.9015 87.9615C83.2369 88.1667 82.5122 88.4182 82.3481 87.9618C80.5516 82.9634 81.074 73.2965 90.5162 67.9941C101.407 63.4558 121.828 64.8179 118.652 87.9618C118.455 89.3969 117.722 86.8675 116.383 87.9613C115.211 88.9176 115.021 89.0779 115.021 89.0779C115.021 89.0779 115.021 77.5238 110.483 73.8933Z" fill="#151515"/>
<path d="M85.0708 87.9613L86.4316 89.0779C86.4316 89.0779 86.4316 91.1372 86.4316 87.9613C86.4316 84.7853 86.4316 79.339 86.4316 79.339C95.5077 81.1542 104.131 72.9864 110.483 73.8933C115.021 77.5238 115.021 89.0779 115.021 89.0779C115.021 89.0779 115.211 88.9176 116.383 87.9613C117.722 86.8675 118.455 89.3969 118.652 87.9618C121.828 64.8179 101.407 63.4558 90.5162 67.9941C81.074 73.2965 80.5516 82.9634 82.3481 87.9618M85.0708 87.9613C84.7931 87.2848 82.646 88.7907 82.3481 87.9618M85.0708 87.9613L82.3481 87.9618" stroke="#151515" stroke-width="3"/>
</mask>
<g mask="url(#mask0_820_4969)">
<circle cx="100.499" cy="100.408" r="53.9565" fill="#151515" stroke="black"/>
</g>
<circle cx="100.499" cy="100.408" r="52.9565" stroke="black" stroke-width="3"/>
<path fill-rule="evenodd" clip-rule="evenodd" d="M27.8594 88.6086C32.7338 57.3421 57.4352 32.6409 88.7018 27.7667V30.805C59.0949 35.6254 35.7183 59.0018 30.8977 88.6086H27.8594ZM27.8594 111.299C32.7338 142.565 57.4352 167.267 88.7018 172.141V169.103C59.0948 164.282 35.7182 140.906 30.8977 111.299H27.8594ZM111.392 172.141C142.658 167.266 167.359 142.565 172.233 111.299H169.195C164.374 140.905 140.998 164.282 111.392 169.102V172.141ZM111.392 27.7669C142.658 32.6415 167.359 57.3425 172.233 88.6086H169.195C164.374 59.0022 140.998 35.6259 111.392 30.8052V27.7669Z" fill="#71B82B"/>
<path d="M100.5 16L100.5 38.6902" stroke="#71B82B" stroke-width="3" stroke-linejoin="round"/>
<path d="M100.5 160.31L100.5 183" stroke="#71B82B" stroke-width="3" stroke-linejoin="round"/>
<path d="M184 99.5L161.31 99.5" stroke="#71B82B" stroke-width="3" stroke-linejoin="round"/>
<path d="M39.6904 99.5L17.0002 99.5" stroke="#71B82B" stroke-width="3" stroke-linejoin="round"/>
</svg>
