<svg width="200" height="200" viewBox="0 0 200 200" fill="none" xmlns="http://www.w3.org/2000/svg">
<rect width="200" height="200" fill="white"/>
<path d="M32.4565 113.725C35.4423 112.18 38.7267 110.943 39.0253 106.308C39.2642 102.599 39.1248 100.024 39.0253 98.891C36.9352 97.0368 35.7409 93.6374 34.8451 90.238C34.1159 89.8606 32.4565 88.8473 31.5607 87.1476C30.0968 84.3697 29.4706 79.1127 32.4565 77.5675" stroke="#151515" stroke-width="3"/>
<path d="M67.9049 113.725C64.919 112.18 61.6346 110.943 61.336 106.308C61.0971 102.599 61.2365 100.024 61.336 98.891C63.4261 97.0368 64.6204 93.6374 65.5162 90.238C66.2454 89.8606 67.9049 88.8473 68.8006 87.1476C70.2646 84.3697 70.8907 79.1127 67.9049 77.5675" stroke="#151515" stroke-width="3"/>
<path d="M32.0732 113.226L48.957 148.989H52.0005L67.0678 112.843C74.8794 116.845 91.6271 126.54 94.3054 130.974C96.9837 135.407 97.4503 142.878 97.3489 146.059C88.4105 147.709 70.2679 149.14 48.957 148.989C34.4701 148.886 18.5191 148.053 3 146.059C3 141.954 5.43481 133.19 6.65222 130.974C7.86962 128.757 23.247 118.152 32.0732 113.226Z" fill="#151515"/>
<path d="M32.0732 113.226L48.957 148.989H52.0005L67.0678 112.843C74.8794 116.845 91.6271 126.54 94.3054 130.974C96.9837 135.407 97.4503 142.878 97.3489 146.059C82.3342 148.83 41.3483 150.985 3 146.059C3 141.954 5.43481 133.19 6.65221 130.974C7.86962 128.757 23.247 118.152 32.0732 113.226Z" stroke="#151515" stroke-width="3"/>
<path d="M38.2754 110.197L50.6218 119.016L62.9681 110.197" stroke="#151515" stroke-width="3"/>
<path d="M41.8032 132.244L50.7715 119.898L59.4409 132.244" stroke="#151515" stroke-width="3"/>
<path d="M48.0518 131.306L45.1039 127.703L50.6722 119.898L55.9131 127.703L52.6376 131.306L55.4721 140.181L52.6376 148.118H48.7069L45.1035 140.181L48.0518 131.306Z" fill="#71B82B" stroke="#151515" stroke-width="3"/>
<path d="M37.0893 78.5014C46.3185 78.2548 57.4299 69.1529 61.3766 64.6328C65.2626 69.0707 64.6149 79.2205 64.4125 83.7407C65.0197 83.7407 68.6628 82.0148 69.8772 72.6457C71.0916 63.2767 64.4125 59.4962 61.3766 59.0853C59.2514 55.2843 52.1474 49.2848 40.7323 55.6952C29.3173 62.1056 30.5114 73.5703 32.5354 78.5014L37.0893 83.7407V78.5014Z" fill="#151515" stroke="#151515" stroke-width="3"/>
<path d="M132.991 113.725C135.977 112.18 139.261 110.943 139.56 106.308C139.799 102.599 139.66 100.024 139.56 98.891C137.47 97.0368 136.276 93.6374 135.38 90.238C134.651 89.8606 132.991 88.8473 132.095 87.1476C130.631 84.3697 130.005 79.1127 132.991 77.5675" stroke="#151515" stroke-width="3"/>
<path d="M168.44 113.725C165.454 112.18 162.169 110.943 161.871 106.308C161.632 102.599 161.771 100.024 161.871 98.891C163.961 97.0368 165.155 93.6374 166.051 90.238C166.78 89.8606 168.44 88.8473 169.335 87.1476C170.799 84.3697 171.425 79.1127 168.44 77.5675" stroke="#151515" stroke-width="3"/>
<path d="M132.608 113.226L149.492 148.989H152.535L167.602 112.843C175.414 116.845 192.162 126.54 194.84 130.974C197.518 135.407 197.985 142.878 197.884 146.059C188.945 147.709 170.803 149.14 149.492 148.989C135.005 148.886 119.054 148.053 103.535 146.059C103.535 141.954 105.969 133.19 107.187 130.974C108.404 128.757 123.782 118.152 132.608 113.226Z" fill="#151515"/>
<path d="M132.608 113.226L149.492 148.989H152.535L167.602 112.843C175.414 116.845 192.162 126.54 194.84 130.974C197.518 135.407 197.985 142.878 197.884 146.059C182.869 148.83 141.883 150.985 103.535 146.059C103.535 141.954 105.969 133.19 107.187 130.974C108.404 128.757 123.782 118.152 132.608 113.226Z" stroke="#151515" stroke-width="3"/>
<path d="M138.81 110.197L151.156 119.016L163.503 110.197" stroke="#151515" stroke-width="3"/>
<path d="M142.337 132.244L151.306 119.898L159.975 132.244" stroke="#151515" stroke-width="3"/>
<path d="M137.487 81.0951C137.487 74.04 141.456 65.2211 142.779 63.4574C151.597 78.8903 163.062 72.7171 163.944 81.0951C165.707 75.8038 169.676 77.1266 170.999 78.4494C174.174 63.6338 167.912 56.4024 161.739 53.3157C157.183 51.405 146.306 48.0244 137.487 56.4024C129.457 64.0316 130.873 74.187 132.196 78.4494C134.313 76.3329 136.605 79.3313 137.487 81.0951Z" fill="#151515" stroke="#151515" stroke-width="3"/>
<mask id="path-16-inside-1_729_4530" fill="white">
<rect x="131.842" y="66.9999" width="11.7636" height="7.52935" rx="2" transform="rotate(13.7081 131.842 66.9999)"/>
</mask>
<rect x="131.842" y="66.9999" width="11.7636" height="7.52935" rx="2" transform="rotate(13.7081 131.842 66.9999)" fill="#71B82B" stroke="#151515" stroke-width="6" mask="url(#path-16-inside-1_729_4530)"/>
<path d="M130.873 104.906C135.24 100.424 134.653 92.4558 133.813 89.032L135.234 90.5291C135.382 92.882 136.259 98.3408 139.469 99.4702V104.906H130.873Z" fill="#151515" stroke="#151515" stroke-width="3"/>
<path d="M171.595 104.906C167.228 100.424 167.816 92.4558 168.656 89.032L167.234 90.5291C167.086 92.882 166.209 98.3408 162.999 99.4702V104.906H171.595Z" fill="#151515" stroke="#151515" stroke-width="3"/>
</svg>
