<svg width="200" height="200" viewBox="0 0 200 200" fill="none" xmlns="http://www.w3.org/2000/svg">
<rect width="200" height="200" fill="white"/>
<circle cx="100" cy="100" r="60" fill="#71B82B"/>
<path d="M98.9318 124.92C108.259 124.92 116.075 119.796 116.075 110.863C116.075 104.426 111.872 100.419 106.354 98.8429V98.5145C111.543 96.544 114.433 92.6686 114.433 87.4796C114.433 79.1377 108.062 74.5398 98.6691 74.5398C93.0202 74.5398 88.3566 76.8387 84.1528 80.4514L89.0792 86.4286C91.9693 83.7356 94.7937 82.0935 98.2749 82.0935C102.413 82.0935 104.778 84.3924 104.778 88.2021C104.778 92.5373 101.888 95.5587 92.9545 95.5587V102.521C103.53 102.521 106.354 105.477 106.354 110.272C106.354 114.607 103.004 117.103 98.0122 117.103C93.6114 117.103 90.1301 114.87 87.24 112.045L82.6421 118.154C86.0577 122.095 91.2467 124.92 98.9318 124.92Z" fill="white"/>
</svg>
