<svg width="200" height="200" viewBox="0 0 200 200" fill="none" xmlns="http://www.w3.org/2000/svg">
<rect x="25.5" y="34.5" width="145.893" height="106.218" rx="2.5" fill="white" stroke="#151515" stroke-width="3"/>
<path d="M88.5149 103.416L115.651 87.7491C117.304 86.7951 117.304 84.4098 115.651 83.4545L88.5149 67.7884C86.8635 66.8344 84.7975 68.027 84.7975 69.9356V101.268C84.7972 103.177 86.8635 104.37 88.5149 103.416Z" fill="#71B82B"/>
<path d="M43.2045 66.6234H49.716C51.8699 66.6234 53.6222 64.8712 53.6222 62.7173V51.113C53.6222 48.9594 51.8699 47.2072 49.716 47.2072H43.2045C41.0523 47.2072 39.3 48.9594 39.3 51.113V62.7173C39.3 64.8715 41.0523 66.6234 43.2045 66.6234Z" fill="#151515"/>
<path d="M43.2045 97.0289H49.716C51.8699 97.0289 53.6222 95.2767 53.6222 93.1231V81.5188C53.6222 79.3636 51.8699 77.6113 49.716 77.6113H43.2045C41.0523 77.6113 39.3 79.3636 39.3 81.5188V93.1231C39.3 95.277 41.0523 97.0289 43.2045 97.0289Z" fill="#151515"/>
<path d="M43.2045 127.435H49.716C51.8699 127.435 53.6222 125.682 53.6222 123.529V111.923C53.6222 109.769 51.8699 108.017 49.716 108.017H43.2045C41.0523 108.017 39.3 109.769 39.3 111.923V123.529C39.3 125.682 41.0523 127.435 43.2045 127.435Z" fill="#151515"/>
<path d="M147.96 66.6234H154.472C156.626 66.6234 158.377 64.8712 158.377 62.7173V51.113C158.377 48.9594 156.626 47.2072 154.472 47.2072H147.96C145.808 47.2072 144.055 48.9594 144.055 51.113V62.7173C144.055 64.8715 145.808 66.6234 147.96 66.6234Z" fill="#151515"/>
<path d="M147.96 97.0289H154.472C156.626 97.0289 158.377 95.2767 158.377 93.1231V81.5188C158.377 79.3636 156.626 77.6113 154.472 77.6113H147.96C145.808 77.6113 144.055 79.3636 144.055 81.5188V93.1231C144.055 95.277 145.808 97.0289 147.96 97.0289Z" fill="#151515"/>
<path d="M147.96 127.435H154.472C156.626 127.435 158.377 125.682 158.377 123.529V111.923C158.377 109.769 156.626 108.017 154.472 108.017H147.96C145.808 108.017 144.055 109.769 144.055 111.923V123.529C144.055 125.682 145.808 127.435 147.96 127.435Z" fill="#151515"/>
<path d="M168.379 151.934L175.581 159.246L168.642 166.251L161.002 158.502L168.379 151.934Z" fill="#151515"/>
<circle cx="142.276" cy="133.968" r="32.8036" fill="white" stroke="#151515" stroke-width="3"/>
<path d="M124.498 115.743C117.755 121.777 109.946 140.234 126.628 154.786" stroke="#151515" stroke-width="3" stroke-linejoin="round"/>
<path d="M182.135 163.282H182.134L182.154 163.262L178.605 159.713L178.598 159.705L178.577 159.685L168.997 169.266L172.573 172.842L182.114 163.302L182.135 163.282Z" fill="#151515"/>
<path d="M193.361 174.667L183.121 164.426L183.099 164.404L183.079 164.384L173.696 173.768L183.978 184.05C186.571 186.644 190.768 186.656 193.372 184.051C195.966 181.458 195.954 177.26 193.361 174.667Z" fill="#151515"/>
</svg>
