<svg width="200" height="200" viewBox="0 0 200 200" fill="none" xmlns="http://www.w3.org/2000/svg">
<rect width="200" height="200" fill="white"/>
<path d="M12.0735 88.8232L11.7941 124.029L106.235 176.838L188.382 131.573L189.499 75.4115L91.4261 24.2794L12.3529 66.4703V77.088L9.27941 78.485L9 90.2202L12.0735 88.8232Z" fill="white"/>
<path d="M80.2496 69.5439L66.8379 76.2498L75.2202 85.1909L82.2055 81.5586L88.3525 77.9263L80.2496 69.5439Z" fill="white"/>
<path d="M48.9557 85.7497L35.5439 92.735L43.9263 101.397L57.6174 94.6908L48.9557 85.7497Z" fill="white"/>
<path d="M82.2471 81.5714L75.2363 85.2733" stroke="#151515" stroke-width="3" stroke-linecap="round" stroke-linejoin="round"/>
<path d="M94.3577 98.4868L76.2354 108.836" stroke="#151515" stroke-width="3" stroke-linecap="round" stroke-linejoin="round"/>
<path d="M94.3574 80.7711V98.4868" stroke="#151515" stroke-width="3" stroke-linecap="round" stroke-linejoin="round"/>
<path d="M66.168 76.2582L75.2547 85.2991" stroke="#151515" stroke-width="3" stroke-linecap="round" stroke-linejoin="round"/>
<path d="M9.28843 78.832L71.8961 45.887L71.797 57.1226L9 90.5872L9.28843 78.832Z" fill="#71B82B" stroke="#151515" stroke-width="3" stroke-linecap="round" stroke-linejoin="round"/>
<path d="M58.9024 74.2267L58.7744 91.5614" stroke="#151515" stroke-width="3" stroke-linecap="round" stroke-linejoin="round"/>
<path d="M98.6963 39.4028L98.7832 56.5758L118.903 67.1569L119.249 50.2713L98.6963 39.4028Z" fill="#151515" stroke="#151515" stroke-width="3" stroke-linecap="round" stroke-linejoin="round"/>
<path d="M91.4305 24L90.8262 76.6759" stroke="#151515" stroke-width="3" stroke-linecap="round" stroke-linejoin="round"/>
<path d="M27.8723 90.4492L27.8252 115.57L45.152 125.024L45.0666 107.475" stroke="#151515" stroke-width="3" stroke-linecap="round" stroke-linejoin="round"/>
<path d="M27.9502 90.3892L44.9436 107.192L63.9505 97.3348" stroke="#151515" stroke-width="3" stroke-linecap="round" stroke-linejoin="round"/>
<path d="M179.549 83.5895V103.946L179.321 126.353" stroke="#151515" stroke-width="3" stroke-linecap="round" stroke-linejoin="round"/>
<path d="M27.8838 90.3559L47.4418 79.8989L63.9548 97.222" stroke="#151515" stroke-width="3" stroke-linecap="round" stroke-linejoin="round"/>
<path d="M12.0537 124.301L27.8825 115.628" stroke="#151515" stroke-width="3" stroke-linecap="round" stroke-linejoin="round"/>
<path d="M126.463 54.3161L126.34 71.0494L146.612 81.8169L146.965 65.3226L126.463 54.3161Z" fill="#151515" stroke="#151515" stroke-width="3" stroke-linecap="round" stroke-linejoin="round"/>
<path d="M35.1553 92.5441L48.8599 85.4593L57.5795 94.3624L44.2066 101.496" stroke="#151515" stroke-width="3" stroke-linecap="round" stroke-linejoin="round"/>
<path d="M35.1387 92.4808L44.2254 101.522" stroke="#151515" stroke-width="3" stroke-linecap="round" stroke-linejoin="round"/>
<path d="M64.0762 102.057L76.1824 108.802L76.097 91.2521" stroke="#151515" stroke-width="3" stroke-linecap="round" stroke-linejoin="round"/>
<path d="M12.1561 89.0985L11.6562 124.315L106.213 177L188.417 131.758L189.586 75.4044L91.3479 24.1154L12.3888 66.5815L12.2553 77.3394" stroke="#151515" stroke-width="3" stroke-linecap="round" stroke-linejoin="round"/>
<path d="M58.9795 74.1666L75.9729 90.9691L94.3576 80.7711" stroke="#151515" stroke-width="3" stroke-linecap="round" stroke-linejoin="round"/>
<path d="M58.9141 74.1334L78.4722 63.6763L94.3582 80.3684" stroke="#151515" stroke-width="3" stroke-linecap="round" stroke-linejoin="round"/>
<path d="M94.7607 81.9789L188.357 131.714" stroke="#151515" stroke-width="3" stroke-linecap="round" stroke-linejoin="round"/>
<path d="M63.8914 97.2107L64.1462 115.109L45.2061 125.059" stroke="#151515" stroke-width="3" stroke-linecap="round" stroke-linejoin="round"/>
<path d="M161.328 116.684L161.118 74.3087L179.715 83.5895" stroke="#151515" stroke-width="3" stroke-linecap="round" stroke-linejoin="round"/>
<path d="M66.1855 76.3216L79.8901 69.2369L88.6097 78.14L82.279 81.5763" stroke="#151515" stroke-width="3" stroke-linecap="round" stroke-linejoin="round"/>
</svg>
