<svg width="200" height="200" viewBox="0 0 200 200" fill="none" xmlns="http://www.w3.org/2000/svg">
<rect width="200" height="200" fill="white"/>
<rect x="18.5" y="61.5" width="162.479" height="77" stroke="#151515" stroke-width="3"/>
<path d="M29.0547 70.9589V129.041H106.863V70.9589H29.0547ZM52.5566 86.0116C52.5566 82.7404 55.3489 80.0887 58.7937 80.0887C62.2385 80.0887 65.031 82.7404 65.031 86.0116C65.031 89.2828 62.2385 91.9339 58.7937 91.9339C55.3489 91.9339 52.5566 89.2828 52.5566 86.0116ZM63.0104 108.631L79.1708 89.1828C80.0587 88.1193 81.8533 88.1193 82.7414 89.1828L99.9483 109.893V120.582H35.9699V114.331L48.1019 98.7417C48.9804 97.6121 50.8688 97.6121 51.7473 98.7417L59.4022 108.582C60.2617 109.687 62.1033 109.712 63.0104 108.631Z" fill="#151515"/>
<path d="M114.534 73.1506L169.329 73.1506" stroke="#151515" stroke-width="3"/>
<path d="M114.534 84.1096L169.329 84.1096" stroke="#151515" stroke-width="3"/>
<path d="M114.534 95.0685L169.329 95.0685" stroke="#151515" stroke-width="3"/>
<path d="M114.534 106.027L153.438 106.027" stroke="#151515" stroke-width="3"/>
<rect x="116.5" y="116.5" width="51" height="11" rx="5.5" fill="#71B82B" stroke="#151515" stroke-width="3"/>
</svg>
