<svg width="200" height="200" viewBox="0 0 200 200" fill="none" xmlns="http://www.w3.org/2000/svg">
<rect width="200" height="200" fill="white"/>
<rect x="25.5" y="35.5" width="149" height="129" stroke="black" stroke-width="3"/>
<rect x="24" y="34" width="152.394" height="30.6574" fill="#151515"/>
<circle cx="37.5811" cy="49.5811" r="3.58108" fill="white"/>
<circle cx="47.6084" cy="49.5811" r="3.58108" fill="white"/>
<circle cx="57.6358" cy="49.5811" r="3.58108" fill="white"/>
<path d="M78.7125 112H72.6463L70.2349 105.727H59.1951L56.9155 112H51L61.7572 84.3817H67.6539L78.7125 112ZM68.4451 101.073L64.6396 90.8247L60.9094 101.073H68.4451ZM81.6703 84.3817H91.8623C94.1607 84.3817 95.9127 84.5575 97.1185 84.9092C98.7386 85.3864 100.126 86.2342 101.282 87.4525C102.437 88.6707 103.317 90.1653 103.919 91.9362C104.522 93.6945 104.824 95.8673 104.824 98.4546C104.824 100.728 104.541 102.687 103.976 104.332C103.285 106.342 102.299 107.968 101.018 109.212C100.051 110.154 98.7449 110.888 97.0996 111.416C95.8688 111.805 94.2235 112 92.1637 112H81.6703V84.3817ZM87.2467 89.0538V107.347H91.4102C92.9675 107.347 94.0916 107.259 94.7824 107.083C95.6867 106.857 96.434 106.474 97.0243 105.934C97.6271 105.394 98.1169 104.508 98.4937 103.277C98.8705 102.034 99.0589 100.345 99.0589 98.2097C99.0589 96.0746 98.8705 94.4355 98.4937 93.2926C98.1169 92.1497 97.5894 91.258 96.9112 90.6175C96.233 89.9769 95.3727 89.5436 94.3303 89.3176C93.5516 89.1417 92.0256 89.0538 89.7523 89.0538H87.2467Z" fill="#151515"/>
<path d="M112.4 86.3105H149.011" stroke="black" stroke-width="3"/>
<path d="M112.4 96.4304H149.011" stroke="black" stroke-width="3"/>
<path d="M112.4 106.55H134.128" stroke="black" stroke-width="3"/>
<rect x="51.5" y="123.5" width="96" height="21" fill="#71B82B" stroke="black" stroke-width="3"/>
</svg>
