<svg width="400" height="300" viewBox="0 0 400 300" fill="none" xmlns="http://www.w3.org/2000/svg">
<path d="M164.219 239.353H261.396V230.618H234.099L234.645 201.138H344.378L346.016 199.5V46.6378L344.378 45H82.3286L80.6908 47.1837V198.954L82.3286 201.138H190.424V231.164H164.219V239.353Z" fill="white"/>
<path d="M163.704 230.834H261.506V239.184H163.704V230.834Z" stroke="#151515" stroke-width="2" stroke-linecap="round" stroke-linejoin="round"/>
<path d="M190.308 201.887L190.525 229.828" stroke="#151515" stroke-width="2" stroke-linecap="round" stroke-linejoin="round"/>
<path d="M234.276 202.321L233.843 230.261" stroke="#151515" stroke-width="2" stroke-linecap="round" stroke-linejoin="round"/>
<path d="M83.3281 45H343.496C344.94 45 346.109 46.1259 346.109 47.5148V198.87C346.109 200.259 344.94 201.385 343.496 201.385H83.3281C81.8851 201.385 80.7152 200.259 80.7152 198.87V47.5148C80.7152 46.1259 81.8851 45 83.3281 45Z" stroke="#151515" stroke-width="2" stroke-linecap="round" stroke-linejoin="round"/>
<path d="M87.2227 50.978H338.763V195.812H87.2227V50.978Z" stroke="#151515" stroke-width="2" stroke-linecap="round" stroke-linejoin="round"/>
<circle cx="213.615" cy="123.568" r="35.0141" fill="#71B82B"/>
<path d="M227.252 123.937L207.349 135.428L207.349 112.446L227.252 123.937Z" fill="white"/>
<path d="M265.763 178.754L264.125 168.382L374.404 148.182L377.68 160.738L270.677 180.938L380.41 178.754L380.956 252.456L266.855 253.002L265.763 184.214L265.217 183.668L264.125 180.938L265.763 178.754Z" fill="white"/>
<path d="M281.649 166.266L289.725 175.385L301.381 173.597L293.672 163.952L281.649 166.266Z" fill="#151515" stroke="#151515" stroke-width="2" stroke-linecap="round" stroke-linejoin="round"/>
<path d="M269.924 180.156L377.733 160.712L374.579 148.7L264.279 168.306L265.748 179.401" stroke="#151515" stroke-width="2" stroke-linecap="round" stroke-linejoin="round"/>
<path d="M334.876 156.527L342.148 166.254L353.449 164.117L346.705 154.326L334.876 156.527Z" fill="#151515" stroke="#151515" stroke-width="2" stroke-linecap="round" stroke-linejoin="round"/>
<path d="M316.459 180.593L311.622 190.219L323.314 189.83L328 180.392L316.459 180.593Z" fill="#151515" stroke="#151515" stroke-width="2" stroke-linecap="round" stroke-linejoin="round"/>
<path d="M266.808 179.343C268.176 179.343 269.284 180.452 269.284 181.82V181.871C269.284 183.238 268.176 184.347 266.808 184.347C265.44 184.347 264.331 183.238 264.331 181.871V181.82C264.331 180.452 265.44 179.343 266.808 179.343Z" stroke="#151515" stroke-width="2" stroke-linecap="round" stroke-linejoin="round"/>
<path d="M265.723 191.799L266.108 253.45L381 252.917L380.565 189.406" stroke="#151515" stroke-width="2" stroke-linecap="round" stroke-linejoin="round"/>
<path d="M288.527 181.174L283.382 190.903L295.954 190.703L300.932 180.795L288.527 181.174Z" fill="#151515" stroke="#151515" stroke-width="2" stroke-linecap="round" stroke-linejoin="round"/>
<path d="M370.173 179.677L365.233 189.9L380.459 189.467L379.999 179.225L370.173 179.677Z" fill="#151515" stroke="#151515" stroke-width="2" stroke-linecap="round" stroke-linejoin="round"/>
<path d="M308.904 160.974L316.472 170.465L326.122 168.725L319.232 159.046L308.904 160.974Z" fill="#151515" stroke="#151515" stroke-width="2" stroke-linecap="round" stroke-linejoin="round"/>
<path d="M362.276 151.216L368.941 161.816L377.32 160.203L374.33 149.388L362.276 151.216Z" fill="#151515" stroke="#151515" stroke-width="2" stroke-linecap="round" stroke-linejoin="round"/>
<path d="M341.99 179.908L337.957 190.265H349.725L354.004 179.829L341.99 179.908Z" fill="#151515" stroke="#151515" stroke-width="2" stroke-linecap="round" stroke-linejoin="round"/>
<path d="M269.413 181.398L380.17 178.945L380.868 189.988L265.888 191.634L265.824 184.51" stroke="#151515" stroke-width="2" stroke-linecap="round" stroke-linejoin="round"/>
<path d="M60.4912 171.657L71.41 185.306V185.852H79.0531L78.5071 179.846L79.0531 177.117L80.6909 175.479H82.8746H164.219H168.041L169.678 178.208L170.224 186.397H178.413L181.143 188.581L182.781 191.311L183.327 196.224L199.159 191.857L199.705 213.148L183.327 209.327V250.272L180.597 253.548L176.23 254.639L71.41 255.185L67.0425 251.91L66.4965 248.634V237.715H59.3994L56.1237 240.991H47.9347L46.2969 239.899L19.546 251.364V188.581L46.2969 200.046L47.9347 198.408H53.94L57.2156 200.046L58.3075 202.23H66.4965V191.311L49.5725 171.657H35.9241L34.2863 170.019V162.376L35.9241 160.738H60.4912L62.675 162.376V168.928L60.4912 171.657Z" fill="white"/>
<path d="M153.023 208.556H96.8131V231.942H153.023V208.556Z" stroke="#151515" stroke-width="2" stroke-linecap="round" stroke-linejoin="round"/>
<path d="M156.994 201.897H92.8152C91.133 201.897 89.7695 203.221 89.7695 204.854V235.29C89.7695 236.922 91.133 238.246 92.8152 238.246H156.994C158.676 238.246 160.04 236.922 160.04 235.29V204.854C160.04 203.221 158.676 201.897 156.994 201.897Z" stroke="#151515" stroke-width="2" stroke-linecap="round" stroke-linejoin="round"/>
<path d="M55.1119 198.489H48.3627C46.9521 198.489 45.8086 199.527 45.8086 200.807V238.677C45.8086 239.958 46.9521 240.995 48.3627 240.995H55.1119C56.5227 240.995 57.6662 239.958 57.6662 238.677V200.807C57.6662 199.527 56.5227 198.489 55.1119 198.489Z" stroke="#151515" stroke-width="2" stroke-linecap="round" stroke-linejoin="round"/>
<path d="M61.0687 172.065L72.2045 186.178" stroke="#151515" stroke-width="2" stroke-linecap="round" stroke-linejoin="round"/>
<path d="M66.0182 202.092H57.8146V237.839H66.0182V202.092Z" stroke="#151515" stroke-width="2" stroke-linecap="round" stroke-linejoin="round"/>
<path d="M169.826 185.762V178.514C169.826 176.881 168.463 175.558 166.78 175.558H81.311C79.6288 175.558 78.265 176.881 78.265 178.514V186.473" stroke="#151515" stroke-width="2" stroke-linecap="round" stroke-linejoin="round"/>
<path d="M49.6234 172.365L65.0899 190.982" stroke="#151515" stroke-width="2" stroke-linecap="round" stroke-linejoin="round"/>
<path d="M59.5693 160.655H36.8936C35.2114 160.655 33.8479 161.979 33.8479 163.612V168.808C33.8479 170.441 35.2114 171.765 36.8936 171.765H59.5693C61.2515 171.765 62.6153 170.441 62.6153 168.808V163.612C62.6153 161.979 61.2515 160.655 59.5693 160.655Z" stroke="#151515" stroke-width="2" stroke-linecap="round" stroke-linejoin="round"/>
<path d="M176.852 186.178H72.4192C69.0548 186.178 66.3271 188.825 66.3271 192.091V248.726C66.3271 251.992 69.0548 254.639 72.4192 254.639H176.852C180.217 254.639 182.944 251.992 182.944 248.726V192.091C182.944 188.825 180.217 186.178 176.852 186.178Z" stroke="#151515" stroke-width="2" stroke-linecap="round" stroke-linejoin="round"/>
<path d="M183.187 196.036L198.944 191.748L199.674 213.227L182.897 209.687" stroke="#151515" stroke-width="2" stroke-linecap="round" stroke-linejoin="round"/>
<path d="M45.9116 199.39L19.3428 188.181L19 251.637L45.2928 240.527L45.9116 199.39Z" stroke="#151515" stroke-width="2" stroke-linecap="round" stroke-linejoin="round"/>
</svg>
