<svg width="200" height="200" viewBox="0 0 200 200" fill="none" xmlns="http://www.w3.org/2000/svg">
<rect width="200" height="200" fill="white"/>
<path d="M100.501 43.0996L100.496 43.0996C78.2501 43.1392 60.2523 61.1323 60.21 83.3784L60.21 83.3841C60.2523 105.635 78.2497 123.628 100.496 123.67L100.502 123.67C122.748 123.628 140.743 105.635 140.783 83.3839L140.783 83.3786C140.743 61.1324 122.747 43.1396 100.501 43.0996ZM61.71 83.3813H61.7095H61.71Z" fill="white" stroke="black" stroke-width="3"/>
<path d="M158.062 86.8697C156.634 84.9555 156.634 81.8197 158.062 79.9029L161.174 75.7152C162.6 73.7987 162.132 71.1586 160.139 69.8456L155.779 66.9705C153.786 65.6623 152.715 62.7136 153.398 60.4255L154.89 55.4256C155.573 53.1378 154.234 50.8164 151.91 50.2676L146.834 49.0554C144.512 48.5043 142.497 46.1038 142.354 43.7226L142.047 38.5071C141.906 36.1285 139.853 34.4033 137.484 34.6742L132.297 35.2753C129.925 35.5532 127.211 33.9864 126.265 31.7969L124.195 27.0054C123.246 24.8159 120.723 23.8961 118.591 24.9668L113.924 27.3024C111.792 28.3757 108.704 27.8295 107.066 26.095L103.479 22.3009C101.84 20.5664 99.1567 20.5664 97.5208 22.3009L93.9322 26.0957C92.2959 27.8302 89.2079 28.3763 87.0756 27.3031L82.4088 24.9674C80.2742 23.8967 77.7538 24.8165 76.8075 27.0061L74.7352 31.7975C73.789 33.9871 71.0746 35.5539 68.7028 35.2759L63.5183 34.6748C61.1465 34.4043 59.0911 36.1291 58.9472 38.5077L58.6454 43.7232C58.5042 46.1044 56.4891 48.505 54.1655 49.056L49.0867 50.2683C46.7627 50.8167 45.426 53.1381 46.1063 55.4262L47.6013 60.4261C48.282 62.7139 47.2132 65.663 45.2176 66.9712L40.8598 69.8462C38.8668 71.159 38.4017 73.7993 39.825 75.7158L42.9391 79.9036C44.3624 81.82 44.3624 84.9562 42.9391 86.8704L39.825 91.0581C38.4017 92.9772 38.8668 95.6147 40.8598 96.9277L45.2176 99.8047C47.2132 101.115 48.282 104.062 47.6013 106.35L46.1063 111.35C45.426 113.635 46.763 115.959 49.0867 116.512L54.1655 117.717C56.4891 118.271 58.5042 120.671 58.6454 123.055L58.9472 128.266C59.0911 130.647 61.1465 132.372 63.5183 132.101L68.7028 131.493C71.0746 131.219 73.7887 132.788 74.7327 134.978L76.8072 139.77C77.7534 141.962 80.2739 142.879 82.4085 141.806L87.0752 139.47C89.2076 138.401 92.2956 138.943 93.9318 140.68L97.5204 144.475C99.1564 146.209 101.84 146.209 103.479 144.475L107.065 140.68C108.704 138.943 111.791 138.401 113.924 139.47L118.59 141.806C120.723 142.879 123.246 141.962 124.192 139.77L126.264 134.978C127.21 132.788 129.924 131.22 132.296 131.493L137.483 132.101C139.852 132.372 141.905 130.647 142.047 128.266L142.353 123.055C142.497 120.671 144.512 118.271 146.833 117.717L151.91 116.512C154.233 115.959 155.573 113.635 154.89 111.35L153.397 106.35C152.715 104.062 153.785 101.115 155.779 99.8047L160.139 96.9277C162.132 95.615 162.599 92.9772 161.173 91.0581L158.062 86.8697ZM100.499 127.956C75.8806 127.953 55.9291 108.005 55.9291 83.3816C55.9291 58.7682 75.8803 38.817 100.499 38.8122C125.114 38.817 145.068 58.7682 145.068 83.3816C145.068 108.005 125.114 127.953 100.499 127.956Z" fill="#151515"/>
<path d="M89.8329 144.757C89.7656 144.733 89.6506 144.706 89.543 144.706L84.9935 146.983C83.6162 147.672 82.0733 148.041 80.5401 148.041C76.6135 148.041 73.0608 145.694 71.4963 142.062L69.4214 137.276C69.4311 137.302 69.4214 137.311 69.402 137.311C69.3688 137.311 69.2896 137.28 69.2275 137.254L66.4317 137.582L50.3589 160.424L71.4962 156.769L76.5055 177.626L95.5994 150.188C94.7678 149.714 93.9822 149.153 93.3161 148.449L89.8329 144.757Z" fill="#71B82B"/>
<path d="M131.781 137.253C131.695 137.286 131.582 137.346 131.518 137.406L129.503 142.066C127.939 145.693 124.388 148.04 120.457 148.04C118.926 148.04 117.381 147.671 115.999 146.977L111.466 144.708C111.327 144.715 111.226 144.739 111.164 144.756L107.685 148.448C106.895 149.281 105.951 149.928 104.945 150.443L124.494 178.474L129.503 157.617L150.641 161.273L133.89 137.5L131.781 137.253Z" fill="#71B82B"/>
<path d="M127.57 86.4081C128.374 85.4911 128.903 84.3215 128.903 83.031C128.903 79.7076 126.2 77.0042 122.878 77.0042H115.184C113.494 76.9261 113.082 76.6061 113.066 76.5924L113.052 76.574C113.098 76.1269 113.872 75.034 114.252 74.5013C114.797 73.7358 115.311 73.0118 115.605 72.2081L115.735 71.856C116.487 69.8338 117.888 66.0695 116.369 61.7434C115.449 59.1196 113.402 57.4878 111.03 57.4878C108.266 57.4878 105.969 59.6983 105.444 62.8656C105.268 63.931 102.931 67.9479 98.4723 73.191C97.2384 74.6423 95.8469 75.8485 94.3743 77.1252C93.2109 78.1324 92.0077 79.1734 90.7325 80.4486C87.3876 83.7919 85.7955 89.4605 86.6758 94.8857C87.4367 99.5823 89.8875 103.183 93.5768 105.027C96.5987 106.538 102.466 107.383 106.941 107.549C108.813 107.617 110.224 107.65 111.382 107.65C113.595 107.65 114.696 107.526 116.089 107.368L116.559 107.316L116.639 107.307L118.9 106.979L118.943 106.973C121.871 106.495 123.996 104 123.996 101.039L123.991 100.827C125.701 99.7658 126.814 97.8798 126.814 95.729C126.814 95.0003 126.702 94.3666 126.509 93.817C127.677 92.7179 128.405 91.1611 128.405 89.4466C128.404 88.3521 128.103 87.3081 127.57 86.4081ZM123.036 86.806H124.799C125.52 87.4581 125.976 88.395 125.976 89.4467C125.976 90.5687 125.451 91.5577 124.643 92.2128H122.28C121.833 92.2128 121.471 92.5741 121.471 93.0211C121.471 93.468 121.833 93.8309 122.28 93.8309H123.755C124.245 94.3805 124.386 95.0295 124.386 95.7291C124.386 96.8451 123.867 97.8309 123.066 98.4846H120.793C120.345 98.4846 119.983 98.8474 119.983 99.2944C119.983 99.7415 120.345 100.103 120.793 100.103H121.433C121.519 100.401 121.568 100.713 121.568 101.04C121.568 102.828 120.262 104.297 118.552 104.576L116.291 104.903C114.653 105.084 113.692 105.222 111.382 105.222C110.298 105.222 108.917 105.191 107.031 105.121C102.756 104.963 97.2707 104.159 94.6622 102.855C87.3603 99.2042 87.3556 87.2592 92.4502 82.1647C95.3266 79.2883 97.9826 77.5171 100.322 74.7647C103.936 70.5136 107.475 65.4666 107.84 63.2622C108.198 61.1006 109.601 59.9158 111.03 59.9158C112.23 59.9158 113.449 60.7532 114.079 62.5488C115.393 66.2933 113.961 69.6273 113.326 71.3725C112.686 73.1207 109.158 75.9589 111.308 78.2658C112.107 79.123 113.677 79.371 115.131 79.4338H122.878C124.867 79.4338 126.476 81.0443 126.476 83.0312C126.476 83.8809 125.995 84.6447 125.358 85.1866H123.036C122.589 85.1866 122.226 85.548 122.226 85.9949C122.226 86.4419 122.589 86.806 123.036 86.806Z" fill="#151515"/>
<path d="M89.7396 80.3989H80.7494C78.8809 80.3989 77.467 82.0884 77.7963 83.9276L81.0523 102.114C81.2567 103.256 82.1012 104.177 83.2209 104.481L87.3638 105.603C87.9704 105.767 88.6134 105.737 89.2018 105.516L91.3407 104.714C92.5115 104.275 93.2871 103.155 93.2871 101.905V84.7339C93.2871 84.3434 93.2109 83.9567 93.0627 83.5955L92.5152 82.2605C92.0533 81.1344 90.9567 80.3989 89.7396 80.3989Z" fill="white"/>
<path d="M73.7705 79.5503H90.2873C91.9441 79.5503 93.2873 80.8934 93.2873 82.5503V102.007C93.2873 103.664 91.9441 105.007 90.2873 105.007H73.7705" stroke="black" stroke-width="3"/>
</svg>
