<svg width="500" height="500" viewBox="0 0 500 500" fill="none" xmlns="http://www.w3.org/2000/svg">
<circle cx="250" cy="250" r="250" fill="white"/>
<mask id="mask0_738_6955" style="mask-type:alpha" maskUnits="userSpaceOnUse" x="0" y="0" width="500" height="500">
<circle cx="250" cy="250" r="250" fill="white"/>
</mask>
<g mask="url(#mask0_738_6955)">
<path d="M256 79.5L283 87.5L299 95L316.5 109.5L330.5 133L345.5 165L349.5 197V223.5L345.5 254L330.5 283.5L310 301.5H304V285.5L299 272.5L304 259.5L310 234H316.5V250.5L313.5 264L319.5 267L325 264L319.5 250.5V234L330.5 223.5V207.5L325 199.5H311.5L307.5 174.5L301 151L287.5 131L280.5 146L269 174.5L251.5 197H237L245 168.5L210 199.5L177.5 203.5L170 199.5L162.5 207.5V226L170 234.5V254L167.5 268L171.5 269H177.5L175.5 264L171.5 254V234.5H180L187.5 271V285.5V292.5L194.5 306.5L175.5 303L162.5 292.5L148 276.5L141.5 259.5L134.5 220.5L138 189L148 158.5L162.5 131L180 105.5L204 91L227.5 79.5H256Z" fill="#9F8F66"/>
<path d="M89.5 412.5L79.5 440.5L89.5 459.5L188.5 506L308.5 502.5L374 482L421.5 440.5L404 401L388.5 376.5L367.5 357.5L346.5 344.5L321.5 338L316.5 329L304.5 322V319L293.5 311.5L282 315V324.5L290 326L288.5 340.5L279 363L248.5 391.5L214 363L206 347V332.5L214 324.5V315H197.5L188.5 324.5L177.5 329L172.5 340.5L156 344.5L130.5 357.5L105.5 384.5L89.5 412.5Z" fill="#9972EC"/>
<path d="M178 264L173.5 255L167.5 265.5L170 270H177L178 264Z" fill="#65AF75"/>
<path d="M313 260.5L318 251L325 260.5L321 266H313V260.5Z" fill="#65AF75"/>
<path d="M178.622 196.794C178.622 196.794 178.23 227.93 182.901 249.637C186.666 267.109 190.78 283.621 215.172 298.081C243.59 314.921 261.194 308.951 274.246 300.657C289.231 291.13 300.984 273.832 306.299 253.762C311.276 234.969 312.291 208.318 311.472 195.582C309.541 165.461 296.27 139.76 296.27 139.76" stroke="black" stroke-width="8.14" stroke-miterlimit="10" stroke-linecap="round" stroke-linejoin="round"/>
<path fill-rule="evenodd" clip-rule="evenodd" d="M216.154 205.295C218.839 205.295 221.01 207.522 221.01 210.272V213.579C221.01 216.329 218.839 218.555 216.154 218.555C213.469 218.555 211.297 216.329 211.297 213.579V210.272C211.297 207.522 213.469 205.295 216.154 205.295Z" fill="black"/>
<path fill-rule="evenodd" clip-rule="evenodd" d="M274.355 204.662C277.029 204.662 279.201 206.889 279.201 209.639V212.956C279.201 215.696 277.029 217.922 274.355 217.922C271.671 217.922 269.499 215.696 269.499 212.956V209.639C269.499 206.889 271.671 204.662 274.355 204.662Z" fill="black"/>
<path d="M226.434 265.167C237.49 272.304 253.849 275.96 265.352 263.781" stroke="black" stroke-width="6.98" stroke-miterlimit="10" stroke-linecap="round" stroke-linejoin="round"/>
<path d="M245.249 225.573C245.249 225.573 238.974 238.036 238.974 242.63C238.974 247.236 246.079 248.109 246.079 248.109" stroke="black" stroke-width="6.98" stroke-miterlimit="10" stroke-linecap="round" stroke-linejoin="round"/>
<path fill-rule="evenodd" clip-rule="evenodd" d="M298.092 199.642C296.793 201.727 293.694 193.214 286.676 195.178C265.177 201.214 259.218 202.709 258.531 198.856C257.559 193.356 278.72 188.139 287.91 189.973C291.828 190.758 299.958 196.674 298.092 199.642Z" fill="black"/>
<path fill-rule="evenodd" clip-rule="evenodd" d="M210.555 197.656C209.246 198.725 205.59 196.957 212.574 198.9C229.381 203.582 229.894 201.497 229.959 198.649C230.025 195.233 222.233 193.694 215.706 192.908C211.756 192.428 212.738 195.877 210.555 197.656Z" fill="black"/>
<path d="M163.965 343.318C155.857 344.726 142.575 345.588 119.755 368.364C81.7324 406.299 78 455.006 78 455.006" stroke="black" stroke-width="8.14" stroke-miterlimit="10" stroke-linecap="round" stroke-linejoin="round"/>
<path d="M330.898 340.317C339.018 341.725 357.025 344.737 379.845 367.513C417.868 405.448 421.6 454.155 421.6 454.155" stroke="black" stroke-width="8.14" stroke-miterlimit="10" stroke-linecap="round" stroke-linejoin="round"/>
<path d="M213.218 298.223C213.218 298.223 214.484 316.209 214.386 326.609" stroke="black" stroke-width="8.14" stroke-miterlimit="10" stroke-linecap="round" stroke-linejoin="round"/>
<path d="M280.543 296.499C280.543 296.499 281.307 313.906 281.995 322.484" stroke="black" stroke-width="8.14" stroke-miterlimit="10" stroke-linecap="round" stroke-linejoin="round"/>
<path d="M304.226 282.672C309.759 304.794 298.005 305.492 298.005 305.492C341.877 292.101 349.244 245.457 350.706 220.083C353.609 169.881 330.211 96.1279 270.416 82.8899C206.386 68.7024 173.559 109.792 156.479 140.055C139.399 170.307 134.39 207.816 136.223 227.886C138.046 247.956 143.175 273.308 158.476 289.187C177.957 309.388 195.844 305.165 196.008 305.492C196.499 306.463 184.756 296.51 185.847 284.833" stroke="black" stroke-width="8.14" stroke-miterlimit="10" stroke-linecap="round" stroke-linejoin="round"/>
<path d="M287.975 128.148C287.975 128.148 270.972 179.158 251.742 198.038C251.742 198.038 237.424 198.736 236.376 198.038C236.376 198.038 244.005 177.968 246.559 164.457C246.559 164.457 214.604 199.206 206.91 200.603C203.199 201.279 187.833 201.781 187.833 201.781" stroke="black" stroke-width="8.14" stroke-miterlimit="10" stroke-linecap="round" stroke-linejoin="round"/>
<path d="M177.673 200.21C177.673 200.21 161.073 193.945 161.39 215.871C161.706 237.807 178.197 234.325 178.197 234.325" stroke="black" stroke-width="8.14" stroke-miterlimit="10" stroke-linecap="round" stroke-linejoin="round"/>
<path d="M313.862 199.118C313.862 199.118 331.28 192.843 330.953 214.779C330.625 236.704 313.327 233.223 313.327 233.223" stroke="black" stroke-width="8.14" stroke-miterlimit="10" stroke-linecap="round" stroke-linejoin="round"/>
<path d="M172.38 238.265C172.38 238.265 173.046 254.362 173.144 254.897C173.34 255.846 184.538 270.874 173.93 270.874C163.769 270.874 166.53 264.632 172.489 254.297" stroke="black" stroke-width="6.98" stroke-miterlimit="10" stroke-linecap="round" stroke-linejoin="round"/>
<path d="M318.326 233.594C318.326 233.594 318.981 249.691 319.09 250.226C319.275 251.176 330.473 266.203 319.865 266.203C309.704 266.203 312.465 259.961 318.424 249.626" stroke="black" stroke-width="6.98" stroke-miterlimit="10" stroke-linecap="round" stroke-linejoin="round"/>
<path d="M205.95 331.815C205.95 331.815 191.959 350.816 247.934 391.294C247.934 391.294 294.414 358.313 289.416 327.319" stroke="black" stroke-width="8.14" stroke-miterlimit="10" stroke-linecap="round" stroke-linejoin="round"/>
<path d="M212.945 315.827C193.956 310.327 188.957 324.82 188.957 324.82C188.957 324.82 158.476 328.825 181.962 361.805C181.962 361.805 192.962 380.795 225.441 394.797" stroke="black" stroke-width="8.14" stroke-miterlimit="10" stroke-linecap="round" stroke-linejoin="round"/>
<path d="M282.759 314.103C300.679 308.602 305.404 323.095 305.404 323.095C305.404 323.095 334.172 327.09 312.007 360.081C312.007 360.081 301.628 379.071 270.972 393.062" stroke="black" stroke-width="8.14" stroke-miterlimit="10" stroke-linecap="round" stroke-linejoin="round"/>
<path d="M230.942 405.787C230.942 405.787 221.709 423.958 218.686 442.107" stroke="black" stroke-width="8.14" stroke-miterlimit="10" stroke-linecap="round" stroke-linejoin="round"/>
<path d="M265.243 407.085C265.243 407.085 274.563 425.256 277.619 443.406" stroke="black" stroke-width="8.14" stroke-miterlimit="10" stroke-linecap="round" stroke-linejoin="round"/>
<path fill-rule="evenodd" clip-rule="evenodd" d="M217.54 431.586C217.911 429.993 219.766 429.054 221.687 429.502C223.608 429.938 224.874 431.597 224.503 433.18C224.143 434.773 222.287 435.712 220.366 435.264C218.435 434.828 217.18 433.18 217.54 431.586Z" stroke="black" stroke-width="8.14" stroke-miterlimit="10" stroke-linecap="round" stroke-linejoin="round"/>
<path fill-rule="evenodd" clip-rule="evenodd" d="M278.764 432.874C278.393 431.292 276.527 430.353 274.585 430.8C272.642 431.237 271.365 432.885 271.736 434.478C272.107 436.072 273.984 436.999 275.927 436.563C277.859 436.115 279.136 434.467 278.764 432.874Z" stroke="black" stroke-width="8.14" stroke-miterlimit="10" stroke-linecap="round" stroke-linejoin="round"/>
</g>
</svg>
