<svg width="500" height="500" viewBox="0 0 500 500" fill="none" xmlns="http://www.w3.org/2000/svg">
<circle cx="250" cy="250" r="250" fill="white"/>
<mask id="mask0_654_7564" style="mask-type:alpha" maskUnits="userSpaceOnUse" x="0" y="0" width="500" height="500">
<circle cx="250" cy="250" r="250" fill="white"/>
</mask>
<g mask="url(#mask0_654_7564)">
<path d="M174.84 163.009C174.84 163.009 169.304 209.25 173.305 241.128C176.48 266.563 191.436 297.929 217.429 313.339C247.714 331.284 271.87 320.247 283.255 310.117C296.386 298.452 312.389 271.575 316.041 239.848C319.088 213.39 314.412 169.149 314.412 169.149" stroke="black" stroke-width="8.14105" stroke-miterlimit="10" stroke-linecap="round" stroke-linejoin="round"/>
<path fill-rule="evenodd" clip-rule="evenodd" d="M217.222 209.756C220.071 209.756 222.397 212.128 222.397 215.059V218.583C222.397 221.514 220.071 223.886 217.222 223.886C214.361 223.886 212.046 221.514 212.046 218.583V215.059C212.046 212.128 214.361 209.756 217.222 209.756Z" fill="black"/>
<path fill-rule="evenodd" clip-rule="evenodd" d="M273.143 208.226C276.004 208.226 278.319 210.599 278.319 213.518V217.053C278.319 219.973 276.004 222.345 273.143 222.345C270.294 222.345 267.968 219.973 267.968 217.053V213.518C267.968 210.599 270.294 208.226 273.143 208.226Z" fill="black"/>
<path d="M227.774 273.057C237.73 281.931 254.721 284.117 266.979 271.138" stroke="black" stroke-width="6.97804" stroke-miterlimit="10" stroke-linecap="round" stroke-linejoin="round"/>
<path d="M245.837 227.668C245.837 227.668 241.755 233.646 241.755 238.542C241.755 243.45 247.163 243.787 247.163 243.787" stroke="black" stroke-width="6.97804" stroke-miterlimit="10" stroke-linecap="round" stroke-linejoin="round"/>
<path d="M157.892 196.212C157.892 196.212 150.937 204.202 153.019 221.752C156.159 248.164 174.837 248.141 174.837 248.141" stroke="black" stroke-width="8.14105" stroke-miterlimit="10" stroke-linecap="round" stroke-linejoin="round"/>
<path d="M328.901 194.465C328.901 194.465 335.88 197.081 335.065 214.771C333.891 240.043 316.899 246.265 316.899 246.265" stroke="black" stroke-width="8.14105" stroke-miterlimit="10" stroke-linecap="round" stroke-linejoin="round"/>
<path fill-rule="evenodd" clip-rule="evenodd" d="M174.917 181.331C175.185 181.331 180.395 116.784 216.867 109.119C216.867 109.119 230.207 119.11 245.302 118.598C260.41 118.098 270.47 108.026 270.47 108.026C270.47 108.026 302.232 110.375 313.559 179.109L327.818 168.875C327.818 168.875 334.028 160.873 314.606 130.274C291.113 93.2675 259.933 92.5465 259.933 92.5465C259.933 92.5465 250.199 77.6832 230.939 80.3116C230.939 80.3116 235.463 83.2308 238.278 94.291C238.278 94.291 228.544 84.8242 222.426 85.3592L225.613 98.129C225.613 98.129 222.426 89.6156 214.704 90.4181C214.704 90.4181 218.169 92.5465 217.634 97.8615C217.634 97.8615 182.732 102.816 165.485 144.952C153.518 174.225 159.24 170.386 159.24 170.386C159.24 170.386 171.417 181.331 174.917 181.331Z" fill="black" stroke="black" stroke-width="3.48902" stroke-miterlimit="10" stroke-linecap="round" stroke-linejoin="round"/>
<path d="M160.416 163.446C160.416 163.446 154.147 188.927 156.764 201.104C157.857 206.221 169.185 215.362 169.917 215.362" stroke="black" stroke-width="8.14105" stroke-miterlimit="10" stroke-linecap="round" stroke-linejoin="round"/>
<path d="M322.613 151.868C329.905 167.673 330.405 186.7 330.707 194.097C330.859 197.818 321.415 210.565 318.647 214.566" stroke="black" stroke-width="8.14105" stroke-miterlimit="10" stroke-linecap="round" stroke-linejoin="round"/>
<path fill-rule="evenodd" clip-rule="evenodd" d="M259.94 196.017C262.417 192.551 280.56 182.154 283.211 182.689C287.142 183.479 302.064 195.68 299.714 197.366C299.377 197.61 284.595 196.017 284.595 196.017C284.595 196.017 268.139 202.657 264.196 202.669C261.614 202.681 257.59 199.308 259.94 196.017Z" fill="black"/>
<path fill-rule="evenodd" clip-rule="evenodd" d="M229.57 196.899C227.43 194.69 209.101 183.036 206.461 183.56C202.577 184.35 189.016 196.923 191.342 198.609C191.68 198.853 204.089 197.12 204.089 197.12C204.089 197.12 222.255 203.308 225.337 203.552C228.698 203.808 231.466 198.865 229.57 196.899Z" fill="black"/>
<path d="M187.034 348.467C178.381 349.979 135.815 359.004 111.497 383.276C70.9775 423.714 67 475.618 67 475.618" stroke="black" stroke-width="8.14105" stroke-miterlimit="10" stroke-linecap="round" stroke-linejoin="round"/>
<path d="M313.404 345.191C322.057 346.691 365.158 358.088 389.476 382.36C429.996 422.798 433.973 474.703 433.973 474.703" stroke="black" stroke-width="8.14105" stroke-miterlimit="10" stroke-linecap="round" stroke-linejoin="round"/>
<path d="M211.249 309.366C211.249 309.366 212.796 331.742 211.401 337.138C209.098 345.989 201.561 348.943 201.561 348.943" stroke="black" stroke-width="8.14105" stroke-miterlimit="10" stroke-linecap="round" stroke-linejoin="round"/>
<path d="M285.7 307.837C285.7 307.837 284.596 327.526 286.968 336.296C288.573 342.227 299.424 347.775 299.424 347.775" stroke="black" stroke-width="8.14105" stroke-miterlimit="10" stroke-linecap="round" stroke-linejoin="round"/>
<path d="M191.076 360.526C191.076 360.526 206.113 389.613 250.796 391.265C295.479 392.916 312.587 359.608 312.587 359.608" stroke="black" stroke-width="8.14105" stroke-miterlimit="10" stroke-linecap="round" stroke-linejoin="round"/>
<path fill-rule="evenodd" clip-rule="evenodd" d="M224.352 260.981C224.655 260.342 232.831 255.969 234.505 255.725C236.168 255.469 237.273 257.69 240.728 257.865C240.728 257.865 243.798 256.481 246.473 255.376L252.974 257.679C252.974 257.679 256.044 254.794 259.103 253.934C262.162 253.085 278.048 262.784 273.245 262.319C268.454 261.842 260.999 258.725 259.103 260.377C255.312 263.668 254.695 263.598 248.113 261.272C245.484 260.342 244.658 265.413 240.379 263.819C236.087 262.226 235.61 260.691 232.098 261.423C228.574 262.156 223.62 262.505 224.352 260.981Z" stroke="black" stroke-width="3.48902" stroke-miterlimit="10" stroke-linecap="round" stroke-linejoin="round"/>
<path fill-rule="evenodd" clip-rule="evenodd" d="M210.299 308.292L211.311 298.662C211.311 298.662 215.358 304.245 218.149 305.501L221.697 298.662C221.697 298.662 222.208 307.024 226 308.804L229.303 300.942L234.617 309.815C234.617 309.815 238.165 305.756 239.688 301.453C239.688 301.453 240.444 306.768 243.491 310.071C246.527 313.363 248.55 301.953 248.55 301.953C248.55 301.953 253.121 305.757 254.377 310.571C254.377 310.571 258.692 304.489 259.192 300.442C259.192 300.442 265.53 304.745 266.542 308.804L271.613 300.697C275.672 307.792 275.416 305.501 276.172 306.524C276.8 307.35 279.463 299.174 279.463 299.174C279.463 299.174 285.29 301.709 285.801 306.524C286.313 311.339 262.739 325.528 245.003 322.481C227.267 319.445 210.299 308.292 210.299 308.292Z" stroke="black" stroke-width="3.48902" stroke-miterlimit="10" stroke-linecap="round" stroke-linejoin="round"/>
</g>
</svg>
