<svg width="500" height="500" viewBox="0 0 500 500" fill="none" xmlns="http://www.w3.org/2000/svg">
<circle cx="250" cy="250" r="250" fill="white"/>
<mask id="mask0_654_7546" style="mask-type:alpha" maskUnits="userSpaceOnUse" x="0" y="0" width="500" height="500">
<circle cx="250" cy="250" r="250" fill="white"/>
</mask>
<g mask="url(#mask0_654_7546)">
<path d="M178.669 219.375C178.669 219.375 177.855 234.192 181.844 266.07C185.03 291.505 192.439 310.276 218.42 325.674C248.717 343.619 278.187 335.839 291.736 322.092C306.658 306.973 316.985 294.319 320.346 272.432C324.405 246.113 322.509 218.561 322.509 218.561" stroke="black" stroke-width="7" stroke-miterlimit="10" stroke-linecap="round" stroke-linejoin="round"/>
<path fill-rule="evenodd" clip-rule="evenodd" d="M216.979 227.517C219.84 227.517 222.155 229.89 222.155 232.821V236.345C222.155 239.275 219.84 241.648 216.979 241.648C214.13 241.648 211.804 239.275 211.804 236.345V232.821C211.804 229.89 214.13 227.517 216.979 227.517Z" fill="black"/>
<path fill-rule="evenodd" clip-rule="evenodd" d="M278.143 228.517C280.993 228.517 283.319 230.89 283.319 233.821V237.345C283.319 240.276 280.993 242.648 278.143 242.648C275.282 242.648 272.968 240.276 272.968 237.345V233.821C272.968 230.89 275.282 228.517 278.143 228.517Z" fill="black"/>
<path d="M232.774 291.175C242.73 300.037 259.721 302.224 271.979 289.245" stroke="black" stroke-width="7" stroke-miterlimit="10" stroke-linecap="round" stroke-linejoin="round"/>
<path d="M249.089 254.949C249.089 254.949 245.007 260.915 245.007 265.823C245.007 270.719 250.415 271.056 250.415 271.056" stroke="black" stroke-width="7" stroke-miterlimit="10" stroke-linecap="round" stroke-linejoin="round"/>
<path fill-rule="evenodd" clip-rule="evenodd" d="M235.988 208.816C236.058 202.245 197.086 198.466 193.213 201.28C188.328 204.839 191.747 208.781 196.434 209.468C214.356 212.096 235.93 214.806 235.988 208.816Z" fill="black"/>
<path fill-rule="evenodd" clip-rule="evenodd" d="M259.054 209.41C257.065 202.56 300.411 192.279 303.458 199.559C306.005 205.63 298.143 207.003 293.165 208.852C288.42 210.62 260.95 215.911 259.054 209.41Z" fill="black"/>
<path d="M162.689 221.309C162.689 221.309 158.106 225.891 159.723 240.44C162.281 263.514 181.541 266.841 181.541 266.841" stroke="black" stroke-width="7" stroke-miterlimit="10" stroke-linecap="round" stroke-linejoin="round"/>
<path d="M323.67 220.587C323.67 220.587 342.057 214.725 340.883 239.997C339.859 261.92 323.647 266.13 323.647 266.13" stroke="black" stroke-width="7" stroke-miterlimit="10" stroke-linecap="round" stroke-linejoin="round"/>
<path fill-rule="evenodd" clip-rule="evenodd" d="M196.171 230.524C196.171 230.524 195.927 224.162 201.975 221.44C208.022 218.719 231.038 220.684 231.038 220.684C231.038 220.684 240.098 221.068 240.098 229.558C240.098 240.77 240.179 243.282 239.342 247.48C238.842 249.934 236.121 252.469 228.747 252.877C223.304 253.179 204.615 252.958 204.615 252.958C204.615 252.958 198.253 251.969 196.962 247.352C195.671 242.735 196.171 230.524 196.171 230.524Z" stroke="black" stroke-width="7" stroke-miterlimit="10" stroke-linecap="round" stroke-linejoin="round"/>
<path fill-rule="evenodd" clip-rule="evenodd" d="M257.335 230.256C257.335 230.256 257.149 223.825 263.197 221.103C269.244 218.382 293.319 220.091 293.319 220.091C293.319 220.091 300.588 221.615 300.622 228.523C300.704 239.735 301.041 240.805 300.204 245.003C299.715 247.457 297.285 252.202 289.923 252.609C284.468 252.911 266.895 252.69 266.895 252.69C266.895 252.69 259.417 251.702 258.126 247.085C256.835 242.468 257.335 230.256 257.335 230.256Z" stroke="black" stroke-width="7" stroke-miterlimit="10" stroke-linecap="round" stroke-linejoin="round"/>
<path d="M241.512 229.024C241.512 229.024 251.502 227.698 256.759 229.338" stroke="black" stroke-width="7" stroke-miterlimit="10" stroke-linecap="round" stroke-linejoin="round"/>
<path d="M302.676 226.1C302.676 226.1 318.737 225.042 322.157 226.275" stroke="black" stroke-width="7" stroke-miterlimit="10" stroke-linecap="round" stroke-linejoin="round"/>
<path d="M195.165 228.764C195.165 228.764 186.465 227.31 180.348 229.543" stroke="black" stroke-width="7" stroke-miterlimit="10" stroke-linecap="round" stroke-linejoin="round"/>
<path fill-rule="evenodd" clip-rule="evenodd" d="M289.344 279.196C290.682 279.196 291.752 280.266 291.752 281.592C291.752 282.93 290.682 284 289.344 284C288.018 284 286.948 282.93 286.948 281.592C286.948 280.266 288.018 279.196 289.344 279.196Z" fill="black"/>
<path fill-rule="evenodd" clip-rule="evenodd" d="M192.175 109.581C192.175 109.581 160.227 116.524 148.539 153.461C141.945 174.29 145.562 192.201 145.562 192.201C145.562 192.201 141.282 207.413 133.164 214.158C133.164 214.158 146.387 211.751 149.783 208.552C149.783 208.552 146.446 227.207 155.657 237.034C155.657 237.034 160.599 228.184 166.403 228.324C175.928 228.556 181.324 222.229 183.464 218.985C187.884 212.309 187.186 209.285 190.779 187.63C193.757 169.72 210.12 162.59 210.12 162.59C210.12 162.59 229.705 187.002 264.084 203.738C279.691 211.344 298.346 217.368 319.594 218.799C319.594 218.799 326.863 222.52 326.898 222.73C326.921 222.927 342.563 215.426 344.064 243.547C344.075 243.652 351.868 232.615 354.159 227.661C363.172 208.122 364.463 180.547 344.064 155.752C344.064 155.752 342.098 140.633 329.526 123.362C320.49 110.964 299.765 94.8336 290.03 91.2748C232.241 70.1197 192.129 109.208 192.175 109.581Z" fill="black" stroke="black" stroke-width="7" stroke-miterlimit="10" stroke-linecap="round" stroke-linejoin="round"/>
<path fill-rule="evenodd" clip-rule="evenodd" d="M225.391 331.452C225.391 331.452 219.866 325.381 220.611 319.275C220.611 319.275 228.217 325.055 232.578 327.544C232.578 327.544 235.288 325.718 237.405 321.485C237.405 321.485 241.94 324.276 246.802 328.637C246.802 328.637 250.233 324.73 253.082 321.892C253.082 321.892 256.013 326.451 258.99 328.951C258.99 328.951 264.375 327.998 267.119 321.892C267.119 321.892 271.481 325.195 271.795 328.323C272.109 331.452 275.935 324.241 278.052 319.263C278.052 319.263 281.89 320.961 282.262 324.578C282.262 324.578 288.228 318.147 289.298 316.914C290.391 315.67 292.578 322.694 286.949 327.23C260.851 348.257 225.391 331.452 225.391 331.452Z" fill="black" stroke="black" stroke-width="7" stroke-miterlimit="10" stroke-linecap="round" stroke-linejoin="round"/>
<path d="M199.78 365.481C191.127 366.982 140.815 376.926 116.497 401.186C75.9775 441.624 72 493.528 72 493.528" stroke="black" stroke-width="7" stroke-miterlimit="10" stroke-linecap="round" stroke-linejoin="round"/>
<path d="M309.667 364.608C318.319 366.108 368.631 376.052 392.949 400.312C433.469 440.75 437.446 492.655 437.446 492.655" stroke="black" stroke-width="7" stroke-miterlimit="10" stroke-linecap="round" stroke-linejoin="round"/>
<path d="M215.299 326.38C215.299 326.38 216.648 345.547 216.543 356.63" stroke="black" stroke-width="7" stroke-miterlimit="10" stroke-linecap="round" stroke-linejoin="round"/>
<path d="M288.714 326.599C288.714 326.599 288.54 343.171 289.272 352.313" stroke="black" stroke-width="7" stroke-miterlimit="10" stroke-linecap="round" stroke-linejoin="round"/>
<path d="M201.319 369.414L236.139 500.647" stroke="black" stroke-width="7" stroke-miterlimit="10" stroke-linecap="round" stroke-linejoin="round"/>
<path d="M309.897 365.7L281.706 502.237" stroke="black" stroke-width="7" stroke-miterlimit="10" stroke-linecap="round" stroke-linejoin="round"/>
<path d="M298.318 412.604L271.22 382.947L290.364 353.686L309.018 363.199" stroke="black" stroke-width="7" stroke-miterlimit="10" stroke-linecap="round" stroke-linejoin="round"/>
<path d="M199.571 364.962L216.551 356.089L239.288 381.779L214.76 411.436" stroke="black" stroke-width="7" stroke-miterlimit="10" stroke-linecap="round" stroke-linejoin="round"/>
<path d="M180.513 379.899L168.115 433.909L196.423 434.304L168.929 456.774L192.434 500.642" stroke="black" stroke-width="7" stroke-miterlimit="10" stroke-linecap="round" stroke-linejoin="round"/>
<path d="M329.891 379.244L346.359 429.776L309.667 433.917L342.742 458.724L320.517 504.72" stroke="black" stroke-width="7" stroke-miterlimit="10" stroke-linecap="round" stroke-linejoin="round"/>
<path d="M271.291 383.613C271.291 383.613 254.45 425.353 255.543 419.491C256.637 413.63 258.102 501.506 258.102 501.506" stroke="black" stroke-width="7" stroke-miterlimit="10" stroke-linecap="round" stroke-linejoin="round"/>
<path d="M239.765 382.957C239.765 382.957 248.394 397.634 250.069 405.019" stroke="black" stroke-width="7" stroke-miterlimit="10" stroke-linecap="round" stroke-linejoin="round"/>
</g>
</svg>
