<svg width="500" height="500" viewBox="0 0 500 500" fill="none" xmlns="http://www.w3.org/2000/svg">
<circle cx="250" cy="250" r="250" fill="white"/>
<mask id="mask0_654_7549" style="mask-type:alpha" maskUnits="userSpaceOnUse" x="0" y="0" width="500" height="500">
<circle cx="250" cy="250" r="250" fill="white"/>
</mask>
<g mask="url(#mask0_654_7549)">
<path d="M192.5 363.5C187.3 358.3 178.167 349 177.5 345L144.5 358L120.5 369L103 386L88 401L76 420.5L68.5 438L120.5 484L200 514.5L325 507L408.5 479L433 438L420 414.5L412 405L396.5 386L375 372L357 360.5L330.5 350H313C307.5 382 293.5 378 285.5 381.5C277.5 385 247 388.5 229.5 386C212 383.5 199 370 192.5 363.5Z" fill="#FF6868"/>
<path fill-rule="evenodd" clip-rule="evenodd" d="M216.445 219.954C219.306 219.954 221.62 222.327 221.62 225.246V228.781C221.62 231.701 219.306 234.073 216.445 234.073C213.584 234.073 211.27 231.701 211.27 228.781V225.246C211.27 222.327 213.584 219.954 216.445 219.954Z" fill="black"/>
<path fill-rule="evenodd" clip-rule="evenodd" d="M274.114 218.644C276.975 218.644 279.29 221.016 279.29 223.947V227.483C279.29 230.402 276.975 232.774 274.114 232.774C271.265 232.774 268.939 230.402 268.939 227.483V223.947C268.939 221.016 271.265 218.644 274.114 218.644Z" fill="black"/>
<path d="M228.745 281.52C235.584 287.614 242.503 287.312 249.679 287.312C256.646 287.312 264.112 283.648 267.95 279.589" stroke="black" stroke-width="6.97804" stroke-miterlimit="10" stroke-linecap="round" stroke-linejoin="round"/>
<path d="M245.42 242.454C245.42 242.454 240.978 245.338 240.978 250.234C240.978 255.142 248.409 254.561 248.409 254.561" stroke="black" stroke-width="6.97804" stroke-miterlimit="10" stroke-linecap="round" stroke-linejoin="round"/>
<path d="M161.262 210.164C161.262 210.164 145.561 206.245 146.666 228.958C147.585 247.776 158.773 248.683 158.773 248.683" stroke="black" stroke-width="8.14105" stroke-miterlimit="10" stroke-linecap="round" stroke-linejoin="round"/>
<path d="M331.85 207.125C331.85 207.125 347.074 200.53 348.819 222.418C350.377 241.794 338.317 250.865 338.317 250.865" stroke="black" stroke-width="8.14105" stroke-miterlimit="10" stroke-linecap="round" stroke-linejoin="round"/>
<path d="M189.914 142.326C189.914 142.326 165.526 154.793 163.037 179.251C160.56 203.697 166.758 216.467 164.27 227.492C161.781 238.518 148.662 269.71 175.26 301.041C194.578 323.801 228.991 329.5 253.972 330.081C276.977 330.616 312.949 315.102 329.37 286.817C345.792 258.533 334.371 232.307 332.382 222.247C330.394 212.176 338.046 181.472 323.613 156.061C309.192 130.66 292.282 126.625 270.382 122.31" stroke="black" stroke-width="8.14105" stroke-miterlimit="10" stroke-linecap="round" stroke-linejoin="round"/>
<path fill-rule="evenodd" clip-rule="evenodd" d="M270.309 123.825C270.309 123.825 258.307 140.758 275.333 151.341C275.333 151.341 260.366 152.737 253.12 143.433C253.12 143.433 261.063 161.68 231.918 169.507C231.918 169.507 238.734 164.983 236.722 158.354C236.722 158.354 219.684 179.416 202.75 184.394C202.75 184.394 212.31 176.206 198.447 168.496C198.447 168.496 185.491 181.382 197.9 195.07C197.9 195.07 171.686 181.452 180.153 155.842C180.153 155.842 169.081 159.552 170.012 173.09C170.012 173.09 146.903 152.667 173.07 136.106C173.07 136.106 168.36 129.465 176.106 116.567C183.851 103.681 197.144 105.089 197.144 105.089C197.144 105.089 189.329 88.0506 210.124 82.7007C230.93 77.3509 231.476 84.8522 237.896 86.4339C237.896 86.4339 254.492 63.7204 276.089 85.3175C276.089 85.3175 266.367 82.0842 260.528 93.3305C260.528 93.3305 291.453 85.0964 299.605 112.578C299.605 112.578 293.872 102.879 277.659 107.321C277.659 107.321 293.349 117.533 283.463 137.199C283.463 137.199 280.427 125.802 270.309 123.825Z" fill="black" stroke="black" stroke-width="3.48902" stroke-miterlimit="10" stroke-linecap="round" stroke-linejoin="round"/>
<path fill-rule="evenodd" clip-rule="evenodd" d="M266.443 211.324C266.443 211.324 264.141 209.242 266.525 206.718C268.909 204.183 278.853 199.229 284.738 199.426C290.611 199.612 291.716 200.357 292.437 204.23C293.204 208.37 281.783 211.44 277.306 212.347C272.828 213.243 267.769 213.766 266.443 211.324Z" fill="black"/>
<path fill-rule="evenodd" clip-rule="evenodd" d="M223.679 208.012C223.679 208.012 221.143 205.906 214.7 204.685C208.269 203.464 200.686 201.65 197.232 204.22C193.766 206.79 195.79 210.861 201.837 212.512C207.897 214.164 221.527 214.606 222.667 213.617C223.818 212.629 225.586 211.454 223.679 208.012Z" fill="black"/>
<path fill-rule="evenodd" clip-rule="evenodd" d="M211.134 317.317C211.134 317.317 207.168 313.817 207.854 302.094C208.529 290.37 210.355 284.614 210.355 284.614C210.355 284.614 209.517 303.21 220.31 316.422C220.31 316.422 223.194 313.735 225.113 311.595C225.113 311.595 226.672 316.608 231.056 319.446L235.243 312.828C235.243 312.828 238.767 318.969 240.802 323.19L246.954 315.305C246.954 315.305 249.246 322.365 253.246 321.085C257.235 319.818 260.55 313.596 260.55 313.596C260.55 313.596 266.353 315.608 268.633 319.341C268.633 319.341 273.576 317.027 274.064 308.781C274.099 308.269 279.868 311.642 281.356 314.759C282.845 317.875 288.672 306.711 285.462 284.614C285.462 284.614 290.381 299.267 290.276 305.501C290.056 318.666 287.811 316.445 279.379 320.795C270.959 325.156 253.537 331.541 230.591 326.61C217.891 323.877 211.134 316.736 211.134 317.317Z" fill="black" stroke="black" stroke-width="3.48902" stroke-miterlimit="10" stroke-linecap="round" stroke-linejoin="round"/>
<path fill-rule="evenodd" clip-rule="evenodd" d="M324.207 154.886C314.112 138.441 298.004 127.428 271.023 121.112C242.25 114.379 201.626 124.485 176.726 148.199C151.826 171.913 162.526 207.07 162.526 207.07C162.526 207.07 153.268 198.499 155.78 167.865C158.281 137.22 190.868 119.252 205.522 113.32C238.842 99.7946 265.033 108.017 276.419 109.971C298.004 113.693 315.461 127.997 327.289 148.583C339.233 169.366 332.604 204.756 332.604 204.756C332.604 204.756 334.22 171.226 324.207 154.886Z" fill="black" stroke="black" stroke-width="3.48902" stroke-miterlimit="10" stroke-linecap="round" stroke-linejoin="round"/>
<path fill-rule="evenodd" clip-rule="evenodd" d="M228.81 269.094C229.089 268.396 235.229 264.349 236.765 264.069C238.3 263.79 239.312 266.244 242.487 266.442C242.487 266.442 244.406 263.686 247.767 263.686C247.767 263.686 251.453 264.337 254.268 266.105C254.268 266.105 254.408 263.802 257.21 262.848C260.025 261.906 271.992 269.698 267.573 269.175C263.165 268.663 260.792 265.942 258.757 267.454C255.466 269.931 255.815 270.838 249.767 268.268C247.348 267.244 245.545 272.606 241.614 270.838C237.672 269.082 239.358 268.535 236.125 269.35C232.892 270.164 228.135 270.78 228.81 269.094Z" fill="black" stroke="black" stroke-width="3.48902" stroke-miterlimit="10" stroke-linecap="round" stroke-linejoin="round"/>
<path d="M177.548 345.122C177.548 345.122 134.539 352.345 95.3112 394.387C55.5829 436.953 47 497.046 47 497.046" stroke="black" stroke-width="8.14105" stroke-miterlimit="10" stroke-linecap="round" stroke-linejoin="round"/>
<path d="M323.113 348.181C323.113 348.181 366.121 355.414 405.349 397.457C445.066 440.023 453.66 500.104 453.66 500.104" stroke="black" stroke-width="8.14105" stroke-miterlimit="10" stroke-linecap="round" stroke-linejoin="round"/>
<path d="M198.76 318.472C198.76 318.472 201.214 326.055 201.644 332.149C202.365 342.5 193.794 347.664 193.794 347.664" stroke="black" stroke-width="8.14105" stroke-miterlimit="10" stroke-linecap="round" stroke-linejoin="round"/>
<path d="M298.51 317.161C298.51 317.161 294.509 320.011 295.241 329.152C295.614 333.781 297.614 341.433 306.081 342.282" stroke="black" stroke-width="8.14105" stroke-miterlimit="10" stroke-linecap="round" stroke-linejoin="round"/>
<path d="M186.804 354.236C186.804 354.236 203.586 387.242 248.722 387.242C310.059 387.242 310.653 352.549 310.653 352.549" stroke="black" stroke-width="8.14105" stroke-miterlimit="10" stroke-linecap="round" stroke-linejoin="round"/>
<path fill-rule="evenodd" clip-rule="evenodd" d="M240.978 296.409C240.978 296.409 256.225 296.479 255.981 296.712C248.316 303.946 240.978 296.409 240.978 296.409Z" fill="black" stroke="black" stroke-width="3.48902" stroke-miterlimit="10" stroke-linecap="round" stroke-linejoin="round"/>
</g>
</svg>
