<svg width="500" height="500" viewBox="0 0 500 500" fill="none" xmlns="http://www.w3.org/2000/svg">
<circle cx="250" cy="250" r="250" fill="white"/>
<mask id="mask0_654_7560" style="mask-type:alpha" maskUnits="userSpaceOnUse" x="0" y="0" width="500" height="500">
<circle cx="250" cy="250" r="250" fill="white"/>
</mask>
<g mask="url(#mask0_654_7560)">
<path d="M180.274 152.397C180.274 152.397 158.502 192.533 169.423 239.53C180.274 286.224 199.405 307.472 215.606 323.685C228.446 336.524 260.347 341.909 276.059 325.976C293.353 308.449 311.135 280.968 322.312 240.344C331.058 208.524 319.288 175.169 319.288 175.169" stroke="black" stroke-width="8.14105" stroke-miterlimit="10" stroke-linecap="round" stroke-linejoin="round"/>
<path fill-rule="evenodd" clip-rule="evenodd" d="M215.222 208.756C218.083 208.756 220.397 211.117 220.397 214.047V217.583C220.397 220.502 218.083 222.875 215.222 222.875C212.361 222.875 210.047 220.502 210.047 217.583V214.047C210.047 211.117 212.361 208.756 215.222 208.756Z" fill="black"/>
<path fill-rule="evenodd" clip-rule="evenodd" d="M276.386 209.411C279.247 209.411 281.561 211.783 281.561 214.714V218.238C281.561 221.169 279.247 223.541 276.386 223.541C273.537 223.541 271.211 221.169 271.211 218.238V214.714C271.211 211.783 273.537 209.411 276.386 209.411Z" fill="black"/>
<path d="M229.27 284.905C238.108 291.523 253.181 293.151 264.067 283.463" stroke="black" stroke-width="6.97804" stroke-miterlimit="10" stroke-linecap="round" stroke-linejoin="round"/>
<path d="M245.119 233.221C245.119 233.221 241.502 243.549 241.502 248.887C241.502 254.214 247.097 254.586 247.097 254.586" stroke="black" stroke-width="6.97804" stroke-miterlimit="10" stroke-linecap="round" stroke-linejoin="round"/>
<path d="M165.5 201.984C165.5 201.984 147.88 204.124 148.927 224.523C150.509 255.354 172.362 255.936 172.362 255.936" stroke="black" stroke-width="8.14105" stroke-miterlimit="10" stroke-linecap="round" stroke-linejoin="round"/>
<path d="M324.562 204.944C324.562 204.944 346.345 198.723 342.879 227.844C340.588 247.08 320.142 255.373 320.142 255.373" stroke="black" stroke-width="8.14105" stroke-miterlimit="10" stroke-linecap="round" stroke-linejoin="round"/>
<path fill-rule="evenodd" clip-rule="evenodd" d="M231.681 198.196C229.03 193.346 206.758 188.543 202.885 189.147C200.722 189.485 186.952 199.487 195.151 202.034C197.943 202.906 205.839 202.08 210.596 202.103C219.609 202.138 233.426 201.394 231.681 198.196Z" fill="black"/>
<path fill-rule="evenodd" clip-rule="evenodd" d="M259.234 197.724C262.235 192.827 282.75 186.07 287.251 189.269C291.764 192.467 302.905 200.224 294.38 202.294C291.613 202.969 284.379 201.294 278.913 201.085C267.469 200.655 257.211 201.05 259.234 197.724Z" fill="black"/>
<path fill-rule="evenodd" clip-rule="evenodd" d="M245.038 142.442C239.781 141.895 233.571 138.104 216.556 131.58C204.914 127.102 185.992 145.047 177.735 162.027C171.652 174.564 166.093 203.756 166.093 203.756L161.115 205.349C161.115 205.349 161.115 175.25 168.966 154.305C176.816 133.359 178.084 125.625 191.947 111.053L196.959 116.065C196.959 116.065 197.948 105.435 211.648 92.6886L214.648 98.0269L229.012 84.6756C229.012 84.6756 232.803 85.327 237.025 89.6882C237.025 89.6882 244.375 81.6633 246.713 79C246.713 79 251.376 80.1398 255.063 88.6763L260.401 81.3377C260.401 81.3377 270.089 84.6757 276.427 91.6886C276.427 91.6886 278.125 93.2469 277.428 86.013C277.428 86.013 290.221 94.1426 295.466 105.715L298.804 99.7016C298.804 99.7016 319.505 123.741 325.844 152.13C331.24 176.239 331.345 197.871 327.856 204.547C327.856 204.547 331.345 200.302 323.913 202.279C323.913 202.279 316.679 171.703 306.759 157.736C296.85 143.756 286.86 128.765 274.183 129.033C261.506 129.288 253.505 143.314 245.038 142.442Z" fill="black" stroke="black" stroke-width="3.48902" stroke-miterlimit="10" stroke-linecap="round" stroke-linejoin="round"/>
<path fill-rule="evenodd" clip-rule="evenodd" d="M221.115 327.526C221.115 327.526 212.974 321.862 215.939 312.953C215.939 312.953 218.37 318.687 227.058 322.234L227.453 313.918C227.453 313.918 229.093 319.931 236.071 324.269C236.071 324.269 236.862 320.094 238.571 317.373C238.571 317.373 240.572 325.165 247.003 325.805C247.003 325.805 249.69 318.71 250.457 317.373C250.841 316.71 253.318 324.176 256.075 324.665C258.924 325.188 264.495 318.978 265.006 317.245C265.006 317.245 266.39 319.047 266.065 324.851C266.065 324.851 273.182 323.001 276.078 313.348C276.078 313.348 277.904 319.361 274.043 326.758C270.182 334.166 258.04 336.492 243.549 335.201C229.07 333.91 228.663 332.62 221.115 327.526Z" fill="black" stroke="black" stroke-width="3.48902" stroke-miterlimit="10" stroke-linecap="round" stroke-linejoin="round"/>
<path d="M192.78 358.171C184.127 359.671 133.815 369.615 109.497 393.887C68.9775 434.325 65 486.23 65 486.23" stroke="black" stroke-width="8.14105" stroke-miterlimit="10" stroke-linecap="round" stroke-linejoin="round"/>
<path d="M302.667 357.297C311.319 358.797 361.631 368.741 385.949 393.013C426.469 433.451 430.446 485.356 430.446 485.356" stroke="black" stroke-width="8.14105" stroke-miterlimit="10" stroke-linecap="round" stroke-linejoin="round"/>
<path d="M208.484 319.07C208.484 319.07 209.833 338.236 209.728 349.32C209.659 355.53 194.319 360.508 194.319 360.508" stroke="black" stroke-width="8.14105" stroke-miterlimit="10" stroke-linecap="round" stroke-linejoin="round"/>
<path d="M284.034 313.608C284.034 313.608 281.998 341.532 285.487 350.429C288.988 359.326 301.374 360.908 301.374 360.908" stroke="black" stroke-width="8.14105" stroke-miterlimit="10" stroke-linecap="round" stroke-linejoin="round"/>
<path d="M194.319 362.103L228.5 507.5" stroke="black" stroke-width="8.14105" stroke-miterlimit="10" stroke-linecap="round" stroke-linejoin="round"/>
<path d="M301.975 358.389L272.5 509" stroke="black" stroke-width="8.14105" stroke-miterlimit="10" stroke-linecap="round" stroke-linejoin="round"/>
<path d="M171.582 376.52L161.115 426.634L189.423 427.03L161.929 449.499L185.434 493.368" stroke="black" stroke-width="8.14105" stroke-miterlimit="10" stroke-linecap="round" stroke-linejoin="round"/>
<path d="M327.75 374.773L337.88 420.223L307.909 425.422L344.672 444.995L319.493 492.562" stroke="black" stroke-width="8.14105" stroke-miterlimit="10" stroke-linecap="round" stroke-linejoin="round"/>
<path d="M210.047 368.471C210.047 368.471 218.339 387.928 247.647 387.928C279.571 387.928 288.933 367.564 288.933 367.564" stroke="black" stroke-width="8.14105" stroke-miterlimit="10" stroke-linecap="round" stroke-linejoin="round"/>
<path fill-rule="evenodd" clip-rule="evenodd" d="M218.809 273.14C219.088 272.442 230.288 266.197 231.823 265.918C233.358 265.639 239.255 269.395 239.255 269.395C239.255 269.395 243.116 266.232 246.489 266.232C246.489 266.232 250.164 266.883 252.978 268.651C252.978 268.651 257.851 264.592 261.55 265.452C265.248 266.301 277.855 275.384 273.447 274.861C269.028 274.349 261.038 270.639 260.852 270.791C255.746 274.966 254.525 273.384 248.477 270.814C246.058 269.79 241.581 274.268 239.487 273.582C238.697 273.314 231.358 271.023 231.358 271.023C231.358 271.023 218.135 274.838 218.809 273.14Z" fill="black" stroke="black" stroke-width="3.48902" stroke-miterlimit="10" stroke-linecap="round" stroke-linejoin="round"/>
</g>
</svg>
