<svg width="28" height="29" viewBox="0 0 28 29" fill="none" xmlns="http://www.w3.org/2000/svg">
<path d="M26.2456 28.5C11.3153 28.5212 -0.0159558 17.0541 1.68655e-05 2.25439C1.68655e-05 1.28789 0.783519 0.5 1.75002 0.5H6.36889C7.23614 0.5 7.97288 1.13723 8.10023 1.99508C8.40544 4.0511 9.00405 6.05269 9.87785 7.93873L10.0577 8.32688C10.3077 8.86659 10.1382 9.50785 9.65418 9.85353C8.22377 10.875 7.67711 12.9312 8.79147 14.5356C10.1899 16.549 11.9526 18.3113 13.9655 19.7091C15.5698 20.8231 17.6256 20.2765 18.6471 18.8464C18.993 18.3621 19.6347 18.1925 20.1747 18.4427L20.5611 18.6216C22.4472 19.4954 24.449 20.094 26.5052 20.3992C27.3631 20.5265 28 21.2632 28 22.1305V26.75C28 27.7165 27.2146 28.5 26.2481 28.5L26.2456 28.5Z" fill="#151515"/>
</svg>
