<svg width="22" height="22" viewBox="0 0 22 22" fill="none" xmlns="http://www.w3.org/2000/svg">
<path fill-rule="evenodd" clip-rule="evenodd" d="M18.7552 3.22954C18.9793 3.44774 19.0576 3.77552 18.9564 4.07148L13.6966 19.4524C13.5806 19.7918 13.255 20.0144 12.8966 19.9993C12.5382 19.9842 12.2325 19.735 12.1454 19.3871L10.2447 11.7954L2.65575 10.327C2.29953 10.258 2.03268 9.9605 2.00277 9.59891C1.97287 9.23732 2.1872 8.89999 2.52726 8.77347L17.9082 3.05083C18.2013 2.94176 18.5311 3.01134 18.7552 3.22954ZM11.8021 11.3495L13.0508 16.3372L16.8718 5.16392L5.79468 9.28527L10.6392 10.2227L12.6254 8.23653C12.9415 7.92039 13.454 7.92039 13.7702 8.23653C14.0863 8.55267 14.0863 9.06523 13.7702 9.38137L11.8021 11.3495Z" fill="white"/>
</svg>
